<svg width="222" height="245" viewBox="0 0 222 245" fill="none" xmlns="http://www.w3.org/2000/svg">
<g clip-path="url(#clip0_20_554)">
<path d="M110.94 23.1451C110.94 23.1451 78.6951 28.0351 71.5669 59.1423C64.4387 90.2431 38.3781 73.5272 31.7695 120.571C25.1545 167.615 43.352 216.262 43.352 216.262H180.72C180.72 216.262 206.819 170.725 200.577 124.068C194.336 77.4101 176.056 84.8021 168.276 54.474C160.495 24.1459 117.77 19.807 110.94 23.1451Z" fill="url(#paint0_linear_20_554)"/>
<path d="M188.545 164.771C188.545 164.771 208.282 159.666 216.804 143.742C225.206 128.039 220.929 116.72 220.809 116.397C220.802 116.391 220.803 116.391 220.803 116.391C217.615 121.597 207.706 126.126 199.165 132.942C186.118 143.362 188.545 164.771 188.545 164.771Z" fill="#C6D159"/>
<path d="M188.545 164.771C188.545 164.771 208.282 159.666 216.804 143.742C225.206 128.039 220.929 116.72 220.809 116.397C220.802 116.391 220.802 116.391 220.802 116.391C220.802 116.391 221.126 126.481 210.589 136.47C200.052 146.465 190.636 154.681 188.545 164.771Z" fill="#B7BC48"/>
<path d="M176.652 184.87C176.658 184.876 176.665 184.882 176.665 184.882C176.665 184.882 181.309 178.801 182.564 169.319C183.818 159.843 178.661 148.385 178.661 148.385C178.661 148.385 173.497 153.116 172.527 166.139C171.59 178.808 176.399 184.566 176.652 184.87Z" fill="#6DA43A"/>
<path d="M176.652 184.87C176.658 184.876 176.665 184.882 176.665 184.882C176.665 184.882 175.607 179.764 176.475 168.128C177.336 156.486 178.667 148.385 178.667 148.385C178.667 148.385 173.503 153.116 172.534 166.139C171.589 178.808 176.399 184.566 176.652 184.87Z" fill="#7BB444"/>
<path d="M176.861 200.439C177.051 200.433 177.21 200.287 177.241 200.091C179.326 184.965 188.818 165.145 188.913 164.942C189.008 164.74 188.925 164.505 188.722 164.404C188.52 164.309 188.285 164.391 188.184 164.594C188.089 164.79 178.547 184.73 176.443 199.983C176.411 200.205 176.563 200.407 176.785 200.433C176.811 200.439 176.836 200.445 176.861 200.439Z" fill="#C6D159"/>
<path d="M176.665 184.876L175.923 200.084" stroke="#7BB444" stroke-miterlimit="10" stroke-linecap="round"/>
<path d="M53.0526 216.528L51.6143 201.871" stroke="#7BB444" stroke-width="2" stroke-miterlimit="10" stroke-linecap="round"/>
<path d="M111.44 216.534H21.752C21.752 216.534 15.9798 210.751 17.7539 195.568C18.2038 191.742 19.7435 188.024 22.0878 184.743C29.0576 174.988 43.1049 169.091 56.5692 175.723C74.5702 184.591 78.8028 183.235 93.8955 190.298C103.457 194.77 107.943 204.106 109.945 210.346C111.111 213.956 111.44 216.534 111.44 216.534Z" fill="#357A5E"/>
<path d="M111.44 216.534H21.752C21.752 216.534 15.9798 210.751 17.7539 195.568C18.2038 191.742 19.7435 188.024 22.0878 184.743C25.3573 190.526 34.5827 200.61 59.8387 204.316C87.1348 208.319 102.538 201.592 109.951 210.346C111.111 213.956 111.44 216.534 111.44 216.534Z" fill="#2E6D52"/>
<path d="M43.5104 213.411C43.5104 213.411 27.8601 213.639 14.4274 203.315C1.00111 192.99 0 183.007 0 183.007C0.0950424 183.083 0.202757 183.159 0.316808 183.223C4.15018 185.579 17.8426 184.185 28.0819 190.292C37.5481 195.935 42.4459 210.061 43.3583 212.905C43.4597 213.228 43.5104 213.411 43.5104 213.411Z" fill="#7BB444"/>
<path d="M43.5104 213.411C43.5104 213.411 27.8601 213.639 14.4274 203.315C1.00111 192.99 0 183.007 0 183.007C0.0950424 183.083 0.202757 183.159 0.316808 183.223C2.243 187.346 8.12929 191.178 24.6413 199.54C35.3558 204.968 40.7668 209.89 43.352 212.905C43.4597 213.228 43.5104 213.411 43.5104 213.411Z" fill="#6DA43A"/>
<path d="M39.1828 183.007C39.1828 183.007 19.8702 179.01 10.8792 164.03C2.02126 149.259 5.60753 138.117 5.71524 137.8C5.72158 137.794 5.72158 137.794 5.72158 137.794C9.04806 142.678 18.8374 146.579 27.4166 152.762C40.5071 162.206 39.1828 183.007 39.1828 183.007Z" fill="#C6D159"/>
<path d="M39.1828 183.007C39.1828 183.007 19.8702 179.01 10.8792 164.03C2.02126 149.259 5.60753 138.117 5.71524 137.8C5.72158 137.794 5.72158 137.794 5.72158 137.794C5.72158 137.794 5.88632 147.555 16.5437 156.708C27.1948 165.867 36.6864 173.354 39.1828 183.007Z" fill="#B7BC48"/>
<path d="M51.6271 201.858C51.6207 201.864 51.6144 201.871 51.6144 201.871C51.6144 201.871 46.8369 196.214 45.1705 187.112C43.5104 178.01 47.9457 166.697 47.9457 166.697C47.9457 166.697 53.1604 171.023 54.7191 183.565C56.2334 195.764 51.8552 201.554 51.6271 201.858Z" fill="#6DA43A"/>
<path d="M51.627 201.858C51.6207 201.864 51.6143 201.871 51.6143 201.871C51.6143 201.871 52.3937 196.879 51.0061 185.674C49.6248 174.469 47.952 166.697 47.952 166.697C47.952 166.697 53.1667 171.023 54.7254 183.565C56.2334 195.764 51.8551 201.554 51.627 201.858Z" fill="#7BB444"/>
<path d="M52.1656 216.921C51.9819 216.921 51.8171 216.788 51.7854 216.604C49.0546 202.086 38.942 183.381 38.8407 183.197C38.7393 183.007 38.809 182.773 38.9991 182.672C39.1891 182.57 39.4236 182.64 39.525 182.83C39.6263 183.02 49.7959 201.826 52.5521 216.464C52.5901 216.674 52.4507 216.876 52.2416 216.921C52.2163 216.914 52.191 216.921 52.1656 216.921Z" fill="#C6D159"/>
<path d="M49.9163 216.528C49.9163 216.528 46.3046 213.836 43.352 212.905" stroke="#7BB444" stroke-width="2" stroke-miterlimit="10" stroke-linecap="round"/>
<path d="M90.5437 216.718C90.5437 216.718 91.6272 213.88 96.1195 212.385C100.612 210.89 102.443 212.385 102.443 212.385C102.443 212.385 105.028 205.81 111.434 205.31C117.84 204.81 121.337 209.053 121.337 209.053C121.337 209.053 123.916 205.557 129.41 206.475C134.903 207.394 136.151 213.69 136.405 216.528L90.5437 216.718Z" fill="#E57E70"/>
<path d="M162.465 172.79C159.418 172.942 157.542 176.268 157.542 176.268L156.547 177.807C156.801 175.881 157.118 174.038 157.53 172.334L158.854 171.194C158.854 171.194 161.889 168.869 161.61 165.835C161.331 162.801 158.423 161.889 156.573 163.726C155.084 165.202 156.205 170.212 156.706 172.119C156.338 173.658 156.034 175.318 155.793 177.047L155.508 175.951C155.508 175.951 154.773 172.201 151.922 171.105C149.077 170.01 146.967 172.214 147.797 174.684C148.494 176.762 153.899 177.991 155.622 178.339C155.331 180.759 155.141 183.28 155.027 185.788L154.615 184.737C154.615 184.737 153.43 181.101 150.471 180.36C147.512 179.612 145.687 182.057 146.809 184.414C147.74 186.377 153.183 186.954 154.976 187.093C154.894 189.525 154.875 191.92 154.9 194.155L154.247 192.914C154.247 192.914 152.67 189.43 149.647 189.018C146.625 188.6 145.079 191.229 146.454 193.446C147.607 195.308 153.164 195.27 154.913 195.207C155.02 201.858 155.464 206.881 155.47 206.989L156.326 206.913C156.313 206.805 155.876 201.782 155.768 195.15C157.232 195.004 163.181 194.27 164.094 192.173C165.133 189.779 163.232 187.397 160.298 188.246C157.371 189.088 156.307 192.762 156.307 192.762L155.762 194.301C155.736 192.034 155.749 189.601 155.838 187.131C157.206 187.144 163.34 187.099 164.487 185.091C165.786 182.83 164.151 180.252 161.148 180.771C158.144 181.291 156.681 184.819 156.681 184.819L155.857 186.516C155.965 183.824 156.155 181.094 156.471 178.491C157.916 178.681 163.891 179.333 165.266 177.503C166.825 175.394 165.513 172.638 162.465 172.79Z" fill="#7BB444"/>
<path d="M197.029 172.531C197.029 172.531 194.431 169.199 195.483 167.178C196.541 165.158 198.696 166.538 199.247 168.185C199.247 168.185 200.071 166.31 202.136 166.171C204.202 166.032 204.531 169.104 204.531 169.104C204.531 169.104 206.489 167.039 207.915 168.097C209.334 169.154 207.192 172.993 205.038 173.816C205.038 173.816 204.151 175.223 201.034 175.077C197.916 174.931 197.017 173.525 197.029 172.531Z" fill="#E57E70"/>
<path d="M204.804 178.453C202.763 178.713 201.217 180.727 200.52 181.81L200.66 177.617C203.023 177.604 205.044 173.81 205.044 173.81L201.743 175.071L200.457 172.955L199.171 174.545L197.029 172.524C197.029 172.524 197.15 176.407 199.842 177.465C199.88 177.484 199.925 177.49 199.963 177.503C199.861 178.364 199.697 179.65 199.462 181.145C199.006 179.878 198.011 177.807 196.231 177.11C193.601 176.071 192.195 176.135 192.195 176.135C192.195 176.135 193.082 180.41 195.984 181.943C197.428 182.703 198.607 182.57 199.253 182.393C198.974 183.983 198.436 187.435 198.005 189.094H200.577L200.489 182.773C201.04 183.115 202.181 183.596 203.847 183.197C207.047 182.431 208.954 178.504 208.954 178.504C208.954 178.504 207.604 178.098 204.804 178.453Z" fill="#C6D159"/>
<path d="M204.024 216.205L141.448 216.255C141.448 216.255 141.347 213.931 142.247 211.042C143.159 208.122 145.098 204.613 149.217 202.377C157.39 197.931 169.784 203.587 177.14 197.722C184.496 191.856 186.828 187.099 202.77 189.075C208.814 189.823 211.78 193.028 212.654 197.038C214.124 203.79 209.683 212.797 204.024 216.205Z" fill="#357A5E"/>
<path d="M204.024 216.205L141.448 216.255C141.448 216.255 141.347 213.931 142.247 211.042C146.935 212.354 156.744 212.974 177.191 209.402C197.365 205.88 207.547 200.901 212.648 197.038C214.124 203.79 209.682 212.797 204.024 216.205Z" fill="#2E6D52"/>
<path d="M66.0544 199.546C66.0544 199.546 63.0511 195.701 64.274 193.37C65.4969 191.039 67.9806 192.629 68.6142 194.536C68.6142 194.536 69.5647 192.376 71.9471 192.211C74.3295 192.046 74.716 195.593 74.716 195.593C74.716 195.593 76.978 193.212 78.619 194.428C80.2601 195.644 77.789 200.078 75.2989 201.028C75.2989 201.028 74.2724 202.656 70.6735 202.485C67.0746 202.32 66.0354 200.692 66.0544 199.546Z" fill="#E57E70"/>
<path d="M75.0265 206.387C72.6757 206.684 70.8826 209.009 70.0843 210.263L70.2427 205.424C72.9672 205.411 75.3052 201.034 75.3052 201.034L71.4909 202.491L70.0082 200.046L68.5256 201.883L66.0545 199.552C66.0545 199.552 66.1939 204.037 69.3049 205.253C69.3493 205.272 69.4 205.285 69.4443 205.297C69.3303 206.292 69.1402 207.774 68.8614 209.503C68.3291 208.04 67.1886 205.652 65.1357 204.841C62.1007 203.644 60.4786 203.714 60.4786 203.714C60.4786 203.714 61.4988 208.648 64.8569 210.415C66.5297 211.296 67.8856 211.144 68.6269 210.928C68.3038 212.765 67.8983 214.773 67.3977 216.693H69.8688L70.0462 211.365C70.6799 211.758 71.9978 212.316 73.924 211.853C77.6116 210.966 79.8229 206.437 79.8229 206.437C79.8229 206.437 78.2642 205.975 75.0265 206.387Z" fill="#C6D159"/>
<path d="M78.8218 88.5519C81.1279 88.5519 82.9974 86.6831 82.9974 84.3777C82.9974 82.0723 81.1279 80.2035 78.8218 80.2035C76.5158 80.2035 74.6463 82.0723 74.6463 84.3777C74.6463 86.6831 76.5158 88.5519 78.8218 88.5519Z" fill="url(#paint1_linear_20_554)"/>
<path d="M175.537 131.156C175.537 133.17 173.902 134.81 171.881 134.81C169.866 134.81 168.225 133.176 168.225 131.156C168.225 129.141 169.86 127.501 171.881 127.501C173.902 127.501 175.537 129.135 175.537 131.156Z" fill="url(#paint2_linear_20_554)"/>
<path d="M46.9319 130.047C46.9319 131.58 45.69 132.815 44.163 132.815C42.6297 132.815 41.3941 131.574 41.3941 130.047C41.3941 128.514 42.636 127.279 44.163 127.279C45.69 127.273 46.9319 128.514 46.9319 130.047Z" stroke="white" stroke-miterlimit="10"/>
<path d="M182.767 98.94C182.767 100.473 181.525 101.708 179.998 101.708C178.464 101.708 177.229 100.467 177.229 98.94C177.229 97.4071 178.471 96.1719 179.998 96.1719C181.525 96.1719 182.767 97.4134 182.767 98.94Z" stroke="white" stroke-miterlimit="10"/>
<path d="M161.42 66.7855C163.284 64.778 163.168 61.6397 161.16 59.776C159.152 57.9123 156.012 58.0288 154.148 60.0364C152.284 62.0439 152.4 65.1822 154.408 67.0459C156.417 68.9096 159.556 68.793 161.42 66.7855Z" stroke="white" stroke-miterlimit="10"/>
<path d="M40.7098 75.2755C40.7098 75.2755 48.6807 74.11 56.4615 65.7489C64.2423 57.3877 68.9184 50.0021 65.896 44.3646C62.88 38.7272 46.7355 45.1437 40.7098 58.4582C34.6841 71.7727 36.9525 76.3966 40.7098 75.2755Z" fill="url(#paint3_linear_20_554)"/>
<path d="M203.543 105.033C202.776 92.2448 191.137 75.9849 183.66 71.2596C177.919 67.6364 176.291 62.2777 174.042 54.8604C173.351 52.5737 172.565 49.9831 171.577 47.1897C167.49 35.5728 158.835 29.3273 158.752 29.2639L159.12 28.7445C159.209 28.8079 168.022 35.1611 172.179 46.9743C173.167 49.7867 173.953 52.3837 174.65 54.6767C176.944 62.2334 178.458 67.2247 183.996 70.7275C191.58 75.5162 203.397 92.0167 204.17 104.995L203.543 105.033Z" fill="url(#paint4_linear_20_554)"/>
<path d="M23.279 142.462C23.2537 142.152 20.998 111.007 38.5428 88.3619L39.0434 88.7483C21.6506 111.203 23.8873 142.101 23.9127 142.412L23.279 142.462Z" fill="url(#paint5_linear_20_554)"/>
<path d="M204.018 245H23.3424C13.0715 245 6.11438 234.542 10.0871 225.073C12.3301 219.733 17.5511 216.262 23.3424 216.262H204.018C209.48 216.262 214.473 219.359 216.899 224.249C221.633 233.801 214.682 245 204.018 245Z" fill="#7BB444"/>
<path d="M115.926 239.61C146.871 239.61 171.957 235.96 171.957 231.458C171.957 226.955 146.871 223.305 115.926 223.305C84.9815 223.305 59.8957 226.955 59.8957 231.458C59.8957 235.96 84.9815 239.61 115.926 239.61Z" fill="#6A9B37"/>
<path d="M165.925 132.815C165.925 141.556 163.72 149.791 159.849 156.986C154.203 167.457 145.009 175.723 133.877 180.17C131.855 180.993 129.765 181.677 127.623 182.228C123.561 183.273 119.297 183.824 114.9 183.824C86.723 183.824 63.8748 160.99 63.8748 132.815C63.8748 121.521 67.5498 111.07 73.7782 102.626C77.9664 96.9257 83.3205 92.1307 89.4792 88.5836C96.9622 84.2764 105.649 81.806 114.9 81.806C123.707 81.806 131.989 84.0356 139.224 87.9628C148.488 92.9922 156.015 100.802 160.691 110.272C163.036 115.01 164.658 120.172 165.418 125.601C165.754 127.957 165.925 130.364 165.925 132.815Z" fill="#B1E5FC"/>
<path d="M150.668 155.561L148.247 169.325L136.018 176.09L133.87 180.17C131.849 180.993 129.758 181.677 127.617 182.228V173.582H115.686L106.112 163.422L108.564 160.578L106.112 155.568L93.7055 156.993L82.3131 145.617L78.6571 136.59L70.9206 133.468C70.1159 125.873 73.7656 110.285 73.7656 110.285V102.633C77.9538 96.9321 83.3078 92.1371 89.4666 88.5899H104.287L108.557 85.7459H114.887V92.2574L104.281 96.7357L112.036 101.74L118.651 96.7357L127.604 99.9788L133.566 110.285L124.379 113.002V121.952C124.379 121.952 116.072 125.208 114.887 126.424C113.702 127.647 112.042 133.474 112.042 133.474C112.042 133.474 107.943 132.936 103.875 132.828C99.8008 132.727 93.6991 132.828 93.6991 132.828L88.4084 145.534L95.3845 151.229L102.24 145.623L121.768 143.913L131.957 151.229H141.708L150.668 155.561Z" fill="#B6BC3B"/>
<path d="M119.202 85.0618V91.0223L128.833 95.7729L130.734 99.0223L136.158 98.4839L132.768 90.0785L126.121 86.8227L124.765 85.0618H119.202Z" fill="#4D8C3F"/>
<path d="M160.679 110.278H156.357L152.296 104.989H145.244L139.218 87.9628C148.482 92.9922 156.009 100.802 160.679 110.278Z" fill="#B6BC3B"/>
<path d="M165.925 132.815C165.925 141.556 163.72 149.791 159.849 156.986L157.181 147.561L158.803 141.05L157.181 132.809L165.412 125.594C165.754 127.957 165.925 130.364 165.925 132.815Z" fill="#B6BC3B"/>
<path d="M191.048 112.349C191.048 112.349 190.072 108.726 193.139 104.4C196.205 100.08 200.672 99.8014 200.672 99.8014C200.672 99.8014 200.254 109.841 191.048 112.349Z" fill="#C6D159"/>
<path d="M159.095 35.7311C159.095 35.7311 158.347 32.9441 160.704 29.625C163.061 26.3059 166.489 26.0905 166.489 26.0905C166.489 26.0905 166.166 33.7992 159.095 35.7311Z" fill="#C4DDAB"/>
<path d="M46.2793 153.199C46.2793 153.199 45.5317 150.412 47.8887 147.092C50.2458 143.773 53.6736 143.558 53.6736 143.558C53.6736 143.558 53.3505 151.273 46.2793 153.199Z" fill="#C4DDAB"/>
<path d="M22.1322 138.801C22.1322 138.801 21.6633 137.072 23.1333 135.007C24.597 132.942 26.7259 132.809 26.7259 132.809C26.7259 132.809 26.5232 137.604 22.1322 138.801Z" fill="#C4DDAB"/>
<path d="M163.663 84.7957C163.663 84.7957 163.194 83.0665 164.664 81.0016C166.128 78.9366 168.257 78.8036 168.257 78.8036C168.257 78.8036 168.054 83.5986 163.663 84.7957Z" fill="#C4DDAB"/>
<path d="M182.881 132.359C182.881 132.359 182.139 129.604 184.471 126.31C186.803 123.023 190.199 122.807 190.199 122.807C190.199 122.807 189.882 130.446 182.881 132.359Z" fill="#C4DDAB"/>
<path d="M86.0894 55.3608C86.0894 55.3608 84.0428 64.1336 76.2557 65.1344C76.2557 65.1344 77.1681 57.204 86.0894 55.3608Z" fill="#C6D159"/>
<path d="M60.8715 98.2116C60.8715 98.2116 58.8249 106.984 51.0378 107.985C51.0378 107.992 51.9502 100.055 60.8715 98.2116Z" fill="#C6D159"/>
<path d="M130.373 34.3186C128.143 27.8641 122.89 24.7857 121.141 24.2979C120.001 23.9812 119.202 24.2599 118.784 24.488C118.366 24.2536 117.561 23.9749 116.427 24.2979C114.678 24.7857 109.426 27.8641 107.195 34.3186C104.965 40.7732 108.057 45.7835 109.527 48.1968C110.997 50.6101 118.448 52.3457 118.448 52.3457L119.722 51.6996C119.722 51.6996 124.968 49.0266 127.281 46.5879C129.207 44.523 132.61 40.7732 130.373 34.3186Z" fill="#003B4C"/>
<path d="M126.47 56.3046C126.47 56.3046 122.953 58.5216 118.778 59.0093C114.608 58.5216 111.086 56.3046 111.086 56.3046C111.086 56.3046 114.558 53.2008 114.78 51.6996C114.83 51.3639 114.843 50.9142 114.83 50.4138C114.792 48.6529 114.475 46.2902 114.475 46.2902L118.778 46.0242L123.08 46.2902C123.08 46.2902 122.56 50.1858 122.776 51.6933C122.801 51.8517 122.858 52.029 122.947 52.219C123.688 53.8279 126.47 56.3046 126.47 56.3046Z" fill="#FFA78C"/>
<path d="M122.776 51.6996C122.801 51.858 122.858 52.0353 122.947 52.2254C122.256 52.3394 121.325 52.3837 120.089 52.276C117.701 52.0543 115.876 51.1105 114.83 50.4138C114.792 48.6529 114.475 46.2902 114.475 46.2902L118.778 46.0242L123.08 46.2902C123.08 46.2966 122.56 50.1921 122.776 51.6996Z" fill="#DD8372"/>
<path d="M127.262 36.4216C127.243 34.1096 125.988 31.9686 123.948 30.8855C121.477 29.5807 118.93 29.4603 118.93 29.4603C118.93 29.4603 116.383 29.5807 113.911 30.8855C111.871 31.9623 110.617 34.1096 110.598 36.4216C110.591 37.6314 110.604 39.2466 110.686 41.2926C110.883 46.4106 116.535 49.4637 118.93 49.8627C121.325 49.4637 126.97 46.4043 127.173 41.2926C127.255 39.2466 127.274 37.6251 127.262 36.4216Z" fill="#FFA78C"/>
<path d="M129.993 83.4972C129.993 83.4972 134.542 92.3144 134.681 99.206L118.879 102.392L103.083 99.206C103.096 98.6233 103.14 98.0279 103.21 97.4261C103.957 90.8892 107.772 83.4909 107.772 83.4909C102.988 75.8582 101.816 68.8969 101.524 65.7805C101.423 64.6784 101.436 64.0576 101.436 64.0576L105.155 54.4677H112.948L118.885 57.1914L124.822 54.4677H132.622L136.341 64.0576C136.329 64.0576 136.468 73.1599 129.993 83.4972Z" fill="#EFD2B2"/>
<path d="M98.3816 35.8642L107.772 54.474C107.873 56.4566 106.992 58.7433 105.865 60.8082C104.065 64.1083 101.638 66.832 101.638 66.832C101.638 66.832 95.9802 55.4495 91.8553 43.8073C90.8986 41.1216 90.0305 38.4169 89.3335 35.8388C89.1688 35.2434 89.0104 34.6543 88.871 34.0716C88.4972 32.5577 88.7506 30.9995 89.5046 29.7073C89.9038 29.0169 90.4487 28.3962 91.114 27.9084L112.663 11.6866L115.755 15.3034L98.3816 35.8642Z" fill="#FFA78C"/>
<path d="M112.53 11.8259C112.53 11.8259 113.911 5.56775 114.222 3.57882C114.532 1.59622 115.362 1.17183 115.362 1.17183C115.362 1.17183 115.641 0.40539 116.015 0.32938C116.395 0.25337 116.465 1.32385 116.465 1.32385C116.465 1.32385 116.706 1.43786 117.016 1.89392C117.327 2.34999 117.257 3.45847 117.257 3.45847C117.257 3.45847 117.498 3.23044 117.637 4.02854C117.777 4.83299 117.396 7.53768 117.396 7.53768C117.396 7.53768 117.637 11.6992 117.187 13.4918C116.737 15.2844 115.103 16.2409 114.013 16.4689C112.923 16.7096 112.53 11.8259 112.53 11.8259Z" fill="#FFA78C"/>
<path d="M150.135 34.0653C149.983 34.6923 149.812 35.3321 149.628 35.9782C149.026 38.1191 148.285 40.3488 147.455 42.5784C142.994 54.626 136.126 66.8193 136.126 66.8193C136.126 66.8193 134.523 64.8114 133.053 62.1637C131.735 59.7947 130.525 56.9 130.658 54.4677L140.631 35.8578L119.247 15.7405L121.413 10.8061L146.79 28.3582C147.303 28.7382 147.816 29.1499 148.285 29.606C149.597 30.8475 150.553 32.3614 150.135 34.0653Z" fill="#FFA78C"/>
<path d="M121.813 11.4902C121.813 11.4902 120.431 5.23204 120.121 3.24311C119.81 1.26051 118.98 0.836118 118.98 0.836118C118.98 0.836118 118.702 0.0696818 118.328 -0.00632845C117.948 -0.0823387 117.878 0.988139 117.878 0.988139C117.878 0.988139 117.637 1.10215 117.327 1.55822C117.016 2.01428 117.086 3.12276 117.086 3.12276C117.086 3.12276 116.845 2.89473 116.706 3.69284C116.566 4.49728 116.946 7.20198 116.946 7.20198C116.946 7.20198 116.706 11.3635 117.156 13.1561C117.605 14.9487 119.24 15.9051 120.33 16.1332C121.413 16.3802 121.813 11.4902 121.813 11.4902Z" fill="#FFA78C"/>
<path d="M118.936 29.2766C118.936 29.2766 118.461 30.1824 116.623 31.6329C114.779 33.0835 113.335 33.5965 112.277 34.9837C111.219 36.3709 111.282 39.386 111.282 39.386C111.282 39.386 110.769 39.5063 110.198 37.7264C109.622 35.9465 110.262 30.9995 112.917 29.644C115.565 28.2822 118.936 29.2766 118.936 29.2766Z" fill="#003B4C"/>
<path d="M110.256 37.9164C110.256 37.9164 109.863 37.2767 109.166 37.6694C108.469 38.0621 107.987 39.6583 108.805 41.0772C109.622 42.4961 110.857 42.5594 110.857 42.5594L111.276 39.386C111.282 39.386 110.401 38.4168 110.256 37.9164Z" fill="#FFA78C"/>
<path d="M118.569 29.2766C118.569 29.2766 119.044 30.1824 120.881 31.6329C122.725 33.0835 124.17 33.5965 125.228 34.9837C126.286 36.3709 126.223 39.386 126.223 39.386C126.223 39.386 126.736 39.5063 127.306 37.7264C127.876 35.9465 127.243 30.9995 124.588 29.644C121.939 28.2822 118.569 29.2766 118.569 29.2766Z" fill="#003B4C"/>
<path d="M127.249 37.9164C127.249 37.9164 127.642 37.2767 128.339 37.6694C129.036 38.0621 129.517 39.6583 128.7 41.0772C127.883 42.4961 126.647 42.5594 126.647 42.5594L126.229 39.386C126.223 39.386 127.103 38.4168 127.249 37.9164Z" fill="#FFA78C"/>
<path d="M118.879 100.657C118.879 100.657 118.518 100.625 117.903 100.454L118.879 100.657Z" fill="#996500"/>
<path d="M126.47 77.2201C121.889 77.5431 120.045 76.5676 117.948 76.726C115.85 76.8907 115.521 77.7901 111.89 78.0372C108.253 78.2842 110.135 80.2415 110.541 83.0982C110.952 85.9549 106.378 90.5282 110.629 95.4245C113.601 98.8513 116.459 100.042 117.91 100.448L103.216 97.4261C103.964 90.8892 107.778 83.4909 107.778 83.4909C102.994 75.8582 101.936 69.9358 101.645 66.8193L102.887 65.3055C102.887 65.3055 103.235 71.7473 106.973 74.281C110.712 76.8147 116.94 73.7869 118.885 73.7109C120.837 73.6286 122.807 74.8511 126.476 74.6864C130.145 74.528 132.267 71.8297 132.926 71.912C133.573 72.0007 131.044 76.897 126.47 77.2201Z" fill="#DBBC9E"/>
<path d="M139.554 112.723C139.44 120.071 138.559 129.762 137.583 138.484C136.608 147.213 135.53 154.979 135.03 158.488L134.162 172.062L133.864 176.686L130.924 222.571H122.611C122.611 222.571 119.094 197.228 119.247 184.559C119.323 178.219 120.026 172.79 120.71 168.939C121.394 165.088 122.06 162.827 122.06 162.827C118.524 147.663 118.632 125.373 118.879 118.506C113.119 126.874 95.4162 139.872 87.7685 145.674C98.6287 153.243 116.566 169.908 116.566 169.908L114.247 173.937L113.126 175.881C113.126 175.881 79.2654 160.857 73.4741 153.8C71.3325 151.197 70.325 148.917 69.9132 147.073C69.2099 143.944 70.2173 142.095 70.2173 142.095C73.3664 134.012 92.1848 115.32 98.9835 108.726C101.081 98.2306 103.666 94.7721 103.666 94.7721C103.666 94.7721 110.61 98.4586 118.911 98.4586C122.579 98.4586 125.627 97.9519 128.009 97.3121C128.358 97.2234 128.694 97.1221 129.017 97.0271C132.394 95.9946 134.162 94.7784 134.162 94.7784C134.162 94.7784 137.381 99.073 139.554 112.723Z" fill="#996500"/>
<path d="M123.77 133.803C123.523 143.482 126.463 163.935 126.463 163.935C126.463 163.935 122.402 176.591 122.738 187.201C123.01 196.011 124.727 216.027 125.298 222.564H122.611C122.611 222.564 119.094 197.221 119.246 184.553C119.323 178.212 120.026 172.784 120.71 168.933C121.394 165.082 122.06 162.82 122.06 162.82C118.524 147.656 118.632 125.366 118.879 118.5C113.119 126.867 95.4162 139.865 87.7684 145.667C98.6286 153.237 116.566 169.902 116.566 169.902L114.247 173.93C113.74 173.259 113.164 172.398 112.505 171.283C107.968 163.568 85.0629 146.915 85.0629 146.915C85.0629 146.915 81.2675 146.301 80.6529 145.693C80.0383 145.078 80.6529 145.693 85.1896 142.627C89.7263 139.561 110.914 119.602 110.667 115.441C110.42 111.273 105.396 110.05 105.396 110.05C112.017 109.93 117.891 115.194 119.487 114.946C121.078 114.699 131.494 109.189 129.042 112.501C126.59 115.802 124.018 124.125 123.77 133.803Z" fill="#845503"/>
<path d="M122.174 177.585C120.907 182.564 120.907 183.014 120.907 184.914C120.907 186.814 119.646 189.981 119.646 189.981V191.432C119.646 191.432 118.005 192.059 117.821 190.526C117.821 190.526 117.631 190.292 117.384 189.994C117.118 189.671 116.788 189.265 116.554 188.987C116.104 188.442 116.104 188.081 116.104 188.081C116.104 188.081 115.831 187.625 115.286 186.453C114.741 185.275 115.47 179.029 114.925 177.946C114.38 176.863 113.113 175.869 113.113 175.869L114.665 173.164L116.554 169.896L122.167 171.796C122.174 171.796 123.441 172.613 122.174 177.585Z" fill="#FFA78C"/>
<path d="M142.443 238.21C142.583 238.875 141.702 239.002 140.682 238.736C140.593 239.192 139.833 239.261 138.958 239.046C138.927 239.584 138.078 239.66 137.114 239.394C137 239.363 136.886 239.325 136.779 239.293C136.728 239.42 136.633 239.54 136.506 239.648H136.5C136.044 240.028 135.15 240.23 134.098 240.028C132.514 239.724 131.551 239.065 131.146 238.729C130.411 238.647 129.758 238.526 129.232 238.349C125.703 237.171 125.538 236.671 125.538 236.671L123.637 236.234C122.776 236.031 122.186 235.245 122.237 234.365C122.427 231.16 123.017 225.009 123.017 225.009L122.852 222.577H130.404C130.404 222.577 130.392 222.881 130.449 223.381C130.544 224.338 130.873 226.023 131.919 227.784C133.516 230.463 139.053 233.738 140.561 235.587C140.669 235.72 140.764 235.847 140.859 235.967C141.296 236.132 142.38 236.607 142.754 237.323C143.032 237.849 142.842 238.127 142.443 238.21Z" fill="#FFA78C"/>
<path d="M107.068 43.1295C107.068 43.1295 107.987 46.0812 107.93 47.8928C107.867 49.7044 107.024 49.5207 106.961 52.8715C106.897 56.2222 109.654 56.9443 109.996 58.3315C110.344 59.7187 108.12 60.5042 108.475 62.7338C108.83 64.9634 111.048 64.7227 111.086 66.5343C111.124 68.3459 109.527 69.9738 110.598 71.4813C111.669 72.9888 112.936 73.1092 112.993 74.1987C112.993 74.1987 112.087 76.2509 112.568 77.8788C112.568 77.8788 114.076 79.1647 115.223 78.4299C115.223 78.4299 115.286 75.5225 114.919 74.376C114.558 73.2295 116.307 72.2034 116.427 69.8534C116.547 67.5034 115.096 67.5034 114.856 65.6919C114.615 63.8803 116.668 63.7599 116.788 60.8969C116.909 58.0275 114.007 55.8549 113.981 54.9491C113.956 54.0433 114.881 53.6506 114.805 51.2752C114.748 48.8999 107.068 43.1295 107.068 43.1295Z" fill="#003B4C"/>
<path d="M134.162 172.062L133.864 176.686C130.968 178.054 128.307 175.197 128.307 175.197C127.693 172.993 127.693 171.891 131.494 172.885C132.717 173.202 133.56 172.765 134.162 172.062Z" fill="#845503"/>
<path d="M73.4678 153.781C71.3262 151.178 70.3187 148.898 69.9069 147.054C71.1171 147.105 72.473 147.035 73.5438 146.662C75.9959 145.807 77.8017 151.596 73.4678 153.781Z" fill="#845503"/>
<path d="M134.162 172.062L133.864 176.686L130.924 222.571H129.41C128.599 210.821 133.864 176.686 134.162 172.062Z" fill="#AD6F02"/>
<path d="M139.554 112.723C139.44 120.071 138.559 129.762 137.583 138.484C136.608 147.213 135.53 154.979 135.03 158.488L134.162 172.062C134.46 167.438 131.532 163.276 132.027 158.665C132.514 154.047 138.546 129.198 136.335 114.617C134.681 103.71 130.842 98.7943 129.011 97.0081C132.388 95.9756 134.156 94.7594 134.156 94.7594C134.156 94.7594 137.381 99.073 139.554 112.723Z" fill="#AD6F02"/>
<path d="M105.858 60.8019C104.059 64.102 101.632 66.8257 101.632 66.8257C101.632 66.8257 95.9738 55.4431 91.849 43.8009C91.7539 42.6544 92.0011 42.2173 92.7487 42.8444C96.7912 46.2649 95.9358 52.162 100.91 55.3418C103.457 56.9697 104.978 59.1043 105.858 60.8019Z" fill="#F4917A"/>
<path d="M147.455 42.5847C142.994 54.6324 136.126 66.8257 136.126 66.8257C136.126 66.8257 134.523 64.8177 133.053 62.17C133.75 60.4091 135.334 57.4511 138.623 55.3481C143.603 52.162 142.747 46.2712 146.784 42.8508C147.094 42.5911 147.309 42.5087 147.455 42.5847Z" fill="#F4917A"/>
<path d="M91.5512 32.7351C91.5512 34.1729 90.6261 35.3954 89.3335 35.8325C89.1688 35.2371 89.0104 34.648 88.871 34.0653C88.4972 32.5514 88.7506 30.9932 89.5046 29.701C90.7021 30.1824 91.5512 31.3606 91.5512 32.7351Z" fill="#F4917A"/>
<path d="M150.135 34.0653C149.983 34.6923 149.812 35.3321 149.628 35.9782C149.495 36.0035 149.362 36.0099 149.236 36.0099C147.423 36.0099 145.953 34.5467 145.953 32.7351C145.953 31.2529 146.936 30.005 148.285 29.606C149.597 30.8475 150.553 32.3614 150.135 34.0653Z" fill="#F4917A"/>
<path d="M113.214 37.5364C113.214 37.5364 113.582 37.2577 114.748 37.093C115.914 36.9283 116.731 37.3147 116.731 37.3147C116.731 37.3147 116.427 36.4596 115.242 36.5229C114.051 36.5863 113.379 37.188 113.214 37.5364Z" fill="#003B4C"/>
<path d="M118.125 38.3978C118.125 38.3978 118.556 38.8096 118.613 40.3298C118.676 41.85 118.226 42.5594 118.366 42.9901C118.512 43.4209 119.899 43.6869 119.899 43.6869C119.899 43.6869 119.468 44.0543 118.594 43.9086C117.713 43.7629 117.656 43.2308 117.656 43.2308C117.656 43.2308 118.493 39.9877 118.125 38.3978Z" fill="#BC6958"/>
<path d="M116.725 38.7526C116.725 38.7526 116.281 38.9679 115.058 38.9236C113.835 38.8792 113.392 38.5562 113.392 38.5562C113.36 38.6892 113.043 38.8982 113.043 38.8982C113.246 38.9426 113.462 38.9172 113.601 38.8919C113.709 39.0059 114 39.2276 114.786 39.3923C115.876 39.614 116.661 39.3036 116.813 39.1073L116.725 38.7526Z" fill="#003B4C"/>
<path d="M124.512 37.5364C124.512 37.5364 124.144 37.2577 122.979 37.093C121.813 36.9283 120.995 37.3147 120.995 37.3147C120.995 37.3147 121.299 36.4596 122.484 36.5229C123.675 36.5863 124.347 37.188 124.512 37.5364Z" fill="#003B4C"/>
<path d="M121.002 38.7526C121.002 38.7526 121.445 38.9679 122.668 38.9236C123.891 38.8792 124.334 38.5562 124.334 38.5562C124.366 38.6892 124.683 38.8982 124.683 38.8982C124.48 38.9426 124.265 38.9172 124.125 38.8919C124.018 39.0059 123.726 39.2276 122.94 39.3923C121.851 39.614 121.065 39.3036 120.913 39.1073L121.002 38.7526Z" fill="#003B4C"/>
<path d="M116.858 45.2894C116.858 45.2894 117.669 45.3528 118.556 45.3971C119.443 45.4414 120.9 45.2261 120.9 45.2261C120.9 45.2261 120.121 45.9482 118.968 46.0242C117.821 46.1002 116.858 45.2894 116.858 45.2894Z" fill="#DD8372"/>
<path d="M117.181 13.5045C117.181 13.5045 116.465 12.8077 116.68 10.8061C116.896 8.80452 116.902 8.31679 116.642 6.27084C116.383 4.23124 117.086 2.88205 117.086 2.88205C117.086 2.88205 117.054 2.50834 117.137 2.16629C117.137 2.16629 117.099 1.95726 116.883 1.7229C116.674 1.48853 116.68 2.90106 116.68 2.90106C116.68 2.90106 116.136 3.36979 116.053 5.28904C115.971 7.2083 116.319 7.47434 116.256 8.69684C116.193 9.91933 115.844 10.2867 116.04 12.1046C116.237 13.9225 116.68 14.6383 116.68 14.6383C116.68 14.6383 117.042 14.0999 117.181 13.5045Z" fill="#DD8372"/>
<path d="M136.506 239.641C136.05 240.021 135.157 240.224 134.105 240.021C132.521 239.717 131.558 239.059 131.152 238.723C130.417 238.641 129.765 238.52 129.239 238.343C125.709 237.165 125.545 236.664 125.545 236.664L123.644 236.227C122.782 236.024 122.193 235.239 122.244 234.359C122.434 231.153 123.023 225.003 123.023 225.003L122.858 222.571H130.411C130.411 222.571 130.398 222.875 130.455 223.375C130.455 223.375 126.552 223.375 125 227.86C123.447 232.351 123.859 234.067 125 235.131C126.14 236.189 126.552 235.454 129.98 237.253C133.401 239.046 134.624 239.768 136.506 239.641Z" fill="#DD8372"/>
<path d="M122.174 177.585C120.907 182.564 120.907 183.014 120.907 184.914C120.907 186.814 119.646 189.981 119.646 189.981V191.432C119.646 191.432 118.005 192.059 117.821 190.526C117.821 190.526 117.631 190.292 117.384 189.994C119.418 188.955 119.925 185.566 119.842 182.95C119.76 180.341 120.945 177.566 120.495 176.014C119.354 172.062 114.672 173.164 114.672 173.164L116.56 169.896L122.174 171.796C122.174 171.796 123.441 172.613 122.174 177.585Z" fill="#DD8372"/>
<path d="M136.848 239.097C136.848 239.097 136.696 238.267 136.234 237.747C135.771 237.228 135.036 237.076 134.795 236.677C134.548 236.278 135.702 236.341 136.506 237.291C137.305 238.241 136.848 239.097 136.848 239.097Z" fill="#DD8372"/>
<path d="M138.66 238.59C138.66 238.59 138.534 237.925 138.166 237.5C137.792 237.082 137.203 236.956 137.007 236.633C136.81 236.309 137.735 236.36 138.388 237.127C139.034 237.893 138.66 238.59 138.66 238.59Z" fill="#DD8372"/>
<path d="M140.194 238.343C140.194 238.343 140.067 237.678 139.7 237.253C139.326 236.835 138.737 236.709 138.54 236.386C138.344 236.062 139.269 236.113 139.921 236.88C140.568 237.652 140.194 238.343 140.194 238.343Z" fill="#DD8372"/>
<path d="M141.753 238.127C141.753 238.127 141.626 237.462 141.258 237.038C140.885 236.62 140.295 236.493 140.099 236.17C139.902 235.847 140.827 235.898 141.48 236.664C142.126 237.437 141.753 238.127 141.753 238.127Z" fill="#DD8372"/>
</g>
<defs>
<linearGradient id="paint0_linear_20_554" x1="111.438" y1="263.44" x2="121.923" y2="-24.6315" gradientUnits="userSpaceOnUse">
<stop stop-color="#FFFDEC"/>
<stop offset="1" stop-color="#BFE8FF"/>
</linearGradient>
<linearGradient id="paint1_linear_20_554" x1="78.5996" y1="90.4502" x2="79.045" y2="78.2146" gradientUnits="userSpaceOnUse">
<stop stop-color="white"/>
<stop offset="1" stop-color="white"/>
</linearGradient>
<linearGradient id="paint2_linear_20_554" x1="171.69" y1="136.461" x2="172.08" y2="125.762" gradientUnits="userSpaceOnUse">
<stop stop-color="white"/>
<stop offset="1" stop-color="white"/>
</linearGradient>
<linearGradient id="paint3_linear_20_554" x1="36.9924" y1="58.8747" x2="66.8227" y2="58.8747" gradientUnits="userSpaceOnUse">
<stop stop-color="#FFFDEC"/>
<stop offset="1" stop-color="#BFE8FF"/>
</linearGradient>
<linearGradient id="paint4_linear_20_554" x1="158.758" y1="66.8919" x2="204.177" y2="66.8919" gradientUnits="userSpaceOnUse">
<stop stop-color="white"/>
<stop offset="1" stop-color="#BFE8FF"/>
</linearGradient>
<linearGradient id="paint5_linear_20_554" x1="23.1746" y1="115.413" x2="39.0436" y2="115.413" gradientUnits="userSpaceOnUse">
<stop stop-color="white"/>
<stop offset="1" stop-color="#BFE8FF"/>
</linearGradient>
<clipPath id="clip0_20_554">
<rect width="222" height="245" fill="white"/>
</clipPath>
</defs>
</svg>
