<svg width="20" height="20" viewBox="0 0 20 20" fill="none" xmlns="http://www.w3.org/2000/svg">
<circle opacity="0.3" cx="10" cy="10" r="10" fill="white"/>
<path d="M10.7079 10.002L12.8579 7.85705C12.9521 7.76289 13.0049 7.6352 13.0049 7.50205C13.0049 7.3689 12.9521 7.2412 12.8579 7.14705C12.7637 7.05289 12.6361 7 12.5029 7C12.3697 7 12.2421 7.05289 12.1479 7.14705L10.0029 9.29705L7.8579 7.14705C7.76375 7.05289 7.63605 7 7.5029 7C7.36975 7 7.24205 7.05289 7.1479 7.14705C7.05375 7.2412 7.00085 7.3689 7.00085 7.50205C7.00085 7.6352 7.05375 7.76289 7.1479 7.85705L9.2979 10.002L7.1479 12.147C7.10103 12.1935 7.06384 12.2488 7.03845 12.3098C7.01307 12.3707 7 12.436 7 12.502C7 12.5681 7.01307 12.6334 7.03845 12.6943C7.06384 12.7553 7.10103 12.8106 7.1479 12.857C7.19438 12.9039 7.24968 12.9411 7.31061 12.9665C7.37154 12.9919 7.43689 13.0049 7.5029 13.0049C7.56891 13.0049 7.63426 12.9919 7.69519 12.9665C7.75612 12.9411 7.81142 12.9039 7.8579 12.857L10.0029 10.707L12.1479 12.857C12.1944 12.9039 12.2497 12.9411 12.3106 12.9665C12.3715 12.9919 12.4369 13.0049 12.5029 13.0049C12.5689 13.0049 12.6343 12.9919 12.6952 12.9665C12.7561 12.9411 12.8114 12.9039 12.8579 12.857C12.9048 12.8106 12.942 12.7553 12.9673 12.6943C12.9927 12.6334 13.0058 12.5681 13.0058 12.502C13.0058 12.436 12.9927 12.3707 12.9673 12.3098C12.942 12.2488 12.9048 12.1935 12.8579 12.147L10.7079 10.002Z" fill="white"/>
</svg>
