<svg width="299" height="234" viewBox="0 0 299 234" fill="none" xmlns="http://www.w3.org/2000/svg">
<path d="M251.452 233.86H46.7631C42.4911 233.86 38.9964 230.365 38.9964 226.093C38.9964 221.821 42.4911 218.327 46.7631 218.327H251.452C255.724 218.327 259.218 221.821 259.218 226.093C259.218 230.365 255.724 233.86 251.452 233.86Z" fill="#609679"/>
<path d="M142.399 99.8344C142.399 99.8344 144.051 88.5656 148.515 83.0645C152.98 77.5634 160.643 63.3849 162.138 55.7219C161.583 67.6125 160.213 74.8314 156.023 81.1099C151.825 87.3884 143.673 95.3846 142.399 99.8344Z" fill="#337754"/>
<path d="M142.399 99.8344C142.399 99.8344 144.051 88.5656 148.515 83.0645C152.98 77.5634 160.643 63.3849 162.138 55.7219C161.583 67.6125 157.622 73.8763 153.431 80.1474C149.241 86.4333 143.673 95.3846 142.399 99.8344Z" fill="#337754"/>
<path d="M143.74 89.1135C143.74 89.1135 143.962 81.5319 147.197 73.5579C150.433 65.5765 155.097 61.4155 157.252 56.8843C159.414 52.3457 160.532 46.0153 160.532 46.0153C160.532 46.0153 161.265 55.2924 156.585 65.5098C151.914 75.7346 145.035 83.9752 143.74 89.1135Z" fill="#337754"/>
<path d="M143.74 89.1135C143.74 89.1135 143.962 81.5319 147.197 73.5579C150.433 65.5765 155.097 61.4155 157.252 56.8843C159.414 52.3457 160.532 46.0153 160.532 46.0153C160.532 46.0153 160.761 55.7959 154.771 65.3025C146.886 77.8373 145.035 83.9752 143.74 89.1135Z" fill="#337754"/>
<path d="M142.747 78.0965C142.747 78.0965 140.771 71.6773 143.362 62.2891C145.953 52.901 155.467 37.4268 155.482 32.5402C156.63 38.7743 154.483 50.1837 150.166 59.2535C145.85 68.3307 142.747 78.0965 142.747 78.0965Z" fill="#337754"/>
<path d="M142.747 78.0965C142.747 78.0965 140.771 71.6773 143.362 62.2891C145.953 52.901 155.467 37.4268 155.482 32.5402C156.63 38.7743 151.469 49.1546 147.153 58.2244C142.844 67.3016 142.747 78.0965 142.747 78.0965Z" fill="#337754"/>
<path d="M140.541 66.8351C140.541 66.8351 138.372 56.2697 141.319 47.3628C144.265 38.4559 146.783 26.8984 146.583 23.7147C148.574 29.5638 149.396 42.2911 146.464 48.6585C143.532 55.0407 140.201 61.9263 140.541 66.8351Z" fill="#337754"/>
<path d="M140.541 66.8351C140.541 66.8351 138.372 56.2697 141.319 47.3628C144.265 38.4559 146.783 26.8984 146.583 23.7147C148.574 29.5638 146.22 41.3434 143.288 47.7182C140.356 54.1004 140.201 61.9263 140.541 66.8351Z" fill="#337754"/>
<path d="M138.275 57.5284C138.275 57.5284 134.077 48.5105 135.506 40.5809C136.943 32.6513 136.876 15.9184 135.603 13.6528C139.097 22.2414 141.533 32.9178 140.467 38.53C139.401 44.1421 136.595 52.5752 138.275 57.5284Z" fill="#337754"/>
<path d="M138.275 57.5284C138.275 57.5284 134.077 48.5105 135.506 40.5809C136.943 32.6513 136.876 15.9184 135.603 13.6528C139.097 22.2414 138.964 32.3625 137.898 37.9747C136.839 43.5869 136.595 52.5752 138.275 57.5284Z" fill="#337754"/>
<path d="M133.552 46.9186C133.552 46.9186 126.777 31.5703 127.821 22.7893C128.858 14.0082 129.502 5.73805 128.488 4.75333C130.798 11.1725 132.271 21.3233 132.434 29.7415C132.597 38.1672 133.552 46.9186 133.552 46.9186Z" fill="#337754"/>
<path d="M133.552 46.9186C133.552 46.9186 126.777 31.5703 127.821 22.7893C128.858 14.0082 129.502 5.73805 128.488 4.75333C130.798 11.1725 129.095 19.4575 129.258 27.8832C129.42 36.3014 133.552 46.9186 133.552 46.9186Z" fill="#337754"/>
<path d="M127.377 35.139C127.377 35.139 125.778 12.8902 113.391 0C117.981 9.2771 119.729 14.719 120.521 19.2946C121.313 23.8776 124.526 30.9409 127.377 35.139Z" fill="#337754"/>
<path d="M127.377 35.139C127.377 35.139 121.55 12.5348 113.391 0C117.981 9.2771 119.729 14.719 120.521 19.2946C121.313 23.8776 124.526 30.9409 127.377 35.139Z" fill="#337754"/>
<path d="M124.297 30.3856C124.297 30.3856 114.916 6.50062 96.0509 0.940277C103.588 7.25581 120.136 24.27 124.297 30.3856Z" fill="#337754"/>
<path d="M124.297 30.3856C124.297 30.3856 111.829 9.52882 96.0509 0.940277C103.588 7.25581 120.136 24.27 124.297 30.3856Z" fill="#337754"/>
<path d="M128.665 37.6859C128.665 37.6859 124.756 28.9419 117.026 26.8392C109.289 24.7365 101.915 25.0104 97.9982 20.3089C104.136 28.2607 111.044 30.1783 116.471 31.6813C121.898 33.1843 126.244 35.6869 128.665 37.6859Z" fill="#337754"/>
<path d="M128.665 37.6859C128.665 37.6859 123.69 31.0224 115.953 28.9197C108.216 26.817 101.915 25.0104 97.9908 20.3089C104.129 28.2607 111.036 30.1783 116.464 31.6813C121.898 33.1843 126.244 35.6869 128.665 37.6859Z" fill="#337754"/>
<path d="M132.308 44.3865C132.308 44.3865 130.22 37.9006 119.196 34.7021C108.171 31.5036 104.839 31.1409 100.175 26.2173C104.906 33.1769 109.926 36.0348 116.952 37.9599C123.979 39.8923 128.465 41.6914 132.308 44.3865Z" fill="#337754"/>
<path d="M132.308 44.3865C132.308 44.3865 129.191 39.5073 118.166 36.3014C107.142 33.1029 104.839 31.1335 100.175 26.2173C104.906 33.1769 109.926 36.0348 116.952 37.9599C123.979 39.8923 128.465 41.6914 132.308 44.3865Z" fill="#337754"/>
<path d="M136.698 54.9074C136.698 54.9074 135.825 47.4813 126.444 44.1051C117.056 40.7289 109.933 39.337 107.105 36.4939C110.326 41.2324 115.842 44.0089 123.29 46.6965C130.738 49.3841 135.255 52.6863 136.698 54.9074Z" fill="#337754"/>
<path d="M136.698 54.9074C136.698 54.9074 135.262 48.6807 125.874 45.3045C116.486 41.9283 109.926 39.337 107.105 36.5013C110.326 41.2398 115.842 44.0163 123.29 46.7039C130.738 49.3841 135.255 52.6862 136.698 54.9074Z" fill="#337754"/>
<path d="M140.215 64.8064C140.215 64.8064 136.965 59.2683 129.102 56.4919C121.239 53.7154 114.968 49.7987 111.155 43.7719C113.761 45.9043 116.804 47.8885 123.171 50.1541C129.539 52.4271 138.357 56.0106 140.215 64.8064Z" fill="#337754"/>
<path d="M140.215 64.8064C140.215 64.8064 136.965 59.2683 129.102 56.4919C121.239 53.7154 114.968 49.7987 111.155 43.7719C113.761 45.9043 116.367 49.6358 122.735 51.9014C129.102 54.167 138.357 56.0106 140.215 64.8064Z" fill="#337754"/>
<path d="M142.962 78.3112C142.962 78.3112 141.459 71.7661 132.871 67.8124C124.282 63.8661 117.545 62.141 114.442 53.1601C118.485 57.7505 124.112 59.8754 129.628 61.8671C135.136 63.8587 143.044 69.619 142.962 78.3112Z" fill="#337754"/>
<path d="M142.962 78.3112C142.962 78.3112 141.459 71.7661 132.871 67.8124C124.282 63.8661 117.545 62.141 114.442 53.1601C118.485 57.7505 123.438 61.4895 128.947 63.4811C134.462 65.4728 143.044 69.619 142.962 78.3112Z" fill="#337754"/>
<path d="M143.614 85.6114C143.614 85.6114 143.029 77.3857 135.151 71.618C127.273 65.8578 118.877 65.1618 115.079 59.8532C117.411 65.9985 124.489 69.7597 129.85 72.2992C135.225 74.8387 143.155 81.6429 143.614 85.6114Z" fill="#337754"/>
<path d="M143.614 85.6114C143.614 85.6114 142.896 78.5629 135.025 72.8027C127.147 67.0424 118.27 66.3539 115.086 59.8532C117.419 65.9985 124.497 69.7597 129.857 72.2992C135.225 74.8387 143.155 81.6429 143.614 85.6114Z" fill="#337754"/>
<path d="M143.488 91.9344C143.488 91.9344 144.561 83.2126 134.129 76.9563C123.697 70.6999 122.475 73.6763 115.464 65.495C119.544 74.7647 125.541 76.7563 132.204 80.2806C138.875 83.7975 142.125 87.9733 143.488 91.9344Z" fill="#337754"/>
<path d="M143.488 91.9344C143.488 91.9344 144.354 84.9081 133.922 78.6518C123.49 72.3954 122.475 73.6763 115.464 65.495C119.544 74.7647 125.541 76.7563 132.204 80.2806C138.875 83.7975 142.125 87.9733 143.488 91.9344Z" fill="#337754"/>
<path d="M143.488 99.4494C143.488 99.4494 144.561 90.7275 134.129 84.4712C123.697 78.2149 122.475 81.1913 115.464 73.01C119.544 82.2797 125.541 84.2713 132.204 87.7956C138.875 91.3199 142.125 95.4883 143.488 99.4494Z" fill="#337754"/>
<path d="M143.488 99.4494C143.488 99.4494 144.354 92.423 133.922 86.1667C123.49 79.9104 122.475 81.1913 115.464 73.01C119.544 82.2797 125.541 84.2713 132.204 87.7956C138.875 91.3199 142.125 95.4883 143.488 99.4494Z" fill="#337754"/>
<path d="M143.488 107.853C143.488 107.853 144.561 99.131 134.129 92.8747C123.697 86.6184 122.475 89.5947 115.464 81.4134C119.544 90.6831 125.541 92.6748 132.204 96.199C138.875 99.7159 142.125 103.892 143.488 107.853Z" fill="#337754"/>
<path d="M143.488 107.853C143.488 107.853 144.354 100.826 133.922 94.5702C123.49 88.3139 122.475 89.5947 115.464 81.4134C119.544 90.6831 125.541 92.6748 132.204 96.199C138.875 99.7159 142.125 103.892 143.488 107.853Z" fill="#337754"/>
<path d="M141.852 104.247C142.459 102.47 142.836 100.701 143.162 98.9015C143.473 97.1097 143.703 95.2958 143.843 93.4892C144.132 89.8613 144.102 86.226 143.836 82.6055C143.569 78.9849 143.058 75.3941 142.34 71.8402C142.148 70.9517 141.985 70.0632 141.77 69.1822L141.126 66.5464C140.637 64.8065 140.171 63.0517 139.593 61.334C137.417 54.4262 134.462 47.7849 131.079 41.4027L130.45 40.2033L129.783 39.026L128.443 36.6716C127.54 35.1094 126.57 33.5842 125.63 32.0367C124.645 30.5189 123.653 29.0159 122.646 27.5129C121.602 26.0396 120.528 24.5884 119.44 23.1446C120.417 24.6624 121.409 26.1654 122.431 27.6536L125.348 32.207C126.266 33.7618 127.221 35.2871 128.11 36.8567L129.42 39.2185L130.079 40.4032L130.701 41.6026C134.018 47.9996 136.891 54.6335 138.994 61.5265C139.549 63.2368 139.993 64.9842 140.467 66.7167L141.082 69.3451C141.296 70.2187 141.444 71.1072 141.629 71.9883C142.311 75.5199 142.784 79.0886 143.014 82.6721C143.236 86.2556 143.236 89.8539 142.918 93.4226C142.77 95.2069 142.525 96.9839 142.2 98.7386C141.874 100.486 141.467 102.255 140.896 103.892L141.852 104.247Z" fill="#337754"/>
<path d="M155.823 99.8344C155.823 99.8344 154.172 88.5656 149.707 83.0645C145.243 77.5634 137.579 63.3849 136.084 55.7219C136.639 67.6125 138.009 74.8314 142.2 81.1099C146.39 87.3884 154.542 95.3846 155.823 99.8344Z" fill="#337754"/>
<path d="M155.823 99.8344C155.823 99.8344 154.172 88.5656 149.707 83.0645C145.243 77.5634 137.579 63.3849 136.084 55.7219C136.639 67.6125 140.6 73.8763 144.791 80.1474C148.982 86.4333 154.542 95.3846 155.823 99.8344Z" fill="#337754"/>
<path d="M154.483 89.1135C154.483 89.1135 154.261 81.5319 151.025 73.5579C147.789 65.5765 143.125 61.4155 140.97 56.8843C138.809 52.3457 137.691 46.0153 137.691 46.0153C137.691 46.0153 136.958 55.2924 141.637 65.5098C146.309 75.7346 153.18 83.9752 154.483 89.1135Z" fill="#337754"/>
<path d="M154.483 89.1135C154.483 89.1135 154.261 81.5319 151.025 73.5579C147.789 65.5765 143.125 61.4155 140.97 56.8843C138.809 52.3457 137.691 46.0153 137.691 46.0153C137.691 46.0153 137.461 55.7959 143.451 65.3025C151.336 77.8373 153.18 83.9752 154.483 89.1135Z" fill="#337754"/>
<path d="M155.475 78.0965C155.475 78.0965 157.452 71.6773 154.86 62.2891C152.269 52.901 142.755 37.4268 142.74 32.5402C141.592 38.7743 143.74 50.1837 148.056 59.2535C152.365 68.3307 155.475 78.0965 155.475 78.0965Z" fill="#337754"/>
<path d="M155.475 78.0965C155.475 78.0965 157.452 71.6773 154.86 62.2891C152.269 52.901 142.755 37.4268 142.74 32.5402C141.592 38.7743 146.753 49.1546 151.069 58.2244C155.378 67.3016 155.475 78.0965 155.475 78.0965Z" fill="#337754"/>
<path d="M157.674 66.8351C157.674 66.8351 159.843 56.2697 156.896 47.3628C153.95 38.4559 151.432 26.8984 151.632 23.7147C149.64 29.5638 148.819 42.2911 151.751 48.6585C154.69 55.0407 158.022 61.9263 157.674 66.8351Z" fill="#337754"/>
<path d="M157.674 66.8351C157.674 66.8351 159.843 56.2697 156.896 47.3628C153.95 38.4559 151.432 26.8984 151.632 23.7147C149.64 29.5638 151.995 41.3434 154.927 47.7182C157.859 54.1004 158.022 61.9263 157.674 66.8351Z" fill="#337754"/>
<path d="M159.939 57.5284C159.939 57.5284 164.137 48.5105 162.708 40.5809C161.272 32.6513 161.339 15.9184 162.612 13.6528C159.117 22.2414 156.682 32.9178 157.748 38.53C158.821 44.1421 161.627 52.5752 159.939 57.5284Z" fill="#337754"/>
<path d="M159.939 57.5284C159.939 57.5284 164.137 48.5105 162.708 40.5809C161.272 32.6513 161.339 15.9184 162.612 13.6528C159.117 22.2414 159.251 32.3625 160.317 37.9747C161.383 43.5869 161.627 52.5752 159.939 57.5284Z" fill="#337754"/>
<path d="M164.67 46.9186C164.67 46.9186 171.445 31.5703 170.401 22.7893C169.364 14.0082 168.72 5.73805 169.735 4.75333C167.425 11.1725 165.951 21.3233 165.788 29.7415C165.618 38.1672 164.67 46.9186 164.67 46.9186Z" fill="#337754"/>
<path d="M164.67 46.9186C164.67 46.9186 171.445 31.5703 170.401 22.7893C169.364 14.0082 168.72 5.73805 169.735 4.75333C167.425 11.1725 169.128 19.4575 168.965 27.8832C168.802 36.3014 164.67 46.9186 164.67 46.9186Z" fill="#337754"/>
<path d="M170.845 35.139C170.845 35.139 172.445 12.8902 184.831 0C180.241 9.2771 178.494 14.719 177.701 19.2946C176.909 23.8776 173.688 30.9409 170.845 35.139Z" fill="#337754"/>
<path d="M170.845 35.139C170.845 35.139 176.672 12.5348 184.831 0C180.241 9.2771 178.494 14.719 177.701 19.2946C176.909 23.8776 173.688 30.9409 170.845 35.139Z" fill="#337754"/>
<path d="M173.918 30.3856C173.918 30.3856 183.299 6.50062 202.164 0.940277C194.634 7.25581 178.086 24.27 173.918 30.3856Z" fill="#337754"/>
<path d="M173.918 30.3856C173.918 30.3856 186.386 9.52882 202.164 0.940277C194.634 7.25581 178.086 24.27 173.918 30.3856Z" fill="#337754"/>
<path d="M169.557 37.6859C169.557 37.6859 173.466 28.9419 181.196 26.8392C188.933 24.7365 196.307 25.0104 200.224 20.3089C194.086 28.2607 187.178 30.1783 181.751 31.6813C176.324 33.1843 171.978 35.6869 169.557 37.6859Z" fill="#337754"/>
<path d="M169.557 37.6859C169.557 37.6859 174.532 31.0224 182.27 28.9197C190.007 26.817 196.307 25.0104 200.231 20.3089C194.094 28.2607 187.186 30.1783 181.759 31.6813C176.324 33.1843 171.978 35.6869 169.557 37.6859Z" fill="#337754"/>
<path d="M165.914 44.3865C165.914 44.3865 168.002 37.9006 179.027 34.7021C190.051 31.5036 193.383 31.1409 198.047 26.2173C193.316 33.1769 188.296 36.0348 181.27 37.9599C174.236 39.8923 169.757 41.6914 165.914 44.3865Z" fill="#337754"/>
<path d="M165.914 44.3865C165.914 44.3865 169.031 39.5073 180.056 36.3014C191.08 33.1029 193.383 31.1335 198.047 26.2173C193.316 33.1769 188.296 36.0348 181.27 37.9599C174.236 39.8923 169.757 41.6914 165.914 44.3865Z" fill="#337754"/>
<path d="M161.516 54.9074C161.516 54.9074 162.39 47.4813 171.771 44.1051C181.159 40.7289 188.281 39.337 191.11 36.4939C187.889 41.2324 182.373 44.0089 174.925 46.6965C167.484 49.3841 162.967 52.6863 161.516 54.9074Z" fill="#337754"/>
<path d="M161.516 54.9074C161.516 54.9074 162.953 48.6807 172.341 45.3045C181.729 41.9283 188.289 39.337 191.11 36.5013C187.889 41.2398 182.373 44.0163 174.925 46.7039C167.484 49.3841 162.967 52.6862 161.516 54.9074Z" fill="#337754"/>
<path d="M157.999 64.8064C157.999 64.8064 161.25 59.2683 169.113 56.4919C176.976 53.7154 183.247 49.7987 187.06 43.7719C184.454 45.9043 181.411 47.8885 175.043 50.1541C168.683 52.4271 159.865 56.0106 157.999 64.8064Z" fill="#337754"/>
<path d="M157.999 64.8064C157.999 64.8064 161.25 59.2683 169.113 56.4919C176.976 53.7154 183.247 49.7987 187.06 43.7719C184.454 45.9043 181.847 49.6358 175.48 51.9014C169.12 54.1744 159.865 56.0106 157.999 64.8064Z" fill="#337754"/>
<path d="M155.26 78.3112C155.26 78.3112 156.763 71.7661 165.352 67.8124C173.94 63.8661 180.678 62.141 183.78 53.1601C179.737 57.7505 174.11 59.8754 168.595 61.8671C163.086 63.8587 155.179 69.619 155.26 78.3112Z" fill="#337754"/>
<path d="M155.26 78.3112C155.26 78.3112 156.763 71.7661 165.352 67.8124C173.94 63.8661 180.678 62.141 183.78 53.1601C179.737 57.7505 174.784 61.4895 169.276 63.4811C163.76 65.4728 155.179 69.619 155.26 78.3112Z" fill="#337754"/>
<path d="M154.601 85.6114C154.601 85.6114 155.186 77.3857 163.064 71.618C170.934 65.8578 179.338 65.1618 183.136 59.8532C180.804 65.9985 173.725 69.7597 168.365 72.2992C162.997 74.8387 155.068 81.6429 154.601 85.6114Z" fill="#337754"/>
<path d="M154.601 85.6114C154.601 85.6114 155.319 78.5629 163.19 72.8027C171.067 67.0424 179.945 66.3539 183.128 59.8532C180.796 65.9985 173.718 69.7597 168.358 72.2992C162.997 74.8387 155.068 81.6429 154.601 85.6114Z" fill="#337754"/>
<path d="M154.727 91.9344C154.727 91.9344 153.653 83.2126 164.085 76.9563C174.518 70.6999 175.739 73.6763 182.751 65.495C178.671 74.7647 172.674 76.7563 166.01 80.2806C159.347 83.7975 156.089 87.9733 154.727 91.9344Z" fill="#337754"/>
<path d="M154.727 91.9344C154.727 91.9344 153.861 84.9081 164.293 78.6518C174.725 72.3954 175.739 73.6763 182.751 65.495C178.671 74.7647 172.674 76.7563 166.011 80.2806C159.347 83.7975 156.089 87.9733 154.727 91.9344Z" fill="#337754"/>
<path d="M154.727 100.486C154.727 100.486 153.653 91.7641 164.085 85.5078C174.518 79.2515 175.739 82.2279 182.751 74.0465C178.671 83.3162 172.674 85.3079 166.01 88.8322C159.347 92.3564 156.089 96.5248 154.727 100.486Z" fill="#337754"/>
<path d="M154.727 100.486C154.727 100.486 153.861 93.4596 164.293 87.2033C174.725 80.947 175.739 82.2279 182.751 74.0465C178.671 83.3162 172.674 85.3079 166.011 88.8322C159.347 92.3564 156.089 96.5248 154.727 100.486Z" fill="#337754"/>
<path d="M154.727 109.045C154.727 109.045 153.653 100.323 164.085 94.0667C174.518 87.8104 175.739 90.7868 182.751 82.6055C178.671 91.8752 172.674 93.8668 166.01 97.3911C159.347 100.908 156.089 105.084 154.727 109.045Z" fill="#337754"/>
<path d="M154.727 109.045C154.727 109.045 153.861 102.019 164.293 95.7622C174.725 89.5059 175.739 90.7868 182.751 82.6055C178.671 91.8752 172.674 93.8668 166.011 97.3911C159.347 100.908 156.089 105.084 154.727 109.045Z" fill="#337754"/>
<path d="M156.363 104.247C155.756 102.47 155.378 100.701 155.053 98.9015C154.742 97.1097 154.512 95.2958 154.372 93.4892C154.083 89.8613 154.112 86.226 154.379 82.6055C154.645 78.9849 155.156 75.3941 155.875 71.8402C156.067 70.9517 156.23 70.0632 156.445 69.1822L157.089 66.5464C157.577 64.8065 158.044 63.0517 158.621 61.334C160.798 54.4262 163.752 47.7849 167.136 41.4027L167.765 40.2033L168.432 39.026L169.772 36.6716C170.675 35.1094 171.645 33.5842 172.585 32.0367C173.57 30.5189 174.562 29.0159 175.569 27.5129C176.613 26.0396 177.686 24.5884 178.775 23.1446C177.798 24.6624 176.805 26.1654 175.784 27.6536L172.866 32.207C171.948 33.7618 170.993 35.2871 170.105 36.8567L168.794 39.2185L168.135 40.4032L167.513 41.6026C164.197 47.9996 161.324 54.6335 159.221 61.5265C158.666 63.2368 158.222 64.9842 157.748 66.7167L157.133 69.3451C156.918 70.2187 156.77 71.1072 156.585 71.9883C155.904 75.5199 155.43 79.0886 155.201 82.6721C154.979 86.2556 154.979 89.8539 155.297 93.4226C155.445 95.2069 155.689 96.9839 156.015 98.7386C156.341 100.486 156.748 102.255 157.318 103.892L156.363 104.247Z" fill="#337754"/>
<path d="M197.063 87.2625C197.033 87.0404 194.516 64.6436 210.501 40.4402L211.093 40.8326C195.263 64.8065 197.744 86.9516 197.766 87.1737L197.063 87.2625Z" fill="#5E8900"/>
<path d="M202.068 57.6913L201.942 57.3951C198.699 49.7765 200.461 39.8553 200.476 39.7516L201.179 39.8775C201.164 39.9737 199.484 49.4359 202.475 56.8176C211.722 53.9523 216.313 47.2444 216.365 47.1703L216.957 47.5702C216.912 47.6442 212.07 54.7075 202.371 57.5951L202.068 57.6913Z" fill="#5E8900"/>
<path d="M202.667 56.292L202.578 55.633C201.86 50.4799 205.821 38.8484 205.992 38.3523L206.665 38.5818C206.628 38.6929 202.934 49.5396 203.223 54.8482C208.961 49.7395 213.973 44.2828 214.025 44.2236L214.551 44.7049C214.499 44.7641 209.153 50.5836 203.171 55.8477L202.667 56.292Z" fill="#5E8900"/>
<path d="M202.593 40.3513C202.253 41.5433 201.009 42.2319 199.817 41.8913C198.625 41.5507 197.936 40.3069 198.277 39.1149C198.617 37.9228 199.861 37.2343 201.053 37.5748C202.245 37.9228 202.934 39.1667 202.593 40.3513Z" fill="#FFCE00"/>
<path d="M213.61 40.0922C213.27 41.2842 212.026 41.9728 210.834 41.6322C209.642 41.2916 208.953 40.0478 209.294 38.8557C209.634 37.6637 210.878 36.9752 212.07 37.3157C213.262 37.6563 213.951 38.9002 213.61 40.0922Z" fill="#FFCE00"/>
<path d="M208.776 37.723C208.435 38.915 207.191 39.6035 205.999 39.263C204.807 38.9224 204.118 37.6785 204.459 36.4865C204.8 35.2945 206.043 34.6059 207.236 34.9465C208.428 35.2871 209.116 36.5309 208.776 37.723Z" fill="#FFCE00"/>
<path d="M217.016 44.4753C216.675 45.6673 215.432 46.3559 214.24 46.0153C213.048 45.6748 212.359 44.4309 212.7 43.2389C213.04 42.0468 214.284 41.3583 215.476 41.6988C216.675 42.0394 217.364 43.2833 217.016 44.4753Z" fill="#FFCE00"/>
<path d="M218.26 49.0953C217.919 50.2874 216.676 50.9759 215.483 50.6354C214.291 50.2948 213.603 49.0509 213.943 47.8589C214.284 46.6669 215.528 45.9783 216.72 46.3189C217.912 46.6669 218.601 47.9033 218.26 49.0953Z" fill="#FFCE00"/>
<path d="M101.16 87.2625C101.189 87.0404 103.707 64.6436 87.7216 40.4402L87.1293 40.8326C102.959 64.8065 100.479 86.9516 100.456 87.1737L101.16 87.2625Z" fill="#5E8900"/>
<path d="M96.1546 57.6913L96.2805 57.3951C99.5234 49.7765 97.7613 39.8553 97.7465 39.7516L97.0431 39.8775C97.0579 39.9737 98.7386 49.4359 95.7474 56.8176C86.5 53.9523 81.9095 47.2444 81.8577 47.1703L81.2654 47.5702C81.3098 47.6442 86.152 54.7075 95.8511 57.5951L96.1546 57.6913Z" fill="#5E8900"/>
<path d="M95.5549 56.292L95.6438 55.633C96.362 50.4799 92.4009 38.8484 92.2306 38.3523L91.5568 38.5818C91.5938 38.6929 95.2884 49.5396 94.9996 54.8482C89.2616 49.7395 84.2492 44.2828 84.1973 44.2236L83.6717 44.7049C83.7235 44.7641 89.0691 50.5836 95.0515 55.8477L95.5549 56.292Z" fill="#5E8900"/>
<path d="M95.629 40.3513C95.9696 41.5433 97.2134 42.2319 98.4055 41.8913C99.5975 41.5507 100.286 40.3069 99.9455 39.1149C99.6049 37.9228 98.361 37.2343 97.169 37.5748C95.9696 37.9228 95.281 39.1667 95.629 40.3513Z" fill="#FFCE00"/>
<path d="M84.6119 40.0922C84.9525 41.2842 86.1964 41.9728 87.3884 41.6322C88.5804 41.2916 89.269 40.0478 88.9284 38.8557C88.5878 37.6637 87.344 36.9752 86.1519 37.3157C84.9599 37.6563 84.2713 38.9002 84.6119 40.0922Z" fill="#FFCE00"/>
<path d="M89.4467 37.723C89.7872 38.915 91.0311 39.6035 92.2231 39.263C93.4152 38.9224 94.1037 37.6785 93.7632 36.4865C93.4226 35.2945 92.1787 34.6059 90.9867 34.9465C89.7947 35.2871 89.1061 36.5309 89.4467 37.723Z" fill="#FFCE00"/>
<path d="M81.1987 44.4753C81.5393 45.6673 82.7832 46.3559 83.9752 46.0153C85.1672 45.6748 85.8558 44.4309 85.5152 43.2389C85.1746 42.0468 83.9308 41.3583 82.7388 41.6988C81.5467 42.0394 80.8582 43.2833 81.1987 44.4753Z" fill="#FFCE00"/>
<path d="M79.9623 49.0953C80.3028 50.2874 81.5467 50.9759 82.7387 50.6354C83.9308 50.2948 84.6193 49.0509 84.2787 47.8589C83.9382 46.6669 82.6943 45.9783 81.5023 46.3189C80.3102 46.6669 79.6217 47.9033 79.9623 49.0953Z" fill="#FFCE00"/>
<path d="M228.011 190.828L228.492 191.428C228.751 191.221 254.813 170.46 278.195 168.328L278.128 167.565C254.509 169.713 228.277 190.614 228.011 190.828Z" fill="#337754"/>
<path d="M298.222 167.588C294.217 167.262 285.865 167.825 276.544 170.734C267.215 173.651 256.472 173.955 256.472 173.955L255.805 174.096C263.224 168.506 284.281 162.538 298.222 167.588Z" fill="#337754"/>
<path d="M248.964 177.923C248.964 177.923 259.226 172.659 266.682 165.329C274.137 158 281.926 153.565 285.991 152.069C269.702 153.209 252.54 169.128 248.386 178.382" fill="#337754"/>
<path d="M246.854 179.256C246.854 179.256 257.175 177.45 266.585 178.686C276.003 179.915 284.073 178.864 287.842 177.724C275.411 185.816 254.265 183.676 246.195 179.249L246.854 179.256Z" fill="#337754"/>
<path d="M232.735 188.245C232.735 188.245 240.96 186.786 248.431 187.578C255.901 188.363 262.328 187.489 265.341 186.601C255.361 192.716 238.576 191.406 232.209 188.245H232.735Z" fill="#337754"/>
<path d="M250.622 169.542C244.825 178.242 235.852 185.49 235.852 185.49L235.385 186.053C237.562 176.146 251.111 157.059 266.822 152.617C263.142 154.912 256.427 160.843 250.622 169.542Z" fill="#337754"/>
<path d="M70.2039 190.828L69.7226 191.428C69.4635 191.221 43.4017 170.46 20.0202 168.328L20.0868 167.565C43.7127 169.713 69.9448 190.614 70.2039 190.828Z" fill="#337754"/>
<path d="M0 167.588C4.00552 167.262 12.3571 167.825 21.6787 170.734C31.0076 173.651 41.7507 173.955 41.7507 173.955L42.417 174.096C34.9909 168.506 13.9416 162.538 0 167.588Z" fill="#337754"/>
<path d="M49.2508 177.923C49.2508 177.923 38.989 172.659 31.5333 165.329C24.0775 158 16.2886 153.565 12.2239 152.069C28.5125 153.209 45.6748 169.128 49.8283 178.382" fill="#337754"/>
<path d="M51.3684 179.256C51.3684 179.256 41.0473 177.45 31.637 178.686C22.2192 179.915 14.1489 178.864 10.3803 177.724C22.8115 185.816 43.9571 183.676 52.0273 179.249L51.3684 179.256Z" fill="#337754"/>
<path d="M65.4876 188.245C65.4876 188.245 57.2619 186.786 49.7913 187.578C42.3208 188.363 35.8942 187.489 32.8808 186.601C42.8612 192.716 59.6459 191.406 66.0133 188.245H65.4876Z" fill="#337754"/>
<path d="M47.5924 169.542C53.3897 178.242 62.3632 185.49 62.3632 185.49L62.8297 186.053C60.6529 176.146 47.1037 157.059 31.3926 152.617C35.0724 154.912 41.7951 160.843 47.5924 169.542Z" fill="#337754"/>
<path d="M209.671 182.114C209.671 182.114 224.302 163.116 218.734 149.455C213.166 135.795 212.648 127.829 215.543 117.419C218.438 107.001 208.124 69.0933 214.854 53.7746C193.287 68.6417 187.822 107.001 191.384 127.658C194.945 148.323 197.796 170.727 209.671 182.114Z" fill="#5CAA2E"/>
<path d="M209.583 188.148C208.176 178.582 207.013 169.017 206.007 159.421C205.007 149.826 204.193 140.215 203.645 130.583C203.104 120.95 202.808 111.303 203.045 101.656C203.341 92.038 203.926 82.3167 206.473 72.9952C204.082 82.3537 203.674 92.0528 203.541 101.663C203.467 111.288 203.926 120.913 204.637 130.516C205.348 140.119 206.325 149.7 207.487 159.251C208.657 168.802 209.982 178.353 211.537 187.83L209.583 188.148Z" fill="#3C6B27"/>
<path d="M192.635 184.957C192.635 184.957 196.248 175.103 193.872 150.744C191.495 126.385 185.527 103.929 155.105 91.7049C165.055 107.342 161.931 126.103 165.626 142.599C169.328 159.088 192.635 184.957 192.635 184.957Z" fill="#266026"/>
<path d="M198.003 204.415H201.142C198.255 201.771 195.708 198.521 193.568 195.145C191.125 191.273 189.192 187.082 187.711 182.736C186.201 178.382 185.387 173.829 184.772 169.261L184.528 165.811C184.454 164.656 184.335 163.508 184.38 162.353L184.439 155.386C184.609 146.013 183.373 136.587 180.367 127.718C178.923 123.268 177.094 118.944 174.873 114.842C172.659 110.733 170.12 106.787 167.069 103.262C170.046 106.853 172.504 110.844 174.629 114.975C176.761 119.114 178.494 123.445 179.834 127.895C182.64 136.758 183.661 146.116 183.313 155.356L183.114 162.368C183.04 163.545 183.143 164.715 183.188 165.892L183.365 169.416C183.898 174.088 184.639 178.767 186.097 183.276C187.526 187.778 189.429 192.146 191.887 196.211C193.664 199.113 195.641 201.89 198.003 204.415Z" fill="#3C6B27"/>
<path d="M207.087 199.876C207.087 199.876 194.101 175.65 202.956 161.25C211.811 146.842 213.892 137.935 212.566 125.615C211.241 113.295 230.003 72.351 225.264 53.782C246.869 74.6314 245.862 119.033 237.962 141.726C230.069 164.419 222.651 189.229 207.087 199.876Z" fill="#337754"/>
<path d="M231.143 77.0896C232.09 88.1214 230.736 99.168 229.092 110.052C227.367 120.95 225.049 131.753 222.451 142.474C219.852 153.194 216.949 163.849 213.847 174.436C210.893 184.483 207.776 194.501 204.437 204.415H206.791C209.894 194.627 212.766 184.787 215.491 174.903C218.415 164.241 221.14 153.52 223.561 142.733C225.982 131.945 228.122 121.091 229.662 110.141C230.417 104.662 231.039 99.168 231.38 93.6521C231.691 88.1362 231.742 82.5833 231.143 77.0896Z" fill="#1F4932"/>
<path d="M211.041 197.773C211.041 197.773 209.531 180.774 214.506 165.848C219.482 150.921 247.061 120.595 292.832 135.477C274.352 140.408 247.343 156.23 239.095 172.341C230.854 188.444 211.041 197.773 211.041 197.773Z" fill="#3AA33A"/>
<path d="M259.411 142.747C250.8 146.479 242.73 151.551 235.741 157.874C228.744 164.182 222.762 171.638 218.045 179.819C215.676 183.906 213.603 188.163 211.856 192.561C210.323 196.418 209.027 200.328 208.065 204.415H210.353C211.182 200.668 212.352 196.914 213.714 193.279C215.343 188.94 217.283 184.72 219.533 180.663C223.998 172.533 229.736 165.085 236.511 158.718C243.278 152.336 251.163 147.153 259.648 143.273C268.162 139.453 277.24 136.884 286.494 135.477C277.21 136.698 268.059 139.075 259.411 142.747Z" fill="#3C6B27"/>
<path d="M196.041 200.92C196.041 200.92 180.389 198.543 174.703 187.03C169.017 175.517 167.166 172.385 160.769 169.542C154.372 166.699 138.875 141.304 120.395 139.075C136.032 133.293 164.478 131.493 175.273 145.968C186.068 160.443 186.068 165.566 194.027 173.666C202.001 181.766 196.041 200.92 196.041 200.92Z" fill="#266026"/>
<path d="M195.656 204.415H197.944C197.181 200.468 196.004 196.752 194.612 193.064C193.079 189.074 191.228 185.216 189.118 181.514C184.868 174.125 179.567 167.336 173.289 161.605C170.164 158.732 166.855 156.052 163.323 153.698C161.605 152.454 159.747 151.425 157.948 150.299L155.156 148.782C154.231 148.263 153.291 147.775 152.328 147.338C144.717 143.629 136.654 140.911 128.413 139.075C136.61 141.089 144.591 143.984 152.069 147.841C153.017 148.3 153.935 148.804 154.845 149.344L157.577 150.914C159.332 152.076 161.146 153.135 162.827 154.401C166.27 156.8 169.483 159.525 172.504 162.434C178.568 168.224 183.632 175.021 187.63 182.351C189.622 186.023 191.347 189.836 192.753 193.76C193.975 197.233 195.012 200.846 195.656 204.415Z" fill="#3C6B27"/>
<path d="M219.222 199.876C219.222 199.876 222.613 205.977 247.631 209.768C272.649 213.558 279.661 217.157 283.836 227.966C282.319 205.222 271.82 188.348 252.755 184.372C233.682 180.396 219.222 199.876 219.222 199.876Z" fill="#5CAA2E"/>
<path d="M260.773 199.35C258.078 198.114 255.354 196.914 252.503 196.048C249.675 195.115 246.75 194.449 243.789 194.049C237.866 193.198 231.698 193.686 225.96 195.634C223.087 196.596 220.355 197.958 217.808 199.624C215.72 201.016 213.795 202.556 212.041 204.415H215.121C216.305 203.274 217.594 202.208 218.934 201.268C221.281 199.624 223.835 198.24 226.538 197.24C231.935 195.212 237.858 194.53 243.655 195.175C249.475 195.737 255.146 197.529 260.536 199.861C265.919 202.245 271.02 205.288 275.877 208.65C271.124 205.133 266.119 201.927 260.773 199.35Z" fill="#3C6B27"/>
<path d="M190.118 198.469C190.118 198.469 185.076 203.304 160.05 199.558C135.025 195.819 127.259 197.196 120.099 206.288C128.243 184.994 143.244 171.963 162.642 173.777C182.033 175.591 190.118 198.469 190.118 198.469Z" fill="#5CAA2E"/>
<path d="M195.411 204.415C194.323 202.319 193.013 200.439 191.547 198.632C189.607 196.293 187.393 194.182 184.935 192.42C180.026 188.874 174.273 186.586 168.365 185.653C165.411 185.157 162.427 184.935 159.451 184.994C156.474 184.987 153.513 185.327 150.573 185.72C144.702 186.608 138.979 188.2 133.404 190.17C139.038 188.385 144.798 186.978 150.647 186.282C156.489 185.638 162.434 185.594 168.158 186.771C173.888 187.859 179.345 190.258 183.913 193.783C186.201 195.537 188.237 197.61 189.999 199.876C191.095 201.29 192.087 202.838 192.931 204.415H195.411V204.415Z" fill="#3C6B27"/>
<path d="M202.956 183.839C202.956 183.839 221.022 160.968 218.26 134.803C215.498 108.638 186.786 62.5039 152.387 61.6524C164.33 70.4631 166.795 85.2487 170.964 99.4642C175.132 113.68 186.505 122.305 190.769 135.477C195.034 148.641 194.871 169.905 202.956 183.839Z" fill="#3A8C3A"/>
<path d="M201.868 171.023C202.193 182.158 201.979 193.361 200.979 204.415H203.237C203.637 199.165 203.815 193.946 203.889 188.704C203.963 182.78 203.859 176.865 203.571 170.949C202.978 159.132 201.757 147.33 199.535 135.706C197.344 124.082 194.19 112.614 189.629 101.693C187.304 96.2583 184.713 90.9275 181.603 85.9002C178.479 80.8878 174.94 76.1344 170.964 71.7735C174.873 76.1937 178.331 80.9988 181.359 86.0483C184.38 91.1126 186.875 96.4656 189.103 101.907C193.472 112.85 196.426 124.312 198.417 135.906C200.439 147.516 201.468 159.266 201.868 171.023Z" fill="#3C6B27"/>
<path d="M88.5509 182.114C88.5509 182.114 73.9207 163.116 79.4885 149.455C85.0562 135.795 85.5745 127.829 82.6795 117.419C79.7846 107.001 90.0983 69.0933 83.3681 53.7746C104.936 68.6417 110.4 107.001 106.839 127.658C103.27 148.323 100.427 170.727 88.5509 182.114Z" fill="#5CAA2E"/>
<path d="M88.6397 188.148C90.0464 178.582 91.2089 169.017 92.2158 159.421C93.2153 149.826 94.0297 140.215 94.5776 130.583C95.1181 120.95 95.4143 111.303 95.1773 101.656C94.8812 92.038 94.2963 82.3167 91.7493 72.9952C94.1408 82.3537 94.548 92.0528 94.6813 101.663C94.7553 111.288 94.2963 120.913 93.5855 130.516C92.8747 140.119 91.8974 149.7 90.735 159.251C89.5652 168.802 88.2399 178.353 86.6851 187.83L88.6397 188.148Z" fill="#3C6B27"/>
<path d="M105.58 184.957C105.58 184.957 101.967 175.103 104.343 150.744C106.72 126.385 112.688 103.929 143.11 91.7049C133.159 107.342 136.284 126.103 132.589 142.599C128.895 159.088 105.58 184.957 105.58 184.957Z" fill="#266026"/>
<path d="M100.212 204.415H97.0728C99.9603 201.771 102.507 198.521 104.647 195.145C107.09 191.273 109.023 187.082 110.503 182.736C112.014 178.382 112.828 173.829 113.443 169.261L113.687 165.811C113.761 164.656 113.88 163.508 113.835 162.353L113.776 155.386C113.606 146.013 114.842 136.587 117.848 127.718C119.292 123.268 121.121 118.944 123.342 114.842C125.556 110.733 128.095 106.787 131.146 103.262C128.169 106.853 125.711 110.844 123.586 114.975C121.454 119.114 119.721 123.445 118.381 127.895C115.575 136.758 114.553 146.116 114.901 155.356L115.101 162.368C115.175 163.545 115.072 164.715 115.027 165.892L114.85 169.416C114.316 174.088 113.576 178.767 112.117 183.276C110.689 187.778 108.786 192.146 106.328 196.211C104.558 199.113 102.574 201.89 100.212 204.415Z" fill="#3C6B27"/>
<path d="M91.1274 199.876C91.1274 199.876 104.114 175.65 95.2588 161.25C86.4037 146.842 84.3232 137.935 85.6485 125.615C86.9738 113.295 68.2123 72.351 72.9508 53.782C51.3462 74.6314 52.3531 119.033 60.2531 141.726C68.153 164.419 75.5718 189.229 91.1274 199.876Z" fill="#337754"/>
<path d="M67.0795 77.0896C66.1318 88.1214 67.4867 99.168 69.1303 110.052C70.8555 120.95 73.1729 131.753 75.7716 142.474C78.3704 153.194 81.2728 163.849 84.375 174.436C87.3292 184.483 90.4462 194.501 93.7854 204.415H91.4309C88.3287 194.627 85.456 184.787 82.7313 174.903C79.8068 164.241 77.0821 153.52 74.6611 142.733C72.24 131.945 70.1003 121.091 68.5602 110.141C67.805 104.662 67.1831 99.168 66.8425 93.6521C66.5316 88.1362 66.4797 82.5833 67.0795 77.0896Z" fill="#1F4932"/>
<path d="M87.1737 197.773C87.1737 197.773 88.6841 180.774 83.7087 165.848C78.7333 150.921 51.1537 120.595 5.38269 135.477C23.8629 140.408 50.8723 156.23 59.1203 172.341C67.3608 188.444 87.1737 197.773 87.1737 197.773Z" fill="#3AA33A"/>
<path d="M38.8039 142.747C47.4147 146.479 55.485 151.551 62.4742 157.874C69.4709 164.182 75.4533 171.638 80.1696 179.819C82.5463 183.906 84.612 188.163 86.3593 192.561C87.8919 196.418 89.1876 200.328 90.1501 204.415H87.8623C87.033 200.668 85.8632 196.914 84.5009 193.279C82.872 188.94 80.9322 184.72 78.6814 180.663C74.2169 172.533 68.4788 165.085 61.7042 158.718C54.9371 152.336 47.0519 147.153 38.567 143.273C30.0525 139.453 20.9753 136.884 11.7204 135.477C21.0123 136.698 30.1636 139.075 38.8039 142.747Z" fill="#3C6B27"/>
<path d="M102.174 200.92C102.174 200.92 117.826 198.543 123.512 187.03C129.198 175.517 131.049 172.385 137.446 169.542C143.843 166.699 159.34 141.304 177.82 139.075C162.183 133.293 133.737 131.493 122.942 145.968C112.147 160.443 112.147 165.566 104.188 173.666C96.2213 181.766 102.174 200.92 102.174 200.92Z" fill="#266026"/>
<path d="M102.566 204.415H100.279C101.041 200.468 102.219 196.752 103.61 193.064C105.143 189.074 106.994 185.216 109.104 181.514C113.354 174.125 118.655 167.336 124.934 161.605C128.058 158.732 131.368 156.052 134.899 153.698C136.617 152.454 138.475 151.425 140.275 150.299L143.066 148.782C143.991 148.263 144.932 147.775 145.894 147.338C153.505 143.629 161.568 140.911 169.809 139.075C161.613 141.089 153.631 143.984 146.153 147.841C145.206 148.3 144.288 148.804 143.377 149.344L140.645 150.914C138.89 152.076 137.076 153.135 135.395 154.401C131.953 156.8 128.739 159.525 125.719 162.434C119.655 168.224 114.59 175.021 110.592 182.351C108.601 186.023 106.876 189.836 105.469 193.76C104.247 197.233 103.203 200.846 102.566 204.415Z" fill="#3C6B27"/>
<path d="M78.9998 199.876C78.9998 199.876 75.6088 205.977 50.5909 209.768C25.5731 213.558 18.5616 217.157 14.3858 227.966C15.9036 205.222 26.4024 188.348 45.4674 184.372C64.5399 180.396 78.9998 199.876 78.9998 199.876Z" fill="#5CAA2E"/>
<path d="M37.449 199.35C40.144 198.114 42.8687 196.914 45.7192 196.048C48.5475 195.115 51.472 194.449 54.4336 194.049C60.3567 193.198 66.5242 193.686 72.2622 195.634C75.1349 196.596 77.867 197.958 80.4139 199.624C82.5018 201.016 84.4268 202.556 86.1816 204.415H83.1015C81.9169 203.274 80.6286 202.208 79.2885 201.268C76.9415 199.624 74.3871 198.24 71.6847 197.24C66.2873 195.212 60.3641 194.53 54.5669 195.175C48.7474 195.737 43.076 197.529 37.6859 199.861C32.3033 202.245 27.202 205.288 22.345 208.65C27.0909 205.133 32.096 201.927 37.449 199.35Z" fill="#3C6B27"/>
<path d="M108.105 198.469C108.105 198.469 113.147 203.304 138.172 199.558C163.197 195.819 170.964 197.196 178.123 206.288C169.979 184.994 154.979 171.963 135.581 173.777C116.182 175.591 108.105 198.469 108.105 198.469Z" fill="#5CAA2E"/>
<path d="M102.811 204.415C103.899 202.319 105.21 200.439 106.676 198.632C108.615 196.293 110.829 194.182 113.287 192.42C118.196 188.874 123.949 186.586 129.857 185.653C132.811 185.157 135.795 184.935 138.772 184.994C141.748 184.987 144.709 185.327 147.649 185.72C153.52 186.608 159.243 188.2 164.819 190.17C159.184 188.385 153.424 186.978 147.575 186.282C141.733 185.638 135.788 185.594 130.065 186.771C124.334 187.859 118.877 190.258 114.309 193.783C112.021 195.537 109.985 197.61 108.223 199.876C107.127 201.29 106.135 202.838 105.291 204.415H102.811V204.415Z" fill="#3C6B27"/>
<path d="M95.2661 183.839C95.2661 183.839 77.2006 160.968 79.9623 134.803C82.7239 108.638 111.436 62.5039 145.835 61.6524C133.892 70.4631 131.427 85.2487 127.258 99.4642C123.09 113.68 111.718 122.305 107.453 135.477C103.188 148.641 103.351 169.905 95.2661 183.839Z" fill="#3A8C3A"/>
<path d="M96.3472 171.023C96.0214 182.158 96.2361 193.361 97.2356 204.415H94.9774C94.5776 199.165 94.3999 193.946 94.3259 188.704C94.2519 182.78 94.3555 176.865 94.6443 170.949C95.2366 159.132 96.4582 147.33 98.6794 135.706C100.871 124.082 104.025 112.614 108.586 101.693C110.911 96.2583 113.502 90.9275 116.612 85.9002C119.736 80.8878 123.275 76.1344 127.251 71.7735C123.342 76.1937 119.884 80.9988 116.856 86.0483C113.835 91.1126 111.34 96.4656 109.112 101.907C104.743 112.85 101.789 124.312 99.7974 135.906C97.7761 147.516 96.7544 159.266 96.3472 171.023Z" fill="#3C6B27"/>
<path d="M200.528 191.28L199.032 191.362C198.906 189.103 196.226 135.869 214.395 114.087L215.543 115.042C197.751 136.38 200.498 190.74 200.528 191.28Z" fill="#3C6B27"/>
<path d="M210.634 119.07C210.634 119.07 206.532 98.5461 212.803 91.964C219.074 85.3819 220.577 98.7756 220.577 98.7756C230.158 91.2829 232.216 97.939 228.736 105.291C237.058 105.298 239.665 108.726 234.682 112.984C229.706 117.256 210.634 119.07 210.634 119.07Z" fill="#FF3951"/>
<path d="M211.389 116.974C211.322 117.026 211.241 117.056 211.152 117.048C210.945 117.041 210.782 116.871 210.789 116.663C210.804 116.153 211.241 104.099 213.832 98.2499C213.914 98.0648 214.136 97.976 214.328 98.0574C214.514 98.1389 214.602 98.361 214.521 98.5535C211.981 104.277 211.545 116.567 211.537 116.693C211.53 116.804 211.478 116.908 211.389 116.974Z" fill="#FF94A1"/>
<path d="M230.336 111.37C230.328 111.377 230.313 111.384 230.299 111.392C223.287 115.62 213.307 118.411 213.203 118.433C213.003 118.485 212.796 118.374 212.744 118.174C212.692 117.974 212.803 117.767 213.003 117.715C213.099 117.685 222.984 114.924 229.906 110.755C230.084 110.651 230.313 110.703 230.417 110.881C230.528 111.044 230.484 111.251 230.336 111.37Z" fill="#FF94A1"/>
<path d="M212.855 117.026C212.744 117.115 212.581 117.13 212.455 117.063C212.278 116.967 212.204 116.752 212.292 116.575C212.44 116.278 218.615 107.386 224.583 101.708C224.731 101.567 224.968 101.574 225.109 101.722C225.249 101.87 225.242 102.107 225.094 102.248C219.348 107.712 213.196 116.486 212.951 116.908C212.929 116.96 212.892 116.997 212.855 117.026Z" fill="#FF94A1"/>
<path d="M208.524 125.393C208.524 125.393 205.918 113.806 207.221 110.777C208.524 107.749 212.344 115.657 212.344 115.657C212.344 115.657 219.104 116.308 219.652 119.499C220.2 122.683 208.524 125.393 208.524 125.393Z" fill="#3C6B27"/>
<path d="M97.6946 191.28L99.1902 191.362C99.3161 189.103 101.996 135.869 83.8271 114.087L82.6795 115.042C100.471 136.38 97.7243 190.74 97.6946 191.28Z" fill="#3C6B27"/>
<path d="M87.5809 119.07C87.5809 119.07 91.6827 98.5461 85.4116 91.964C79.1404 85.3819 77.6374 98.7756 77.6374 98.7756C68.0568 91.2828 65.9985 97.939 69.4783 105.291C61.1563 105.298 58.5501 108.726 63.533 112.984C68.5158 117.256 87.5809 119.07 87.5809 119.07Z" fill="#FF3951"/>
<path d="M86.8331 116.974C86.8997 117.026 86.9812 117.056 87.07 117.048C87.2773 117.041 87.4402 116.871 87.4328 116.663C87.418 116.153 86.9812 104.099 84.3898 98.2499C84.3084 98.0648 84.0862 97.976 83.8937 98.0574C83.7086 98.1389 83.6198 98.361 83.7012 98.5535C86.2408 104.277 86.6776 116.567 86.685 116.693C86.685 116.804 86.7442 116.908 86.8331 116.974Z" fill="#FF94A1"/>
<path d="M67.8865 111.37C67.8939 111.377 67.9087 111.384 67.9235 111.392C74.935 115.62 84.9155 118.411 85.0192 118.433C85.2191 118.485 85.4264 118.374 85.4782 118.174C85.53 117.974 85.419 117.767 85.2191 117.715C85.1228 117.685 75.2386 114.924 68.3159 110.755C68.1382 110.651 67.9087 110.703 67.8051 110.881C67.694 111.044 67.731 111.251 67.8865 111.37Z" fill="#FF94A1"/>
<path d="M85.3671 117.026C85.4782 117.115 85.6411 117.13 85.7669 117.063C85.9446 116.967 86.0187 116.752 85.9298 116.575C85.7817 116.278 79.6069 107.386 73.6393 101.708C73.4912 101.567 73.2543 101.574 73.1136 101.722C72.973 101.87 72.9804 102.107 73.1284 102.248C78.8739 107.712 85.0265 116.486 85.2709 116.908C85.2931 116.96 85.3301 116.997 85.3671 117.026Z" fill="#FF94A1"/>
<path d="M89.691 125.393C89.691 125.393 92.2972 113.806 90.9941 110.777C89.691 107.749 85.8706 115.657 85.8706 115.657C85.8706 115.657 79.1108 116.308 78.5629 119.499C78.0151 122.69 89.691 125.393 89.691 125.393Z" fill="#3C6B27"/>
<path d="M239.946 193.96C232.32 185.35 214.484 187.045 193.575 188.674C172.667 190.303 172.459 186.63 172.459 186.63L150.625 188L128.791 186.63C128.791 186.63 128.584 190.303 107.675 188.674C86.7664 187.045 68.9304 185.35 61.3044 193.96C53.6783 202.571 62.7555 218.512 81.7984 223.48C91.4383 225.997 113.495 227.13 132.922 227.641V228.033C132.922 228.033 140.186 228.078 150.625 227.959C161.065 228.078 162.012 226.271 162.012 226.271L169.054 226.893C188.481 226.382 209.812 225.99 219.452 223.48C238.495 218.504 247.565 202.564 239.946 193.96Z" fill="#071B21"/>
<path d="M144.798 207.621C144.798 207.621 151.195 208.479 156.348 204.163C161.509 199.846 162.538 199.35 165.381 201.757C167.24 203.326 172.133 202.23 177.412 200.431C182.691 198.632 192.294 196.907 193.612 199.55C194.93 202.186 191.221 202.349 191.221 202.349C194.338 202.349 194.308 204.652 193.138 205.555C193.945 207.265 193.227 208.413 191.606 208.916C193.945 210.775 191.065 211.848 189.984 212.033C190.436 213.921 189.718 214.639 187.556 215.269C185.394 215.898 179.908 214.551 168.121 216.439C156.334 218.327 144.783 220.577 144.783 220.577V207.621H144.798Z" fill="#F9B673"/>
<path d="M193.612 199.543C193.361 199.047 192.82 198.706 192.072 198.491C182.588 203.571 174.458 210.256 161.812 209.664C161.642 209.731 161.109 212.514 160.398 213.899C154.808 215.143 149.766 213.647 144.791 211.833V220.577C144.791 220.577 156.341 218.327 168.128 216.439C179.915 214.551 185.401 215.898 187.563 215.269C189.725 214.639 190.443 213.921 189.992 212.033C191.073 211.856 193.953 210.775 191.613 208.916C193.235 208.413 193.953 207.265 193.146 205.555C194.316 204.652 194.345 202.349 191.228 202.349C191.221 202.349 194.93 202.186 193.612 199.543Z" fill="#EF9D5B"/>
<path d="M84.486 186.631C84.486 186.631 97.9315 186.52 109.741 192.947C123.164 200.247 139.69 205.126 147.005 204.297C148.382 211.886 147.005 220.304 147.005 220.304C147.005 220.304 137.276 224.102 117.818 224.161C98.3535 224.221 70.885 222.399 62.2817 211.138C53.6783 199.877 59.2313 192.976 64.6139 190.214C69.9965 187.453 78.859 186.105 84.486 186.631Z" fill="#02374C"/>
<path d="M110.992 211.078C119.462 204.726 129.346 215.313 138.52 211.078C141.874 209.96 144.791 211.5 147.612 212.537C147.641 209.982 147.508 207.08 147.005 204.289C139.69 205.118 123.171 200.239 109.741 192.939C97.9315 186.512 84.486 186.623 84.486 186.623C78.859 186.105 69.9965 187.452 64.6139 190.214C59.2313 192.976 53.6783 199.876 62.2817 211.137C69.6708 220.814 90.9792 223.517 109.178 224.05C107.268 219.289 106.853 213.669 110.992 211.078Z" fill="#002D38"/>
<path d="M147.205 205.547C144.287 205.925 136.217 206.34 123.912 202.119C108.208 196.729 106.853 192.206 92.7339 189.947C78.6147 187.689 76.3639 187.919 73.4764 188.674C70.5888 189.429 69.5819 194.145 72.9655 193.975C72.9655 193.975 82.4573 193.249 98.3831 198.262C114.309 203.274 126.288 208.598 135.321 209.383C141.378 209.908 145.502 209.731 147.567 209.553C147.508 208.242 147.397 206.887 147.205 205.547Z" fill="#003A44"/>
<path d="M170.601 213.085C170.601 213.085 156.245 217.497 149.759 215.291C143.273 213.085 144.102 211.426 140.237 213.085C136.373 214.743 130.442 214.084 126.296 212.411C122.15 210.738 122.572 211.974 120.291 212.492C118.011 213.011 113.872 212.181 112.939 215.187C112.006 218.186 112.769 219.637 114.213 219.43C115.664 219.222 118.825 217.919 119.255 219.445C116.908 219.77 113.672 219.837 112.532 219.837C111.392 219.837 111.185 220.666 111.732 221.703C112.288 222.739 113.598 222.465 115.664 222.184C117.737 221.91 118.699 222.073 118.285 222.436C117.87 222.799 116.56 222.836 115.664 222.732C114.768 222.628 111.903 222.006 111.903 223.391C111.903 224.768 112.732 225.012 114.183 224.701C115.634 224.39 117.115 223.739 117.804 224.146C118.492 224.561 117.944 224.872 117.285 224.82C116.626 224.768 114.183 224.324 113.628 225.042C113.073 225.767 113.176 226.56 114.109 226.767C115.042 226.974 116.693 226.249 117.596 226.182C118.492 226.115 118.973 226.811 118.492 226.804C118.011 226.804 116.389 226.493 115.701 227.285C115.012 228.078 116.182 228.596 117.078 228.596C117.974 228.596 122.098 227.544 124.275 228.011C126.451 228.477 133.952 230.528 142.37 229.151C150.788 227.774 151.854 229.047 160.346 227.907C168.831 226.767 179.389 224.39 179.389 224.39L170.601 213.085Z" fill="#F9B673"/>
<path d="M179.397 224.376L170.601 213.062C170.601 213.062 165.685 214.573 160.309 215.387C157.866 219.496 157.733 223.88 158.325 228.144C158.955 228.078 159.621 228.003 160.354 227.9C168.839 226.76 179.397 224.376 179.397 224.376Z" fill="#EF9D5B"/>
<path d="M216.972 189.94C216.972 189.94 206.414 190.836 192.961 198.084C179.508 205.333 170.793 212.403 163.486 211.574C162.109 219.163 164.856 228.04 164.856 228.04C164.856 228.04 163.501 227.137 182.965 227.145C215.461 227.145 231.868 223.324 240.472 212.063C249.075 200.801 241.908 193.894 236.525 191.132C231.135 188.37 222.599 189.422 216.972 189.94Z" fill="#002D38"/>
<path d="M224.62 198.188C236.481 195.367 224.79 188.815 213.492 191.976C202.193 195.137 198.58 196.833 187.282 204.178C177.109 210.789 169.142 213.27 163.286 212.877C162.938 215.757 163.108 218.734 163.449 221.281C166.958 220.577 174.525 218.689 182.092 214.351C192.428 208.413 212.759 201.016 224.62 198.188Z" fill="#003A44"/>
<path d="M252.199 177.124C251.933 177.213 251.689 177.353 251.474 177.516C251.955 176.591 251.333 175.554 250.104 175.828C248.505 176.183 247.12 175.191 242.1 174.288C237.081 173.385 234.911 175.969 234.911 175.969C234.911 175.969 232.201 178.338 228.152 175.613C226.552 174.133 224.738 172.363 222.71 170.29C215.95 163.39 211.411 156.904 207.272 153.794C203.134 150.692 200.231 147.375 197.544 140.548C194.856 133.715 193.82 128.332 189.881 119.01C185.949 109.689 180.359 108.46 171.46 105.15C162.56 101.841 159.036 98.3165 159.036 98.3165L151.654 97.665V97.2133L149.1 97.4355L146.546 97.2133V97.665L139.164 98.3165C139.164 98.3165 135.647 101.833 126.74 105.15C117.841 108.46 112.251 109.689 108.319 119.01C104.388 128.332 103.351 133.715 100.656 140.548C97.9685 147.382 95.0662 150.692 90.9274 153.794C86.7886 156.896 82.2574 163.39 75.4902 170.29C73.4542 172.363 71.6476 174.133 70.0484 175.613C65.9984 178.338 63.2886 175.969 63.2886 175.969C63.2886 175.969 61.1192 173.385 56.0994 174.288C51.0795 175.191 49.695 176.183 48.0958 175.828C46.8667 175.554 46.2448 176.591 46.726 177.516C46.5039 177.353 46.267 177.22 46.0004 177.124C44.0384 176.457 43.8533 177.524 45.0453 179.323C46.23 181.122 45.845 183.506 47.77 186.134C49.7024 188.763 52.1901 188.711 52.1901 188.711C52.1901 188.711 51.6941 191.643 53.2933 191.998C54.8926 192.354 55.3664 192.22 55.3664 192.22C55.3664 192.22 55.2183 194.634 56.3585 194.782C57.4987 194.93 58.6908 193.953 58.6908 193.953C58.6908 193.953 58.4168 195.345 59.4534 195.508C60.4973 195.663 62.0669 195.049 63.3922 193.731C64.1622 192.976 67.0054 190.658 68.227 188.467C69.1525 188.23 73.6096 187.089 84.2935 182.321C95.7473 177.213 99.205 170.971 99.205 170.971C99.205 170.971 107.475 158.214 112.036 153.246C116.589 148.278 117.693 143.999 119.351 142.481C121.009 140.963 124.593 152.002 124.46 156.97C124.326 161.938 122.527 163.871 123.357 166.766C124.186 169.661 123.912 176.154 122.942 178.908C121.979 181.67 118.248 190.221 118.248 190.221H146.538H151.647H179.937C179.937 190.221 176.213 181.662 175.243 178.908C174.281 176.146 173.999 169.661 174.829 166.766C175.658 163.871 173.866 161.938 173.725 156.97C173.585 152.002 177.176 140.963 178.834 142.481C180.493 143.999 181.596 148.278 186.149 153.246C190.703 158.214 198.98 170.971 198.98 170.971C198.98 170.971 202.438 177.22 213.892 182.321C224.575 187.082 229.107 188.407 230.032 188.644C231.246 190.836 233.845 193.205 234.437 193.842C235.711 195.212 237.688 195.663 238.732 195.5C239.776 195.345 239.494 193.945 239.494 193.945C239.494 193.945 240.686 194.923 241.827 194.775C242.967 194.627 242.819 192.213 242.819 192.213C242.819 192.213 243.3 192.354 244.892 191.991C246.491 191.635 245.995 188.703 245.995 188.703C245.995 188.703 248.49 188.763 250.415 186.127C252.348 183.499 251.955 181.114 253.14 179.315C254.347 177.524 254.169 176.457 252.199 177.124ZM53.8782 184.609C52.0272 184.765 49.7098 183.972 49.1323 182.307C48.7325 181.159 48.3327 179.456 47.4812 178.286C49.0286 179.234 51.1462 178.864 52.9157 178.916C54.6852 178.967 57.1878 179.101 57.5728 181.322C57.9504 183.536 55.7292 184.454 53.8782 184.609ZM249.082 182.307C248.505 183.972 246.187 184.757 244.336 184.609C242.486 184.454 240.264 183.536 240.642 181.322C241.02 179.101 243.529 178.967 245.299 178.916C247.061 178.864 249.186 179.234 250.733 178.286C249.882 179.449 249.482 181.159 249.082 182.307Z" fill="#F9B673"/>
<path d="M154.808 113.524C154.808 113.524 162.686 110.725 170.312 112.34C169.631 114.035 169.631 114.035 169.631 114.035C169.631 114.035 162.686 112.51 154.808 113.524Z" fill="#EF9D5B"/>
<path d="M145.065 113.524C145.065 113.524 137.187 110.725 129.561 112.34C130.242 114.035 130.242 114.035 130.242 114.035C130.242 114.035 137.187 112.51 145.065 113.524Z" fill="#EF9D5B"/>
<path d="M139.956 77.9935C139.956 77.9935 140.408 92.172 138.372 99.4574C144.302 105.558 161.331 99.9683 161.331 99.9683C161.331 99.9683 157.94 89.8027 158.281 78.7043C155.06 71.5817 139.956 77.9935 139.956 77.9935Z" fill="#F9B673"/>
<path d="M151.588 96.858C153.964 95.6733 157.178 92.734 158.91 89.0542C158.466 85.9224 158.17 82.3611 158.281 78.6962C155.06 71.581 139.949 77.9928 139.949 77.9928C139.949 77.9928 140.119 83.2718 139.786 89.0468C142.762 92.9931 146.649 98.3461 151.588 96.858Z" fill="#EF9A54"/>
<path d="M179.952 190.229C179.952 190.229 176.228 181.67 175.258 178.916C174.295 176.154 174.014 169.668 174.843 166.773C175.673 163.878 173.881 161.946 173.74 156.978C173.629 152.891 176.035 144.695 177.812 142.762C172.074 135.336 170.46 112.969 171.904 105.313C171.756 105.261 171.615 105.202 171.46 105.15C169.468 104.41 167.758 103.655 166.277 102.937C166.351 105.061 166.536 117.744 160.954 123.638C154.853 130.079 139.268 127.703 136.78 119.573C134.492 112.088 133.448 103.558 133.3 102.241C131.923 102.974 130.287 103.744 128.354 104.528C128.591 106.216 129.605 114.487 128.399 124.852C127.044 136.491 119.358 142.481 119.358 142.481C121.017 140.963 124.6 152.002 124.467 156.97C124.326 161.938 122.535 163.871 123.364 166.766C124.193 169.661 123.919 176.154 122.949 178.908C121.987 181.67 118.255 190.221 118.255 190.221H146.546H151.654H179.952V190.229Z" fill="#EF9D5B"/>
<path d="M133.285 102.056C133.285 102.056 134.299 111.429 136.787 119.566C139.275 127.703 154.86 130.072 160.961 123.631C167.062 117.189 166.27 102.618 166.27 102.618C166.27 102.618 170.675 103.751 171.919 105.217C170.453 112.784 170.334 141.363 176.102 148.819C177.909 152.543 174.406 155.142 175.539 157.859C176.672 160.569 176.443 162.716 177.124 166.899C177.805 171.082 176.672 174.584 178.368 178.871C180.063 183.165 184.691 188.296 186.045 189.059C182.21 194.234 176.842 197.559 154.475 198.188C132.108 198.817 118.381 195.323 113.865 189.303C118.722 183.958 119.966 181.699 119.403 177.627C118.84 173.563 118.951 170.283 120.195 167.573C121.439 164.863 122.113 156.844 121.55 153.676C120.987 150.514 120.647 147.686 120.647 147.686C120.647 147.686 127.873 137.742 129.235 126.111C130.598 114.479 128.332 104.195 128.332 104.195C128.332 104.195 131.027 102.056 133.285 102.056Z" fill="#FF9100"/>
<path d="M175.732 158.362C175.732 158.362 173.992 155.63 168.757 152.728C161.242 148.559 159.347 142.466 154.053 140.756C148.759 139.045 144.998 137.927 144.051 139.075C143.11 140.223 144.872 142.022 151.106 144.532C157.341 147.042 161.931 151.158 166.403 155.156C170.875 159.154 175.317 161.738 177.242 167.854C178.175 165.803 175.732 158.362 175.732 158.362Z" fill="#FFA910"/>
<path d="M178.123 177.746C178.123 177.746 177.931 173.977 173.348 169.327C168.757 164.685 164.174 165.981 158.051 162.212C151.936 158.451 149.907 157.155 147.567 157.155C145.228 157.155 142.407 155.393 142.407 155.393C142.407 155.393 144.613 158.007 147.567 159.88C150.522 161.746 154.52 164.337 158.051 166.573C161.583 168.809 165.929 166.803 169.809 169.335C173.688 171.867 179.552 181.351 180.048 182.114C178.36 178.871 178.123 177.746 178.123 177.746Z" fill="#FFA910"/>
<path d="M173.111 184.861C173.111 184.861 169.35 183.202 164.759 178.553C160.169 173.91 155.586 175.206 149.463 171.438C143.347 167.676 141.318 166.381 138.979 166.381C136.639 166.381 133.818 164.619 133.818 164.619C133.818 164.619 136.025 167.232 138.979 169.105C141.933 170.971 145.931 173.562 149.463 175.798C152.994 178.034 157.341 176.028 161.22 178.56C165.1 181.092 170.512 190.806 186.038 189.066C182.869 188.148 173.111 184.861 173.111 184.861Z" fill="#FFA910"/>
<path d="M123.327 186.053C123.327 186.053 128.761 190.865 136.758 191.369C144.754 191.865 148.404 189.34 153.698 189.955C158.992 190.577 161.361 192.102 167.062 193.042C172.755 193.982 179.826 191.324 185.468 189.126C181.47 189.251 179.226 190.888 172.755 190.902C166.284 190.917 163.849 190.318 157.651 188.148C151.462 185.979 152.165 187.534 141.814 188.459C131.464 189.392 128.369 188.407 123.327 186.053Z" fill="#FFA910"/>
<path d="M163.93 72.3806C163.93 72.3806 165.907 68.0864 167.01 70.1372C168.113 72.1881 166.366 78.2889 164.915 78.6295C163.464 78.9701 163.53 77.0895 163.53 77.0895L163.93 72.3806Z" fill="#F9B673"/>
<path d="M135.395 72.3806C135.395 72.3806 133.418 68.0864 132.315 70.1372C131.212 72.1881 132.959 78.2889 134.411 78.6295C135.862 78.9701 135.795 77.0895 135.795 77.0895L135.395 72.3806Z" fill="#F9B673"/>
<path d="M146.627 91.8826C146.627 91.8826 150.936 93.5706 154.312 91.8826C157.688 90.1945 162.212 85.3523 163.686 80.1918C165.159 75.0312 164.633 71.0257 164.211 66.2872C163.789 61.5487 159.791 52.8047 150.944 52.1754C142.096 51.546 137.357 56.2845 136.306 60.601C135.255 64.9175 134.729 66.0799 134.729 67.8717C134.729 69.6634 134.729 76.401 135.573 79.9845C136.41 83.568 143.999 90.4092 146.627 91.8826Z" fill="#F9B673"/>
<path d="M166.27 55.5219C165.033 51.3387 162.109 51.2573 161.635 51.2573C160.132 47.074 152.869 42.6465 147.967 42.491C143.073 42.3355 146.072 46.2004 146.072 46.2004C138.883 42.7279 137.306 47.2295 137.853 47.7034C131.612 48.2587 131.301 50.9315 132.878 52.1235C128.695 52.205 128.221 55.8107 131.22 57.1656C134.218 58.5205 133.818 58.8166 133.87 59.9717C133.87 59.9717 134.04 62.6075 133.87 65.3987C133.7 68.19 134.759 71.2182 134.722 73.7207C134.685 76.2232 134.574 80.3028 135.78 82.4647C136.995 84.6267 136.772 84.6785 139.038 87.2551C141.304 89.839 142.2 91.4679 144.302 92.8895C146.405 94.311 152.624 94.2592 155.201 93.0968C157.785 91.9418 157.785 90.2833 159.939 88.4619C162.094 86.6406 163.153 84.2491 164.152 79.5106C164.804 76.438 164.907 73.2469 164.796 70.8258C164.796 70.8258 165.411 69.767 166.255 69.5819C167.114 65.184 167.506 59.7125 166.27 55.5219ZM156.422 78.6739C153.106 77.6818 149.278 77.1413 145.361 78.0372C138.735 79.555 137.143 77.667 137.143 77.667C137.143 77.667 135.928 75.5643 136.143 74.1279C136.35 72.6916 135.299 67.6125 137.195 66.6648C138.668 65.9318 139.334 62.9036 139.475 61.5487C139.505 61.2303 139.667 60.9342 139.912 60.7343C140.637 60.1568 141.615 59.8976 143.103 60.1494C145.894 60.6232 147.827 63.4145 151.403 61.6746C154.986 59.9346 158.31 59.3793 158.518 61.0378C158.725 62.6963 159.354 64.5029 161.043 65.3987C162.168 65.991 162.723 67.2941 162.923 68.8267C162.916 68.9526 162.923 69.0859 162.938 69.2414C163.145 71.5588 162.671 76.1418 161.99 77.3486C161.316 78.5629 159.739 79.6661 156.422 78.6739Z" fill="#EF9A54"/>
<path d="M166.27 55.5219C165.033 51.3387 162.109 51.2573 161.635 51.2573C160.132 47.074 152.869 42.6465 147.967 42.491C143.073 42.3355 146.072 46.2004 146.072 46.2004C138.883 42.7279 137.306 47.2295 137.853 47.7034C131.612 48.2587 131.301 50.9315 132.878 52.1235C128.695 52.205 128.221 55.8107 131.22 57.1656C134.218 58.5205 133.818 58.8166 133.87 59.9717C133.87 59.9717 134.04 62.6075 133.87 65.3987C133.7 68.19 134.759 71.2182 134.722 73.7207C134.685 76.2232 134.574 80.3028 135.78 82.4647C136.995 84.6267 136.772 84.6785 139.038 87.2551C141.304 89.839 142.2 91.4679 144.302 92.8895C146.405 94.311 152.624 94.2592 155.201 93.0968C157.785 91.9418 157.785 90.2833 159.939 88.4619C162.094 86.6406 163.153 84.2491 164.152 79.5106C164.804 76.438 164.907 73.2469 164.796 70.8258C164.796 70.8258 165.411 69.767 166.255 69.5819C167.114 65.184 167.506 59.7125 166.27 55.5219ZM156.422 78.6739C153.106 77.6818 149.278 77.1413 145.361 78.0372C138.735 79.555 137.143 77.667 137.143 77.667C137.143 77.667 135.928 75.5643 136.143 74.1279C136.35 72.6916 135.299 67.6125 137.195 66.6648C138.853 65.8356 139.023 61.8745 139.038 60.8897C139.793 60.0457 141.148 58.9943 142.94 59.2979C145.731 59.7717 148.523 61.719 152.106 59.9791C155.689 58.2391 159.11 58.8759 159.317 60.5344C159.525 62.1928 159.369 64.5103 161.057 65.4061C162.183 65.9984 162.738 67.3015 162.938 68.8341C162.931 68.96 162.938 69.0933 162.953 69.2488C163.16 71.5662 162.686 76.1492 162.005 77.356C161.316 78.5629 159.739 79.6661 156.422 78.6739Z" fill="#071B21"/>
<path d="M63.8958 187.482C63.3997 187.645 62.9481 187.859 62.5409 188.104C62.7704 187.097 62.5705 185.068 60.5862 185.757C60.4159 185.809 60.2605 185.883 60.105 185.949C60.4826 184.965 60.5862 183.136 58.602 183.402C54.0116 183.913 52.2124 188.718 52.2124 188.718C52.5826 187.874 54.9148 185.438 56.2697 184.646C57.6173 183.854 59.1277 183.654 59.5793 184.587C59.831 185.113 59.6904 185.757 59.5201 186.223C56.0698 188.045 55.3961 192.257 55.3961 192.257C55.5886 191.362 57.3877 188.496 58.5502 187.452C59.7126 186.408 61.1489 185.912 61.7783 186.734C62.1559 187.23 62.1262 187.948 62.0374 188.452C59.2757 190.443 58.7056 193.99 58.7056 193.99C58.8981 193.094 60.6973 190.229 61.8597 189.185C63.0221 188.141 64.4585 187.645 65.0878 188.467C65.7171 189.288 64.9842 190.643 64.9842 190.643C64.9842 190.643 63.955 192.235 62.4076 193.146C63.4664 192.976 65.7023 191.532 65.8874 189.636C66.0429 188.563 65.7468 186.845 63.8958 187.482Z" fill="#EF9D5B"/>
<path d="M68.2492 188.467C68.2492 188.467 69.4487 184.698 67.035 181.263C69.0267 182.529 70.3149 186.134 68.2492 188.467Z" fill="#EF9D5B"/>
<path d="M234.312 187.482C234.808 187.645 235.259 187.859 235.667 188.104C235.437 187.097 235.637 185.068 237.621 185.757C237.791 185.809 237.947 185.883 238.102 185.949C237.725 184.965 237.621 183.136 239.605 183.402C244.196 183.913 245.995 188.718 245.995 188.718C245.625 187.874 243.293 185.438 241.938 184.646C240.583 183.854 239.08 183.654 238.628 184.587C238.376 185.113 238.517 185.757 238.687 186.223C242.138 188.045 242.811 192.257 242.811 192.257C242.619 191.362 240.82 188.496 239.657 187.452C238.495 186.408 237.058 185.912 236.429 186.734C236.052 187.23 236.081 187.948 236.17 188.452C238.932 190.443 239.502 193.99 239.502 193.99C239.309 193.094 237.51 190.229 236.348 189.185C235.185 188.141 233.749 187.645 233.12 188.467C232.49 189.288 233.223 190.643 233.223 190.643C233.223 190.643 234.252 192.235 235.8 193.146C234.741 192.976 232.505 191.532 232.32 189.636C232.164 188.563 232.461 186.845 234.312 187.482Z" fill="#EF9D5B"/>
<path d="M229.958 188.467C229.958 188.467 228.759 184.698 231.172 181.263C229.188 182.529 227.892 186.134 229.958 188.467Z" fill="#EF9D5B"/>
</svg>
