<svg width="265" height="242" viewBox="0 0 265 242" fill="none" xmlns="http://www.w3.org/2000/svg">
<g clip-path="url(#clip0_20_679)">
<path d="M235.327 118.521C244.645 97.4968 263.857 77.6412 253.374 54.2733C246.967 39.0913 227.173 37.3387 211.456 37.3387C209.709 36.7545 207.962 36.1703 206.214 35.0019C195.149 25.0777 192.82 7.55182 178.267 1.71698C170.114 -1.20401 161.385 -0.619812 154.396 5.22216C145.66 13.4009 143.331 25.0777 135.185 33.2565C124.652 43.4301 111.761 48.8802 97.9261 50.6684C81.3352 52.5564 76.0298 47.4981 65.3125 45.5175C35.0355 39.6755 18.7358 71.7992 25.142 97.4968C28.6363 112.679 41.2571 128.131 37.1804 143.898C31.9389 166.09 16.4346 170.521 19.517 194.367C21.2997 208.131 31.1647 217.727 42.8054 224.738C66.0937 238.751 85.1136 234.377 108.409 226.782C117.145 224.446 126.207 225.614 134.361 229.119C153.572 237.882 174.773 245.847 195.732 240.005C209.702 236.5 210.803 222.6 214.297 210.916C214.297 209.748 215.121 205.538 220.433 201.883C235.717 192.464 247.869 193.198 252.791 179.263C258.388 163.411 242.308 153.565 236.491 140.713C232.997 133.71 232.415 124.947 235.327 118.521Z" fill="#D9F490"/>
<path d="M137.578 20.91C137.578 20.91 133.679 35.4508 111.328 41.8057C88.9772 48.1606 75.9232 47.3841 70.2201 39.989C64.5241 32.5939 75.7741 30.0576 87.8124 26.1678C99.8508 22.2779 99.6519 7.86529 115.568 4.75195C131.477 1.63861 141.371 9.81736 137.578 20.91Z" fill="#D9F490"/>
<path d="M37.983 165.898C37.983 165.898 37.5852 153.366 50.8168 149.59C64.0483 145.814 64.6236 150.16 67.8125 150.851C71.0085 151.535 73.2884 150.737 75.2273 154.855C77.1662 158.973 80.4759 158.745 82.4148 163.554C84.3537 168.363 81.733 167.786 85.2699 172.937C88.8068 178.087 88.6932 185.069 85.2699 190.334C81.8466 195.599 80.8239 197.202 77.8551 199.261C74.8864 201.32 72.0384 202.809 68.5014 201.662C64.9645 200.515 60.2841 207.611 60.2841 207.611C60.2841 207.611 50.9304 209.1 46.5909 210.931C42.2585 212.762 34.723 206.471 32.2159 206.236C29.7088 206.008 23.885 203.03 20.8097 199.254C17.7273 195.478 18.9844 193.419 18.8708 188.61C18.7571 183.801 18.3026 177.966 21.0369 175.565C23.7784 173.165 25.1421 168.584 28.679 167.323C32.223 166.069 37.983 165.898 37.983 165.898Z" fill="#266026"/>
<path d="M171.733 201.007L176.776 200.501C176.364 187.762 173.942 142.729 160.178 128.495C160.178 128.488 175.81 170.03 171.733 201.007Z" fill="#347A34"/>
<path d="M179.07 200.266C177.962 182.433 185.099 149.968 185.099 149.968C175.135 165.392 173.615 192.678 173.388 200.843L179.07 200.266Z" fill="#347A34"/>
<path d="M184.183 199.753C183.367 184.827 186.385 162.784 186.385 162.784C178.573 175.017 177.472 190.797 177.55 200.159L184.183 199.753Z" fill="#347A34"/>
<path d="M210.696 178.729C210.696 178.729 194.546 189.223 189.624 199.204L192.6 198.905C194.823 195.806 203.793 183.744 210.902 180.78C212.727 178.394 210.696 178.729 210.696 178.729Z" fill="#347A34"/>
<path d="M186.108 199.553C187.024 189.216 191.463 183.409 191.463 183.409C191.463 183.409 192.983 181.03 195.845 178.615C188.899 179.933 184.936 192.785 183.274 199.838L186.108 199.553Z" fill="#347A34"/>
<path d="M159.95 104.97C159.95 104.97 151.3 91.3983 156.96 73.0674C162.621 54.7364 163.729 55.4346 169.531 47.4553C175.334 39.476 179.886 29.3025 190.178 29.4521C200.469 29.6017 199.624 23.318 209.07 28.989C203.849 28.1697 193.161 32.0382 192.415 39.4974C191.669 46.9566 188.956 51.9935 185.788 55C182.621 58.0065 182.94 65.7863 179.354 70.7448C175.767 75.7034 169.268 89.888 165.561 93.8349C161.854 97.7818 161.854 106.644 162.003 107.321C162.152 107.998 159.95 104.97 159.95 104.97Z" fill="#5CAA2E"/>
<path d="M161.236 108.005C160.966 107.677 160.874 107.485 160.732 107.229C160.597 106.986 160.504 106.751 160.391 106.509C160.206 106.032 160.036 105.547 159.922 105.07C159.659 104.108 159.524 103.139 159.432 102.177C159.283 100.254 159.332 98.3446 159.538 96.4637C159.929 92.7021 160.824 89.0544 161.911 85.4922C163.019 81.9443 164.176 78.3964 165.938 75.0551C166.804 73.388 167.827 71.8206 168.757 70.2604C169.702 68.7001 170.483 67.0758 171.108 65.3659C172.209 61.8679 173.601 58.3698 175.206 55.0428C176.804 51.7014 178.594 48.4527 180.625 45.3536C182.656 42.2617 184.922 39.3122 187.55 36.7047C190.171 34.1185 193.217 31.853 196.712 30.6418C193.246 31.9385 190.277 34.2539 187.727 36.8828C185.178 39.533 182.99 42.511 181.044 45.6244C179.098 48.7448 177.394 52.0149 175.881 55.3633C174.361 58.726 173.075 62.1244 172.053 65.7008C171.463 67.4819 170.689 69.2202 169.766 70.8446C168.857 72.476 167.905 74.0292 167.109 75.6606C165.519 78.9093 164.453 82.4359 163.43 85.9482C162.443 89.4605 161.648 93.044 161.349 96.6418C161.186 98.4372 161.186 100.233 161.357 101.985C161.456 102.854 161.598 103.723 161.84 104.536C161.946 104.949 162.095 105.334 162.251 105.718C162.344 105.889 162.422 106.082 162.514 106.245C162.592 106.395 162.734 106.602 162.756 106.63L161.236 108.005Z" fill="#347A34"/>
<path d="M160.305 66.5201C160.767 69.3841 161.264 72.2481 161.797 75.0978C162.081 76.5156 162.351 77.9404 162.678 79.351C163.018 80.7474 163.359 82.1794 163.956 83.4404L163.594 83.3407C165.597 82.1224 167.585 80.8757 169.574 79.636L172.543 77.7552C173.537 77.1282 174.524 76.5013 175.49 75.8316C173.658 77.3064 171.733 78.66 169.787 79.9709C167.841 81.2889 165.852 82.5356 163.864 83.7824L163.615 83.9391L163.501 83.6826C162.876 82.3076 162.557 80.8828 162.223 79.465C161.911 78.0402 161.634 76.6153 161.413 75.1762C160.945 72.2979 160.582 69.4126 160.305 66.5201Z" fill="#347A34"/>
<path d="M166.136 57.2941C166.136 59.8659 166.264 62.4307 166.477 64.9812C166.712 67.5317 167.017 70.0751 167.585 72.5687L167.251 72.3906C169.95 71.3148 172.614 70.1393 175.178 68.7785C176.47 68.1088 177.734 67.4035 178.956 66.6127C180.163 65.8219 181.413 65.0168 182.287 63.8342C181.484 65.0667 180.277 65.9644 179.105 66.8264C177.905 67.6671 176.648 68.4223 175.376 69.1419C174.098 69.8543 172.791 70.5026 171.463 71.1224C170.135 71.7351 168.8 72.3336 167.436 72.8536L167.159 72.9605L167.102 72.6755C166.57 70.1464 166.236 67.5816 166.108 65.0097C165.959 62.4378 165.966 59.8588 166.136 57.2941Z" fill="#347A34"/>
<path d="M172.841 48.6023C172.543 50.8038 172.401 53.0266 172.358 55.2351C172.358 57.4437 172.457 59.6665 173.019 61.7895L172.67 61.6257C173.771 61.0842 174.865 60.5285 175.916 59.8802C176.96 59.2319 177.983 58.5408 178.977 57.8141C179.979 57.0874 180.952 56.3323 181.896 55.5343C182.855 54.7507 183.793 53.9385 184.688 53.0836C183.026 54.9288 181.186 56.6172 179.226 58.149C178.253 58.9255 177.216 59.6166 176.165 60.2934C175.114 60.956 174.02 61.5687 172.884 62.0959L172.607 62.2241L172.536 61.932C172.003 59.7306 171.882 57.4722 171.982 55.2422C172.081 52.9981 172.372 50.7824 172.841 48.6023Z" fill="#347A34"/>
<path d="M178.828 42.3614C178.494 43.544 178.274 44.7481 178.175 45.9592C178.104 47.1632 178.146 48.3815 178.494 49.5214L178.239 49.3504C178.984 49.2649 179.723 49.0512 180.455 48.8089C181.186 48.5667 181.903 48.2604 182.614 47.9398C184.041 47.32 185.433 46.5933 186.818 45.8666C185.554 46.7999 184.198 47.6121 182.791 48.3316C182.081 48.6807 181.357 49.0013 180.611 49.272C179.865 49.5428 179.091 49.7779 178.274 49.842L178.068 49.8562L178.019 49.6639C177.685 48.4385 177.635 47.1561 177.813 45.9236C177.99 44.6839 178.324 43.4799 178.828 42.3614Z" fill="#347A34"/>
<path d="M204.304 147.56C204.304 147.56 197.948 132.769 206.484 115.593C215.021 98.4158 216.001 99.2921 223.011 92.353C230.021 85.4139 236.151 76.1095 246.279 77.9262C256.406 79.7358 256.591 73.3951 264.993 80.5266C259.979 78.8737 248.8 80.9612 246.868 88.1995C244.929 95.4378 241.442 99.9761 237.834 102.427C234.219 104.878 233.288 112.615 228.956 116.925C224.617 121.235 215.923 134.187 211.634 137.479C207.337 140.77 205.909 149.519 205.952 150.21C205.987 150.901 204.304 147.56 204.304 147.56Z" fill="#347A34"/>
<path d="M205.085 150.766C204.872 150.395 204.808 150.188 204.709 149.918C204.617 149.661 204.56 149.412 204.489 149.155C204.382 148.65 204.29 148.151 204.254 147.659C204.148 146.662 204.176 145.693 204.24 144.724C204.404 142.801 204.759 140.927 205.263 139.103C206.257 135.455 207.727 132 209.368 128.659C211.03 125.339 212.749 122.019 215.021 119.005C216.144 117.502 217.408 116.12 218.58 114.731C219.766 113.341 220.796 111.867 221.683 110.285C223.338 107.015 225.27 103.788 227.386 100.767C229.503 97.7319 231.79 94.8109 234.29 92.0823C236.79 89.3608 239.503 86.8102 242.514 84.6658C245.519 82.5356 248.885 80.7973 252.529 80.1632C248.899 80.8756 245.597 82.6852 242.656 84.8653C239.709 87.0667 237.081 89.6529 234.652 92.41C232.23 95.1742 230.021 98.1237 227.99 101.18C225.952 104.251 224.134 107.4 222.55 110.762C221.683 112.422 220.632 114.011 219.467 115.464C218.303 116.925 217.117 118.307 216.073 119.789C213.984 122.738 212.365 126.044 210.788 129.343C209.247 132.648 207.884 136.054 207.017 139.559C206.563 141.304 206.279 143.078 206.165 144.838C206.122 145.714 206.122 146.591 206.229 147.431C206.264 147.859 206.357 148.265 206.442 148.664C206.506 148.849 206.548 149.056 206.619 149.227C206.676 149.391 206.783 149.611 206.797 149.647L205.085 150.766Z" fill="#5CAA2E"/>
<path d="M210.831 109.672C210.824 112.579 210.859 115.479 210.923 118.378C210.98 119.824 211.009 121.278 211.108 122.717C211.222 124.149 211.328 125.617 211.712 126.956L211.371 126.799C213.544 125.923 215.703 125.011 217.869 124.106L221.108 122.731C222.188 122.275 223.267 121.812 224.325 121.306C222.28 122.468 220.163 123.486 218.033 124.47C215.902 125.453 213.736 126.365 211.57 127.277L211.3 127.391L211.229 127.12C210.831 125.659 210.746 124.206 210.646 122.753C210.568 121.299 210.526 119.846 210.533 118.392C210.54 115.472 210.639 112.572 210.831 109.672Z" fill="#5CAA2E"/>
<path d="M218.082 101.508C217.663 104.044 217.386 106.595 217.181 109.152C217.003 111.71 216.896 114.267 217.06 116.818L216.754 116.59C219.588 115.97 222.408 115.236 225.156 114.31C226.534 113.861 227.905 113.363 229.233 112.786C230.554 112.201 231.911 111.61 232.962 110.584C231.967 111.674 230.632 112.365 229.34 113.028C228.019 113.662 226.662 114.203 225.284 114.709C223.906 115.208 222.507 115.635 221.101 116.034C219.695 116.426 218.281 116.797 216.847 117.089L216.556 117.146L216.541 116.854C216.421 114.267 216.506 111.681 216.79 109.124C217.074 106.552 217.5 104.008 218.082 101.508Z" fill="#5CAA2E"/>
<path d="M226.087 94.0201C225.44 96.1503 224.936 98.3161 224.546 100.489C224.19 102.669 223.928 104.878 224.141 107.058L223.821 106.837C224.993 106.481 226.165 106.11 227.301 105.64C228.438 105.17 229.56 104.657 230.653 104.094C231.754 103.538 232.841 102.947 233.899 102.32C234.972 101.7 236.023 101.052 237.046 100.347C235.107 101.9 233.026 103.26 230.838 104.457C229.751 105.063 228.615 105.583 227.472 106.082C226.321 106.566 225.149 106.994 223.942 107.328L223.651 107.414L223.629 107.115C223.459 104.856 223.7 102.605 224.162 100.425C224.631 98.2306 225.277 96.0933 226.087 94.0201Z" fill="#5CAA2E"/>
<path d="M233.004 88.8264C232.479 89.9378 232.074 91.092 231.783 92.2675C231.52 93.4501 231.364 94.6541 231.52 95.8368L231.293 95.6231C232.039 95.6587 232.806 95.5661 233.573 95.4521C234.333 95.331 235.093 95.1457 235.838 94.9391C237.351 94.5615 238.835 94.0699 240.327 93.5712C238.928 94.2908 237.465 94.8679 235.959 95.3523C235.206 95.5803 234.439 95.7798 233.658 95.9294C232.877 96.079 232.081 96.1859 231.257 96.1146L231.051 96.1004L231.03 95.9009C230.895 94.6328 231.051 93.3646 231.428 92.1749C231.804 90.9851 232.323 89.8523 233.004 88.8264Z" fill="#5CAA2E"/>
<path d="M164.893 143.648C164.893 143.648 173.544 130.076 167.884 111.745C162.223 93.4145 161.115 94.1127 155.313 86.1334C149.51 78.1542 144.957 67.9806 134.666 68.1302C124.375 68.2798 125.22 61.9961 115.774 67.6671C120.994 66.8478 131.683 70.7163 132.429 78.1755C133.175 85.6347 135.888 90.6716 139.055 93.6781C142.223 96.6846 141.903 104.464 145.49 109.423C149.077 114.381 155.575 128.566 159.283 132.513C162.99 136.46 162.99 145.323 162.841 145.999C162.692 146.676 164.893 143.648 164.893 143.648Z" fill="#5CAA2E"/>
<path d="M163.608 146.69C163.878 146.363 163.97 146.17 164.112 145.914C164.247 145.672 164.34 145.437 164.453 145.194C164.638 144.717 164.808 144.233 164.922 143.755C165.185 142.793 165.32 141.825 165.412 140.863C165.561 138.939 165.511 137.03 165.306 135.149C164.915 131.387 164.02 127.74 162.933 124.177C161.825 120.63 160.668 117.082 158.906 113.74C158.04 112.073 157.017 110.506 156.087 108.946C155.142 107.385 154.361 105.761 153.736 104.051C152.635 100.553 151.243 97.0551 149.638 93.728C148.04 90.3867 146.25 87.138 144.219 84.0389C142.188 80.9469 139.922 77.9974 137.294 75.3899C134.673 72.8038 131.627 70.5382 128.132 69.3271C131.598 70.6166 134.567 72.9391 137.117 75.568C139.666 78.2183 141.854 81.1963 143.8 84.3096C145.746 87.4301 147.45 90.7001 148.963 94.0486C150.483 97.4113 151.769 100.81 152.791 104.386C153.381 106.167 154.155 107.905 155.078 109.53C155.987 111.161 156.939 112.714 157.734 114.346C159.325 117.595 160.391 121.121 161.413 124.633C162.401 128.146 163.196 131.729 163.494 135.327C163.658 137.122 163.658 138.918 163.487 140.67C163.388 141.54 163.246 142.409 163.004 143.221C162.898 143.634 162.749 144.019 162.592 144.404C162.5 144.575 162.422 144.767 162.33 144.931C162.252 145.08 162.109 145.287 162.088 145.315L163.608 146.69Z" fill="#347A34"/>
<path d="M164.545 105.198C164.084 108.062 163.587 110.926 163.054 113.776C162.77 115.194 162.5 116.619 162.173 118.029C161.832 119.426 161.492 120.858 160.895 122.119L161.257 122.019C159.254 120.801 157.266 119.554 155.277 118.314L152.308 116.433C151.314 115.806 150.327 115.179 149.361 114.51C151.193 115.984 153.118 117.338 155.064 118.649C157.01 119.967 158.999 121.214 160.987 122.461L161.236 122.617L161.349 122.361C161.974 120.986 162.294 119.561 162.628 118.143C162.94 116.718 163.217 115.293 163.438 113.854C163.906 110.976 164.268 108.091 164.545 105.198Z" fill="#347A34"/>
<path d="M158.707 95.9722C158.707 98.5441 158.58 101.109 158.367 103.659C158.132 106.21 157.827 108.753 157.259 111.247L157.592 111.069C154.894 109.993 152.23 108.817 149.666 107.457C148.374 106.787 147.109 106.082 145.888 105.291C144.68 104.5 143.43 103.695 142.557 102.512C143.359 103.745 144.567 104.643 145.739 105.505C146.939 106.345 148.196 107.1 149.467 107.82C150.746 108.532 152.053 109.181 153.381 109.801C154.709 110.413 156.044 111.012 157.408 111.532L157.685 111.639L157.742 111.354C158.274 108.825 158.608 106.26 158.736 103.688C158.892 101.116 158.878 98.5369 158.707 95.9722Z" fill="#347A34"/>
<path d="M152.01 87.2805C152.308 89.4819 152.45 91.7047 152.493 93.9132C152.493 96.1218 152.394 98.3446 151.832 100.468L152.181 100.304C151.08 99.7623 149.986 99.2066 148.935 98.5583C147.891 97.91 146.868 97.2189 145.874 96.4922C144.872 95.7656 143.899 95.0104 142.955 94.2125C141.996 93.4288 141.058 92.6166 140.163 91.7617C141.825 93.6069 143.665 95.2954 145.625 96.8271C146.598 97.6036 147.635 98.2947 148.686 98.9715C149.737 99.6341 150.831 100.247 151.967 100.774L152.244 100.902L152.315 100.61C152.848 98.4087 152.969 96.1503 152.869 93.9203C152.763 91.6762 152.472 89.4605 152.01 87.2805Z" fill="#347A34"/>
<path d="M146.016 81.0395C146.35 82.2222 146.57 83.4262 146.669 84.6373C146.74 85.8413 146.698 87.0596 146.35 88.1995L146.605 88.0285C145.859 87.943 145.121 87.7293 144.389 87.4871C143.658 87.2448 142.94 86.9385 142.23 86.6179C140.803 85.9981 139.411 85.2714 138.026 84.5447C139.29 85.478 140.646 86.2902 142.053 87.0097C142.763 87.3588 143.487 87.6794 144.233 87.9501C144.979 88.2209 145.753 88.456 146.57 88.5201L146.776 88.5343L146.825 88.342C147.159 87.1166 147.209 85.8342 147.031 84.6017C146.854 83.3692 146.527 82.158 146.016 81.0395Z" fill="#347A34"/>
<path d="M174.183 197.508C174.183 197.508 171.776 183.666 158.935 174.938C152.607 170.635 153.551 166.767 148.615 165.933C143.672 165.1 136.271 161.709 134.183 159.999C132.095 158.289 102.983 154.484 95.9589 157.847C104.325 159.073 113.367 170.058 117.479 169.944C121.591 169.823 127.315 174.019 133.558 177.525C139.801 181.03 144.091 178.052 148.068 179.569C152.046 181.094 166.634 187.164 174.183 197.508Z" fill="#347A34"/>
<path d="M165.852 187.078C163.85 184.955 161.747 182.939 159.609 180.966C158.53 179.99 157.429 179.042 156.271 178.194C155.114 177.361 153.857 176.627 152.585 175.95C151.307 175.273 149.986 174.71 148.636 174.19C147.28 173.67 145.895 173.186 144.567 172.523C143.239 171.889 141.975 171.049 140.796 170.244C139.602 169.488 138.281 168.883 136.946 168.327C131.577 166.161 125.952 164.594 120.369 162.948L103.565 158.168C109.212 159.593 114.879 160.939 120.504 162.449C126.129 163.953 131.761 165.492 137.216 167.657C138.573 168.213 139.922 168.812 141.193 169.609C142.429 170.436 143.601 171.205 144.894 171.847C146.172 172.495 147.528 172.986 148.892 173.521C150.256 174.055 151.605 174.646 152.905 175.345C154.19 176.057 155.469 176.784 156.634 177.703C157.798 178.615 158.871 179.605 159.922 180.624C162.031 182.654 163.956 184.856 165.852 187.078Z" fill="#2A6B2A"/>
<path d="M150.277 168.413C151.989 169.795 153.572 171.362 154.943 173.108C155.639 173.977 156.25 174.91 156.776 175.893C157.301 176.876 157.72 177.938 157.919 179.056L157.955 179.256L157.756 179.306C156.669 179.584 155.575 179.847 154.467 180.061C153.359 180.268 152.251 180.453 151.122 180.538C150 180.631 148.871 180.645 147.749 180.552C146.641 180.424 145.49 180.239 144.524 179.648C145.518 180.175 146.662 180.282 147.763 180.332C148.871 180.381 149.986 180.324 151.094 180.196C152.195 180.061 153.295 179.89 154.389 179.669C155.483 179.441 156.563 179.163 157.635 178.878L157.472 179.128C157.109 176.997 155.938 175.074 154.659 173.314C154.013 172.431 153.31 171.583 152.571 170.771C151.854 169.951 151.094 169.161 150.277 168.413Z" fill="#2A6B2A"/>
<path d="M142.784 165.484C144.198 166.589 145.405 167.935 146.506 169.36C147.6 170.785 148.53 172.338 149.347 173.948L149.467 174.183L149.219 174.262C147.131 174.889 144.965 175.28 142.777 175.345C140.604 175.387 138.381 175.181 136.364 174.369C138.445 174.988 140.625 175.109 142.763 174.988C143.835 174.924 144.901 174.803 145.959 174.611C147.017 174.418 148.054 174.141 149.091 173.848L148.956 174.155C148.182 172.552 147.252 171.034 146.243 169.574C145.213 168.113 144.084 166.717 142.784 165.484Z" fill="#2A6B2A"/>
<path d="M128.608 158.78C130.234 159.935 131.747 161.253 133.146 162.692C134.538 164.131 135.796 165.734 136.676 167.572L136.79 167.814L136.527 167.878C134.602 168.334 132.663 168.705 130.71 169.004C128.757 169.289 126.797 169.524 124.823 169.631C126.769 169.332 128.715 169.011 130.646 168.648C132.585 168.299 134.51 167.9 136.421 167.444L136.271 167.75C135.462 165.962 134.212 164.394 132.905 162.913C131.57 161.452 130.128 160.077 128.608 158.78Z" fill="#2A6B2A"/>
<path d="M116.605 158.417C118.203 158.987 119.766 159.685 121.25 160.526C121.996 160.946 122.72 161.402 123.395 161.951C124.055 162.499 124.716 163.105 125.092 163.953L125.163 164.117L125.007 164.216C124.19 164.729 123.303 165.007 122.422 165.257C121.534 165.499 120.646 165.705 119.744 165.876C117.947 166.197 116.136 166.461 114.318 166.589C116.108 166.254 117.898 165.919 119.666 165.513C120.554 165.313 121.435 165.1 122.301 164.85C123.161 164.587 124.027 164.295 124.766 163.86L124.688 164.124C124.382 163.397 123.771 162.791 123.132 162.264C122.486 161.737 121.79 161.253 121.08 160.804C119.659 159.913 118.146 159.13 116.605 158.417Z" fill="#2A6B2A"/>
<path d="M164.056 131.986C164.056 131.986 157.202 113.477 144.084 111.845C130.966 110.214 126.385 105.654 117.962 103.845C109.538 102.035 102.308 109.259 102.308 109.259C102.308 109.259 112.088 108.426 122.166 114.275C132.252 120.124 151.065 130.86 164.056 131.986Z" fill="#5CAA2E"/>
<path d="M164.056 131.986C164.056 131.986 156.783 120.231 143.665 118.599C130.547 116.968 126.868 110.05 118.445 108.24C110.021 106.431 102.308 109.259 102.308 109.259C102.308 109.259 112.088 108.426 122.166 114.275C132.252 120.124 151.065 130.86 164.056 131.986Z" fill="#347A34"/>
<path d="M188.288 194.673C188.288 194.673 190.632 184.92 195.959 178.871C201.286 172.823 205.753 173.628 208.899 170.678C212.045 167.729 220.355 164.223 224.531 165.641C228.707 167.059 235.497 166.539 239.325 177.347C236.413 175.302 232.365 178.714 227.898 181.5C223.43 184.286 217.429 180.218 213.501 182.946C209.574 185.682 206.378 191.681 201.946 192.457C197.514 193.241 188.288 194.673 188.288 194.673Z" fill="#347A34"/>
<path d="M187.855 194.716C189.403 192.493 190.973 190.291 192.685 188.29C193.537 187.285 194.41 186.309 195.334 185.426C196.264 184.521 197.287 183.83 198.31 183.181C199.339 182.533 200.419 182.006 201.506 181.564C202.592 181.115 203.686 180.731 204.723 180.203C205.767 179.683 206.761 179.021 207.72 178.266C208.7 177.468 209.773 176.876 210.838 176.356C215.142 174.354 219.659 173.236 224.24 172.865C226.534 172.701 228.842 172.709 231.151 173.1C233.452 173.499 235.767 174.212 237.912 175.573C235.732 174.319 233.423 173.734 231.136 173.457C228.842 173.207 226.555 173.214 224.29 173.457C222.024 173.699 219.78 174.155 217.564 174.746C215.348 175.345 213.161 176.107 211.058 177.133C210.007 177.653 208.984 178.237 208.047 179.014C207.074 179.812 206.037 180.488 204.957 181.008C203.878 181.543 202.77 181.913 201.697 182.341C200.618 182.768 199.567 183.267 198.551 183.887C197.535 184.521 196.534 185.19 195.611 186.003C194.68 186.822 193.793 187.748 192.919 188.703C191.2 190.626 189.489 192.614 187.855 194.716Z" fill="#5CAA2E"/>
<path d="M200.916 175.501C200.241 176.249 199.602 177.054 198.991 177.895C198.374 178.729 197.784 179.591 197.237 180.517C196.165 182.348 195.163 184.378 194.822 186.729L194.695 186.43C195.561 186.872 196.427 187.306 197.301 187.677C198.182 188.054 199.062 188.368 199.957 188.639C200.845 188.909 201.747 189.095 202.649 189.166C203.544 189.23 204.467 189.237 205.291 188.76C204.496 189.315 203.558 189.401 202.656 189.415C201.747 189.394 200.831 189.251 199.922 189.023C199.013 188.802 198.118 188.475 197.23 188.119C196.342 187.755 195.462 187.335 194.588 186.9L194.432 186.822L194.467 186.601C194.659 185.369 195.021 184.221 195.469 183.174C195.916 182.127 196.442 181.151 197.024 180.253C198.175 178.451 199.496 176.862 200.916 175.501Z" fill="#2A6B2A"/>
<path d="M207.053 173.058C205.973 174.297 205.028 175.729 204.155 177.24C203.303 178.771 202.514 180.374 201.847 182.084L201.747 181.721C202.578 182.163 203.409 182.59 204.261 182.925C205.114 183.26 205.973 183.516 206.84 183.709C208.565 184.079 210.341 184.193 212.038 183.73C210.384 184.414 208.58 184.4 206.818 184.115C205.05 183.794 203.31 183.117 201.634 182.177L201.435 182.063L201.534 181.813C202.237 180.104 203.026 178.465 203.942 176.983C204.865 175.516 205.881 174.133 207.053 173.058Z" fill="#2A6B2A"/>
<path d="M218.693 167.109C217.436 168.391 216.229 169.773 215.114 171.269C214.02 172.787 212.969 174.404 212.273 176.321L212.159 175.964C213.693 176.684 215.241 177.354 216.804 177.959C218.359 178.586 219.929 179.156 221.499 179.712C219.908 179.37 218.324 178.892 216.747 178.351C215.177 177.795 213.615 177.161 212.067 176.435L211.854 176.335L211.953 176.078C212.706 174.105 213.764 172.452 214.929 170.992C216.087 169.538 217.351 168.227 218.693 167.109Z" fill="#5CAA2E"/>
<path d="M228.409 168.035C227.145 168.669 225.909 169.374 224.723 170.208C224.133 170.635 223.558 171.091 223.025 171.619C222.5 172.146 221.989 172.758 221.726 173.535L221.669 173.236C222.258 173.813 222.954 174.233 223.643 174.625C224.339 175.01 225.05 175.345 225.76 175.665C227.18 176.321 228.622 176.898 230.064 177.475C228.594 177.126 227.138 176.634 225.689 176.071C224.964 175.772 224.247 175.444 223.537 175.074C222.827 174.696 222.116 174.29 221.47 173.62L221.349 173.492L221.413 173.314C221.74 172.402 222.287 171.797 222.841 171.255C223.395 170.714 223.999 170.286 224.609 169.894C225.824 169.111 227.102 168.498 228.409 168.035Z" fill="#5CAA2E"/>
<path d="M190.121 184.3C190.121 184.3 188.345 173.179 197.202 166.753C206.051 160.326 214.624 155.475 217.706 148.742C220.788 142.01 232.72 137.707 245.057 141.782C236.271 142.223 225.952 151.677 215.199 163.397C204.439 175.102 190.121 184.3 190.121 184.3Z" fill="#5CAA2E"/>
<path d="M190.121 184.3C190.121 184.3 188.345 173.179 197.202 166.753C206.051 160.326 215.391 160.768 218.473 154.029C221.555 147.296 232.72 137.699 245.057 141.775C236.271 142.216 225.952 151.67 215.199 163.39C204.439 175.102 190.121 184.3 190.121 184.3Z" fill="#3AA33A"/>
<path d="M182.088 185.105C182.088 185.105 180.98 158.916 191.527 152.718C202.074 146.512 200.277 136.182 211.577 129.407C222.876 122.631 231.328 112.551 246.57 112.629C233.53 118.478 230.44 125.168 225.554 133.275C220.668 141.383 214.411 145.629 212.28 148.821C210.149 152.005 203.715 162.606 199.283 164.615C194.844 166.617 184.055 178.422 182.088 185.105Z" fill="#3AA33A"/>
<path d="M182.088 185.105C182.088 185.105 184.659 162.143 195.206 155.938C205.753 149.733 203.26 139.659 214.567 132.883C225.867 126.108 231.335 112.543 246.57 112.629C233.53 118.478 230.44 125.168 225.554 133.275C220.668 141.383 214.411 145.629 212.28 148.821C210.149 152.005 203.715 162.606 199.283 164.615C194.844 166.617 184.055 178.422 182.088 185.105Z" fill="#347A34"/>
<path d="M166.115 187.883C166.115 187.883 153.999 174.953 141.541 177.696C129.084 180.438 132.585 188.225 120.007 186.138C107.429 184.058 89.3964 197.979 88.5796 207.511C98.5157 197.943 105.952 195.72 122.507 196.418C139.063 197.117 156.321 187.086 166.115 187.883Z" fill="#3AA33A"/>
<path d="M166.115 187.883C166.115 187.883 155.135 181.222 142.67 183.965C130.213 186.708 133.217 191.681 120.646 189.6C108.068 187.52 89.3963 197.979 88.5867 207.511C98.5227 197.943 110.795 202.075 127.351 202.766C143.906 203.471 156.321 187.085 166.115 187.883Z" fill="#347A34"/>
<path d="M174.716 200.7C171.25 190.327 163.686 183.851 157.72 184.706C167.876 188.924 170.433 196.632 171.037 201.071L174.716 200.7Z" fill="#347A34"/>
<path d="M162.955 156.315C162.955 156.315 151.783 144.738 153.7 125.645C155.618 106.552 156.84 107.015 160.952 98.0382C165.057 89.0615 167.507 78.1827 177.621 76.2805C187.734 74.3783 185.661 68.3795 196.044 72.0628C190.767 72.2979 181.058 78.2254 181.804 85.6775C182.55 93.1367 180.888 98.6153 178.374 102.192C175.859 105.768 177.72 113.334 175.185 118.905C172.649 124.477 169.091 139.673 166.243 144.282C163.395 148.892 165.142 157.576 165.426 158.211C165.71 158.845 162.955 156.315 162.955 156.315Z" fill="#3AA33A"/>
<path d="M164.822 159.037C164.496 158.766 164.361 158.595 164.169 158.374C163.992 158.168 163.849 157.954 163.693 157.74C163.416 157.306 163.153 156.871 162.947 156.422C162.5 155.532 162.18 154.606 161.896 153.687C161.371 151.827 161.037 149.946 160.874 148.065C160.511 144.304 160.668 140.549 161.023 136.845C161.406 133.147 161.84 129.435 162.905 125.809C163.423 124.006 164.119 122.261 164.723 120.544C165.341 118.827 165.781 117.082 166.058 115.279C166.449 111.631 167.117 107.927 168.033 104.35C168.942 100.76 170.05 97.2118 171.428 93.7707C172.805 90.3368 174.439 86.9884 176.499 83.9106C178.558 80.8543 181.094 78.0259 184.276 76.138C181.136 78.0972 178.686 80.9612 176.705 84.046C174.73 87.1522 173.182 90.5078 171.882 93.9488C170.59 97.3899 169.574 100.938 168.75 104.521C167.926 108.119 167.344 111.71 167.045 115.415C166.818 117.274 166.406 119.133 165.824 120.907C165.256 122.688 164.631 124.398 164.176 126.158C163.26 129.656 162.919 133.325 162.607 136.973C162.337 140.613 162.266 144.282 162.685 147.866C162.876 149.661 163.232 151.421 163.75 153.102C164.02 153.936 164.332 154.755 164.73 155.503C164.915 155.888 165.142 156.237 165.369 156.579C165.49 156.729 165.611 156.907 165.732 157.042C165.838 157.17 166.016 157.348 166.044 157.37L164.822 159.037Z" fill="#347A34"/>
<path d="M155.689 118.563C156.712 121.278 157.763 123.985 158.849 126.671C159.411 128.003 159.95 129.35 160.554 130.661C161.165 131.964 161.783 133.297 162.614 134.408L162.237 134.38C163.963 132.791 165.661 131.166 167.365 129.556L169.908 127.12C170.76 126.308 171.605 125.495 172.415 124.648C170.916 126.457 169.29 128.167 167.642 129.841C165.994 131.516 164.29 133.14 162.592 134.757L162.379 134.957L162.216 134.729C161.328 133.503 160.739 132.171 160.128 130.846C159.545 129.514 158.992 128.167 158.48 126.806C157.457 124.099 156.534 121.342 155.689 118.563Z" fill="#347A34"/>
<path d="M159.581 108.354C160.085 110.876 160.725 113.363 161.435 115.821C162.166 118.271 162.976 120.708 164.027 123.03L163.665 122.924C166.094 121.335 168.473 119.646 170.717 117.801C171.847 116.889 172.955 115.942 173.992 114.923C175.014 113.904 176.08 112.871 176.705 111.539C176.165 112.907 175.156 114.025 174.176 115.108C173.168 116.17 172.088 117.16 170.98 118.122C169.872 119.076 168.715 119.974 167.536 120.843C166.357 121.705 165.163 122.56 163.928 123.344L163.679 123.501L163.565 123.237C162.543 120.865 161.705 118.414 161.073 115.92C160.419 113.434 159.922 110.905 159.581 108.354Z" fill="#347A34"/>
<path d="M164.425 98.5084C164.574 100.731 164.865 102.933 165.27 105.106C165.71 107.271 166.243 109.43 167.216 111.396L166.84 111.304C167.813 110.556 168.778 109.793 169.673 108.946C170.568 108.105 171.435 107.222 172.266 106.31C173.104 105.398 173.906 104.464 174.673 103.495C175.455 102.534 176.215 101.558 176.918 100.532C175.654 102.669 174.183 104.692 172.571 106.58C171.769 107.535 170.895 108.418 170 109.295C169.098 110.157 168.146 110.969 167.138 111.71L166.889 111.888L166.761 111.617C165.803 109.565 165.242 107.378 164.894 105.17C164.553 102.961 164.396 100.731 164.425 98.5084Z" fill="#347A34"/>
<path d="M169.055 91.1917C168.956 92.4171 168.984 93.6425 169.126 94.8465C169.297 96.0434 169.581 97.2261 170.142 98.2733L169.858 98.1522C170.568 97.9171 171.257 97.5609 171.925 97.1833C172.592 96.7986 173.239 96.3569 173.864 95.9009C175.142 95.0104 176.357 94.0201 177.578 93.0298C176.52 94.1982 175.355 95.2597 174.119 96.25C173.494 96.7345 172.848 97.1904 172.166 97.6036C171.484 98.0169 170.781 98.4016 169.986 98.6296L169.787 98.6865L169.702 98.5084C169.134 97.3685 168.828 96.1289 168.764 94.8821C168.7 93.6425 168.786 92.3957 169.055 91.1917Z" fill="#347A34"/>
<path d="M182.706 162.927C182.706 162.927 171.044 132.463 175.852 112.508C180.653 92.5525 190.781 89.5033 200.057 78.0188C209.332 66.5343 218.303 70.0965 218.303 70.0965C218.303 70.0965 213.189 77.9119 214.304 98.0881C215.412 118.264 207.315 133.945 194.162 145.964C180.994 157.975 182.706 162.927 182.706 162.927Z" fill="#5CAA2E"/>
<path d="M179.638 165.855C182.188 157.933 184.325 149.761 185.149 141.604C185.263 140.585 185.305 139.566 185.341 138.547C185.405 137.521 185.405 136.424 185.54 135.363C185.753 133.225 186.236 131.074 187.053 129.029C188.693 124.911 191.371 121.456 192.429 117.488C193.033 115.543 193.217 113.47 193.665 111.389C194.063 109.316 194.567 107.264 195.107 105.227C196.2 101.144 197.528 97.1121 199.155 93.1652C200.788 89.2254 202.699 85.3569 205.156 81.7591C207.614 78.1969 210.653 74.7843 214.737 72.6613C210.724 74.8841 207.82 78.3394 205.497 81.9301C203.175 85.5564 201.399 89.4391 199.901 93.3789C198.416 97.3258 197.223 101.365 196.264 105.426C195.795 107.464 195.355 109.501 195.028 111.553C194.837 112.579 194.73 113.598 194.574 114.631L194.325 116.22L193.97 117.794C192.962 122.047 190.291 125.738 188.935 129.556C188.239 131.473 187.855 133.461 187.72 135.47C187.628 136.481 187.663 137.464 187.628 138.519C187.621 139.58 187.607 140.642 187.528 141.696C187.28 145.921 186.584 150.096 185.76 154.242C184.908 158.389 181.605 169.118 180.391 173.222L179.638 165.855Z" fill="#347A34"/>
<path d="M176.889 123.6C178.324 126.863 179.808 130.105 181.328 133.325C182.117 134.928 182.877 136.531 183.715 138.106C184.56 139.666 185.433 141.24 186.548 142.601L185.973 142.558C187.472 141.369 188.992 140.186 190.533 139.039C192.081 137.892 193.615 136.738 195.227 135.662C198.416 133.482 201.698 131.402 205.192 129.649C203.509 130.618 201.903 131.687 200.313 132.769C198.715 133.845 197.145 134.95 195.597 136.082C192.5 138.348 189.453 140.663 186.499 143.078L186.172 143.349L185.923 143.036C184.752 141.561 183.906 139.979 183.068 138.383C182.259 136.78 181.47 135.17 180.774 133.532C179.34 130.269 178.054 126.956 176.889 123.6Z" fill="#347A34"/>
<path d="M183.154 106.723C183.807 110.192 184.666 113.626 185.639 117.018C186.648 120.402 187.77 123.757 189.269 126.97L188.715 126.813C192.529 124.655 196.264 122.368 199.808 119.86C201.591 118.62 203.338 117.331 204.979 115.942C206.605 114.552 208.296 113.142 209.311 111.318C208.409 113.192 206.811 114.723 205.256 116.198C203.651 117.644 201.946 118.998 200.192 120.302C198.438 121.598 196.619 122.824 194.766 124.006C192.912 125.182 191.037 126.336 189.098 127.398L188.708 127.611L188.544 127.241C187.088 123.964 185.923 120.587 185.064 117.146C184.19 113.719 183.551 110.235 183.154 106.723Z" fill="#347A34"/>
<path d="M191.08 93.2364C191.2 96.2928 191.541 99.3277 192.06 102.32C192.628 105.298 193.352 108.283 194.745 110.997L194.176 110.869C195.703 109.85 197.23 108.817 198.644 107.663C200.064 106.516 201.435 105.319 202.756 104.065C204.084 102.826 205.37 101.543 206.598 100.218C207.848 98.9074 209.063 97.568 210.199 96.1717C208.154 99.0998 205.796 101.857 203.218 104.443C201.939 105.747 200.547 106.958 199.127 108.141C197.699 109.316 196.193 110.42 194.61 111.432L194.226 111.681L194.041 111.304C192.664 108.468 191.904 105.455 191.485 102.413C191.058 99.3705 190.931 96.2999 191.08 93.2364Z" fill="#347A34"/>
<path d="M198.558 83.2338C198.352 84.9152 198.331 86.6036 198.494 88.2636C198.693 89.9093 199.07 91.5479 199.886 92.9871L199.453 92.8161C200.561 92.5026 201.634 92.0253 202.678 91.5052C203.729 90.9851 204.737 90.3867 205.725 89.7668C207.735 88.5557 209.652 87.2092 211.57 85.8627C209.887 87.4586 208.047 88.9048 206.101 90.2442C205.114 90.8996 204.105 91.5266 203.04 92.0823C201.975 92.6451 200.867 93.1652 199.645 93.4644L199.34 93.5428L199.212 93.3005C198.388 91.726 197.983 90.0162 197.94 88.3064C197.884 86.5965 198.075 84.8867 198.558 83.2338Z" fill="#347A34"/>
<path d="M173.054 176.698C173.054 176.698 171.982 160.191 155.732 164.33C139.482 168.47 128.665 203.051 147.685 234.484C151.804 221.567 155.291 215.433 169.276 205.359C183.267 195.279 182.82 181.322 173.054 176.698Z" fill="#3AA33A"/>
<path d="M173.004 175.801C170.1 175.865 167.33 176.499 164.709 177.639C162.11 178.8 159.744 180.574 158.061 182.911C156.371 185.233 155.405 188.005 155.014 190.797C154.688 193.526 153.97 196.148 152.877 198.663C150.746 203.685 147.124 208.124 145.668 213.574C144.922 216.267 144.858 219.124 145.306 221.859C145.781 224.595 146.683 227.238 147.82 229.753C146.74 227.21 145.902 224.56 145.497 221.831C145.114 219.102 145.249 216.31 146.037 213.681C147.585 208.373 151.271 204.07 153.58 198.983C154.752 196.454 155.575 193.711 155.966 190.954C156.385 188.29 157.344 185.703 158.949 183.573C162.152 179.263 167.749 177.247 172.983 177.183L173.004 175.801Z" fill="#207A20"/>
<path d="M139.567 214.65C140.746 213.068 142.244 211.771 143.793 210.589C145.377 209.449 147.024 208.394 148.779 207.525L148.303 207.297C149.254 211.892 150.412 216.473 152.223 220.819C150.987 216.295 149.894 211.75 148.956 207.169L148.864 206.734L148.48 206.941C146.726 207.874 145.021 208.922 143.494 210.204C141.967 211.479 140.54 212.918 139.567 214.65Z" fill="#207A20"/>
<path d="M139.261 201.263C141.761 199.632 144.318 198.086 146.932 196.675C148.246 195.984 149.567 195.3 150.931 194.737C152.287 194.174 153.693 193.668 155.121 193.519L154.787 193.341C155.448 194.609 156.08 195.891 156.655 197.202C157.216 198.52 157.749 199.845 158.21 201.199C158.679 202.552 159.077 203.927 159.361 205.331C159.659 206.727 159.894 208.159 159.823 209.598C160 208.166 159.879 206.706 159.688 205.274C159.467 203.842 159.119 202.431 158.7 201.042C157.869 198.264 156.698 195.606 155.384 193.027L155.277 192.821L155.05 192.849C153.494 193.027 152.074 193.583 150.689 194.167C149.311 194.773 147.962 195.442 146.676 196.212C144.084 197.715 141.619 199.425 139.261 201.263Z" fill="#207A20"/>
<path d="M144.084 186.109C145.149 185.411 146.385 185.012 147.578 184.599C148.793 184.214 150.007 183.844 151.25 183.58C153.729 183.039 156.25 182.711 158.786 182.647L158.587 182.583C161.264 184.642 163.715 187.029 165.639 189.821C166.641 191.189 167.507 192.657 168.26 194.181C169.02 195.706 169.702 197.273 170.149 198.933C169.482 195.563 168.011 192.372 166.115 189.494C165.135 188.076 164.07 186.701 162.862 185.468C161.69 184.193 160.348 183.096 158.97 182.056L158.878 181.992L158.764 181.999C156.193 182.106 153.615 182.44 151.136 183.117C149.894 183.445 148.665 183.837 147.479 184.321C146.314 184.841 145.099 185.333 144.084 186.109Z" fill="#207A20"/>
<path d="M147.905 171.975C151.065 170.201 154.886 170.001 158.331 170.792C161.818 171.562 164.979 173.414 167.742 175.651C169.141 176.762 170.398 178.023 171.399 179.498C172.465 180.916 173.331 182.497 173.942 184.165C175.199 187.484 175.653 191.161 175.057 194.73C175.973 191.225 175.725 187.406 174.496 183.958C173.892 182.227 173.019 180.588 171.939 179.099C170.909 177.567 169.56 176.292 168.132 175.159C165.298 172.887 162.024 171.027 158.416 170.358C154.872 169.609 150.973 170.051 147.905 171.975Z" fill="#207A20"/>
<path d="M158.118 147.709C158.118 147.709 164.524 132.463 148.146 128.872C131.769 125.282 106.669 151.35 109.652 187.997C119.098 178.294 124.957 174.376 141.953 171.647C158.956 168.918 164.787 156.23 158.118 147.709Z" fill="#5CAA2E"/>
<path d="M158.473 146.883C155.845 145.636 153.089 144.959 150.234 144.803C147.393 144.674 144.482 145.201 141.939 146.534C139.389 147.859 137.287 149.896 135.696 152.219C134.19 154.513 132.372 156.536 130.277 158.289C126.129 161.83 120.916 164.166 117.173 168.384C115.305 170.457 113.97 172.979 113.153 175.63C112.358 178.294 111.989 181.058 111.882 183.815C112.053 181.058 112.486 178.308 113.338 175.687C114.212 173.079 115.575 170.635 117.457 168.641C121.207 164.594 126.42 162.4 130.76 158.88C132.94 157.142 134.893 155.062 136.477 152.768C138.04 150.566 140.05 148.692 142.436 147.503C147.223 145.087 153.132 145.793 157.841 148.087L158.473 146.883Z" fill="#207A20"/>
<path d="M111.236 166.617C112.997 165.734 114.915 165.242 116.825 164.886C118.75 164.58 120.696 164.373 122.649 164.387L122.33 163.967C121.129 168.505 120.121 173.122 119.801 177.817C120.717 173.214 121.769 168.662 122.969 164.138L123.082 163.711L122.649 163.725C120.668 163.775 118.672 163.938 116.733 164.402C114.801 164.865 112.876 165.506 111.236 166.617Z" fill="#207A20"/>
<path d="M116.939 154.513C119.901 154.178 122.876 153.943 125.845 153.858C127.33 153.829 128.814 153.815 130.284 153.922C131.747 154.029 133.232 154.207 134.574 154.712L134.354 154.399C134.375 155.831 134.368 157.263 134.304 158.695C134.219 160.12 134.098 161.552 133.913 162.962C133.729 164.38 133.473 165.791 133.104 167.173C132.749 168.555 132.315 169.937 131.612 171.191C132.415 169.994 132.955 168.633 133.416 167.266C133.864 165.883 134.176 164.466 134.425 163.041C134.922 160.184 135.057 157.277 135.036 154.385V154.15L134.815 154.071C133.345 153.53 131.825 153.387 130.327 153.295C128.821 153.216 127.315 153.209 125.824 153.323C122.827 153.501 119.865 153.922 116.939 154.513Z" fill="#207A20"/>
<path d="M128.011 143.121C129.276 142.972 130.561 143.178 131.811 143.342C133.068 143.541 134.318 143.762 135.547 144.083C138.004 144.717 140.412 145.551 142.699 146.633L142.55 146.491C144.027 149.533 145.149 152.768 145.625 156.13C145.909 157.804 146.03 159.507 146.023 161.21C146.023 162.913 145.931 164.622 145.59 166.304C146.492 162.991 146.605 159.479 146.193 156.052C145.952 154.342 145.611 152.639 145.078 150.994C144.602 149.326 143.892 147.745 143.118 146.192L143.068 146.092L142.969 146.049C140.618 144.988 138.168 144.133 135.646 143.627C134.389 143.363 133.118 143.157 131.832 143.064C130.568 142.986 129.269 142.879 128.011 143.121Z" fill="#207A20"/>
<path d="M137.734 132.199C141.349 132.029 144.858 133.567 147.585 135.819C150.362 138.077 152.358 141.148 153.835 144.389C154.588 146.014 155.149 147.702 155.391 149.469C155.71 151.222 155.781 153.017 155.582 154.784C155.227 158.317 153.992 161.808 151.868 164.736C154.247 162.008 155.732 158.488 156.172 154.848C156.399 153.024 156.357 151.172 156.051 149.362C155.81 147.531 155.17 145.779 154.403 144.133C152.884 140.827 150.781 137.7 147.855 135.477C145.014 133.211 141.335 131.858 137.734 132.199Z" fill="#207A20"/>
<path d="M175.568 145.209C175.568 145.209 184.333 134.323 187.699 140.628C191.065 146.94 181.208 163.312 162.82 168.32C144.432 173.328 149.233 183.003 149.233 183.003C149.233 183.003 139.546 177.389 146.548 159.386C153.558 141.383 168.899 138.74 175.568 145.209Z" fill="#388C38"/>
<path d="M175.838 145.7C175.59 145.672 175.099 145.743 174.716 145.878C174.311 145.999 173.913 146.185 173.516 146.384C172.734 146.797 171.996 147.325 171.293 147.887C169.879 149.027 168.622 150.381 167.45 151.799C166.847 152.497 166.314 153.245 165.732 153.972C165.156 154.727 164.531 155.439 163.864 156.102C162.521 157.427 161.009 158.552 159.439 159.571C156.328 161.609 152.919 163.233 150.455 166.019C149.226 167.387 148.303 169.032 147.734 170.792C147.159 172.552 146.889 174.411 146.818 176.271C146.847 174.411 147.074 172.545 147.614 170.756C148.139 168.968 149.041 167.273 150.263 165.848C152.713 162.955 156.129 161.224 159.155 159.137C160.682 158.097 162.131 156.964 163.409 155.646C164.688 154.349 165.668 152.782 166.854 151.307C168.019 149.839 169.269 148.422 170.717 147.189C171.442 146.576 172.216 145.999 173.061 145.522C173.494 145.294 173.935 145.073 174.411 144.916C174.908 144.76 175.341 144.617 176.023 144.674L175.838 145.7Z" fill="#207A20"/>
<path d="M145.966 164.238C146.626 163.789 147.358 163.468 148.097 163.169C148.842 162.884 149.602 162.656 150.376 162.457C151.925 162.072 153.516 161.872 155.099 161.766L155.455 161.744L155.355 162.093C154.901 163.689 154.503 165.292 154.119 166.909C153.736 168.519 153.388 170.144 153.082 171.775C153.168 170.108 153.423 168.462 153.722 166.824C154.034 165.185 154.425 163.568 154.858 161.958L155.114 162.279C154.332 162.321 153.551 162.378 152.77 162.471C151.989 162.563 151.222 162.692 150.447 162.841C148.92 163.148 147.393 163.554 145.966 164.238Z" fill="#207A20"/>
<path d="M150.32 155.546C152.663 155.012 155.043 154.606 157.436 154.363C158.636 154.235 159.844 154.178 161.051 154.178C162.259 154.192 163.487 154.221 164.687 154.563L164.865 154.613L164.872 154.791C164.908 155.817 164.915 156.843 164.865 157.876C164.808 158.902 164.73 159.927 164.538 160.939C164.361 161.951 164.141 162.962 163.807 163.931C163.459 164.893 163.061 165.855 162.464 166.688C162.997 165.812 163.317 164.836 163.587 163.867C163.857 162.891 164.041 161.894 164.169 160.889C164.304 159.885 164.361 158.873 164.403 157.861C164.432 156.85 164.41 155.831 164.368 154.819L164.553 155.047C163.43 154.755 162.23 154.677 161.044 154.663C159.851 154.641 158.658 154.698 157.464 154.784C155.092 154.94 152.706 155.211 150.32 155.546Z" fill="#207A20"/>
<path d="M158.942 145.871C159.936 145.65 160.973 145.672 161.996 145.672C163.018 145.693 164.041 145.779 165.057 145.914C167.095 146.163 169.091 146.683 171.037 147.339L171.115 147.367L171.158 147.438C171.797 148.479 172.379 149.562 172.813 150.709C173.274 151.841 173.594 153.024 173.821 154.228C174.233 156.629 174.212 159.13 173.565 161.459C173.807 160.277 173.864 159.065 173.828 157.869C173.8 156.672 173.679 155.475 173.409 154.306C173.153 153.138 172.841 151.984 172.365 150.887C171.932 149.775 171.335 148.742 170.739 147.709L170.866 147.809C168.963 147.118 166.989 146.633 164.993 146.277C163.991 146.099 162.983 145.985 161.974 145.9C160.973 145.821 159.95 145.729 158.942 145.871Z" fill="#207A20"/>
<path d="M174.311 145.059C175.455 145.266 176.534 145.636 177.578 146.106C178.615 146.584 179.595 147.196 180.44 147.959C181.293 148.728 181.946 149.697 182.379 150.744C182.848 151.791 182.891 152.96 182.898 154.078C182.848 152.96 182.763 151.806 182.259 150.794C181.797 149.782 181.129 148.863 180.27 148.151C179.418 147.438 178.445 146.883 177.422 146.455C176.399 146.035 175.313 145.722 174.24 145.565L174.311 145.059Z" fill="#207A20"/>
<path d="M20.3835 198.712C23.473 210.19 32.429 218.49 42.8054 224.738C66.0938 238.751 85.1137 234.377 108.409 226.782C117.145 224.446 126.207 225.614 134.361 229.119C153.572 237.882 174.773 245.847 195.732 240.005C209.702 236.5 210.803 222.6 214.297 210.916C214.297 209.748 215.121 205.538 220.433 201.883C222.393 200.672 224.304 199.639 226.151 198.712H20.3835Z" fill="#AFA851"/>
<path d="M186.385 214.293C186.385 216.887 153.153 218.988 112.159 218.988C71.1648 218.988 37.9261 216.887 37.9261 214.293C37.9261 211.7 71.1577 209.598 112.152 209.598C153.146 209.598 186.385 211.7 186.385 214.293Z" fill="#9B9245"/>
<path d="M62.8126 128.488C62.8126 128.488 62.4148 115.956 75.6464 112.18C88.8779 108.404 89.4532 112.75 92.6421 113.441C95.8381 114.125 98.118 113.327 100.057 117.445C101.996 121.563 105.305 121.335 107.244 126.144C109.183 130.953 106.563 130.376 110.1 135.527C113.636 140.677 113.523 147.659 110.1 152.924C106.676 158.189 105.653 159.792 102.685 161.851C99.716 163.91 96.868 165.399 93.331 164.252C89.7941 163.105 85.1137 170.201 85.1137 170.201C85.1137 170.201 75.76 171.69 71.4205 173.521C67.0881 175.352 59.5526 169.061 57.0455 168.826C54.5384 168.598 48.7145 165.62 45.6393 161.844C42.5569 158.068 43.814 156.009 43.7003 151.2C43.5867 146.391 43.1322 140.556 45.8665 138.155C48.608 135.755 49.9716 131.174 53.5086 129.913C57.0526 128.659 62.8126 128.488 62.8126 128.488Z" fill="#266026"/>
<path d="M55.8665 90.5862C55.8665 90.5862 55.5966 82.3932 64.4673 79.9281C73.3309 77.456 73.7145 80.3057 75.8522 80.7546C77.99 81.2034 79.5241 80.6762 80.8167 83.3763C82.1164 86.0693 84.3324 85.9197 85.6321 89.0616C86.9318 92.2034 85.1704 91.8329 87.5426 95.1956C89.9147 98.5654 89.8366 103.125 87.5426 106.566C85.2486 110.007 84.5596 111.054 82.5781 112.401C80.5895 113.747 78.6789 114.723 76.3139 113.975C73.9417 113.227 70.8096 117.865 70.8096 117.865C70.8096 117.865 64.5454 118.841 61.6406 120.038C58.7358 121.235 53.6932 117.117 52.0099 116.968C50.3267 116.818 46.4275 114.873 44.3679 112.401C42.3011 109.929 43.1463 108.582 43.0682 105.44C42.99 102.299 42.6846 98.4799 44.517 96.9126C46.3494 95.3381 47.2656 92.3459 49.6378 91.5266C52.0028 90.7002 55.8665 90.5862 55.8665 90.5862Z" fill="#3A8C3A"/>
<path d="M50.6179 127.22C50.6179 127.22 70.0994 139.267 64.9006 181.899C63.3026 182.312 61.6335 181.258 61.6335 181.258C61.6335 181.258 67.0526 149.319 50.6179 127.22Z" fill="#347A34"/>
<path d="M68.6933 101.102C68.6933 101.102 47.0668 116.177 52.841 169.524C54.6166 170.044 56.4631 168.726 56.4631 168.726C56.4631 168.726 50.4546 128.758 68.6933 101.102Z" fill="#347A34"/>
<path d="M54.3608 82.5071C54.3608 82.5071 83.0398 64.1548 71.6264 161.922C70.8878 162.528 68.5796 163.589 68.5796 163.589C68.5796 163.589 77.635 98.2377 65.1989 84.4806C63.5441 82.6496 59.9858 80.2274 54.5313 83.761C53.4446 84.4592 52.4361 83.2125 54.3608 82.5071Z" fill="#347A34"/>
<path d="M49.9006 158.859C49.9006 158.859 50.2983 146.327 37.0668 142.551C23.8353 138.775 23.26 143.121 20.0711 143.812C16.875 144.496 14.5952 143.698 12.6563 147.816C10.7174 151.934 7.40771 151.706 5.46879 156.515C3.52987 161.324 6.15061 160.747 2.61368 165.898C-0.923255 171.049 -0.809618 178.03 2.61368 183.295C6.03697 188.56 7.0597 190.163 10.0284 192.222C12.9972 194.281 15.8452 195.77 19.3821 194.623C22.9191 193.476 27.5995 200.572 27.5995 200.572C27.5995 200.572 36.9532 202.061 41.2927 203.892C45.625 205.723 53.1605 199.432 55.6677 199.197C58.1748 198.969 63.9986 195.991 67.0739 192.215C70.1563 188.439 68.8992 186.38 69.0128 181.571C69.1265 176.762 69.581 170.927 66.8466 168.527C64.1052 166.126 62.7415 161.545 59.2046 160.284C55.6606 159.03 49.9006 158.859 49.9006 158.859Z" fill="#3A8C3A"/>
<path d="M50.4403 158.225C50.4403 158.225 42.7983 155.71 32.9829 166.233C23.1747 176.762 22.3082 195.15 22.3082 195.15C22.3082 195.15 25.4971 178.109 31.9602 170.7C39.9432 161.545 46.0511 159.415 54.6875 159.279C52.6065 158.225 50.4403 158.225 50.4403 158.225Z" fill="#6FB26F"/>
<path d="M48.1037 158.688C48.1037 158.688 46.8182 148.643 35.1847 144.439C23.5512 140.236 19.4816 144.952 19.4816 144.952C19.4816 144.952 28.3381 140.749 37.4077 148.472C46.4773 156.194 45.4475 159.457 45.4475 159.457C45.4475 159.457 64.5313 160.832 67.6918 176.969C68.3239 170.828 62.1378 158.51 48.1037 158.688Z" fill="#6FB26F"/>
<path d="M43.5653 160.918C43.5653 160.918 42.2798 150.872 30.6462 146.669C19.0127 142.466 14.9431 147.182 14.9431 147.182C14.9431 147.182 23.7996 142.979 32.8693 150.701C41.9389 158.424 40.909 161.687 40.909 161.687C40.909 161.687 59.9928 163.062 63.1533 179.199C63.7854 173.065 57.5994 160.747 43.5653 160.918Z" fill="#6FB26F"/>
<path d="M38.1747 164.095C38.1747 164.095 36.8892 154.05 25.2557 149.847C13.6222 145.643 11.0511 151.563 11.0511 151.563C11.0511 151.563 18.4091 146.156 27.4787 153.879C36.5483 161.602 35.5185 164.865 35.5185 164.865C35.5185 164.865 62.1307 167.187 64.6946 192.935C66.0725 176.563 52.2088 163.917 38.1747 164.095Z" fill="#6FB26F"/>
<path d="M34.0696 168.384C34.0696 168.384 32.7841 158.339 21.1506 154.135C9.51707 149.932 6.94604 155.852 6.94604 155.852C6.94604 155.852 14.304 150.445 23.3736 158.168C32.4432 165.891 31.4134 169.154 31.4134 169.154C31.4134 169.154 57.7557 169.417 60.3267 195.157C61.6975 178.786 48.1037 168.213 34.0696 168.384Z" fill="#6FB26F"/>
<path d="M29.9219 171.904C29.9219 171.904 29.4815 163.027 17.642 159.443C8.06107 156.543 4.80823 163.49 4.80823 163.49C4.80823 163.49 9.4105 157.783 19.865 163.475C28.9489 168.42 27.9048 174.461 27.9048 174.461C27.9048 174.461 53.7358 171.277 56.3068 197.017C57.6776 180.645 43.956 171.733 29.9219 171.904Z" fill="#6FB26F"/>
<path d="M27.9261 177.738C27.9261 177.738 27.9332 166.674 15.6463 165.278C2.92614 163.832 0.703125 174.304 0.703125 174.304C0.703125 174.304 7.61364 162.435 18.0753 168.128C27.1591 173.072 25.9162 180.303 25.9162 180.303C25.9162 180.303 48.0185 175.858 47.2514 202.203C48.6151 185.832 41.9602 177.567 27.9261 177.738Z" fill="#6FB26F"/>
<path d="M25.9588 179.776C25.9588 179.776 21.7472 173.257 14.9432 172.623C8.13922 171.989 4.88637 178.251 4.80115 184.001C9.16904 176.62 17.7699 171.604 25.9588 179.776Z" fill="#6FB26F"/>
<path d="M25.0852 182.889C25.0852 182.889 42.4574 182.291 40.9162 202.203C43.4801 191.474 39.5454 179.968 25.0852 182.889Z" fill="#6FB26F"/>
<path d="M24.6591 184.435C24.6591 184.435 36.0369 188.895 35.2699 201.085C37.2372 194.217 34.5809 184.008 24.6591 184.435Z" fill="#6FB26F"/>
<path d="M9.60229 190.185C9.60229 190.185 12.8338 176.698 25.0924 182.426C21.9176 182.889 14.5597 182.027 9.60229 190.185Z" fill="#6FB26F"/>
<path d="M77.6349 158.346C77.6349 158.346 77.2372 145.814 90.4687 142.038C103.7 138.262 104.276 142.608 107.464 143.299C110.661 143.983 112.94 143.185 114.879 147.303C116.818 151.421 120.128 151.193 122.067 156.002C124.006 160.811 121.385 160.234 124.922 165.385C128.459 170.536 128.345 177.517 124.922 182.782C121.499 188.047 120.476 189.65 117.507 191.709C114.538 193.768 111.69 195.257 108.153 194.11C104.616 192.963 99.9361 200.059 99.9361 200.059C99.9361 200.059 90.5824 201.548 86.2429 203.379C81.9105 205.21 74.375 198.919 71.8679 198.684C69.3608 198.456 63.5369 195.478 60.4616 191.702C57.3793 187.926 58.6364 185.867 58.5227 181.058C58.4091 176.249 57.9545 170.415 60.6889 168.014C63.4304 165.613 64.794 161.032 68.331 159.771C71.875 158.524 77.6349 158.346 77.6349 158.346Z" fill="#4FA52B"/>
<path d="M77.0881 157.719C77.0881 157.719 84.7301 155.204 94.5455 165.727C104.354 176.256 105.22 194.644 105.22 194.644C105.22 194.644 102.038 177.596 95.5753 170.187C87.5923 161.032 81.4844 158.902 72.848 158.766C74.9219 157.719 77.0881 157.719 77.0881 157.719Z" fill="#75C64F"/>
<path d="M79.4318 158.175C79.4318 158.175 80.7174 148.13 92.3509 143.926C103.984 139.723 108.054 144.439 108.054 144.439C108.054 144.439 99.1975 140.236 90.1279 147.959C81.0583 155.681 82.0881 158.944 82.0881 158.944C82.0881 158.944 63.0043 160.319 59.8438 176.456C59.2117 170.322 65.3977 158.004 79.4318 158.175Z" fill="#75C64F"/>
<path d="M83.9631 160.412C83.9631 160.412 85.2486 150.367 96.8821 146.163C108.516 141.96 112.585 146.676 112.585 146.676C112.585 146.676 103.729 142.473 94.6591 150.196C85.5895 157.918 86.6193 161.181 86.6193 161.181C86.6193 161.181 67.5355 162.556 64.375 178.693C63.7429 172.552 69.929 160.241 83.9631 160.412Z" fill="#75C64F"/>
<path d="M89.3537 163.582C89.3537 163.582 90.6392 153.537 102.273 149.334C113.906 145.13 116.477 151.051 116.477 151.051C116.477 151.051 109.119 145.643 100.05 153.366C90.9801 161.089 92.01 164.352 92.01 164.352C92.01 164.352 65.3978 166.674 62.8338 192.422C61.4631 176.05 75.3196 163.411 89.3537 163.582Z" fill="#75C64F"/>
<path d="M93.4589 167.878C93.4589 167.878 94.7444 157.833 106.378 153.63C118.011 149.426 120.582 155.347 120.582 155.347C120.582 155.347 113.224 149.939 104.155 157.662C95.0853 165.385 96.1151 168.648 96.1151 168.648C96.1151 168.648 69.7728 168.911 67.2018 194.652C65.831 178.28 79.4319 167.707 93.4589 167.878Z" fill="#75C64F"/>
<path d="M97.6066 171.398C97.6066 171.398 98.0469 162.521 109.886 158.937C119.467 156.038 122.72 162.984 122.72 162.984C122.72 162.984 118.118 157.277 107.663 162.97C98.5796 167.914 99.6236 173.955 99.6236 173.955C99.6236 173.955 73.7927 170.771 71.2216 196.511C69.8509 180.139 83.5725 171.227 97.6066 171.398Z" fill="#75C64F"/>
<path d="M99.6022 177.233C99.6022 177.233 99.5951 166.168 111.882 164.772C124.602 163.326 126.825 173.799 126.825 173.799C126.825 173.799 119.915 161.929 109.453 167.622C100.369 172.566 101.612 179.797 101.612 179.797C101.612 179.797 79.5099 175.352 80.277 201.698C78.9133 185.326 85.5753 177.062 99.6022 177.233Z" fill="#75C64F"/>
<path d="M101.57 179.27C101.57 179.27 105.781 172.751 112.585 172.117C119.389 171.483 122.642 177.745 122.727 183.495C118.359 176.114 109.766 171.098 101.57 179.27Z" fill="#75C64F"/>
<path d="M102.443 182.383C102.443 182.383 85.071 181.785 86.6122 201.698C84.0483 190.961 87.983 179.462 102.443 182.383Z" fill="#75C64F"/>
<path d="M102.876 183.929C102.876 183.929 91.4986 188.389 92.2657 200.579C90.2983 193.711 92.9475 183.495 102.876 183.929Z" fill="#75C64F"/>
<path d="M117.933 189.679C117.933 189.679 114.702 176.192 102.443 181.92C105.611 182.383 112.969 181.521 117.933 189.679Z" fill="#75C64F"/>
<path d="M49.6662 121.064C49.6662 121.064 50.0072 110.363 38.7003 107.136C27.3935 103.909 26.9106 107.628 24.1833 108.212C21.456 108.796 19.5029 108.112 17.8481 111.631C16.1932 115.151 13.3665 114.951 11.7117 119.062C10.0569 123.166 12.2941 122.681 9.27562 127.077C6.25716 131.473 6.34949 137.436 9.27562 141.931C12.2018 146.427 13.0753 147.795 15.6109 149.554C18.1464 151.314 20.5824 152.582 23.6009 151.606C26.6194 150.63 30.618 156.686 30.618 156.686C30.618 156.686 38.608 157.954 42.3083 159.521C46.0086 161.089 52.4432 155.71 54.5881 155.51C56.733 155.318 61.7046 152.775 64.3324 149.547C66.9603 146.32 65.8949 144.56 65.9873 140.457C66.0867 136.353 66.4773 131.366 64.1336 129.314C61.7898 127.262 60.6251 123.351 57.6066 122.275C54.5881 121.207 49.6662 121.064 49.6662 121.064Z" fill="#4FA52B"/>
<path d="M50.1278 120.523C50.1278 120.523 43.6008 118.371 35.2201 127.362C26.8395 136.353 26.1008 152.062 26.1008 152.062C26.1008 152.062 28.821 137.5 34.3395 131.174C41.1576 123.351 46.3707 121.534 53.7571 121.42C51.9815 120.523 50.1278 120.523 50.1278 120.523Z" fill="#75C64F"/>
<path d="M48.1322 120.915C48.1322 120.915 47.0384 112.337 37.0952 108.746C27.1592 105.155 23.6862 109.188 23.6862 109.188C23.6862 109.188 31.2501 105.597 38.9987 112.194C46.7472 118.791 45.8666 121.577 45.8666 121.577C45.8666 121.577 62.1663 122.753 64.8651 136.531C65.4049 131.288 60.1208 120.765 48.1322 120.915Z" fill="#75C64F"/>
<path d="M44.2613 122.824C44.2613 122.824 43.1676 114.246 33.2244 110.655C23.2883 107.065 19.8153 111.097 19.8153 111.097C19.8153 111.097 27.3792 107.507 35.1278 114.104C42.8764 120.701 41.9957 123.486 41.9957 123.486C41.9957 123.486 58.2954 124.662 60.9943 138.44C61.527 133.197 56.2429 122.674 44.2613 122.824Z" fill="#75C64F"/>
<path d="M39.652 125.531C39.652 125.531 38.5582 116.953 28.6151 113.363C18.679 109.772 16.4844 114.83 16.4844 114.83C16.4844 114.83 22.7699 110.214 30.5185 116.811C38.267 123.408 37.3864 126.194 37.3864 126.194C37.3864 126.194 60.1136 128.181 62.3082 150.167C63.4801 136.182 51.6406 125.389 39.652 125.531Z" fill="#75C64F"/>
<path d="M36.1434 129.2C36.1434 129.2 35.0497 120.622 25.1065 117.032C15.1704 113.441 12.9758 118.499 12.9758 118.499C12.9758 118.499 19.2613 113.883 27.0099 120.48C34.7585 127.077 33.8778 129.863 33.8778 129.863C33.8778 129.863 56.3778 130.084 58.5724 152.069C59.7443 138.084 48.1321 129.051 36.1434 129.2Z" fill="#75C64F"/>
<path d="M32.6066 132.207C32.6066 132.207 32.2302 124.626 22.1165 121.563C13.9347 119.084 11.1506 125.018 11.1506 125.018C11.1506 125.018 15.0782 120.145 24.0129 125.004C31.7756 129.229 30.8807 134.387 30.8807 134.387C30.8807 134.387 52.9475 131.665 55.1421 153.651C56.314 139.673 44.5881 132.057 32.6066 132.207Z" fill="#75C64F"/>
<path d="M30.902 137.187C30.902 137.187 30.9091 127.733 20.412 126.543C9.54548 125.31 7.64917 134.251 7.64917 134.251C7.64917 134.251 13.5512 124.113 22.4858 128.972C30.2486 133.197 29.1833 139.367 29.1833 139.367C29.1833 139.367 48.0611 135.569 47.4077 158.075C48.5725 144.097 42.8835 137.044 30.902 137.187Z" fill="#75C64F"/>
<path d="M29.2188 138.932C29.2188 138.932 25.618 133.361 19.8083 132.819C13.9986 132.278 11.2217 137.628 11.1506 142.537C14.8793 136.239 22.2231 131.95 29.2188 138.932Z" fill="#75C64F"/>
<path d="M28.473 141.589C28.473 141.589 43.3097 141.076 41.9958 158.082C44.1832 148.92 40.8239 139.096 28.473 141.589Z" fill="#75C64F"/>
<path d="M28.1108 142.907C28.1108 142.907 37.8338 146.719 37.1733 157.128C38.8495 151.264 36.5838 142.544 28.1108 142.907Z" fill="#75C64F"/>
<path d="M15.2487 147.816C15.2487 147.816 18.0114 136.296 28.4731 141.19C25.7671 141.589 19.4816 140.856 15.2487 147.816Z" fill="#75C64F"/>
<path d="M65.4688 106.324C65.4688 106.324 60.3907 96.9055 69.0626 88.9476C77.7345 80.9897 79.8225 84.0959 82.5285 83.3906C85.2274 82.6924 86.6691 81.2034 89.716 83.6114C92.77 86.0123 95.2061 84.5732 98.5228 87.5013C101.832 90.4294 99.6095 90.9994 104.276 93.5784C108.942 96.1574 111.513 101.536 110.902 106.865C110.291 112.201 110.121 113.819 108.636 116.526C107.152 119.233 105.54 121.463 102.408 121.948C99.2686 122.432 98.4021 129.642 98.4021 129.642C98.4021 129.642 91.8254 134.365 89.2117 137.422C86.5981 140.485 78.4447 138.562 76.4418 139.345C74.439 140.136 68.8566 140.093 65.0711 138.383C61.2785 136.681 61.4561 134.622 59.5384 130.995C57.6208 127.369 55.0498 123.087 56.2217 120.202C57.4007 117.317 56.6975 113.299 58.9205 110.976C61.1364 108.661 65.4688 106.324 65.4688 106.324Z" fill="#60B737"/>
<path d="M64.8154 106.046C64.8154 106.046 69.6947 101.194 81.2003 105.476C92.706 109.758 100.369 123.479 100.369 123.479C100.369 123.479 91.4418 111.674 83.6861 108.497C74.0981 104.564 68.6293 105.277 61.9745 108.483C63.1606 106.88 64.8154 106.046 64.8154 106.046Z" fill="#8FD669"/>
<path d="M66.7757 105.505C66.7757 105.505 63.9276 97.3403 71.2146 89.6674C78.5015 81.9945 83.4021 84.0392 83.4021 84.0392C83.4021 84.0392 75.0356 84.2244 71.0512 93.6001C67.0669 102.976 69.091 105.077 69.091 105.077C69.091 105.077 55.0356 113.441 58.7643 126.978C55.9589 122.532 55.9944 110.748 66.7757 105.505Z" fill="#8FD669"/>
<path d="M71.0938 105.469C71.0938 105.469 68.2458 97.3044 75.5327 89.6315C82.8196 81.9585 87.7202 84.0032 87.7202 84.0032C87.7202 84.0032 79.3537 84.1885 75.3693 93.5641C71.385 102.94 73.4091 105.041 73.4091 105.041C73.4091 105.041 59.3537 113.405 63.0824 126.942C60.2699 122.496 60.3054 110.72 71.0938 105.469Z" fill="#8FD669"/>
<path d="M76.4206 105.825C76.4206 105.825 73.5725 97.6606 80.8595 89.9877C88.1464 82.3148 92.3652 85.8556 92.3652 85.8556C92.3652 85.8556 84.6876 84.5447 80.6961 93.9204C76.7118 103.296 78.7359 105.398 78.7359 105.398C78.7359 105.398 59.297 117.374 67.1379 138.02C59.8581 126.044 65.6322 111.076 76.4206 105.825Z" fill="#8FD669"/>
<path d="M81.1933 107.535C81.1933 107.535 78.3453 99.3705 85.6323 91.6976C92.9192 84.0246 97.1379 87.5654 97.1379 87.5654C97.1379 87.5654 89.4604 86.2545 85.4689 95.6302C81.4774 105.006 83.5087 107.108 83.5087 107.108C83.5087 107.108 63.4803 117.402 71.3283 138.049C64.0484 126.065 70.405 112.779 81.1933 107.535Z" fill="#8FD669"/>
<path d="M85.6961 108.632C85.6961 108.632 82.6492 101.686 90.3339 94.4048C96.5484 88.5129 101.683 92.581 101.683 92.581C101.683 92.581 95.9944 89.9877 90.1705 98.3446C85.1137 105.604 88.2103 109.822 88.2103 109.822C88.2103 109.822 67.2657 117.295 75.1066 137.942C67.8268 125.951 74.9149 113.876 85.6961 108.632Z" fill="#8FD669"/>
<path d="M89.4461 112.323C89.4461 112.323 85.2274 103.873 94.0839 98.0952C103.253 92.1179 108.942 99.2636 108.942 99.2636C108.942 99.2636 99.1407 92.8446 93.3168 101.201C88.26 108.461 91.9603 113.505 91.9603 113.505C91.9603 113.505 73.3808 118.585 84.0058 138.412C76.7259 126.436 78.6649 117.573 89.4461 112.323Z" fill="#8FD669"/>
<path d="M91.726 113.128C91.726 113.128 92.4575 106.53 97.4149 103.438C102.372 100.346 107.237 103.887 109.496 108.247C103.345 104.279 94.8723 103.745 91.726 113.128Z" fill="#8FD669"/>
<path d="M93.5796 115.172C93.5796 115.172 80.0853 121.37 88.8424 135.99C82.7984 128.78 81.4205 118.485 93.5796 115.172Z" fill="#8FD669"/>
<path d="M94.4958 116.184C94.4958 116.184 87.5 123.957 92.7344 132.969C88.6151 128.481 86.7472 119.661 94.4958 116.184Z" fill="#8FD669"/>
<path d="M108.189 114.809C108.189 114.809 100.582 105.747 93.4021 114.823C95.9944 113.954 101.293 110.477 108.189 114.809Z" fill="#8FD669"/>
<path d="M54.446 82.8847C54.446 82.8847 55.4404 74.6704 46.9673 71.4074C38.4872 68.1444 37.8622 70.9728 35.7173 71.2364C33.5796 71.5 32.1236 70.8374 30.6108 73.4307C29.0909 76.024 26.9318 75.682 25.3764 78.7241C23.821 81.7662 25.5753 81.5453 22.9546 84.7228C20.3267 87.9003 19.9929 92.4955 21.9389 96.1574C23.8779 99.8193 24.4602 100.931 26.2926 102.462C28.125 103.994 29.9077 105.141 32.3011 104.593C34.6946 104.051 37.3509 108.988 37.3509 108.988C37.3509 108.988 43.4162 110.52 46.1577 111.981C48.8992 113.441 54.2188 109.744 55.8807 109.744C57.5426 109.744 61.5412 108.126 63.7926 105.825C66.0369 103.524 65.3338 102.099 65.6889 98.943C66.044 95.7869 66.6904 91.9825 65.0284 90.2371C63.3665 88.4987 62.7344 85.4067 60.483 84.3666C58.2244 83.3336 54.446 82.8847 54.446 82.8847Z" fill="#7DD152"/>
<path d="M54.8437 82.5C54.8437 82.5 49.9645 80.3912 42.8977 86.739C35.8309 93.0797 34.1903 105.12 34.1903 105.12C34.1903 105.12 37.2798 94.0985 41.9673 89.6101C47.7556 84.0602 51.8892 83.0201 57.5781 83.4404C56.2713 82.6283 54.8437 82.5 54.8437 82.5Z" fill="#AAE588"/>
<path d="M53.2813 82.6639C53.2813 82.6639 53.0256 75.9884 45.625 72.5331C38.2244 69.0849 35.2699 71.9489 35.2699 71.9489C35.2699 71.9489 41.3352 69.7047 46.8466 75.3187C52.358 80.9327 51.4915 83.013 51.4915 83.013C51.4915 83.013 63.956 85.0434 65.0923 95.8368C65.8594 91.8401 62.5142 83.3763 53.2813 82.6639Z" fill="#AAE588"/>
<path d="M50.1704 83.8608C50.1704 83.8608 49.9147 77.1853 42.5142 73.7299C35.1136 70.2818 32.1591 73.1458 32.1591 73.1458C32.1591 73.1458 38.2244 70.9016 43.7358 76.5156C49.2471 82.1296 48.3807 84.2099 48.3807 84.2099C48.3807 84.2099 60.8451 86.2403 61.9815 97.0337C62.7485 93.0369 59.4034 84.5803 50.1704 83.8608Z" fill="#AAE588"/>
<path d="M46.4346 85.6347C46.4346 85.6347 46.179 78.9592 38.7784 75.5039C31.3778 72.0557 29.3395 75.796 29.3395 75.796C29.3395 75.796 34.4957 72.6755 40.0071 78.2895C45.5185 83.9035 44.652 85.9838 44.652 85.9838C44.652 85.9838 62.0028 89.0829 62.1875 106.153C64.0412 95.4735 55.6747 86.3472 46.4346 85.6347Z" fill="#AAE588"/>
<path d="M43.4873 88.2138C43.4873 88.2138 43.2316 81.5382 35.831 78.0829C28.4304 74.6347 26.3921 78.375 26.3921 78.375C26.3921 78.375 31.5483 75.2546 37.0597 80.8685C42.5711 86.4825 41.7046 88.5628 41.7046 88.5628C41.7046 88.5628 59.0057 90.2869 59.1904 107.357C61.037 96.6775 52.7202 88.9262 43.4873 88.2138Z" fill="#AAE588"/>
<path d="M40.5541 90.2798C40.5541 90.2798 40.7814 84.4236 33.2103 81.3672C27.0811 78.8951 24.5385 83.2694 24.5385 83.2694C24.5385 83.2694 27.8978 79.7856 34.439 84.1457C40.1208 87.9359 39.0839 91.84 39.0839 91.84C39.0839 91.84 56.2572 91.2701 56.4348 108.34C58.2885 97.6678 49.787 90.9994 40.5541 90.2798Z" fill="#AAE588"/>
<path d="M38.8992 93.9987C38.8992 93.9987 39.5526 86.7248 31.5554 85.0862C23.2742 83.3906 21.2003 90.1373 21.2003 90.1373C21.2003 90.1373 26.4418 82.7423 32.983 87.0952C38.6648 90.8854 37.429 95.559 37.429 95.559C37.429 95.559 52.223 93.9417 50.1705 111.218C52.0242 100.539 48.1321 94.7183 38.8992 93.9987Z" fill="#AAE588"/>
<path d="M37.4859 95.2241C37.4859 95.2241 35.0995 90.693 30.6606 89.8737C26.2288 89.0544 23.7217 92.9799 23.3311 96.7559C26.6336 92.1606 32.5782 89.3679 37.4859 95.2241Z" fill="#AAE588"/>
<path d="M36.733 97.2189C36.733 97.2189 48.189 97.8459 46.0086 110.848C48.3239 103.944 46.4063 96.1503 36.733 97.2189Z" fill="#AAE588"/>
<path d="M36.3566 98.2092C36.3566 98.2092 43.5796 101.814 42.358 109.779C44.0554 105.383 42.912 98.5156 36.3566 98.2092Z" fill="#AAE588"/>
<path d="M26.1222 101.102C26.1222 101.102 29.0412 92.4314 36.7543 96.9126C34.652 97.0337 29.8651 96.0363 26.1222 101.102Z" fill="#AAE588"/>
<path d="M116.939 188.802C116.939 188.802 115.703 184.62 118.857 182.519C122.017 180.41 123.153 184.592 121.335 187.014C119.517 189.437 118.352 190.156 118.352 190.156C118.352 190.156 124.176 188.183 125.476 190.876C126.776 193.569 124.503 195.051 118.466 192.372C121.761 198.036 119.027 199.596 117.337 199.147C115.646 198.691 114.368 194.865 115.604 192.749C112.841 196.782 109.276 196.369 108.679 194.352C108.089 192.336 111.953 189.679 114.489 190.163C109.119 186.48 109.268 185.105 110.866 183.63C112.457 182.148 114.922 183.666 116.939 188.802Z" fill="white"/>
<path d="M118.026 192.016C117.244 192.835 115.952 192.87 115.128 192.087C114.311 191.303 114.276 190.007 115.057 189.18C115.838 188.354 117.131 188.325 117.955 189.109C118.778 189.893 118.807 191.196 118.026 192.016Z" fill="#FFE210"/>
<path d="M175.547 94.3122C175.547 94.3122 180.945 97.5467 184.751 103.161C188.551 108.768 193.729 116.604 197.45 118.984C201.179 121.356 203.231 121.791 202.848 123.301C202.464 124.812 200.263 124.954 198.743 124.448C198.516 126.172 197.301 126.464 196.463 125.959C195.781 127.398 194.943 126.821 194.41 126.607C192.891 127.754 191.903 126.607 191.903 126.607C191.065 127.904 189.893 128.046 189.226 126.536C188.558 125.025 188.402 125.745 185.362 123.444C182.322 121.143 179.581 117.473 177.301 114.674C175.021 111.867 171.143 112.957 170 110.976C168.856 108.995 169.773 101.444 168.402 99.4275C167.024 97.4042 175.547 94.3122 175.547 94.3122Z" fill="#DB8742"/>
<path d="M197.45 118.977C193.722 116.604 188.551 108.768 184.751 103.154C180.952 97.5466 175.547 94.3051 175.547 94.3051C175.547 94.3051 167.031 97.397 168.395 99.4132C169.006 100.318 169.162 102.334 169.254 104.464C176.733 109.109 187.308 109.922 190.895 119.126C191.349 120.045 193.175 120.957 194.091 120.957C197.223 120.694 200.355 121.784 202.635 123.793C202.734 123.643 202.805 123.479 202.855 123.294C203.231 121.784 201.179 121.349 197.45 118.977Z" fill="#E89952"/>
<path d="M198.743 124.441C198.743 124.441 197.706 124.078 197.195 123.073C196.683 122.069 196.541 121.641 196.108 121.613C195.682 121.584 195.163 122.211 195.653 122.617C196.136 123.016 197.109 123.736 197.365 123.992C197.628 124.249 198.352 124.327 198.743 124.441Z" fill="#D3782D"/>
<path d="M196.463 125.951C196.463 125.951 195.717 125.51 195.341 124.847C194.972 124.192 194.489 123.729 194.084 123.757C193.686 123.786 193.75 124.078 194.254 124.612C194.766 125.161 196.463 125.951 196.463 125.951Z" fill="#D3782D"/>
<path d="M158.658 58.7189C157.138 53.8316 154.858 39.7325 145.27 39.013C135.689 38.2934 102.216 59.866 93.5014 69.6477C84.7798 79.4294 74.3821 92.2248 71.4915 108.768C71.0582 111.247 70.8451 113.626 70.7883 115.913C79.929 117.972 81.6051 116.79 91.0582 116.227C90.2699 113.548 98.2457 118.421 98.2457 118.421C101.747 119.361 105.653 121.021 112.472 114.966C118.217 109.865 120.469 101.437 121.534 88.6341C128.224 81.5881 132.642 73.2455 140.249 64.4754C145.27 80.8685 168.239 100.575 168.239 100.575C168.239 100.575 172.955 99.1354 176.91 94.6755C174.936 92.8018 160.185 63.6062 158.658 58.7189Z" fill="#000031"/>
<path d="M175.433 211.173C175.32 210.318 171.385 209.342 167.273 208.195C163.168 207.048 157.344 205.502 154.212 205.502C151.073 205.502 148.452 207.162 143.828 207.162C139.205 207.162 121.449 202.289 115.668 202.403C112.848 202.46 115.249 191.595 115.021 185.76C114.794 180.018 122.521 170.065 122.443 161.238H99.2828C99.9575 162.898 100.426 164.587 100.533 166.19C100.987 173.286 98.2529 187.705 98.2529 196.86C98.2529 206.015 99.1691 213.951 101.754 215.476C104.34 217.001 138.189 216.203 145.036 213.909C152.223 213.567 153.707 214.942 157.358 214.023C161.009 213.104 167.514 215.056 170.135 214.479C172.607 213.937 169.872 213.097 169.538 212.997C169.844 213.082 172.294 213.759 173.899 213.332C175.611 212.876 173.502 211.843 173.502 211.843C173.502 211.843 175.547 212.028 175.433 211.173Z" fill="#E89952"/>
<path d="M101.293 134.387C101.676 134.465 115.518 141.255 119.773 151.172C124.034 161.089 121.825 169.638 119.773 171.925C117.72 174.212 112.926 173.898 112.926 173.898C112.926 173.898 94.3963 142.437 94.6164 142.138C94.8366 141.853 101.293 134.387 101.293 134.387Z" fill="#F9B673"/>
<path d="M157.919 163.988C157.919 163.988 159.176 169.709 154.041 175.202C148.906 180.695 149.134 182.925 149.531 185.561C149.361 187.164 145.54 185.105 144.851 184.357C144.169 183.616 143.139 185.433 142.912 186.152C142.685 186.872 140.575 186.152 140.575 186.152C140.575 186.152 140.575 188.019 139.78 187.848C138.984 187.677 138.182 187.677 137.33 189.109C136.477 190.541 134.141 190.833 132.649 189.109C129.773 185.768 130.589 176.306 111.499 174.098C108.608 164.865 114.68 155.518 114.68 155.518C114.68 155.518 121.222 164.523 125.327 162.307C129.432 160.091 128.601 151.856 136.584 148.878C144.574 145.9 153.622 150.858 155.98 155.133C158.338 159.415 157.919 163.988 157.919 163.988Z" fill="#F9B673"/>
<path d="M149.325 185.988C149.283 186.003 148.452 186.188 147.102 185.297C145.717 184.378 145.561 183.466 145.675 183.067C145.788 182.668 146.626 182.398 147.237 182.611C146.875 181.692 144.972 181.742 144.538 182.54C144.226 183.103 144.205 183.623 144.688 184.243C144.744 184.271 144.808 184.307 144.858 184.371C145.455 185.019 148.438 186.665 149.304 186.017C149.311 186.003 149.318 186.003 149.325 185.988C149.325 185.995 149.325 185.988 149.325 185.988Z" fill="#F4AA67"/>
<path d="M118.864 164.829C118.864 164.829 125.433 174.775 132.337 170.457C136.953 167.572 137.706 166.61 137.706 168.042C137.706 169.474 137.195 173.15 137.195 173.15C139.418 171.433 144.631 171.775 147.251 171.034C149.872 170.293 151.072 168.719 153.757 168.933C156.442 169.146 157.266 170.051 157.266 170.051C157.266 170.051 159.638 168.462 159.354 161.937C159.07 155.411 157.188 150.089 152.394 147.346C153.878 145.686 159.695 137.863 157.131 134.394C154.567 130.924 145.724 125.944 142.528 130.29C139.332 134.636 141.179 144.824 141.179 144.824C135.17 143.278 128.97 144.817 125.639 147.98C121.307 152.098 120.888 154.15 120.888 154.15C120.888 154.15 115.156 160.882 118.864 164.829Z" fill="#F4AA67"/>
<path d="M77.7131 159.415C77.7131 159.415 87.5285 171.433 98.1393 170.742C98.3665 159.529 88.885 149.818 88.885 149.818L77.7131 159.415Z" fill="#F4AA67"/>
<path d="M88.2103 150.716C88.2103 150.716 95.966 159.643 96.4277 166.738C96.8822 173.834 94.1478 188.254 94.1478 197.409C94.1478 206.563 95.064 214.5 97.6493 216.025C100.234 217.549 134.084 216.751 140.931 214.457C148.118 214.115 149.602 215.49 153.253 214.571C156.904 213.652 163.409 215.604 166.03 215.027C168.651 214.45 165.405 213.538 165.405 213.538C165.405 213.538 168.09 214.336 169.794 213.88C171.506 213.424 169.396 212.391 169.396 212.391C169.396 212.391 171.449 212.562 171.335 211.707C171.222 210.852 167.287 209.876 163.175 208.729C159.07 207.582 153.246 206.036 150.114 206.036C146.975 206.036 144.354 207.696 139.73 207.696C135.107 207.696 119.325 203.08 111.456 202.624C108.636 202.46 111.151 192.13 110.923 186.295C110.696 180.46 118.679 170.272 118.338 161.345C117.997 152.418 112.408 144.867 108.523 141.661C104.645 138.455 99.1691 136.054 99.1691 136.054L88.2103 150.716Z" fill="#FFC28A"/>
<path d="M88.2103 150.716C88.2103 150.716 95.966 159.642 96.4277 166.738C96.8822 173.834 94.1478 188.254 94.1478 197.409C94.1478 206.563 95.064 214.5 97.6493 216.025C100.234 217.549 134.084 216.751 140.931 214.457C148.118 214.115 149.602 215.49 153.253 214.571C156.904 213.652 163.409 215.604 166.03 215.027C168.651 214.45 165.405 213.538 165.405 213.538C165.405 213.538 168.09 214.336 169.794 213.88C171.506 213.424 169.396 212.391 169.396 212.391C169.396 212.391 171.449 212.562 171.335 211.707C171.222 210.852 167.287 209.876 163.175 208.729C159.07 207.582 153.246 206.036 150.114 206.036C146.975 206.036 144.354 207.696 139.73 207.696C135.107 207.696 111.158 206.777 108.423 206.093C105.682 205.409 106.399 193.163 106.172 187.321C105.945 181.486 118.026 165.591 117.685 156.665C117.344 147.738 112.408 144.859 108.53 141.654C104.652 138.448 99.1762 136.047 99.1762 136.047L88.2103 150.716Z" fill="#F9B673"/>
<path d="M170.817 97.6891C170.817 97.6891 176.214 101.123 180.021 107.072C183.821 113.021 188.999 121.342 192.72 123.857C196.449 126.372 198.501 126.835 198.118 128.438C197.734 130.041 195.533 130.19 194.013 129.656C193.785 131.487 192.571 131.793 191.733 131.259C191.051 132.784 190.213 132.178 189.68 131.943C188.16 133.161 187.173 131.943 187.173 131.943C186.335 133.318 185.163 133.468 184.496 131.865C183.828 130.262 183.672 131.024 180.632 128.58C177.592 126.137 174.851 122.247 172.571 119.269C170.291 116.291 166.413 117.445 165.27 115.343C164.126 113.242 165.043 105.227 163.672 103.089C162.294 100.966 170.817 97.6891 170.817 97.6891Z" fill="#F9B673"/>
<path d="M197.954 128.865C197.962 128.837 197.166 129.827 195.419 129.464C193.672 129.1 192.585 128.602 192.053 127.611C191.52 126.621 191.463 126.621 191.158 126.849C190.852 127.077 190.625 127.077 191.271 127.704C191.918 128.331 193.21 128.388 194.013 129.649C195.781 130.497 197.543 130.062 197.954 128.865Z" fill="#E89952"/>
<path d="M191.733 131.259C191.733 131.259 191.25 130.903 190.923 130.091C190.597 129.286 189.723 128.31 189.396 128.324C189.07 128.338 189.098 128.623 189.396 128.823C189.695 129.022 190.192 129.535 190.625 130.091C191.051 130.646 191.733 131.259 191.733 131.259Z" fill="#E89952"/>
<path d="M189.68 131.943C189.68 131.943 188.97 131.544 188.8 130.639C188.629 129.734 188.473 128.951 188.161 128.965C187.848 128.979 187.876 129.293 188.09 129.692C188.303 130.091 188.516 130.696 188.715 131.038C188.913 131.387 189.34 131.786 189.68 131.943Z" fill="#E89952"/>
<path d="M187.166 131.943C187.166 131.943 186.783 131.701 186.683 130.753C186.584 129.806 186.413 129.35 186.058 129.293C185.703 129.236 185.575 129.521 185.916 129.863C186.257 130.205 186.456 130.646 186.612 131.081C186.776 131.516 186.918 131.865 187.166 131.943Z" fill="#E89952"/>
<path d="M153.928 59.9229C152.408 54.7364 150.128 39.7824 140.54 39.0201C130.959 38.2578 97.4858 61.1483 88.7713 71.5214C80.0497 81.8944 69.652 95.4806 66.7614 113.028C66.3281 115.657 66.115 118.179 66.0582 120.608C75.1989 122.795 83.9773 124.926 93.4304 124.327C92.642 121.484 93.9915 120.352 93.9915 120.352C95.9659 118.214 104.318 122.81 111.136 116.383C116.882 110.969 115.746 105.248 116.811 91.669C123.501 84.1885 127.919 75.34 135.526 66.0356C140.547 83.4333 163.516 104.336 163.516 104.336C163.516 104.336 168.232 102.812 172.187 98.081C170.206 96.0861 155.447 65.1095 153.928 59.9229Z" fill="#000031"/>
<path d="M143.43 47.2558C149.155 66.4061 157.124 85.2358 169.46 100.795C170.362 100.04 171.293 99.1354 172.18 98.0739C170.206 96.0933 155.447 65.1095 153.927 59.9229C152.408 54.7364 150.128 39.7824 140.54 39.0201C139.624 38.9489 138.487 39.0913 137.173 39.4191C140.22 40.5946 142.528 44.2209 143.43 47.2558Z" fill="#070751"/>
<path d="M111.03 85.706C112.401 95.7798 114.68 111.339 101.449 112.258C95.0569 112.714 85.4759 112.258 83.6506 119.582C83.2813 121.05 83.118 122.518 83.0682 123.985C86.4631 124.384 89.9077 124.541 93.4376 124.32C92.6492 121.477 93.9986 120.345 93.9986 120.345C95.9731 118.207 104.325 122.802 111.144 116.376C116.889 110.962 115.753 105.241 116.818 91.6619C123.374 84.3381 128.253 75.283 135.575 66.1852C135.277 64.9242 134.908 62.965 134.908 61.704C130.796 72.6898 120.156 79.7571 111.03 85.706Z" fill="#070751"/>
<path d="M66.0583 116.227C64.4034 132.178 69.581 145.679 70.8665 153.124C72.2372 161.06 73.1463 169.068 80.9091 172.032C88.6719 174.995 94.6165 170.528 94.6165 170.528C94.6165 170.528 87.4503 164.145 91.4063 152.846C95.3622 141.547 111.499 140.962 111.499 140.962C111.499 140.962 99.6236 131.181 95.2486 125.688C94.2898 124.484 93.5796 123.251 93.6009 122.418C84.162 123.08 74.1335 120.936 66.0583 116.227Z" fill="#FFDABD"/>
<path d="M99.1548 144.311C90.4475 138.697 82.983 131.152 79.6378 121.399C74.8296 120.366 70.1847 118.635 66.0583 116.22C64.4034 132.171 69.581 145.672 70.8665 153.117C72.2372 161.053 73.1463 169.061 80.9091 172.025C88.6648 174.988 94.6165 170.521 94.6165 170.521C94.6165 170.521 87.4503 164.138 91.4063 152.839C92.8409 148.756 95.8736 146.071 99.1548 144.311Z" fill="#F7C9A9"/>
<path d="M143.48 175.679C143.942 176.584 144.517 177.396 145.312 177.888C145.703 178.137 146.151 178.308 146.619 178.372C146.854 178.429 147.095 178.415 147.344 178.437C147.592 178.444 147.834 178.415 148.097 178.422C147.862 178.515 147.621 178.608 147.365 178.657C147.109 178.686 146.854 178.75 146.584 178.721C146.051 178.729 145.518 178.551 145.064 178.266C144.609 177.981 144.233 177.582 143.97 177.126C143.714 176.691 143.53 176.192 143.48 175.679Z" fill="#000031"/>
<path d="M122.216 163.133C122.216 163.133 127.521 168.619 131.172 166.453C135.852 163.682 137.706 166.61 137.706 168.042C137.706 169.474 135.845 172.117 135.845 172.117C138.068 170.4 141.094 171.141 143.714 170.4C146.335 169.659 148.558 168.398 151.243 168.398C154.723 168.398 157.259 170.044 157.259 170.044C157.259 170.044 159.631 168.455 159.347 161.929C159.062 155.404 157.18 150.082 152.386 147.339C153.871 145.679 159.687 137.856 157.124 134.387C154.56 130.917 145.717 125.937 142.521 130.283C139.325 134.629 141.172 144.817 141.172 144.817C135.163 143.271 128.963 144.81 125.632 147.973C121.3 152.091 120.881 154.143 120.881 154.143C120.881 154.143 118.501 159.187 122.216 163.133Z" fill="#0A0A23"/>
<path d="M154.908 143.912L154.844 143.848L154.908 143.912C156.861 140.856 158.814 136.674 157.124 134.387C154.56 130.917 145.717 125.937 142.521 130.283C139.879 133.881 140.682 141.454 141.044 143.976L153.132 146.434C153.643 145.786 154.276 144.909 154.908 143.912Z" fill="#0A0A23"/>
<path d="M159.347 161.929C159.063 155.404 157.18 150.082 152.386 147.339C152.571 147.132 152.827 146.819 153.132 146.434L141.044 143.976C141.122 144.503 141.172 144.817 141.172 144.817C135.163 143.271 128.963 144.81 125.632 147.973C121.3 152.091 120.881 154.142 120.881 154.142C120.881 154.142 118.501 159.172 122.209 163.126C122.209 163.126 122.969 163.91 124.105 164.765C123.864 152.86 135.561 141.725 146.165 147.047C152.266 150.545 152.955 160.725 150.618 168.413C150.824 168.398 151.03 168.384 151.243 168.384C154.723 168.384 157.259 170.03 157.259 170.03C157.259 170.03 159.631 168.455 159.347 161.929Z" fill="#161635"/>
<path d="M148.452 136.98C148.906 139.73 149.822 142.929 147.997 145.679C152.102 142.929 152.102 136.524 149.822 132.862C153.018 136.524 152.564 142.017 150.277 146.135C154.382 143.848 153.473 137.436 153.018 133.318C154.844 137.436 154.844 141.561 153.018 145.223C155.76 142.936 154.844 139.73 155.76 136.98C155.76 139.488 155.753 141.711 154.879 143.876L154.915 143.912C156.868 140.856 158.821 136.674 157.131 134.387C154.567 130.917 145.724 125.937 142.528 130.283C142.372 130.49 142.237 130.718 142.109 130.953L142.678 130.988C146.009 130.938 148.452 133.959 148.452 136.98Z" fill="#161635"/>
<path d="M154.787 144.104C154.83 144.04 154.872 143.976 154.908 143.912L154.872 143.876C154.844 143.955 154.815 144.033 154.787 144.104Z" fill="#050549"/>
<path d="M137.649 168.384C137.649 168.384 138.565 163.803 135.256 163.575C131.946 163.347 129.659 170.5 131.222 172.908C132.784 175.316 134.34 172.851 134.34 172.851L137.649 168.384Z" fill="#F9B673"/>
<path d="M131.811 167.957C131.811 167.957 132.649 164.295 135.142 164.523C137.635 164.751 136.832 168.313 136.413 169.46C135.994 170.614 135.462 171.676 134.588 171.882C133.714 172.089 133.082 171.576 133.026 170.927C132.969 170.279 133.523 169.495 134.339 169.823C135.305 169.367 135.44 168.926 135.291 168.47C135.142 168.014 133.785 167.615 133.409 168.085C133.615 167.358 135.384 167.187 135.746 167.893C136.413 166.767 136.413 166.04 135.937 165.47C135.462 164.9 133.771 164.765 132.99 165.926C132.209 167.087 131.754 168.598 131.719 169.681C131.513 169.218 131.811 167.957 131.811 167.957Z" fill="#E89952"/>
<path d="M132.557 173.043C132.557 173.043 127.969 177.61 130.376 184.727C128.48 181.593 127.024 179.413 123.402 177.389C127.344 178.294 128.146 177.831 132.557 173.043Z" fill="#F4AA67"/>
<path d="M139.751 145.372C139.751 145.372 142.102 147.902 146.513 148.657C150.923 149.412 153.388 147.98 153.388 147.98C153.388 147.98 155.852 146.37 155.376 143.164C151.193 143.962 147.486 143.563 144.915 142.074C142.351 140.585 140.632 138.006 140.661 137.379C138.068 139.445 138.686 144.318 139.751 145.372Z" fill="#FFDABD"/>
<path d="M150.192 176.463C150.192 176.463 148.331 174.076 146.811 173.35C145.291 172.623 142.884 173.015 142.884 173.015C145.874 173.592 146.726 174.383 147.898 175.701C149.077 177.019 149.034 177.111 149.538 177.133C150.036 177.154 150.263 176.805 150.192 176.463Z" fill="#000031"/>
<path d="M139.496 183.502C139.07 185.418 139.631 186.437 139.574 186.993C139.531 187.42 139.616 187.67 139.822 187.855C140.582 187.955 140.582 186.159 140.582 186.159C140.582 186.159 142.408 186.779 142.848 186.288C142.848 186.28 142.614 186.152 142.784 185.682C141.946 185.547 139.979 184.991 139.496 183.502Z" fill="#EF8854"/>
<path d="M166.903 176.207C166.903 176.207 163.132 174.034 163.97 170.329C164.808 166.617 168.509 168.861 168.857 171.868C169.205 174.882 168.857 176.207 168.857 176.207C168.857 176.207 171.719 170.742 174.51 171.797C177.301 172.844 176.676 175.494 170.462 177.731C176.74 179.548 175.831 182.576 174.297 183.416C172.763 184.257 169.205 182.369 168.643 179.983C169.411 184.813 166.548 186.986 164.737 185.931C162.919 184.884 163.899 180.282 166.058 178.878C159.638 179.926 158.8 178.828 158.942 176.655C159.084 174.49 161.911 173.884 166.903 176.207Z" fill="white"/>
<path d="M169.908 177.788C169.908 178.921 168.991 179.84 167.862 179.84C166.733 179.84 165.817 178.921 165.817 177.788C165.817 176.655 166.733 175.736 167.862 175.736C168.984 175.729 169.908 176.648 169.908 177.788Z" fill="#FFE210"/>
<path d="M206.314 152.967C206.314 152.967 205.078 148.785 208.232 146.683C211.392 144.574 212.528 148.756 210.71 151.179C208.892 153.601 207.727 154.321 207.727 154.321C207.727 154.321 213.551 152.347 214.851 155.04C216.151 157.733 213.878 159.215 207.841 156.536C211.136 162.2 208.402 163.76 206.712 163.312C205.021 162.856 203.743 159.03 204.979 156.914C202.216 160.946 198.651 160.533 198.054 158.517C197.464 156.501 201.328 153.843 203.864 154.328C198.494 150.644 198.643 149.269 200.241 147.795C201.832 146.313 204.29 147.83 206.314 152.967Z" fill="white"/>
<path d="M207.401 156.18C206.619 156.999 205.327 157.035 204.503 156.251C203.686 155.468 203.651 154.171 204.432 153.345C205.213 152.525 206.506 152.49 207.33 153.273C208.146 154.064 208.182 155.361 207.401 156.18Z" fill="#FFE210"/>
<path d="M122.436 133.596C122.436 133.596 121.2 129.414 124.354 127.312C127.514 125.203 128.651 129.385 126.832 131.808C125.014 134.23 123.849 134.949 123.849 134.949C123.849 134.949 129.673 132.976 130.973 135.669C132.273 138.362 130 139.844 123.963 137.165C127.259 142.829 124.524 144.389 122.834 143.94C121.143 143.484 119.865 139.659 121.101 137.543C118.338 141.575 114.773 141.162 114.176 139.146C113.587 137.13 117.45 134.472 119.986 134.957C114.617 131.273 114.766 129.898 116.364 128.424C117.955 126.949 120.419 128.466 122.436 133.596Z" fill="white"/>
<path d="M123.523 136.816C122.742 137.635 121.449 137.671 120.625 136.887C119.801 136.104 119.773 134.807 120.554 133.981C121.335 133.154 122.628 133.126 123.452 133.909C124.276 134.693 124.304 135.997 123.523 136.816Z" fill="#FFE210"/>
<path d="M63.608 163.71C63.608 163.71 62.3722 159.529 65.5256 157.427C68.6861 155.318 69.8225 159.5 68.0043 161.922C66.1861 164.345 65.0213 165.064 65.0213 165.064C65.0213 165.064 70.8452 163.091 72.1449 165.784C73.4446 168.477 71.1719 169.959 65.135 167.28C68.4304 172.944 65.6961 174.504 64.0057 174.055C62.3154 173.599 61.037 169.773 62.2728 167.657C59.51 171.69 55.9446 171.277 55.348 169.26C54.7586 167.244 58.6222 164.587 61.1577 165.071C55.7884 161.388 55.9375 160.013 57.5355 158.538C59.1265 157.063 61.5838 158.581 63.608 163.71Z" fill="white"/>
<path d="M64.6947 166.931C63.9134 167.75 62.6208 167.786 61.7969 167.002C60.9731 166.218 60.9447 164.922 61.7259 164.095C62.5072 163.276 63.7998 163.24 64.6236 164.024C65.4475 164.808 65.4759 166.111 64.6947 166.931Z" fill="#FFE210"/>
<path d="M191.442 191.153C191.442 191.153 190.206 186.971 193.359 184.87C196.52 182.761 197.656 186.943 195.838 189.365C194.02 191.788 192.855 192.507 192.855 192.507C192.855 192.507 198.679 190.534 199.979 193.227C201.279 195.92 199.006 197.402 192.969 194.723C196.264 200.387 193.53 201.947 191.84 201.498C190.149 201.042 188.871 197.216 190.107 195.1C187.344 199.133 183.778 198.72 183.182 196.703C182.592 194.687 186.456 192.03 188.992 192.514C183.622 188.831 183.771 187.456 185.369 185.981C186.96 184.506 189.425 186.024 191.442 191.153Z" fill="white"/>
<path d="M192.528 194.374C191.747 195.193 190.455 195.229 189.631 194.445C188.814 193.661 188.779 192.365 189.56 191.538C190.341 190.719 191.634 190.683 192.457 191.467C193.281 192.251 193.31 193.554 192.528 194.374Z" fill="#FFE210"/>
<path d="M169.865 134.757C169.865 134.757 168.629 130.575 171.783 128.473C174.943 126.365 176.08 130.547 174.261 132.969C172.443 135.391 171.278 136.111 171.278 136.111C171.278 136.111 177.102 134.137 178.402 136.83C179.702 139.523 177.429 141.005 171.392 138.326C174.688 143.99 171.953 145.551 170.263 145.102C168.572 144.646 167.294 140.82 168.53 138.704C165.767 142.736 162.202 142.323 161.605 140.307C161.016 138.291 164.879 135.633 167.415 136.118C162.045 132.435 162.195 131.06 163.793 129.585C165.384 128.103 167.841 129.62 169.865 134.757Z" fill="white"/>
<path d="M170.952 137.97C170.17 138.79 168.878 138.825 168.054 138.041C167.23 137.258 167.202 135.961 167.983 135.135C168.764 134.308 170.057 134.28 170.881 135.063C171.697 135.847 171.733 137.151 170.952 137.97Z" fill="#FFE210"/>
<path d="M182.046 184.72C182.046 184.72 171.932 171.654 186.825 163.938C201.719 156.223 232.685 174.903 239.24 211.08C227.614 204.155 220.945 201.883 203.821 203.657C186.69 205.424 177.798 194.68 182.046 184.72Z" fill="#3AA33A"/>
<path d="M181.491 184.015C183.707 182.134 186.2 180.766 188.913 179.869C191.619 179.006 194.574 178.764 197.372 179.391C200.17 180.011 202.734 181.436 204.865 183.267C206.911 185.091 209.183 186.573 211.662 187.727C216.577 190.071 222.223 190.983 226.918 194.089C229.261 195.606 231.193 197.701 232.663 200.045C234.119 202.41 235.185 204.982 236.001 207.625C235.128 205.003 233.999 202.46 232.5 200.152C230.987 197.858 229.034 195.848 226.705 194.416C222.038 191.474 216.435 190.705 211.342 188.432C208.793 187.321 206.364 185.817 204.247 184.008C202.173 182.291 199.744 180.994 197.138 180.467C191.889 179.37 186.364 181.586 182.408 185.019L181.491 184.015Z" fill="#207A20"/>
<path d="M232.209 190.84C230.277 190.441 228.303 190.462 226.364 190.619C224.425 190.819 222.493 191.125 220.611 191.645L220.817 191.161C223.146 195.236 225.305 199.432 226.825 203.885C224.759 199.674 222.571 195.549 220.242 191.495L220.021 191.111L220.448 191.011C222.379 190.541 224.347 190.185 226.335 190.135C228.31 190.063 230.334 190.192 232.209 190.84Z" fill="#207A20"/>
<path d="M223.58 180.624C220.632 181.065 217.699 181.607 214.808 182.298C213.367 182.654 211.932 183.025 210.533 183.509C209.148 183.994 207.756 184.549 206.591 185.383L206.719 185.027C207.067 186.416 207.436 187.798 207.876 189.159C208.324 190.519 208.807 191.866 209.354 193.184C209.893 194.509 210.504 195.799 211.222 197.038C211.925 198.285 212.692 199.503 213.7 200.536C212.621 199.582 211.747 198.413 210.945 197.209C210.163 195.991 209.496 194.701 208.885 193.391C207.67 190.762 206.79 187.99 206.065 185.19L206.009 184.962L206.2 184.827C207.479 183.922 208.913 183.395 210.334 182.911C211.768 182.448 213.217 182.049 214.688 181.771C217.628 181.172 220.597 180.809 223.58 180.624Z" fill="#207A20"/>
<path d="M209.95 172.488C208.693 172.673 207.507 173.2 206.335 173.685C205.17 174.205 204.02 174.739 202.912 175.366C200.703 176.613 198.594 178.045 196.655 179.683L196.761 179.505C196.122 182.825 195.866 186.245 196.271 189.615C196.428 191.303 196.754 192.977 197.195 194.623C197.635 196.269 198.16 197.9 198.92 199.432C197.195 196.468 196.179 193.098 195.696 189.686C195.49 187.969 195.376 186.238 195.469 184.506C195.504 182.775 195.781 181.058 196.122 179.363L196.143 179.256L196.229 179.185C198.224 177.553 200.369 176.093 202.678 174.946C203.828 174.369 205 173.834 206.214 173.414C207.443 173.015 208.672 172.58 209.95 172.488Z" fill="#207A20"/>
<path d="M197.741 164.451C194.204 165.228 191.207 167.622 189.162 170.5C187.06 173.4 185.923 176.891 185.334 180.403C185.021 182.17 184.915 183.944 185.142 185.718C185.284 187.492 185.682 189.244 186.328 190.904C187.578 194.224 189.673 197.28 192.479 199.553C189.474 197.537 187.138 194.516 185.774 191.118C185.085 189.415 184.652 187.613 184.474 185.782C184.233 183.951 184.396 182.098 184.723 180.303C185.341 176.72 186.562 173.15 188.821 170.244C190.966 167.323 194.176 165.057 197.741 164.451Z" fill="#207A20"/>
</g>
<defs>
<clipPath id="clip0_20_679">
<rect width="265" height="242" fill="white"/>
</clipPath>
</defs>
</svg>
