<svg width="26" height="26" viewBox="0 0 26 26" fill="none" xmlns="http://www.w3.org/2000/svg">
<g filter="url(#filter0_b_68_1106)">
<circle cx="13" cy="13" r="13" fill="white" fill-opacity="0.1"/>
</g>
<path d="M18.8029 17.8565L16.5369 15.5972C17.268 14.6658 17.6647 13.5157 17.6632 12.3316C17.6632 11.2771 17.3505 10.2463 16.7647 9.36953C16.1788 8.49275 15.3462 7.80938 14.3719 7.40585C13.3977 7.00231 12.3257 6.89673 11.2915 7.10245C10.2572 7.30817 9.30724 7.81596 8.5616 8.5616C7.81596 9.30724 7.30817 10.2572 7.10245 11.2915C6.89673 12.3257 7.00231 13.3977 7.40585 14.3719C7.80938 15.3462 8.49275 16.1788 9.36953 16.7647C10.2463 17.3505 11.2771 17.6632 12.3316 17.6632C13.5157 17.6647 14.6658 17.268 15.5972 16.5369L17.8565 18.8029C17.9185 18.8653 17.9922 18.9149 18.0734 18.9487C18.1546 18.9826 18.2417 19 18.3297 19C18.4177 19 18.5048 18.9826 18.586 18.9487C18.6672 18.9149 18.7409 18.8653 18.8029 18.8029C18.8653 18.7409 18.9149 18.6672 18.9487 18.586C18.9826 18.5048 19 18.4177 19 18.3297C19 18.2417 18.9826 18.1546 18.9487 18.0734C18.9149 17.9922 18.8653 17.9185 18.8029 17.8565ZM8.33291 12.3316C8.33291 11.5407 8.56743 10.7676 9.00681 10.1101C9.44619 9.45247 10.0707 8.93994 10.8014 8.63729C11.532 8.33464 12.3361 8.25545 13.1117 8.40974C13.8874 8.56403 14.5999 8.94487 15.1591 9.5041C15.7184 10.0633 16.0992 10.7758 16.2535 11.5515C16.4078 12.3272 16.3286 13.1312 16.0259 13.8619C15.7233 14.5925 15.2108 15.217 14.5532 15.6564C13.8956 16.0958 13.1225 16.3303 12.3316 16.3303C11.2711 16.3303 10.254 15.909 9.5041 15.1591C8.7542 14.4092 8.33291 13.3921 8.33291 12.3316Z" fill="white"/>
<defs>
<filter id="filter0_b_68_1106" x="-50" y="-50" width="126" height="126" filterUnits="userSpaceOnUse" color-interpolation-filters="sRGB">
<feFlood flood-opacity="0" result="BackgroundImageFix"/>
<feGaussianBlur in="BackgroundImage" stdDeviation="25"/>
<feComposite in2="SourceAlpha" operator="in" result="effect1_backgroundBlur_68_1106"/>
<feBlend mode="normal" in="SourceGraphic" in2="effect1_backgroundBlur_68_1106" result="shape"/>
</filter>
</defs>
</svg>
