<svg width="12" height="12" viewBox="0 0 12 12" fill="none" xmlns="http://www.w3.org/2000/svg">
<path d="M11.4 7.2C11.2409 7.2 11.0883 7.26321 10.9757 7.37574C10.8632 7.48826 10.8 7.64087 10.8 7.8V10.2C10.8 10.3591 10.7368 10.5117 10.6243 10.6243C10.5117 10.7368 10.3591 10.8 10.2 10.8H1.8C1.64087 10.8 1.48826 10.7368 1.37574 10.6243C1.26321 10.5117 1.2 10.3591 1.2 10.2V7.8C1.2 7.64087 1.13679 7.48826 1.02426 7.37574C0.911742 7.26321 0.75913 7.2 0.6 7.2C0.44087 7.2 0.288258 7.26321 0.175736 7.37574C0.0632141 7.48826 0 7.64087 0 7.8V10.2C0 10.6774 0.189642 11.1352 0.527208 11.4728C0.864773 11.8104 1.32261 12 1.8 12H10.2C10.6774 12 11.1352 11.8104 11.4728 11.4728C11.8104 11.1352 12 10.6774 12 10.2V7.8C12 7.64087 11.9368 7.48826 11.8243 7.37574C11.7117 7.26321 11.5591 7.2 11.4 7.2ZM5.574 8.226C5.63106 8.28062 5.69835 8.32344 5.772 8.352C5.84382 8.38374 5.92148 8.40014 6 8.40014C6.07852 8.40014 6.15618 8.38374 6.228 8.352C6.30165 8.32344 6.36894 8.28062 6.426 8.226L8.826 5.826C8.93898 5.71302 9.00245 5.55978 9.00245 5.4C9.00245 5.24022 8.93898 5.08698 8.826 4.974C8.71302 4.86102 8.55978 4.79755 8.4 4.79755C8.24022 4.79755 8.08698 4.86102 7.974 4.974L6.6 6.354V0.6C6.6 0.44087 6.53679 0.288258 6.42426 0.175736C6.31174 0.0632141 6.15913 0 6 0C5.84087 0 5.68826 0.0632141 5.57574 0.175736C5.46321 0.288258 5.4 0.44087 5.4 0.6V6.354L4.026 4.974C3.97006 4.91806 3.90364 4.87368 3.83055 4.8434C3.75746 4.81313 3.67912 4.79755 3.6 4.79755C3.52088 4.79755 3.44254 4.81313 3.36945 4.8434C3.29636 4.87368 3.22994 4.91806 3.174 4.974C3.11806 5.02994 3.07368 5.09636 3.0434 5.16945C3.01313 5.24254 2.99755 5.32088 2.99755 5.4C2.99755 5.47912 3.01313 5.55746 3.0434 5.63055C3.07368 5.70364 3.11806 5.77006 3.174 5.826L5.574 8.226Z" fill="white"/>
</svg>
