<svg width="10" height="10" viewBox="0 0 10 10" fill="none" xmlns="http://www.w3.org/2000/svg">
<path d="M8.20821 6.42858C7.9387 6.43056 7.67315 6.4936 7.43147 6.61298C7.1898 6.73236 6.97828 6.90498 6.81281 7.11787L3.50098 5.46072C3.54358 5.31077 3.56638 5.15588 3.56879 5.00001C3.56638 4.84413 3.54358 4.68924 3.50098 4.53929L6.81281 2.88215C6.97828 3.09504 7.1898 3.26765 7.43147 3.38703C7.67315 3.50641 7.9387 3.56946 8.20821 3.57143C8.56113 3.57143 8.90612 3.4667 9.19956 3.27049C9.493 3.07427 9.72171 2.79538 9.85677 2.46908C9.99183 2.14278 10.0272 1.78374 9.95831 1.43734C9.88946 1.09095 9.71951 0.772762 9.46996 0.523025C9.22041 0.273288 8.90246 0.103215 8.55632 0.0343129C8.21019 -0.0345894 7.8514 0.000773723 7.52535 0.13593C7.19929 0.271087 6.92061 0.499967 6.72454 0.793627C6.52847 1.08729 6.42381 1.43254 6.42381 1.78572C6.42622 1.94159 6.44902 2.09648 6.49162 2.24643L3.17979 3.90358C3.01431 3.69069 2.8028 3.51807 2.56113 3.39869C2.31945 3.27931 2.0539 3.21627 1.78439 3.21429C1.31114 3.21429 0.857275 3.40243 0.522637 3.73732C0.187998 4.0722 0 4.52641 0 5.00001C0 5.47361 0.187998 5.92781 0.522637 6.2627C0.857275 6.59759 1.31114 6.78572 1.78439 6.78572C2.0539 6.78375 2.31945 6.7207 2.56113 6.60132C2.8028 6.48194 3.01431 6.30933 3.17979 6.09644L6.49162 7.75358C6.39537 8.11431 6.41452 8.49615 6.54638 8.84542C6.67824 9.19469 6.91619 9.49381 7.22674 9.70072C7.5373 9.90762 7.90486 10.0119 8.27772 9.99892C8.65058 9.98592 9.00999 9.85629 9.30542 9.62826C9.60084 9.40023 9.81741 9.08527 9.92467 8.72767C10.0319 8.37007 10.0245 7.98781 9.90339 7.63466C9.78229 7.28152 9.55362 6.97523 9.24955 6.75889C8.94548 6.54255 8.58129 6.42703 8.20821 6.42858V6.42858ZM8.20821 0.714288C8.41996 0.714288 8.62695 0.777126 8.80302 0.894856C8.97908 1.01259 9.11631 1.17992 9.19735 1.3757C9.27838 1.57148 9.29958 1.78691 9.25827 1.99474C9.21696 2.20258 9.11499 2.39349 8.96526 2.54333C8.81553 2.69318 8.62476 2.79522 8.41708 2.83656C8.20939 2.8779 7.99413 2.85668 7.79849 2.77559C7.60286 2.6945 7.43565 2.55717 7.31801 2.38097C7.20036 2.20478 7.13757 1.99763 7.13757 1.78572C7.13757 1.50156 7.25037 1.22903 7.45115 1.0281C7.65194 0.82717 7.92426 0.714288 8.20821 0.714288V0.714288ZM1.78439 6.07144C1.57264 6.07144 1.36564 6.0086 1.18958 5.89087C1.01351 5.77314 0.876288 5.6058 0.795254 5.41003C0.714221 5.21425 0.693018 4.99882 0.734329 4.79098C0.77564 4.58315 0.877608 4.39223 1.02734 4.24239C1.17707 4.09255 1.36784 3.99051 1.57552 3.94916C1.78321 3.90782 1.99847 3.92904 2.19411 4.01014C2.38974 4.09123 2.55695 4.22856 2.67459 4.40475C2.79224 4.58095 2.85503 4.7881 2.85503 5.00001C2.85503 5.28417 2.74223 5.55669 2.54145 5.75762C2.34066 5.95856 2.06834 6.07144 1.78439 6.07144ZM8.20821 9.28573C7.99645 9.28573 7.78946 9.22289 7.61339 9.10516C7.43733 8.98743 7.3001 8.8201 7.21907 8.62432C7.13803 8.42854 7.11683 8.21311 7.15814 8.00527C7.19945 7.79744 7.30142 7.60652 7.45115 7.45668C7.60088 7.30684 7.79165 7.2048 7.99934 7.16346C8.20702 7.12211 8.42229 7.14333 8.61792 7.22443C8.81355 7.30552 8.98076 7.44285 9.09841 7.61904C9.21605 7.79524 9.27884 8.00239 9.27884 8.2143C9.27884 8.49846 9.16604 8.77098 8.96526 8.97191C8.76448 9.17285 8.49216 9.28573 8.20821 9.28573V9.28573Z" fill="white"/>
</svg>
