<svg width="29" height="28" viewBox="0 0 29 28" fill="none" xmlns="http://www.w3.org/2000/svg">
<path d="M7.97559 9.67825H0.999971V2.70264" stroke="white" stroke-width="2" stroke-linecap="round" stroke-linejoin="round"/>
<path d="M5.93261 22.8316C7.72113 24.6201 9.99985 25.8381 12.4806 26.3315C14.9613 26.825 17.5327 26.5717 19.8695 25.6038C22.2063 24.6358 24.2037 22.9967 25.6089 20.8936C27.0141 18.7905 27.7642 16.318 27.7642 13.7886C27.7642 11.2593 27.0141 8.78673 25.6089 6.68365C24.2037 4.58057 22.2063 2.94142 19.8695 1.97348C17.5327 1.00554 14.9613 0.752284 12.4806 1.24574C9.99985 1.73919 7.72113 2.95719 5.93261 4.74571L1.00011 9.67821" stroke="white" stroke-width="2" stroke-linecap="round" stroke-linejoin="round"/>
<path d="M11.9981 17H13.4781V10.13H12.2981L10.2381 11.51L10.8281 12.55L11.9981 11.82V17ZM17.2685 17.13C18.9085 17.13 19.9985 16.2 19.9985 14.74C19.9985 13.34 18.9485 12.56 17.7285 12.56C17.1685 12.56 16.7285 12.74 16.3885 12.98L16.4285 11.46H19.6185V10.13H15.0685L14.9685 13.84L15.9585 14.24C16.3285 13.96 16.7685 13.79 17.2885 13.79C18.0385 13.79 18.5285 14.19 18.5285 14.79C18.5285 15.38 18.0485 15.84 17.2785 15.84C16.6185 15.84 15.9885 15.52 15.4785 15.03L14.6085 16.07C15.2485 16.71 16.1185 17.13 17.2685 17.13Z" fill="white"/>
</svg>
