<svg width="10" height="10" viewBox="0 0 10 10" fill="none" xmlns="http://www.w3.org/2000/svg">
<g filter="url(#filter0_b_353_9)">
<circle cx="5" cy="5" r="5" fill="white" fill-opacity="0.1"/>
</g>
<path d="M6.00005 5.6667V4.83336C6.00005 4.32169 5.72671 3.89336 5.25004 3.78002V3.66669C5.25004 3.52835 5.13671 3.41669 4.99838 3.41669C4.86004 3.41669 4.75004 3.52835 4.75004 3.66669V3.78002C4.27171 3.89336 4.00004 4.32002 4.00004 4.83336V5.6667L3.78337 5.8817C3.67837 5.9867 3.7517 6.1667 3.90004 6.1667H6.09505C6.24338 6.1667 6.31838 5.9867 6.21338 5.8817L6.00005 5.6667ZM4.99838 6.6667C5.18171 6.6667 5.33171 6.5167 5.33171 6.33337H4.66504C4.66504 6.5167 4.81338 6.6667 4.99838 6.6667ZM4.12837 3.78836C4.19837 3.72502 4.20004 3.61669 4.13337 3.55002C4.07004 3.48669 3.96671 3.48502 3.90171 3.54669C3.6167 3.80669 3.42004 4.16002 3.3567 4.55669C3.3417 4.65836 3.42004 4.75003 3.52337 4.75003C3.60337 4.75003 3.67337 4.69169 3.6867 4.61169C3.7367 4.28836 3.89671 4.00002 4.12837 3.78836ZM6.10005 3.54669C6.03338 3.48502 5.93005 3.48669 5.86671 3.55002C5.80005 3.61669 5.80338 3.72336 5.87171 3.78669C6.10171 3.99836 6.26338 4.28669 6.31338 4.61003C6.32505 4.69003 6.39505 4.74836 6.47671 4.74836C6.57838 4.74836 6.65838 4.65669 6.64172 4.55503C6.57838 4.16002 6.38338 3.80836 6.10005 3.54669Z" fill="white"/>
<defs>
<filter id="filter0_b_353_9" x="-5" y="-5" width="20" height="20" filterUnits="userSpaceOnUse" color-interpolation-filters="sRGB">
<feFlood flood-opacity="0" result="BackgroundImageFix"/>
<feGaussianBlur in="BackgroundImage" stdDeviation="2.5"/>
<feComposite in2="SourceAlpha" operator="in" result="effect1_backgroundBlur_353_9"/>
<feBlend mode="normal" in="SourceGraphic" in2="effect1_backgroundBlur_353_9" result="shape"/>
</filter>
</defs>
</svg>
