<svg width="22" height="22" viewBox="0 0 22 22" fill="none" xmlns="http://www.w3.org/2000/svg">
<g filter="url(#filter0_b_303_611)">
<circle cx="11" cy="11" r="11" fill="white" fill-opacity="0.1"/>
</g>
<path d="M11.5371 11.0016L13.9267 8.61575C13.9982 8.54432 14.0383 8.44745 14.0383 8.34644C14.0383 8.24543 13.9982 8.14855 13.9267 8.07713C13.8553 8.0057 13.7584 7.96558 13.6574 7.96558C13.5564 7.96558 13.4595 8.0057 13.3881 8.07713L11.0023 10.4668L8.6164 8.07713C8.54497 8.0057 8.4481 7.96558 8.34709 7.96558C8.24607 7.96558 8.1492 8.0057 8.07778 8.07713C8.00635 8.14855 7.96622 8.24543 7.96622 8.34644C7.96622 8.44745 8.00635 8.54432 8.07778 8.61575L10.4674 11.0016L8.07778 13.3875C8.04222 13.4227 8.014 13.4647 7.99475 13.5109C7.97549 13.5571 7.96558 13.6067 7.96558 13.6568C7.96558 13.7069 7.97549 13.7564 7.99475 13.8027C8.014 13.8489 8.04222 13.8908 8.07778 13.9261C8.11304 13.9616 8.15499 13.9899 8.20121 14.0091C8.24743 14.0284 8.29701 14.0383 8.34709 14.0383C8.39716 14.0383 8.44674 14.0284 8.49296 14.0091C8.53918 13.9899 8.58113 13.9616 8.6164 13.9261L11.0023 11.5364L13.3881 13.9261C13.4234 13.9616 13.4653 13.9899 13.5116 14.0091C13.5578 14.0284 13.6074 14.0383 13.6574 14.0383C13.7075 14.0383 13.7571 14.0284 13.8033 14.0091C13.8495 13.9899 13.8915 13.9616 13.9267 13.9261C13.9623 13.8908 13.9905 13.8489 14.0098 13.8027C14.029 13.7564 14.0389 13.7069 14.0389 13.6568C14.0389 13.6067 14.029 13.5571 14.0098 13.5109C13.9905 13.4647 13.9623 13.4227 13.9267 13.3875L11.5371 11.0016Z" fill="white"/>
<defs>
<filter id="filter0_b_303_611" x="-50" y="-50" width="122" height="122" filterUnits="userSpaceOnUse" color-interpolation-filters="sRGB">
<feFlood flood-opacity="0" result="BackgroundImageFix"/>
<feGaussianBlur in="BackgroundImage" stdDeviation="25"/>
<feComposite in2="SourceAlpha" operator="in" result="effect1_backgroundBlur_303_611"/>
<feBlend mode="normal" in="SourceGraphic" in2="effect1_backgroundBlur_303_611" result="shape"/>
</filter>
</defs>
</svg>
