<svg width="15" height="14" viewBox="0 0 15 14" fill="none" xmlns="http://www.w3.org/2000/svg">
<path d="M4.73704 0C2.12378 0 -7.20028e-06 2.12379 0 4.73704C5.25564e-06 6.64591 1.13087 8.29456 2.761 9.04361C2.79087 9.05831 2.82338 9.06688 2.85661 9.06881C2.88984 9.07074 2.92313 9.06601 2.9545 9.05487C2.98587 9.04374 3.01469 9.02644 3.03927 9.00399C3.06385 8.98153 3.08368 8.95437 3.0976 8.92413C3.11151 8.89389 3.11923 8.86117 3.1203 8.82789C3.12137 8.79462 3.11577 8.76145 3.10382 8.73038C3.09187 8.69931 3.07383 8.67098 3.05074 8.64699C3.02766 8.62301 3 8.60388 2.96941 8.59075C1.5117 7.92093 0.49864 6.44905 0.498635 4.73704C0.498629 2.39325 2.39327 0.498635 4.73704 0.498635C5.68268 0.498635 6.55368 0.807923 7.25846 1.33034C7.2848 1.34985 7.31473 1.36398 7.34654 1.37192C7.37835 1.37986 7.41141 1.3815 7.44383 1.37666C7.47626 1.37183 7.50741 1.36061 7.53551 1.34373C7.56362 1.32686 7.58812 1.30465 7.60763 1.2783C7.62714 1.25195 7.64126 1.22197 7.6492 1.19016C7.65713 1.15836 7.65873 1.12532 7.65389 1.0929C7.64904 1.06047 7.63786 1.02933 7.62098 1.00123C7.6041 0.973125 7.58185 0.9486 7.5555 0.929098C6.76812 0.345495 5.79142 0 4.73704 0Z" fill="#00FF57"/>
<path d="M10.226 0C9.12094 0 8.10157 0.37944 7.29553 1.0148C7.26916 1.03484 7.24704 1.05989 7.23047 1.08857C7.2139 1.11725 7.20321 1.14897 7.19902 1.18182C7.19483 1.21468 7.19724 1.24803 7.20609 1.27994C7.21494 1.31186 7.23006 1.34171 7.25057 1.36772C7.27108 1.39373 7.29656 1.4154 7.32554 1.43145C7.35451 1.4475 7.38639 1.45762 7.41932 1.46121C7.45225 1.4648 7.48556 1.46181 7.51731 1.45239C7.54906 1.44296 7.57862 1.42728 7.60426 1.40631C8.32582 0.837514 9.23489 0.498635 10.226 0.498635C12.5698 0.498635 14.4644 2.39325 14.4644 4.73704C14.4644 6.46341 13.4341 7.94547 11.9566 8.60731C11.9265 8.62059 11.8994 8.63966 11.8767 8.66349C11.854 8.68731 11.8363 8.71544 11.8245 8.74615C11.8128 8.77685 11.8072 8.80957 11.8081 8.84244C11.809 8.87531 11.8164 8.90765 11.8299 8.93764C11.8434 8.96763 11.8627 8.99469 11.8867 9.01719C11.9107 9.0397 11.9388 9.05724 11.9696 9.06881C12.0004 9.08038 12.0332 9.08572 12.066 9.08458C12.0989 9.08343 12.1312 9.0758 12.1611 9.06212C13.8134 8.32199 14.963 6.66192 14.963 4.73704C14.963 2.12379 12.8392 0 10.226 0Z" fill="#00FF57"/>
<path d="M3.00344 8.52647C2.94175 8.52824 2.88291 8.5528 2.8383 8.59544C2.79369 8.63807 2.76647 8.69574 2.76191 8.75729C2.74918 8.8988 2.74243 9.04207 2.74243 9.18677C2.74243 11.8 4.86623 13.9238 7.47947 13.9238C10.0927 13.9238 12.2165 11.8 12.2165 9.18677C12.2165 9.10585 12.2147 9.02543 12.2107 8.94525C12.2074 8.87912 12.178 8.81697 12.129 8.7725C12.08 8.72804 12.0153 8.70486 11.9491 8.7081C11.883 8.71134 11.8209 8.74074 11.7764 8.78979C11.7319 8.83884 11.7088 8.90353 11.712 8.96966C11.7157 9.04126 11.7179 9.11413 11.7179 9.18683C11.7179 11.5306 9.82323 13.4252 7.47947 13.4252C5.13571 13.4252 3.24107 11.5306 3.24107 9.18683C3.24107 9.05704 3.2472 8.92885 3.2586 8.80215C3.26237 8.76677 3.25852 8.73098 3.24731 8.69721C3.23611 8.66344 3.21781 8.63244 3.19364 8.60633C3.16947 8.58022 3.13999 8.5596 3.10718 8.54583C3.07438 8.53205 3.039 8.52544 3.00344 8.52647V8.52647Z" fill="#00FF57"/>
<path d="M7.47942 0.937988C7.42312 0.93817 7.36854 0.957384 7.32457 0.992527C6.20787 1.85896 5.48876 3.21573 5.48877 4.73716C5.48878 6.25835 6.20812 7.61542 7.32457 8.4818C7.35014 8.50426 7.38004 8.5213 7.41243 8.53177C7.44482 8.54224 7.479 8.54597 7.51289 8.54273C7.54677 8.53948 7.57963 8.52933 7.60945 8.5129C7.63926 8.49648 7.66539 8.47413 7.68624 8.44722C7.70709 8.42032 7.7222 8.38938 7.73066 8.35641C7.73911 8.32344 7.74073 8.28911 7.7354 8.25549C7.73008 8.22187 7.71792 8.1897 7.69969 8.16096C7.68146 8.13221 7.65754 8.10749 7.6294 8.08834C6.63 7.31281 5.98742 6.10148 5.9874 4.73716C5.98739 3.3726 6.63072 2.16156 7.63037 1.38598C7.672 1.35441 7.70266 1.31059 7.71803 1.26065C7.73339 1.21072 7.73269 1.1572 7.716 1.10769C7.69932 1.05818 7.66751 1.01519 7.62506 0.984736C7.58261 0.954281 7.53166 0.937926 7.47942 0.937988V0.937988Z" fill="#097B7B"/>
<path d="M7.35402 0.852113C7.30232 0.855015 7.2528 0.873961 7.21235 0.906286C7.17189 0.93861 7.14251 0.98274 7.12827 1.03253C7.11403 1.08231 7.11564 1.13526 7.13288 1.18409C7.15013 1.23292 7.18215 1.27517 7.22449 1.30497C8.28571 2.07542 8.97557 3.32371 8.97556 4.73699C8.97555 6.09467 8.33921 7.30046 7.34818 8.07648C7.32068 8.09599 7.29742 8.12089 7.2798 8.14965C7.26219 8.1784 7.2506 8.21045 7.24572 8.24381C7.24084 8.27718 7.24278 8.31116 7.25142 8.34376C7.26006 8.37635 7.27522 8.40685 7.29599 8.43342C7.31675 8.45998 7.34269 8.48211 7.37223 8.49836C7.40178 8.51462 7.43431 8.52468 7.46787 8.52801C7.50142 8.53133 7.5353 8.5278 7.56746 8.51766C7.59962 8.50751 7.62938 8.49094 7.65496 8.46896C8.76204 7.60204 9.47418 6.25075 9.4742 4.73699C9.47421 3.16125 8.70328 1.76258 7.51764 0.901782C7.47068 0.866389 7.41273 0.84874 7.35402 0.85193V0.852113Z" fill="#097B7B"/>
<path d="M7.4796 4.44989C4.99753 4.44989 2.95641 6.36443 2.75814 8.79737C2.75412 8.83071 2.75687 8.86451 2.76624 8.89677C2.7756 8.92902 2.79138 8.95908 2.81264 8.98509C2.83389 9.01109 2.86018 9.03249 2.88992 9.04809C2.91967 9.06368 2.95225 9.07309 2.98573 9.07578C3.0192 9.07847 3.05288 9.07437 3.08473 9.06373C3.11658 9.05308 3.14595 9.03615 3.17108 9.01388C3.19622 8.9916 3.21659 8.96448 3.23098 8.93414C3.24537 8.9038 3.25348 8.87085 3.25483 8.8373C3.43235 6.65896 5.25349 4.94853 7.4796 4.94853C9.73449 4.94853 11.5737 6.70305 11.7102 8.92203C11.7116 8.95515 11.7196 8.9877 11.7336 9.01771C11.7477 9.04772 11.7677 9.07457 11.7923 9.09678C11.8169 9.11899 11.8457 9.13611 11.877 9.14706C11.9083 9.15801 11.9415 9.16259 11.9745 9.16057C12.0076 9.15855 12.04 9.14993 12.0697 9.13525C12.0995 9.12057 12.126 9.10015 12.1477 9.07511C12.1694 9.05007 12.1859 9.02091 12.1963 8.98941C12.2066 8.95791 12.2105 8.9247 12.2079 8.89165C12.0555 6.41428 9.99376 4.44971 7.4796 4.44971V4.44989Z" fill="#097B7B"/>
<path d="M9.20229 4.80447C9.14066 4.80726 9.08226 4.83282 9.03837 4.87617C8.99448 4.91952 8.96822 4.97759 8.96466 5.03918C8.80986 7.2402 6.97916 8.97567 4.73697 8.97567C4.17099 8.97567 3.63171 8.86477 3.1388 8.66402C3.07746 8.6391 3.00873 8.63955 2.94773 8.6653C2.88673 8.69105 2.83846 8.74 2.81353 8.80134C2.78861 8.86268 2.78907 8.93141 2.81482 8.99241C2.84057 9.05341 2.8895 9.1017 2.95084 9.12662C3.50215 9.35121 4.10591 9.4743 4.73697 9.4743C7.23697 9.4743 9.28947 7.53201 9.46232 5.07424C9.46526 5.0389 9.46063 5.00338 9.44874 4.96997C9.43685 4.93656 9.41797 4.90602 9.39336 4.88049C9.36875 4.85496 9.33897 4.83499 9.30603 4.82187C9.27308 4.80876 9.23771 4.80282 9.20229 4.80447V4.80447Z" fill="#097B7B"/>
<path d="M7.49231 8.05332C7.44065 8.05499 7.39078 8.07266 7.3496 8.10391C7.30842 8.13515 7.27797 8.17841 7.26246 8.22771C7.24696 8.27702 7.24715 8.32996 7.26303 8.37915C7.27891 8.42834 7.30968 8.47136 7.35109 8.50229C8.1481 9.11162 9.14629 9.47424 10.226 9.47424C10.8774 9.47424 11.4992 9.34261 12.0648 9.10416C12.1257 9.07845 12.1739 9.02957 12.1989 8.9683C12.2238 8.90703 12.2234 8.83837 12.1977 8.77742C12.172 8.71646 12.1231 8.6682 12.0618 8.64326C12.0006 8.61833 11.9319 8.61879 11.871 8.64448C11.3653 8.8577 10.8102 8.97561 10.226 8.97561C9.25764 8.97561 8.36741 8.65235 7.65397 8.10689C7.60804 8.07062 7.55081 8.05165 7.49231 8.05332V8.05332Z" fill="#097B7B"/>
</svg>
