<svg width="22" height="22" viewBox="0 0 22 22" fill="none" xmlns="http://www.w3.org/2000/svg">
<path d="M11 0C17.0751 0 22 4.92487 22 11C22 17.0751 17.0751 22 11 22C4.92487 22 0 17.0751 0 11C0 4.92487 4.92487 0 11 0ZM11 1.83333C5.93739 1.83333 1.83333 5.93739 1.83333 11C1.83333 16.0626 5.93739 20.1667 11 20.1667C16.0626 20.1667 20.1667 16.0626 20.1667 11C20.1667 5.93739 16.0626 1.83333 11 1.83333ZM7.03742 7.27044L7.14349 7.14349C7.46169 6.82528 7.95564 6.78992 8.31289 7.03742L8.43985 7.14349L11 9.70383L13.5602 7.14349C13.8784 6.82528 14.3723 6.78992 14.7296 7.03742L14.8565 7.14349C15.1747 7.46169 15.2101 7.95564 14.9626 8.31289L14.8565 8.43985L12.2962 11L14.8565 13.5602C15.1747 13.8784 15.2101 14.3723 14.9626 14.7296L14.8565 14.8565C14.5383 15.1747 14.0444 15.2101 13.6871 14.9626L13.5602 14.8565L11 12.2962L8.43985 14.8565C8.12164 15.1747 7.6277 15.2101 7.27044 14.9626L7.14349 14.8565C6.82528 14.5383 6.78992 14.0444 7.03742 13.6871L7.14349 13.5602L9.70383 11L7.14349 8.43985C6.82528 8.12164 6.78992 7.6277 7.03742 7.27044L7.14349 7.14349L7.03742 7.27044Z" fill="black"/>
</svg>
