<svg width="34" height="34" viewBox="0 0 34 34" fill="none" xmlns="http://www.w3.org/2000/svg">
<g id="Group 383">
<g id="Group 64">
<g id="Ellipse 4" filter="url(#filter0_b_298_484)">
<circle cx="17" cy="17" r="17" fill="white" fill-opacity="0.2"/>
</g>
</g>
<path id="Vector" d="M22.4 18.2C22.2409 18.2 22.0883 18.2632 21.9757 18.3757C21.8632 18.4883 21.8 18.6409 21.8 18.8V21.2C21.8 21.3591 21.7368 21.5117 21.6243 21.6243C21.5117 21.7368 21.3591 21.8 21.2 21.8H12.8C12.6409 21.8 12.4883 21.7368 12.3757 21.6243C12.2632 21.5117 12.2 21.3591 12.2 21.2V18.8C12.2 18.6409 12.1368 18.4883 12.0243 18.3757C11.9117 18.2632 11.7591 18.2 11.6 18.2C11.4409 18.2 11.2883 18.2632 11.1757 18.3757C11.0632 18.4883 11 18.6409 11 18.8V21.2C11 21.6774 11.1896 22.1352 11.5272 22.4728C11.8648 22.8104 12.3226 23 12.8 23H21.2C21.6774 23 22.1352 22.8104 22.4728 22.4728C22.8104 22.1352 23 21.6774 23 21.2V18.8C23 18.6409 22.9368 18.4883 22.8243 18.3757C22.7117 18.2632 22.5591 18.2 22.4 18.2ZM16.574 19.226C16.6311 19.2806 16.6983 19.3234 16.772 19.352C16.8438 19.3837 16.9215 19.4001 17 19.4001C17.0785 19.4001 17.1562 19.3837 17.228 19.352C17.3017 19.3234 17.3689 19.2806 17.426 19.226L19.826 16.826C19.939 16.713 20.0025 16.5598 20.0025 16.4C20.0025 16.2402 19.939 16.087 19.826 15.974C19.713 15.861 19.5598 15.7975 19.4 15.7975C19.2402 15.7975 19.087 15.861 18.974 15.974L17.6 17.354V11.6C17.6 11.4409 17.5368 11.2883 17.4243 11.1757C17.3117 11.0632 17.1591 11 17 11C16.8409 11 16.6883 11.0632 16.5757 11.1757C16.4632 11.2883 16.4 11.4409 16.4 11.6V17.354L15.026 15.974C14.9701 15.9181 14.9036 15.8737 14.8305 15.8434C14.7575 15.8131 14.6791 15.7975 14.6 15.7975C14.5209 15.7975 14.4425 15.8131 14.3695 15.8434C14.2964 15.8737 14.2299 15.9181 14.174 15.974C14.1181 16.0299 14.0737 16.0964 14.0434 16.1695C14.0131 16.2425 13.9975 16.3209 13.9975 16.4C13.9975 16.4791 14.0131 16.5575 14.0434 16.6305C14.0737 16.7036 14.1181 16.7701 14.174 16.826L16.574 19.226Z" fill="white"/>
</g>
<defs>
<filter id="filter0_b_298_484" x="-30" y="-30" width="94" height="94" filterUnits="userSpaceOnUse" color-interpolation-filters="sRGB">
<feFlood flood-opacity="0" result="BackgroundImageFix"/>
<feGaussianBlur in="BackgroundImageFix" stdDeviation="15"/>
<feComposite in2="SourceAlpha" operator="in" result="effect1_backgroundBlur_298_484"/>
<feBlend mode="normal" in="SourceGraphic" in2="effect1_backgroundBlur_298_484" result="shape"/>
</filter>
</defs>
</svg>
