<svg width="20" height="11" viewBox="0 0 20 11" fill="none" xmlns="http://www.w3.org/2000/svg">
<path fill-rule="evenodd" clip-rule="evenodd" d="M0.291992 0.366333C0.104394 0.563877 1.21325e-07 0.825901 1.18076e-07 1.09833C1.14828e-07 1.37075 0.104394 1.63278 0.291992 1.83032L8.55615 10.3933C8.73832 10.585 8.9572 10.7377 9.2002 10.8419C9.44319 10.9462 9.70529 11 9.96973 11C10.2342 11 10.4958 10.9462 10.7388 10.8419C10.9818 10.7377 11.2006 10.585 11.3828 10.3933L19.708 1.76834C20.093 1.36834 20.0978 0.720331 19.7178 0.314331C19.6272 0.216037 19.5177 0.137407 19.3955 0.0833132C19.2733 0.0292199 19.1414 0.00081562 19.0078 -0.000121844C18.8742 -0.00105931 18.7416 0.0254767 18.6187 0.0778506C18.4957 0.130224 18.3849 0.207307 18.293 0.304322L10.6758 8.19733C10.5847 8.29324 10.4751 8.36962 10.3535 8.42181C10.232 8.47401 10.1015 8.50095 9.96924 8.50095C9.83696 8.50095 9.70602 8.47401 9.58447 8.42181C9.46293 8.36962 9.35329 8.29324 9.26221 8.19733L1.70508 0.36734C1.61408 0.27145 1.50427 0.195096 1.38281 0.142914C1.26135 0.0907316 1.13073 0.0638123 0.998535 0.0638123C0.866339 0.0638123 0.735719 0.0907316 0.614258 0.142914C0.492796 0.195096 0.382992 0.27145 0.291992 0.36734" fill="black"/>
</svg>
