<svg width="26" height="27" viewBox="0 0 26 27" fill="none" xmlns="http://www.w3.org/2000/svg">
<path d="M9.19237 4.30863H9.39952L9.54597 4.16213L13 0.707199L16.454 4.16213L16.6005 4.30863H16.8076H21.6924V9.19536V9.40243L21.8388 9.54887L25.2929 13.0039L21.8388 16.4581L21.6924 16.6045V16.8116V21.6964H16.8076H16.6005L16.4541 21.8428L13 25.2969L9.54593 21.8428L9.39948 21.6964H9.19237H5.33886H4.30863V16.8126V16.6055L4.16218 16.4591L1.43589 13.7328L0.707061 13.0039L4.16222 9.54787L4.30863 9.40144V9.19437V4.30863H9.19237ZM20.1696 13.004C20.1696 9.05571 16.949 5.83042 13 5.83042C9.05135 5.83042 5.82643 9.05533 5.82643 13.004C5.82643 16.953 9.05173 20.1736 13 20.1736C16.9487 20.1736 20.1696 16.9526 20.1696 13.004ZM10.0751 10.0781C10.8508 9.3024 11.9029 8.86654 13 8.86641L8.86341 13.0029C8.86355 11.9059 9.2994 10.8538 10.0751 10.0781ZM13 8.86641C14.0971 8.86654 15.1491 9.30239 15.9249 10.0781C16.7006 10.8538 17.1365 11.9059 17.1366 13.0029L13 8.86641ZM10.0751 15.9279C9.2994 15.1521 8.86355 14.1001 8.86341 13.003L13 17.1396C11.9029 17.1394 10.8509 16.7036 10.0751 15.9279ZM15.9249 15.9279C15.1491 16.7036 14.0971 17.1394 13 17.1396L17.1366 13.003C17.1365 14.1001 16.7006 15.1521 15.9249 15.9279Z" stroke="white"/>
</svg>
