<svg width="26" height="24" viewBox="0 0 26 24" fill="none" xmlns="http://www.w3.org/2000/svg">
<g id="Group">
<path id="Vector" d="M18.1864 10.7154C18.0979 9.99191 17.8619 9.3145 17.5089 8.71369L12.9999 0L8.49066 8.71369H8.49099C8.13777 9.3145 7.90213 9.99193 7.81359 10.7154V10.7157C7.80144 10.8149 7.79164 10.9152 7.7849 11.0163C7.78459 11.0241 7.78399 11.0323 7.78324 11.0403C7.77689 11.145 7.77307 11.2498 7.77307 11.356C7.77307 14.243 10.1131 16.5832 12.9999 16.5832C15.8866 16.5832 18.2268 14.243 18.2268 11.356C18.2268 11.2499 18.2229 11.145 18.2162 11.0403C18.2156 11.0323 18.215 11.0242 18.2144 11.0163C18.2079 10.9152 18.1983 10.8149 18.1865 10.7157V10.7154H18.1864Z" fill="url(#paint0_linear_29_4498)"/>
<path id="Vector_2" d="M6.58549 17.3428C6.7285 17.2465 6.76682 17.0515 6.66983 16.9086C6.57308 16.7654 6.37924 16.7274 6.23576 16.8235C5.61068 17.2453 5.29346 17.7179 5.29346 18.2284C5.29346 20.0772 9.26397 21.0745 13.0003 21.0745C16.7364 21.0745 20.7064 20.0772 20.7064 18.2284C20.7064 17.7573 20.4334 17.3156 19.8949 16.9163C19.7566 16.8136 19.5605 16.8427 19.4575 16.9813C19.3544 17.1201 19.3837 17.3159 19.5227 17.4184C19.7778 17.608 20.0816 17.9018 20.0816 18.2283C20.0816 19.279 17.1734 20.4491 13.0009 20.4491C8.82751 20.4491 5.91945 19.279 5.91945 18.2283C5.91947 17.8674 6.28164 17.5474 6.58549 17.3428Z" fill="url(#paint1_linear_29_4498)"/>
<path id="Vector_3" d="M22.8347 15.678C22.6746 15.6129 22.4929 15.6898 22.4268 15.8489C22.3616 16.0089 22.438 16.1912 22.5981 16.2564C24.3887 16.9876 25.3742 17.8767 25.3742 18.7607C25.3742 20.7093 20.4018 22.7956 13.0001 22.7956C5.59783 22.7956 0.625336 20.7093 0.625336 18.7607C0.625336 17.8486 1.67205 16.9365 3.57265 16.1929C3.73365 16.1296 3.81296 15.9482 3.7504 15.7872C3.68707 15.626 3.50463 15.5472 3.34499 15.6103C1.15614 16.4671 0 17.5567 0 18.7613C0 21.375 5.70958 23.4217 13.0001 23.4217C20.2901 23.4217 26 21.375 26 18.7613C26.0006 17.5892 24.906 16.5228 22.8347 15.678Z" fill="url(#paint2_linear_29_4498)"/>
</g>
<defs>
<linearGradient id="paint0_linear_29_4498" x1="12.9999" y1="0" x2="12.9999" y2="16.5832" gradientUnits="userSpaceOnUse">
<stop stop-color="#8473EA"/>
<stop offset="1" stop-color="#737FEA"/>
</linearGradient>
<linearGradient id="paint1_linear_29_4498" x1="12.9999" y1="16.7704" x2="12.9999" y2="21.0745" gradientUnits="userSpaceOnUse">
<stop stop-color="#8473EA"/>
<stop offset="1" stop-color="#737FEA"/>
</linearGradient>
<linearGradient id="paint2_linear_29_4498" x1="13" y1="15.5886" x2="13" y2="23.4217" gradientUnits="userSpaceOnUse">
<stop stop-color="#8473EA"/>
<stop offset="1" stop-color="#737FEA"/>
</linearGradient>
</defs>
</svg>
