<svg width="26" height="26" viewBox="0 0 26 26" fill="none" xmlns="http://www.w3.org/2000/svg">
<path id="Vector" fill-rule="evenodd" clip-rule="evenodd" d="M13 0L9.19237 3.80862H3.80862V9.19437L0 13.004L1.08234 14.0863L3.80862 16.8126V22.1964H5.33886H9.19237L13 26.004L16.8076 22.1964H22.1924V16.8116L26 13.004L22.1924 9.19536V3.80862H16.8076L13 0ZM13 6.33042C16.6725 6.33042 19.6696 9.33147 19.6696 13.004C19.6696 16.6765 16.6725 19.6736 13 19.6736C9.32749 19.6736 6.32643 16.6765 6.32643 13.004C6.32643 9.33147 9.32749 6.33042 13 6.33042ZM13 8.36641C11.7703 8.36653 10.5911 8.85506 9.72157 9.72457C8.85207 10.5941 8.36354 11.7733 8.36341 13.003C8.36354 14.2327 8.85207 15.4119 9.72157 16.2814C10.5911 17.1509 11.7703 17.6395 13 17.6396C14.2297 17.6395 15.4089 17.1509 16.2784 16.2814C17.1479 15.4119 17.6365 14.2327 17.6366 13.003C17.6365 11.7733 17.1479 10.5941 16.2784 9.72457C15.4089 8.85506 14.2297 8.36653 13 8.36641Z" fill="url(#paint0_linear_30_4510)"/>
<defs>
<linearGradient id="paint0_linear_30_4510" x1="-6.09123e-08" y1="2" x2="19.5" y2="17.5" gradientUnits="userSpaceOnUse">
<stop stop-color="#D59B08"/>
<stop offset="1" stop-color="#F0CB75"/>
</linearGradient>
</defs>
</svg>
