<svg width="26" height="24" viewBox="0 0 26 24" fill="none" xmlns="http://www.w3.org/2000/svg">
<g id="Group">
<path id="Vector" fill-rule="evenodd" clip-rule="evenodd" d="M13.4037 14.481C20.3478 14.5618 26 16.4189 26 18.8413C26 21.1829 20.1863 23.1208 13 23.1208C5.81366 23.1208 0 21.1829 0 18.8413C0 16.6611 4.52174 14.9655 10.4969 14.5618C7.10559 14.481 4.68323 13.5928 4.52174 12.3009C4.2795 10.5245 8.55901 8.42513 13.9689 7.69842H14.2919C13.4845 7.69842 12.7578 7.69842 11.9503 7.69842C8.07453 7.37544 5.00621 6.08352 5.08696 4.79159C5.1677 3.49967 8.39752 2.69221 12.2733 3.0152H12.5963C10.5776 2.69221 9.12422 1.96551 9.20497 1.2388C9.28571 0.431346 11.3851 -0.133871 13.9689 0.0276196C16.472 0.269855 18.4907 1.07731 18.4099 1.96551C18.4099 2.77296 16.2298 3.33818 13.7267 3.17669C16.8758 3.58041 19.2174 4.71085 19.1366 5.84128C19.0559 6.64873 17.764 7.2947 15.9068 7.53693C20.5093 7.2947 24.0621 8.18289 24.3043 9.71705C24.5466 11.5742 20.2671 13.5928 14.8571 14.3195C14.3727 14.4003 13.8882 14.4003 13.4037 14.481Z" fill="url(#paint0_linear_32_4517)"/>
</g>
<defs>
<linearGradient id="paint0_linear_32_4517" x1="13" y1="0" x2="13" y2="23.1208" gradientUnits="userSpaceOnUse">
<stop stop-color="#EE8183"/>
<stop offset="1" stop-color="#EEA078"/>
</linearGradient>
</defs>
</svg>
