<svg width="26" height="26" viewBox="0 0 26 26" fill="none" xmlns="http://www.w3.org/2000/svg">
<path id="Vector" d="M13 0C5.83098 0 0 5.83098 0 13C0 20.169 5.83098 26 13 26C20.169 26 26 20.169 26 13C26 5.83098 20.169 0 13 0ZM5.07317 11.7317C5.07317 10.3334 6.21146 9.19512 7.60976 9.19512C9.00805 9.19512 10.1463 10.3334 10.1463 11.7317C10.1463 13.13 9.00805 14.2683 7.60976 14.2683C6.21146 14.2683 5.07317 13.13 5.07317 11.7317ZM18.2571 18.7802C16.8651 20.5717 14.9976 21.561 13 21.561C11.0024 21.561 9.13488 20.5717 7.74293 18.7802C7.52732 18.5012 7.57805 18.1049 7.8539 17.8893C8.13293 17.6737 8.52927 17.7244 8.74488 18.0002C8.84951 18.1366 8.96049 18.2666 9.07146 18.3902C10.1717 19.6205 11.551 20.2927 13 20.2927C14.449 20.2927 15.8283 19.6205 16.9285 18.3902C17.0395 18.2666 17.1505 18.1366 17.2551 18.0002C17.4707 17.7244 17.8702 17.6737 18.1461 17.8893C18.422 18.1049 18.4727 18.5012 18.2571 18.7802ZM18.3902 14.2683C16.992 14.2683 15.8537 13.13 15.8537 11.7317C15.8537 10.3334 16.992 9.19512 18.3902 9.19512C19.7885 9.19512 20.9268 10.3334 20.9268 11.7317C20.9268 13.13 19.7885 14.2683 18.3902 14.2683ZM8.87805 11.7317C8.87805 12.4324 8.31049 13 7.60976 13C6.90902 13 6.34146 12.4324 6.34146 11.7317C6.34146 11.031 6.90902 10.4634 7.60976 10.4634C8.31049 10.4634 8.87805 11.031 8.87805 11.7317ZM19.6585 11.7317C19.6585 12.4324 19.091 13 18.3902 13C17.6895 13 17.122 12.4324 17.122 11.7317C17.122 11.031 17.6895 10.4634 18.3902 10.4634C19.091 10.4634 19.6585 11.031 19.6585 11.7317Z" fill="url(#paint0_linear_33_4547)"/>
<defs>
<linearGradient id="paint0_linear_33_4547" x1="-9.16708e-07" y1="-2.5" x2="26" y2="29" gradientUnits="userSpaceOnUse">
<stop stop-color="#E2EA75"/>
<stop offset="1" stop-color="#ACEF76"/>
</linearGradient>
</defs>
</svg>
