<svg width="26" height="23" viewBox="0 0 26 23" fill="none" xmlns="http://www.w3.org/2000/svg">
<g id="Group 18">
<path id="Vector" d="M24.9857 13.9784L20.6486 13.1207C20.2902 9.99105 19.4195 7.8417 18.0554 6.72425C17.3056 6.10983 16.5942 5.96307 16.1732 5.93775C16.1356 5.93366 16.0973 5.93161 16.0586 5.93098C15.347 6.83923 14.241 7.42455 13.0003 7.42455C11.7595 7.42455 10.6535 6.83923 9.94173 5.93098C9.90335 5.93161 9.86544 5.93366 9.82816 5.93775C9.40722 5.96292 8.6956 6.10952 7.94512 6.72425C6.58118 7.8417 5.71037 9.9912 5.35188 13.1207L1.0145 13.9784C0.332761 14.1131 -0.110667 14.7752 0.024139 15.4569C0.142743 16.0564 0.668596 16.4715 1.25721 16.4715C1.33822 16.4715 1.42033 16.4635 1.50276 16.4473L6.75908 15.4078C7.31294 15.2983 7.72601 14.8335 7.76958 14.2705C7.94025 12.0661 8.32988 10.6552 8.74578 9.77476V17.2144L12.9999 18.1788L17.2543 17.2142V9.79458C17.6508 10.6327 18.0556 12.0134 18.2303 14.2704C18.2739 14.8334 18.687 15.2982 19.2408 15.4077L24.4971 16.4471C24.5796 16.4635 24.6617 16.4713 24.7427 16.4713C25.3313 16.4712 25.8573 16.0561 25.9758 15.4567C26.1109 14.7752 25.6675 14.1131 24.9857 13.9784Z" fill="url(#paint0_linear_33_4568)"/>
<path id="Vector_2" d="M10.9466 18.6443L12.2176 18.3561L6.22037 16.9965C5.1726 16.759 4.13127 17.4161 3.89375 18.4635C3.65638 19.5107 4.31264 20.5526 5.36041 20.7901L9.31194 21.686C9.27529 21.5888 9.24273 21.4893 9.21913 21.3854C8.93977 20.1532 9.71478 18.9236 10.9466 18.6443Z" fill="url(#paint1_linear_33_4568)"/>
<path id="Vector_3" d="M14.1172 22.7753C14.8164 22.9338 15.5115 22.6925 15.968 22.2041L13.783 22.6995L14.1172 22.7753Z" fill="url(#paint2_linear_33_4568)"/>
<path id="Vector_4" d="M11.0232 18.9818C9.97538 19.2194 9.31913 20.2611 9.55665 21.3088C9.79401 22.3559 10.8355 23.0129 11.8833 22.7754L20.6401 20.7901C21.6879 20.5526 22.3442 19.5107 22.1068 18.4635C21.8693 17.4161 20.828 16.759 19.7802 16.9965L11.0232 18.9818Z" fill="url(#paint3_linear_33_4568)"/>
<path id="Vector_5" d="M13.0003 7.07849C14.955 7.07849 16.5395 5.49391 16.5395 3.53924C16.5395 1.58457 14.955 0 13.0003 0C11.0456 0 9.46106 1.58457 9.46106 3.53924C9.46106 5.49391 11.0456 7.07849 13.0003 7.07849Z" fill="url(#paint4_linear_33_4568)"/>
</g>
<defs>
<linearGradient id="paint0_linear_33_4568" x1="13" y1="5.93098" x2="13" y2="18.1788" gradientUnits="userSpaceOnUse">
<stop stop-color="#B974E2"/>
<stop offset="1" stop-color="#DE73A5"/>
</linearGradient>
<linearGradient id="paint1_linear_33_4568" x1="8.0314" y1="16.948" x2="8.0314" y2="21.686" gradientUnits="userSpaceOnUse">
<stop stop-color="#B974E2"/>
<stop offset="1" stop-color="#DE73A5"/>
</linearGradient>
<linearGradient id="paint2_linear_33_4568" x1="14.8755" y1="22.2041" x2="14.8755" y2="22.8237" gradientUnits="userSpaceOnUse">
<stop stop-color="#B974E2"/>
<stop offset="1" stop-color="#DE73A5"/>
</linearGradient>
<linearGradient id="paint3_linear_33_4568" x1="15.8317" y1="16.948" x2="15.8317" y2="22.824" gradientUnits="userSpaceOnUse">
<stop stop-color="#B974E2"/>
<stop offset="1" stop-color="#DE73A5"/>
</linearGradient>
<linearGradient id="paint4_linear_33_4568" x1="13.0003" y1="0" x2="13.0003" y2="7.07849" gradientUnits="userSpaceOnUse">
<stop stop-color="#B974E2"/>
<stop offset="1" stop-color="#DE73A5"/>
</linearGradient>
</defs>
</svg>
