<svg width="26" height="16" viewBox="0 0 26 16" fill="none" xmlns="http://www.w3.org/2000/svg">
<g id="Group 22">
<path id="Vector" d="M12.9023 0C13.3791 0 15.8945 3.31917 16.0778 6.23796C16.3835 11.0028 14.5986 15.8287 12.9023 15.8287C11.1572 15.8287 9.42423 10.691 9.88573 6.23796C10.1455 3.73788 12.4806 0 12.9023 0Z" fill="url(#paint0_linear_33_4589)"/>
<path id="Vector_2" d="M17.3004 7.55217C17.1262 9.15063 17.221 9.58463 16.5852 11.8799C16.1085 13.5517 15.4666 14.5939 15.4941 14.6704C15.6378 14.9515 20.3109 12.6654 21.9858 8.40489C22.2028 7.85169 22.597 5.30578 22.1539 4.9543C21.7963 4.67312 17.4594 5.98428 17.3004 7.55217Z" fill="url(#paint1_linear_33_4589)"/>
<path id="Vector_3" d="M16.5089 3.59118C16.5553 3.97142 16.6267 4.34817 16.7229 4.71896C16.8145 5.23548 16.9337 5.81618 17.1263 5.88037C17.2333 5.91704 17.4625 5.71532 18.1074 5.19575C18.3736 4.97345 18.6154 4.72346 18.8287 4.45001C19.2627 3.86014 18.4099 2.25556 18.3183 2.21278C18.1013 2.10886 16.5089 2.67428 16.5089 3.59118Z" fill="url(#paint2_linear_33_4589)"/>
<path id="Vector_4" d="M23.0586 8.02897C22.8992 8.31078 22.7682 8.60767 22.6674 8.9153C22.5329 9.26372 22.3617 9.62437 22.4045 9.67938C22.4473 9.7344 22.6215 9.67938 23.1747 9.6152C23.4009 9.59381 23.6882 9.57853 23.8502 9.5663C24.3636 9.52657 24.6265 8.14205 24.5929 8.08093C24.5042 7.93117 23.3031 7.68666 23.0586 8.02897Z" fill="url(#paint3_linear_33_4589)"/>
<path id="Vector_5" d="M19.1984 13.3347C17.059 14.6704 15.5552 15.2205 15.7264 15.7065C15.7478 15.7645 17.5388 15.8257 21.6709 14.5359C24.5469 13.6373 26.1454 11.4245 25.9895 11.0731C25.9223 10.9233 24.6692 10.4007 23.8348 10.2998C22.8018 10.1776 20.8794 12.2864 19.1984 13.3347Z" fill="url(#paint4_linear_33_4589)"/>
<path id="Vector_6" d="M8.71218 7.55217C8.88639 9.15063 8.79164 9.58463 9.42736 11.8799C9.88886 13.5487 10.546 14.5939 10.5062 14.6704C10.3626 14.9515 5.68947 12.6654 4.01461 8.40489C3.79761 7.85169 3.40334 5.30578 3.84651 4.9543C4.20104 4.67312 8.54103 5.98428 8.71218 7.55217Z" fill="url(#paint5_linear_33_4589)"/>
<path id="Vector_7" d="M9.48852 3.59118C9.44217 3.97142 9.3707 4.34817 9.27458 4.71896C9.18289 5.23548 9.06369 5.81618 8.87114 5.88037C8.76417 5.91704 8.53494 5.71532 7.89006 5.19575C7.6228 4.97361 7.37998 4.72362 7.16571 4.45001C6.73171 3.86014 7.58443 2.25556 7.67612 2.21278C7.89923 2.10886 9.48852 2.67428 9.48852 3.59118Z" fill="url(#paint6_linear_33_4589)"/>
<path id="Vector_8" d="M2.9357 8.02897C3.09503 8.31078 3.22608 8.60767 3.32691 8.9153C3.46139 9.26372 3.63254 9.62437 3.58976 9.67938C3.54697 9.7344 3.37276 9.67938 2.81956 9.6152C2.59339 9.59381 2.3061 9.57853 2.14411 9.5663C1.63065 9.52657 1.36781 8.14205 1.40143 8.08093C1.49617 7.93117 2.69731 7.68666 2.9357 8.02897Z" fill="url(#paint7_linear_33_4589)"/>
<path id="Vector_9" d="M6.80196 13.3347C8.94139 14.6704 10.4451 15.2205 10.2739 15.7065C10.2525 15.7645 8.46154 15.8256 4.32939 14.5359C1.45339 13.6404 -0.148123 11.4276 0.0108059 11.0761C0.0780451 10.9264 1.33114 10.4037 2.16551 10.3029C3.21078 10.1776 5.12098 12.2864 6.80196 13.3347Z" fill="url(#paint8_linear_33_4589)"/>
</g>
<defs>
<linearGradient id="paint0_linear_33_4589" x1="12.9612" y1="0" x2="12.9612" y2="15.8287" gradientUnits="userSpaceOnUse">
<stop stop-color="#74E0AB"/>
<stop offset="1" stop-color="#72C6D1"/>
</linearGradient>
<linearGradient id="paint1_linear_33_4589" x1="18.9244" y1="4.91608" x2="18.9244" y2="14.6935" gradientUnits="userSpaceOnUse">
<stop stop-color="#74E0AB"/>
<stop offset="1" stop-color="#72C6D1"/>
</linearGradient>
<linearGradient id="paint2_linear_33_4589" x1="17.73" y1="2.20052" x2="17.73" y2="5.88456" gradientUnits="userSpaceOnUse">
<stop stop-color="#74E0AB"/>
<stop offset="1" stop-color="#72C6D1"/>
</linearGradient>
<linearGradient id="paint3_linear_33_4589" x1="23.4968" y1="7.85548" x2="23.4968" y2="9.70195" gradientUnits="userSpaceOnUse">
<stop stop-color="#74E0AB"/>
<stop offset="1" stop-color="#72C6D1"/>
</linearGradient>
<linearGradient id="paint4_linear_33_4589" x1="20.8565" y1="10.2947" x2="20.8565" y2="15.7309" gradientUnits="userSpaceOnUse">
<stop stop-color="#74E0AB"/>
<stop offset="1" stop-color="#72C6D1"/>
</linearGradient>
<linearGradient id="paint5_linear_33_4589" x1="7.07643" y1="4.91608" x2="7.07643" y2="14.6935" gradientUnits="userSpaceOnUse">
<stop stop-color="#74E0AB"/>
<stop offset="1" stop-color="#72C6D1"/>
</linearGradient>
<linearGradient id="paint6_linear_33_4589" x1="8.26593" y1="2.20052" x2="8.26593" y2="5.88456" gradientUnits="userSpaceOnUse">
<stop stop-color="#74E0AB"/>
<stop offset="1" stop-color="#72C6D1"/>
</linearGradient>
<linearGradient id="paint7_linear_33_4589" x1="2.4975" y1="7.85548" x2="2.4975" y2="9.70195" gradientUnits="userSpaceOnUse">
<stop stop-color="#74E0AB"/>
<stop offset="1" stop-color="#72C6D1"/>
</linearGradient>
<linearGradient id="paint8_linear_33_4589" x1="5.1436" y1="10.2975" x2="5.1436" y2="15.7309" gradientUnits="userSpaceOnUse">
<stop stop-color="#74E0AB"/>
<stop offset="1" stop-color="#72C6D1"/>
</linearGradient>
</defs>
</svg>
