<svg width="26" height="29" viewBox="0 0 26 29" fill="none" xmlns="http://www.w3.org/2000/svg">
<path id="Vector" d="M19.0615 12.7748C19.0615 10.8512 19.8232 10.0866 21.7497 10.0866C19.8262 10.0866 19.0615 9.32495 19.0615 7.39843C19.0615 9.32495 18.2999 10.0866 16.3734 10.0866C18.2999 10.0896 19.0615 10.8512 19.0615 12.7748ZM20.7372 13.8052C20.7372 15.0776 20.2324 15.5973 18.9451 15.5973C20.2175 15.5973 20.7372 16.1021 20.7372 17.3745C20.7372 16.1021 21.2419 15.5973 22.5293 15.5973C21.2419 15.5824 20.7372 15.0836 20.7372 13.8052ZM14.0675 8.77537C14.0675 7.86438 14.4289 7.50297 15.3399 7.50297C14.4289 7.50297 14.0675 7.14156 14.0675 6.23057C14.0675 7.14156 13.7061 7.50297 12.7951 7.50297C13.7061 7.50297 14.0675 7.86438 14.0675 8.77537ZM17.6099 21.9354C15.5342 21.1567 13.6667 19.9086 12.1531 18.2887C10.6396 16.6688 9.52103 14.7209 8.88484 12.5972C8.24864 10.4735 8.11204 8.23145 8.4857 6.0462C8.85937 3.86095 9.73317 1.79167 11.0389 0C8.78557 0.538496 6.69572 1.61338 4.94715 3.1332C3.19858 4.65301 1.84306 6.57275 0.995926 8.72906C0.148797 10.8854 -0.164861 13.2144 0.0816441 15.518C0.328149 17.8216 1.12752 20.0316 2.41173 21.9598C3.69594 23.8881 5.42698 25.4775 7.45754 26.5929C9.4881 27.7083 11.7581 28.3167 14.0743 28.3662C16.3905 28.4157 18.6844 27.9049 20.7608 26.8773C22.8372 25.8497 24.6346 24.3357 26 22.4641C23.2135 23.1326 20.2905 22.9484 17.6099 21.9354Z" fill="url(#paint0_linear_33_4603)"/>
<defs>
<linearGradient id="paint0_linear_33_4603" x1="13" y1="0" x2="13" y2="28.3695" gradientUnits="userSpaceOnUse">
<stop stop-color="#80A8F0"/>
<stop offset="1" stop-color="#A481F0"/>
</linearGradient>
</defs>
</svg>
