<svg width="26" height="26" viewBox="0 0 26 26" fill="none" xmlns="http://www.w3.org/2000/svg">
<g filter="url(#filter0_b_149_1022)">
<circle cx="13" cy="13" r="13" fill="white" fill-opacity="0.1"/>
</g>
<path d="M19.8065 14.6597L19.0553 13.6581C19.0568 13.6053 19.0575 13.5525 19.0575 13.5C19.0575 13.4474 19.0568 13.3946 19.0553 13.3418L19.8062 12.3402C19.8981 12.2177 19.9595 12.0751 19.9856 11.9242C20.0116 11.7733 20.0015 11.6184 19.956 11.4722C19.8368 11.0918 19.6841 10.7228 19.4998 10.3694C19.4286 10.2337 19.3261 10.1167 19.2009 10.0283C19.0757 9.93984 18.9312 9.88239 18.7794 9.86065L17.54 9.68362C17.5038 9.64527 17.4671 9.60748 17.4298 9.57023C17.3927 9.53307 17.3548 9.4963 17.3163 9.45992L17.1391 8.22068C17.1174 8.0691 17.06 7.92484 16.9717 7.79974C16.8834 7.67463 16.7667 7.57224 16.6312 7.50098C16.278 7.31634 15.9091 7.16337 15.5289 7.04388C15.3825 6.99826 15.2274 6.98803 15.0763 7.01403C14.9252 7.04004 14.7824 7.10153 14.6597 7.19346L13.6582 7.94466C13.5526 7.94174 13.4474 7.94174 13.3418 7.94466L12.3402 7.19367C12.2177 7.10188 12.0751 7.04045 11.9242 7.01442C11.7733 6.9884 11.6184 6.99852 11.4721 7.04394C11.0919 7.16315 10.7229 7.31583 10.3695 7.50019C10.2338 7.5714 10.1168 7.67384 10.0283 7.79907C9.93987 7.9243 9.8824 8.06875 9.86065 8.22053L9.68362 9.45995C9.64518 9.49629 9.60741 9.53303 9.57029 9.57018C9.53307 9.60737 9.49629 9.64518 9.45995 9.68362L8.22067 9.86083C8.0691 9.88256 7.92485 9.93993 7.79975 10.0282C7.67466 10.1165 7.57228 10.2332 7.50102 10.3687C7.31638 10.722 7.1634 11.0908 7.04389 11.4711C6.99826 11.6174 6.98803 11.7725 7.01403 11.9236C7.04004 12.0747 7.10153 12.2175 7.19347 12.3402L7.94467 13.3418C7.9432 13.3945 7.94246 13.4473 7.94246 13.4999C7.94246 13.5524 7.9432 13.6053 7.9447 13.6581L7.19379 14.6597C7.10195 14.7822 7.04047 14.9248 7.01443 15.0757C6.98838 15.2266 6.9985 15.3815 7.04396 15.5277C7.16319 15.908 7.31587 16.2771 7.5002 16.6305C7.57143 16.7662 7.67387 16.8831 7.79911 16.9716C7.92434 17.06 8.06878 17.1175 8.22055 17.1392L9.45998 17.3163C9.4962 17.3546 9.53293 17.3924 9.57017 17.4296C9.60734 17.4668 9.64516 17.5036 9.68365 17.54L9.86086 18.7792C9.88259 18.9308 9.93996 19.075 10.0283 19.2001C10.1165 19.3252 10.2332 19.4276 10.3688 19.4989C10.722 19.6835 11.0909 19.8365 11.4711 19.956C11.5642 19.9852 11.6612 20 11.7588 20C11.9684 20 12.1724 19.9321 12.3403 19.8064L13.3418 19.0552C13.4474 19.0582 13.5526 19.0582 13.6582 19.0552L14.6598 19.8062C14.7823 19.898 14.9249 19.9594 15.0758 19.9855C15.2267 20.0115 15.3816 20.0014 15.5279 19.9559C15.9081 19.8367 16.2771 19.6841 16.6305 19.4997C16.7662 19.4285 16.8832 19.326 16.9717 19.2008C17.0601 19.0756 17.1176 18.9311 17.1393 18.7793L17.3164 17.5399C17.3548 17.5036 17.3926 17.4668 17.4297 17.4297C17.4669 17.3925 17.5037 17.3547 17.5401 17.3163L18.7793 17.139C18.9309 17.1173 19.0751 17.0599 19.2002 16.9717C19.3253 16.8834 19.4277 16.7667 19.499 16.6311C19.6836 16.2779 19.8366 15.909 19.9561 15.5288C20.0017 15.3824 20.012 15.2273 19.986 15.0762C19.96 14.9251 19.8985 14.7824 19.8065 14.6597ZM16.158 13.4999C16.158 14.0256 16.0021 14.5395 15.71 14.9766C15.4179 15.4137 15.0028 15.7544 14.5172 15.9555C14.0315 16.1567 13.497 16.2094 12.9815 16.1068C12.4659 16.0042 11.9923 15.7511 11.6205 15.3794C11.2488 15.0077 10.9957 14.5341 10.8931 14.0185C10.7906 13.5029 10.8432 12.9685 11.0444 12.4828C11.2455 11.9971 11.5862 11.582 12.0233 11.2899C12.4604 10.9979 12.9743 10.842 13.5 10.842C14.2047 10.8428 14.8803 11.1231 15.3786 11.6214C15.8769 12.1197 16.1572 12.7953 16.158 13.4999Z" fill="white"/>
<defs>
<filter id="filter0_b_149_1022" x="-50" y="-50" width="126" height="126" filterUnits="userSpaceOnUse" color-interpolation-filters="sRGB">
<feFlood flood-opacity="0" result="BackgroundImageFix"/>
<feGaussianBlur in="BackgroundImage" stdDeviation="25"/>
<feComposite in2="SourceAlpha" operator="in" result="effect1_backgroundBlur_149_1022"/>
<feBlend mode="normal" in="SourceGraphic" in2="effect1_backgroundBlur_149_1022" result="shape"/>
</filter>
</defs>
</svg>
