<svg width="16" height="16" viewBox="0 0 16 16" fill="none" xmlns="http://www.w3.org/2000/svg">
<path d="M7.82685 5.53846C8.25168 5.53846 8.59608 5.19407 8.59608 4.76923C8.59608 4.3444 8.25168 4 7.82685 4C7.40201 4 7.05762 4.3444 7.05762 4.76923C7.05762 5.19407 7.40201 5.53846 7.82685 5.53846Z" fill="white"/>
<path d="M8.61544 11.3846V6.46155H6.76929V6.76924H7.38467V11.3846H6.76929V11.6923H9.23083V11.3846H8.61544Z" fill="white"/>
<path d="M8 0C3.58077 0 0 3.58077 0 8C0 12.4192 3.58077 16 8 16C12.4192 16 16 12.4192 16 8C16 3.58077 12.4192 0 8 0ZM8 15.3346C3.95769 15.3346 0.665385 12.0462 0.665385 8C0.665385 3.95769 3.95385 0.665385 8 0.665385C12.0423 0.665385 15.3346 3.95385 15.3346 8C15.3346 12.0423 12.0423 15.3346 8 15.3346Z" fill="white"/>
</svg>
