<svg width="20" height="21" viewBox="0 0 20 21" fill="none" xmlns="http://www.w3.org/2000/svg">
<path d="M19.9885 10.4248C19.9885 9.58627 19.9204 8.97438 19.7732 8.33984H10.1982V12.1244H15.8185C15.7053 13.065 15.0934 14.4814 13.7336 15.4331L13.7145 15.5598L16.7419 17.9051L16.9517 17.9261C18.878 16.147 19.9885 13.5295 19.9885 10.4248Z" fill="#4285F4"/>
<path d="M10.1983 20.3965C12.9518 20.3965 15.2634 19.4899 16.9518 17.9262L13.7337 15.4332C12.8725 16.0338 11.7167 16.4531 10.1983 16.4531C7.5015 16.4531 5.21258 14.6741 4.39664 12.2151L4.27704 12.2253L1.12906 14.6616L1.08789 14.776C2.76492 18.1074 6.20967 20.3965 10.1983 20.3965Z" fill="#34A853"/>
<path d="M4.3965 12.2151C4.18121 11.5806 4.05661 10.9007 4.05661 10.1982C4.05661 9.49559 4.18121 8.81574 4.38517 8.18119L4.37947 8.04605L1.19206 5.57068L1.08778 5.62028C0.3966 7.00272 0 8.55514 0 10.1982C0 11.8412 0.3966 13.3935 1.08778 14.776L4.3965 12.2151Z" fill="#FBBC05"/>
<path d="M10.1983 3.94327C12.1132 3.94327 13.405 4.77045 14.1415 5.4617L17.0197 2.65152C15.2521 1.00849 12.9517 0 10.1983 0C6.20963 0 2.76491 2.2889 1.08789 5.62028L4.38529 8.18119C5.21254 5.7223 7.50145 3.94327 10.1983 3.94327Z" fill="#EB4335"/>
</svg>
