<svg width="196" height="24" viewBox="0 0 196 24" fill="none" xmlns="http://www.w3.org/2000/svg">
<g filter="url(#filter0_d_36_223)">
<path d="M11.816 2.008V6.648H5.816V2.008H4.2V13H5.816V8.152H11.816V13H13.432V2.008H11.816ZM19.249 4.536C18.337 4.536 17.297 4.776 16.113 5.368L16.689 6.536C17.409 6.168 18.209 5.848 19.025 5.848C20.673 5.848 21.153 6.952 21.153 7.992V8.248C20.353 7.976 19.473 7.8 18.657 7.8C16.833 7.8 15.345 8.904 15.345 10.552C15.345 12.168 16.641 13.192 18.401 13.192C19.409 13.192 20.545 12.728 21.153 11.864V13H22.705V7.992C22.705 5.944 21.473 4.536 19.249 4.536ZM18.705 11.944C17.665 11.944 16.865 11.4 16.865 10.504C16.865 9.608 17.793 8.984 18.897 8.984C19.713 8.984 20.481 9.096 21.153 9.304V10.408C20.881 11.432 19.729 11.944 18.705 11.944ZM27.7478 13H29.2358L32.7238 4.728H31.0118L28.4838 11.16L25.9078 4.728H24.1958L27.7478 13ZM37.4753 11.784C36.0513 11.784 35.0433 10.792 34.8353 9.416H41.3472C41.3472 6.456 39.8913 4.536 37.3633 4.536C35.0753 4.536 33.2353 6.36 33.2353 8.84C33.2353 11.384 35.1873 13.192 37.4913 13.192C38.6593 13.192 40.0993 12.696 40.8353 11.912L39.8433 10.888C39.3473 11.4 38.3393 11.784 37.4753 11.784ZM37.4273 5.944C38.8513 5.944 39.6353 6.872 39.8113 8.152H34.8513C35.1073 6.808 36.1473 5.944 37.4273 5.944ZM51.2334 4.536C50.3214 4.536 49.2814 4.776 48.0974 5.368L48.6734 6.536C49.3934 6.168 50.1934 5.848 51.0094 5.848C52.6574 5.848 53.1374 6.952 53.1374 7.992V8.248C52.3374 7.976 51.4574 7.8 50.6414 7.8C48.8174 7.8 47.3294 8.904 47.3294 10.552C47.3294 12.168 48.6254 13.192 50.3854 13.192C51.3934 13.192 52.5294 12.728 53.1374 11.864V13H54.6894V7.992C54.6894 5.944 53.4574 4.536 51.2334 4.536ZM50.6894 11.944C49.6494 11.944 48.8494 11.4 48.8494 10.504C48.8494 9.608 49.7774 8.984 50.8814 8.984C51.6974 8.984 52.4654 9.096 53.1374 9.304V10.408C52.8654 11.432 51.7134 11.944 50.6894 11.944ZM61.1881 4.536C60.0681 4.536 59.0601 5.112 58.5641 5.928V4.728H56.9801V13H58.5641V7.64C58.6921 6.664 59.6841 5.912 60.8361 5.912C61.9561 5.912 62.7401 6.776 62.7401 8.008V13H64.2921V7.736C64.2921 5.864 63.0121 4.536 61.1881 4.536ZM74.6084 4.536C73.6964 4.536 72.6564 4.776 71.4724 5.368L72.0484 6.536C72.7684 6.168 73.5684 5.848 74.3844 5.848C76.0324 5.848 76.5124 6.952 76.5124 7.992V8.248C75.7124 7.976 74.8324 7.8 74.0164 7.8C72.1924 7.8 70.7044 8.904 70.7044 10.552C70.7044 12.168 72.0004 13.192 73.7604 13.192C74.7684 13.192 75.9044 12.728 76.5124 11.864V13H78.0644V7.992C78.0644 5.944 76.8324 4.536 74.6084 4.536ZM74.0644 11.944C73.0244 11.944 72.2244 11.4 72.2244 10.504C72.2244 9.608 73.1524 8.984 74.2564 8.984C75.0724 8.984 75.8404 9.096 76.5124 9.304V10.408C76.2404 11.432 75.0884 11.944 74.0644 11.944ZM84.2591 13.192C85.4911 13.192 86.5631 12.68 87.3631 11.864L86.2911 10.888C85.7791 11.464 85.0431 11.816 84.2751 11.816C82.7551 11.816 81.5071 10.472 81.5071 8.856C81.5071 7.256 82.7551 5.912 84.2591 5.912C85.0271 5.912 85.7471 6.248 86.2431 6.808L87.3151 5.816C86.5311 5.032 85.4591 4.536 84.2751 4.536C81.9071 4.536 79.9071 6.504 79.9071 8.856C79.9071 11.208 81.9071 13.192 84.2591 13.192ZM92.9623 13.192C94.1943 13.192 95.2663 12.68 96.0663 11.864L94.9943 10.888C94.4823 11.464 93.7463 11.816 92.9783 11.816C91.4583 11.816 90.2103 10.472 90.2103 8.856C90.2103 7.256 91.4583 5.912 92.9623 5.912C93.7303 5.912 94.4503 6.248 94.9463 6.808L96.0183 5.816C95.2343 5.032 94.1623 4.536 92.9783 4.536C90.6103 4.536 88.6103 6.504 88.6103 8.856C88.6103 11.208 90.6103 13.192 92.9623 13.192ZM101.51 13.192C103.862 13.192 105.845 11.208 105.845 8.856C105.845 6.504 103.862 4.536 101.51 4.536C99.1415 4.536 97.1415 6.504 97.1415 8.856C97.1415 11.208 99.1415 13.192 101.51 13.192ZM101.51 11.816C99.9895 11.816 98.7255 10.472 98.7255 8.856C98.7255 7.256 99.9895 5.912 101.51 5.912C102.998 5.912 104.262 7.256 104.262 8.856C104.262 10.472 102.998 11.816 101.51 11.816ZM113.395 4.728V10.088C113.267 11.064 112.275 11.816 111.123 11.816C110.003 11.816 109.219 10.952 109.219 9.72V4.728H107.667V9.992C107.667 11.864 108.947 13.192 110.771 13.192C111.891 13.192 112.899 12.616 113.395 11.8V13H114.979V4.728H113.395ZM121.485 4.536C120.365 4.536 119.357 5.112 118.861 5.928V4.728H117.277V13H118.861V7.64C118.989 6.664 119.981 5.912 121.133 5.912C122.253 5.912 123.037 6.776 123.037 8.008V13H124.589V7.736C124.589 5.864 123.309 4.536 121.485 4.536ZM130.727 11.512C130.551 11.688 130.231 11.816 129.879 11.816C129.415 11.816 129.031 11.4 129.031 10.824V6.072H130.983V4.728H129.031V2.456H127.479V4.728H126.231V6.072H127.479V10.936C127.479 12.264 128.375 13.192 129.655 13.192C130.247 13.192 130.855 12.968 131.303 12.6L130.727 11.512ZM134.63 9.688H136.166V7.928C137.958 7.544 139.238 6.248 139.238 4.808C139.238 3.128 137.862 1.816 135.798 1.816C134.198 1.816 133.014 2.568 132.134 3.624L133.126 4.616C133.766 3.848 134.566 3.272 135.622 3.272C136.854 3.272 137.606 4.088 137.606 4.968C137.606 5.912 136.374 6.68 134.63 6.808V9.688ZM135.398 13.192C135.974 13.192 136.438 12.696 136.438 12.104C136.438 11.56 135.974 11.064 135.398 11.064C134.79 11.064 134.326 11.56 134.326 12.104C134.326 12.696 134.79 13.192 135.398 13.192Z" fill="white"/>
<path d="M11.816 2.008V1.008H10.816V2.008H11.816ZM11.816 6.648V7.648H12.816V6.648H11.816ZM5.816 6.648H4.816V7.648H5.816V6.648ZM5.816 2.008H6.816V1.008H5.816V2.008ZM4.2 2.008V1.008H3.2V2.008H4.2ZM4.2 13H3.2V14H4.2V13ZM5.816 13V14H6.816V13H5.816ZM5.816 8.152V7.152H4.816V8.152H5.816ZM11.816 8.152H12.816V7.152H11.816V8.152ZM11.816 13H10.816V14H11.816V13ZM13.432 13V14H14.432V13H13.432ZM13.432 2.008H14.432V1.008H13.432V2.008ZM10.816 2.008V6.648H12.816V2.008H10.816ZM11.816 5.648H5.816V7.648H11.816V5.648ZM6.816 6.648V2.008H4.816V6.648H6.816ZM5.816 1.008H4.2V3.008H5.816V1.008ZM3.2 2.008V13H5.2V2.008H3.2ZM4.2 14H5.816V12H4.2V14ZM6.816 13V8.152H4.816V13H6.816ZM5.816 9.152H11.816V7.152H5.816V9.152ZM10.816 8.152V13H12.816V8.152H10.816ZM11.816 14H13.432V12H11.816V14ZM14.432 13V2.008H12.432V13H14.432ZM13.432 1.008H11.816V3.008H13.432V1.008ZM16.113 5.368L15.6658 4.47357L14.7763 4.91834L15.2161 5.81029L16.113 5.368ZM16.689 6.536L15.7921 6.97829L16.2408 7.88812L17.1441 7.42643L16.689 6.536ZM21.153 8.248L20.8311 9.19477L22.153 9.64422V8.248H21.153ZM21.153 11.864H22.153V8.70531L20.3352 11.2885L21.153 11.864ZM21.153 13H20.153V14H21.153V13ZM22.705 13V14H23.705V13H22.705ZM21.153 9.304H22.153V8.56672L21.4487 8.34871L21.153 9.304ZM21.153 10.408L22.1195 10.6647L22.153 10.5385V10.408H21.153ZM19.249 3.536C18.1562 3.536 16.9638 3.82456 15.6658 4.47357L16.5602 6.26243C17.6302 5.72744 18.5178 5.536 19.249 5.536V3.536ZM15.2161 5.81029L15.7921 6.97829L17.5859 6.09371L17.0099 4.92571L15.2161 5.81029ZM17.1441 7.42643C17.8286 7.0766 18.4537 6.848 19.025 6.848V4.848C17.9643 4.848 16.9894 5.2594 16.2339 5.64557L17.1441 7.42643ZM19.025 6.848C19.6055 6.848 19.8255 7.02935 19.9273 7.1561C20.0605 7.32209 20.153 7.60403 20.153 7.992H22.153C22.153 7.33997 22.0055 6.54991 21.4867 5.9039C20.9365 5.21865 20.0925 4.848 19.025 4.848V6.848ZM20.153 7.992V8.248H22.153V7.992H20.153ZM21.4749 7.30123C20.5968 7.00267 19.6066 6.8 18.657 6.8V8.8C19.3394 8.8 20.1092 8.94933 20.8311 9.19477L21.4749 7.30123ZM18.657 6.8C16.4963 6.8 14.345 8.1584 14.345 10.552H16.345C16.345 9.6496 17.1697 8.8 18.657 8.8V6.8ZM14.345 10.552C14.345 11.6497 14.7952 12.5916 15.569 13.243C16.3269 13.8811 17.3334 14.192 18.401 14.192V12.192C17.7086 12.192 17.1871 11.9909 16.857 11.713C16.5428 11.4484 16.345 11.0703 16.345 10.552H14.345ZM18.401 14.192C19.6608 14.192 21.1368 13.6246 21.9708 12.4395L20.3352 11.2885C19.9532 11.8314 19.1572 12.192 18.401 12.192V14.192ZM20.153 11.864V13H22.153V11.864H20.153ZM21.153 14H22.705V12H21.153V14ZM23.705 13V7.992H21.705V13H23.705ZM23.705 7.992C23.705 6.76941 23.3345 5.63569 22.531 4.80204C21.7217 3.96235 20.578 3.536 19.249 3.536V5.536C20.144 5.536 20.7283 5.81365 21.091 6.18996C21.4595 6.57231 21.705 7.16659 21.705 7.992H23.705ZM18.705 10.944C18.3476 10.944 18.1138 10.8493 17.9958 10.7606C17.9016 10.6898 17.865 10.6187 17.865 10.504H15.865C15.865 11.2853 16.2284 11.9342 16.7942 12.3594C17.3362 12.7667 18.0224 12.944 18.705 12.944V10.944ZM17.865 10.504C17.865 10.4374 17.8898 10.3365 18.0536 10.2179C18.2282 10.0914 18.5228 9.984 18.897 9.984V7.984C18.1672 7.984 17.4458 8.18858 16.8804 8.59813C16.3042 9.01548 15.865 9.67463 15.865 10.504H17.865ZM18.897 9.984C19.6241 9.984 20.2913 10.0841 20.8573 10.2593L21.4487 8.34871C20.6707 8.1079 19.8019 7.984 18.897 7.984V9.984ZM20.153 9.304V10.408H22.153V9.304H20.153ZM20.1865 10.1513C20.1352 10.3446 19.993 10.5335 19.7165 10.6908C19.4334 10.8519 19.0632 10.944 18.705 10.944V12.944C19.3708 12.944 20.0886 12.7801 20.7055 12.4292C21.329 12.0745 21.8988 11.4954 22.1195 10.6647L20.1865 10.1513ZM27.7478 13L26.8289 13.3946L27.0889 14H27.7478V13ZM29.2358 13V14H29.8994L30.1572 13.3885L29.2358 13ZM32.7238 4.728L33.6452 5.11653L34.2307 3.728H32.7238V4.728ZM31.0118 4.728V3.728H30.3303L30.0811 4.3622L31.0118 4.728ZM28.4838 11.16L27.5554 11.5318L28.4925 13.8715L29.4144 11.5258L28.4838 11.16ZM25.9078 4.728L26.8361 4.35621L26.5845 3.728H25.9078V4.728ZM24.1958 4.728V3.728H22.6781L23.2769 5.12256L24.1958 4.728ZM27.7478 14H29.2358V12H27.7478V14ZM30.1572 13.3885L33.6452 5.11653L31.8023 4.33946L28.3143 12.6115L30.1572 13.3885ZM32.7238 3.728H31.0118V5.728H32.7238V3.728ZM30.0811 4.3622L27.5531 10.7942L29.4144 11.5258L31.9424 5.0938L30.0811 4.3622ZM29.4121 10.7882L26.8361 4.35621L24.9794 5.09979L27.5554 11.5318L29.4121 10.7882ZM25.9078 3.728H24.1958V5.728H25.9078V3.728ZM23.2769 5.12256L26.8289 13.3946L28.6666 12.6054L25.1146 4.33344L23.2769 5.12256ZM34.8353 9.416V8.416H33.6727L33.8465 9.56546L34.8353 9.416ZM41.3472 9.416V10.416H42.3472V9.416H41.3472ZM40.8353 11.912L41.5643 12.5964L42.217 11.9012L41.5535 11.2162L40.8353 11.912ZM39.8433 10.888L40.5615 10.1922L39.8432 9.4508L39.125 10.1922L39.8433 10.888ZM39.8113 8.152V9.152H40.9582L40.8019 8.01578L39.8113 8.152ZM34.8513 8.152L33.8689 7.96489L33.6428 9.152H34.8513V8.152ZM37.4753 10.784C36.6043 10.784 35.9672 10.2137 35.824 9.26654L33.8465 9.56546C34.1193 11.3703 35.4982 12.784 37.4753 12.784V10.784ZM34.8353 10.416H41.3472V8.416H34.8353V10.416ZM42.3472 9.416C42.3472 7.78514 41.9472 6.32016 41.0841 5.2413C40.1989 4.13479 38.9054 3.536 37.3633 3.536V5.536C38.3491 5.536 39.0476 5.89721 39.5224 6.49069C40.0193 7.11184 40.3472 8.08686 40.3472 9.416H42.3472ZM37.3633 3.536C34.4982 3.536 32.2353 5.83282 32.2353 8.84H34.2353C34.2353 6.88718 35.6523 5.536 37.3633 5.536V3.536ZM32.2353 8.84C32.2353 11.9436 34.6423 14.192 37.4913 14.192V12.192C35.7322 12.192 34.2353 10.8244 34.2353 8.84H32.2353ZM37.4913 14.192C38.2061 14.192 38.9758 14.0424 39.6733 13.7835C40.3633 13.5273 41.0578 13.136 41.5643 12.5964L40.1062 11.2276C39.8767 11.472 39.4832 11.7207 38.9772 11.9085C38.4787 12.0936 37.9444 12.192 37.4913 12.192V14.192ZM41.5535 11.2162L40.5615 10.1922L39.125 11.5838L40.117 12.6078L41.5535 11.2162ZM39.125 10.1922C39.0105 10.3104 38.7769 10.4663 38.4427 10.593C38.117 10.7165 37.7692 10.784 37.4753 10.784V12.784C38.0453 12.784 38.6335 12.6595 39.1518 12.463C39.6616 12.2697 40.18 11.9776 40.5615 11.5838L39.125 10.1922ZM37.4273 6.944C37.9067 6.944 38.1959 7.09272 38.3837 7.27869C38.5861 7.47905 38.7545 7.80761 38.8206 8.28822L40.8019 8.01578C40.692 7.21639 40.3804 6.44095 39.7908 5.85731C39.1866 5.25928 38.3718 4.944 37.4273 4.944V6.944ZM39.8113 7.152H34.8513V9.152H39.8113V7.152ZM35.8336 8.33911C36.004 7.44458 36.6496 6.944 37.4273 6.944V4.944C35.6449 4.944 34.2105 6.17142 33.8689 7.96489L35.8336 8.33911ZM48.0974 5.368L47.6502 4.47357L46.7606 4.91834L47.2005 5.81029L48.0974 5.368ZM48.6734 6.536L47.7765 6.97829L48.2252 7.88812L49.1285 7.42643L48.6734 6.536ZM53.1374 8.248L52.8155 9.19477L54.1374 9.64422V8.248H53.1374ZM53.1374 11.864H54.1374V8.70531L52.3196 11.2885L53.1374 11.864ZM53.1374 13H52.1374V14H53.1374V13ZM54.6894 13V14H55.6894V13H54.6894ZM53.1374 9.304H54.1374V8.56672L53.4331 8.34871L53.1374 9.304ZM53.1374 10.408L54.1039 10.6647L54.1374 10.5385V10.408H53.1374ZM51.2334 3.536C50.1406 3.536 48.9482 3.82456 47.6502 4.47357L48.5446 6.26243C49.6146 5.72744 50.5022 5.536 51.2334 5.536V3.536ZM47.2005 5.81029L47.7765 6.97829L49.5702 6.09371L48.9942 4.92571L47.2005 5.81029ZM49.1285 7.42643C49.8129 7.0766 50.4381 6.848 51.0094 6.848V4.848C49.9486 4.848 48.9738 5.2594 48.2183 5.64557L49.1285 7.42643ZM51.0094 6.848C51.5898 6.848 51.8099 7.02935 51.9116 7.1561C52.0449 7.32209 52.1374 7.60403 52.1374 7.992H54.1374C54.1374 7.33997 53.9898 6.54991 53.4711 5.9039C52.9209 5.21865 52.0769 4.848 51.0094 4.848V6.848ZM52.1374 7.992V8.248H54.1374V7.992H52.1374ZM53.4593 7.30123C52.5812 7.00267 51.5909 6.8 50.6414 6.8V8.8C51.3238 8.8 52.0936 8.94933 52.8155 9.19477L53.4593 7.30123ZM50.6414 6.8C48.4806 6.8 46.3294 8.1584 46.3294 10.552H48.3294C48.3294 9.6496 49.1541 8.8 50.6414 8.8V6.8ZM46.3294 10.552C46.3294 11.6497 46.7796 12.5916 47.5533 13.243C48.3112 13.8811 49.3177 14.192 50.3854 14.192V12.192C49.693 12.192 49.1715 11.9909 48.8414 11.713C48.5271 11.4484 48.3294 11.0703 48.3294 10.552H46.3294ZM50.3854 14.192C51.6452 14.192 53.1212 13.6246 53.9552 12.4395L52.3196 11.2885C51.9376 11.8314 51.1416 12.192 50.3854 12.192V14.192ZM52.1374 11.864V13H54.1374V11.864H52.1374ZM53.1374 14H54.6894V12H53.1374V14ZM55.6894 13V7.992H53.6894V13H55.6894ZM55.6894 7.992C55.6894 6.76941 55.3189 5.63569 54.5154 4.80204C53.7061 3.96235 52.5623 3.536 51.2334 3.536V5.536C52.1284 5.536 52.7127 5.81365 53.0754 6.18996C53.4439 6.57231 53.6894 7.16659 53.6894 7.992H55.6894ZM50.6894 10.944C50.332 10.944 50.0982 10.8493 49.9801 10.7606C49.886 10.6898 49.8494 10.6187 49.8494 10.504H47.8494C47.8494 11.2853 48.2127 11.9342 48.7786 12.3594C49.3206 12.7667 50.0068 12.944 50.6894 12.944V10.944ZM49.8494 10.504C49.8494 10.4374 49.8742 10.3365 50.038 10.2179C50.2126 10.0914 50.5072 9.984 50.8814 9.984V7.984C50.1515 7.984 49.4302 8.18858 48.8648 8.59813C48.2886 9.01548 47.8494 9.67463 47.8494 10.504H49.8494ZM50.8814 9.984C51.6085 9.984 52.2757 10.0841 52.8417 10.2593L53.4331 8.34871C52.655 8.1079 51.7863 7.984 50.8814 7.984V9.984ZM52.1374 9.304V10.408H54.1374V9.304H52.1374ZM52.1709 10.1513C52.1195 10.3446 51.9774 10.5335 51.7009 10.6908C51.4178 10.8519 51.0476 10.944 50.6894 10.944V12.944C51.3551 12.944 52.073 12.7801 52.6898 12.4292C53.3134 12.0745 53.8832 11.4954 54.1039 10.6647L52.1709 10.1513ZM58.5641 5.928H57.5641V9.4984L59.4186 6.44741L58.5641 5.928ZM58.5641 4.728H59.5641V3.728H58.5641V4.728ZM56.9801 4.728V3.728H55.9801V4.728H56.9801ZM56.9801 13H55.9801V14H56.9801V13ZM58.5641 13V14H59.5641V13H58.5641ZM58.5641 7.64L57.5726 7.50997L57.5641 7.57471V7.64H58.5641ZM62.7401 13H61.7401V14H62.7401V13ZM64.2921 13V14H65.2921V13H64.2921ZM61.1881 3.536C59.7433 3.536 58.3993 4.27387 57.7096 5.40858L59.4186 6.44741C59.7209 5.95013 60.3929 5.536 61.1881 5.536V3.536ZM59.5641 5.928V4.728H57.5641V5.928H59.5641ZM58.5641 3.728H56.9801V5.728H58.5641V3.728ZM55.9801 4.728V13H57.9801V4.728H55.9801ZM56.9801 14H58.5641V12H56.9801V14ZM59.5641 13V7.64H57.5641V13H59.5641ZM59.5556 7.77003C59.6028 7.41062 60.0563 6.912 60.8361 6.912V4.912C59.312 4.912 57.7815 5.91738 57.5726 7.50997L59.5556 7.77003ZM60.8361 6.912C61.1249 6.912 61.3285 7.01681 61.4678 7.17027C61.6135 7.33072 61.7401 7.6038 61.7401 8.008H63.7401C63.7401 7.1802 63.4747 6.40528 62.9484 5.82573C62.4158 5.23919 61.6673 4.912 60.8361 4.912V6.912ZM61.7401 8.008V13H63.7401V8.008H61.7401ZM62.7401 14H64.2921V12H62.7401V14ZM65.2921 13V7.736H63.2921V13H65.2921ZM65.2921 7.736C65.2921 6.56816 64.8896 5.50998 64.1426 4.73841C63.3932 3.96444 62.3517 3.536 61.1881 3.536V5.536C61.8485 5.536 62.359 5.77155 62.7057 6.12959C63.0547 6.49002 63.2921 7.03184 63.2921 7.736H65.2921ZM71.4724 5.368L71.0252 4.47357L70.1356 4.91834L70.5755 5.81029L71.4724 5.368ZM72.0484 6.536L71.1515 6.97829L71.6002 7.88812L72.5035 7.42643L72.0484 6.536ZM76.5124 8.248L76.1905 9.19477L77.5124 9.64422V8.248H76.5124ZM76.5124 11.864H77.5124V8.70531L75.6946 11.2885L76.5124 11.864ZM76.5124 13H75.5124V14H76.5124V13ZM78.0644 13V14H79.0644V13H78.0644ZM76.5124 9.304H77.5124V8.56672L76.8081 8.34871L76.5124 9.304ZM76.5124 10.408L77.4789 10.6647L77.5124 10.5385V10.408H76.5124ZM74.6084 3.536C73.5156 3.536 72.3232 3.82456 71.0252 4.47357L71.9196 6.26243C72.9896 5.72744 73.8772 5.536 74.6084 5.536V3.536ZM70.5755 5.81029L71.1515 6.97829L72.9452 6.09371L72.3692 4.92571L70.5755 5.81029ZM72.5035 7.42643C73.1879 7.0766 73.8131 6.848 74.3844 6.848V4.848C73.3236 4.848 72.3488 5.2594 71.5933 5.64557L72.5035 7.42643ZM74.3844 6.848C74.9648 6.848 75.1849 7.02935 75.2866 7.1561C75.4199 7.32209 75.5124 7.60403 75.5124 7.992H77.5124C77.5124 7.33997 77.3648 6.54991 76.8461 5.9039C76.2959 5.21865 75.4519 4.848 74.3844 4.848V6.848ZM75.5124 7.992V8.248H77.5124V7.992H75.5124ZM76.8343 7.30123C75.9562 7.00267 74.9659 6.8 74.0164 6.8V8.8C74.6988 8.8 75.4686 8.94933 76.1905 9.19477L76.8343 7.30123ZM74.0164 6.8C71.8556 6.8 69.7044 8.1584 69.7044 10.552H71.7044C71.7044 9.6496 72.5291 8.8 74.0164 8.8V6.8ZM69.7044 10.552C69.7044 11.6497 70.1546 12.5916 70.9283 13.243C71.6862 13.8811 72.6927 14.192 73.7604 14.192V12.192C73.068 12.192 72.5465 11.9909 72.2164 11.713C71.9021 11.4484 71.7044 11.0703 71.7044 10.552H69.7044ZM73.7604 14.192C75.0202 14.192 76.4962 13.6246 77.3302 12.4395L75.6946 11.2885C75.3126 11.8314 74.5166 12.192 73.7604 12.192V14.192ZM75.5124 11.864V13H77.5124V11.864H75.5124ZM76.5124 14H78.0644V12H76.5124V14ZM79.0644 13V7.992H77.0644V13H79.0644ZM79.0644 7.992C79.0644 6.76941 78.6939 5.63569 77.8904 4.80204C77.0811 3.96235 75.9373 3.536 74.6084 3.536V5.536C75.5034 5.536 76.0877 5.81365 76.4504 6.18996C76.8189 6.57231 77.0644 7.16659 77.0644 7.992H79.0644ZM74.0644 10.944C73.707 10.944 73.4732 10.8493 73.3551 10.7606C73.261 10.6898 73.2244 10.6187 73.2244 10.504H71.2244C71.2244 11.2853 71.5877 11.9342 72.1536 12.3594C72.6956 12.7667 73.3818 12.944 74.0644 12.944V10.944ZM73.2244 10.504C73.2244 10.4374 73.2492 10.3365 73.413 10.2179C73.5876 10.0914 73.8822 9.984 74.2564 9.984V7.984C73.5265 7.984 72.8052 8.18858 72.2398 8.59813C71.6636 9.01548 71.2244 9.67463 71.2244 10.504H73.2244ZM74.2564 9.984C74.9835 9.984 75.6507 10.0841 76.2167 10.2593L76.8081 8.34871C76.03 8.1079 75.1613 7.984 74.2564 7.984V9.984ZM75.5124 9.304V10.408H77.5124V9.304H75.5124ZM75.5459 10.1513C75.4945 10.3446 75.3524 10.5335 75.0759 10.6908C74.7928 10.8519 74.4226 10.944 74.0644 10.944V12.944C74.7301 12.944 75.448 12.7801 76.0648 12.4292C76.6884 12.0745 77.2582 11.4954 77.4789 10.6647L75.5459 10.1513ZM87.3631 11.864L88.0772 12.5641L88.8036 11.8231L88.0363 11.1246L87.3631 11.864ZM86.2911 10.888L86.9643 10.1486L86.216 9.46727L85.5437 10.2236L86.2911 10.888ZM86.2431 6.808L85.4945 7.47104L86.1722 8.23612L86.9223 7.54196L86.2431 6.808ZM87.3151 5.816L87.9943 6.54996L88.7573 5.84394L88.0222 5.10889L87.3151 5.816ZM84.2591 14.192C85.7844 14.192 87.1071 13.5536 88.0772 12.5641L86.6491 11.1639C86.0192 11.8064 85.1979 12.192 84.2591 12.192V14.192ZM88.0363 11.1246L86.9643 10.1486L85.6179 11.6274L86.6899 12.6034L88.0363 11.1246ZM85.5437 10.2236C85.2084 10.6009 84.7384 10.816 84.2751 10.816V12.816C85.3479 12.816 86.3498 12.3271 87.0385 11.5524L85.5437 10.2236ZM84.2751 10.816C83.3715 10.816 82.5071 9.98608 82.5071 8.856H80.5071C80.5071 10.9579 82.1387 12.816 84.2751 12.816V10.816ZM82.5071 8.856C82.5071 7.74166 83.3718 6.912 84.2591 6.912V4.912C82.1385 4.912 80.5071 6.77034 80.5071 8.856H82.5071ZM84.2591 6.912C84.7342 6.912 85.1839 7.12031 85.4945 7.47104L86.9917 6.14496C86.3104 5.37569 85.32 4.912 84.2591 4.912V6.912ZM86.9223 7.54196L87.9943 6.54996L86.6359 5.08204L85.5639 6.07404L86.9223 7.54196ZM88.0222 5.10889C87.0663 4.15295 85.7456 3.536 84.2751 3.536V5.536C85.1726 5.536 85.996 5.91105 86.608 6.52311L88.0222 5.10889ZM84.2751 3.536C81.3668 3.536 78.9071 5.93983 78.9071 8.856H80.9071C80.9071 7.06817 82.4475 5.536 84.2751 5.536V3.536ZM78.9071 8.856C78.9071 11.765 81.3596 14.192 84.2591 14.192V12.192C82.4546 12.192 80.9071 10.651 80.9071 8.856H78.9071ZM96.0663 11.864L96.7803 12.5641L97.5067 11.8231L96.7395 11.1246L96.0663 11.864ZM94.9943 10.888L95.6675 10.1486L94.9192 9.46727L94.2468 10.2236L94.9943 10.888ZM94.9463 6.808L94.1977 7.47104L94.8753 8.23612L95.6254 7.54196L94.9463 6.808ZM96.0183 5.816L96.6974 6.54996L97.4604 5.84394L96.7254 5.10889L96.0183 5.816ZM92.9623 14.192C94.4875 14.192 95.8102 13.5536 96.7803 12.5641L95.3522 11.1639C94.7223 11.8064 93.901 12.192 92.9623 12.192V14.192ZM96.7395 11.1246L95.6675 10.1486L94.321 11.6274L95.393 12.6034L96.7395 11.1246ZM94.2468 10.2236C93.9115 10.6009 93.4415 10.816 92.9783 10.816V12.816C94.051 12.816 95.053 12.3271 95.7417 11.5524L94.2468 10.2236ZM92.9783 10.816C92.0746 10.816 91.2103 9.98608 91.2103 8.856H89.2103C89.2103 10.9579 90.8419 12.816 92.9783 12.816V10.816ZM91.2103 8.856C91.2103 7.74166 92.0749 6.912 92.9623 6.912V4.912C90.8416 4.912 89.2103 6.77034 89.2103 8.856H91.2103ZM92.9623 6.912C93.4374 6.912 93.887 7.12031 94.1977 7.47104L95.6948 6.14496C95.0135 5.37569 94.0231 4.912 92.9623 4.912V6.912ZM95.6254 7.54196L96.6974 6.54996L95.3391 5.08204L94.2671 6.07404L95.6254 7.54196ZM96.7254 5.10889C95.7694 4.15295 94.4487 3.536 92.9783 3.536V5.536C93.8758 5.536 94.6991 5.91105 95.3111 6.52311L96.7254 5.10889ZM92.9783 3.536C90.0699 3.536 87.6103 5.93983 87.6103 8.856H89.6103C89.6103 7.06817 91.1506 5.536 92.9783 5.536V3.536ZM87.6103 8.856C87.6103 11.765 90.0627 14.192 92.9623 14.192V12.192C91.1578 12.192 89.6103 10.651 89.6103 8.856H87.6103ZM101.51 14.192C104.414 14.192 106.845 11.7603 106.845 8.856H104.845C104.845 10.6557 103.309 12.192 101.51 12.192V14.192ZM106.845 8.856C106.845 5.94694 104.409 3.536 101.51 3.536V5.536C103.314 5.536 104.845 7.06106 104.845 8.856H106.845ZM101.51 3.536C98.6012 3.536 96.1415 5.93983 96.1415 8.856H98.1415C98.1415 7.06817 99.6818 5.536 101.51 5.536V3.536ZM96.1415 8.856C96.1415 11.7674 98.5964 14.192 101.51 14.192V12.192C99.6866 12.192 98.1415 10.6486 98.1415 8.856H96.1415ZM101.51 10.816C100.599 10.816 99.7255 9.97837 99.7255 8.856H97.7255C97.7255 10.9656 99.3803 12.816 101.51 12.816V10.816ZM99.7255 8.856C99.7255 7.75324 100.595 6.912 101.51 6.912V4.912C99.3837 4.912 97.7255 6.75876 97.7255 8.856H99.7255ZM101.51 6.912C102.384 6.912 103.262 7.74554 103.262 8.856H105.262C105.262 6.76646 103.611 4.912 101.51 4.912V6.912ZM103.262 8.856C103.262 9.98608 102.381 10.816 101.51 10.816V12.816C103.614 12.816 105.262 10.9579 105.262 8.856H103.262ZM113.395 4.728V3.728H112.395V4.728H113.395ZM113.395 10.088L114.386 10.218L114.395 10.1533V10.088H113.395ZM109.219 4.728H110.219V3.728H109.219V4.728ZM107.667 4.728V3.728H106.667V4.728H107.667ZM113.395 11.8H114.395V8.2296L112.54 11.2806L113.395 11.8ZM113.395 13H112.395V14H113.395V13ZM114.979 13V14H115.979V13H114.979ZM114.979 4.728H115.979V3.728H114.979V4.728ZM112.395 4.728V10.088H114.395V4.728H112.395ZM112.403 9.95797C112.356 10.3174 111.903 10.816 111.123 10.816V12.816C112.647 12.816 114.178 11.8106 114.386 10.218L112.403 9.95797ZM111.123 10.816C110.834 10.816 110.631 10.7112 110.491 10.5577C110.345 10.3973 110.219 10.1242 110.219 9.72H108.219C108.219 10.5478 108.484 11.3227 109.011 11.9023C109.543 12.4888 110.292 12.816 111.123 12.816V10.816ZM110.219 9.72V4.728H108.219V9.72H110.219ZM109.219 3.728H107.667V5.728H109.219V3.728ZM106.667 4.728V9.992H108.667V4.728H106.667ZM106.667 9.992C106.667 11.1598 107.069 12.218 107.816 12.9896C108.566 13.7636 109.607 14.192 110.771 14.192V12.192C110.11 12.192 109.6 11.9564 109.253 11.5984C108.904 11.238 108.667 10.6962 108.667 9.992H106.667ZM110.771 14.192C112.216 14.192 113.56 13.4541 114.249 12.3194L112.54 11.2806C112.238 11.7779 111.566 12.192 110.771 12.192V14.192ZM112.395 11.8V13H114.395V11.8H112.395ZM113.395 14H114.979V12H113.395V14ZM115.979 13V4.728H113.979V13H115.979ZM114.979 3.728H113.395V5.728H114.979V3.728ZM118.861 5.928H117.861V9.4984L119.716 6.44741L118.861 5.928ZM118.861 4.728H119.861V3.728H118.861V4.728ZM117.277 4.728V3.728H116.277V4.728H117.277ZM117.277 13H116.277V14H117.277V13ZM118.861 13V14H119.861V13H118.861ZM118.861 7.64L117.869 7.50997L117.861 7.57471V7.64H118.861ZM123.037 13H122.037V14H123.037V13ZM124.589 13V14H125.589V13H124.589ZM121.485 3.536C120.04 3.536 118.696 4.27387 118.006 5.40858L119.716 6.44741C120.018 5.95013 120.69 5.536 121.485 5.536V3.536ZM119.861 5.928V4.728H117.861V5.928H119.861ZM118.861 3.728H117.277V5.728H118.861V3.728ZM116.277 4.728V13H118.277V4.728H116.277ZM117.277 14H118.861V12H117.277V14ZM119.861 13V7.64H117.861V13H119.861ZM119.853 7.77003C119.9 7.41062 120.353 6.912 121.133 6.912V4.912C119.609 4.912 118.078 5.91738 117.869 7.50997L119.853 7.77003ZM121.133 6.912C121.422 6.912 121.625 7.01681 121.765 7.17027C121.91 7.33072 122.037 7.6038 122.037 8.008H124.037C124.037 7.1802 123.772 6.40528 123.245 5.82573C122.713 5.23919 121.964 4.912 121.133 4.912V6.912ZM122.037 8.008V13H124.037V8.008H122.037ZM123.037 14H124.589V12H123.037V14ZM125.589 13V7.736H123.589V13H125.589ZM125.589 7.736C125.589 6.56816 125.186 5.50998 124.439 4.73841C123.69 3.96444 122.649 3.536 121.485 3.536V5.536C122.145 5.536 122.656 5.77155 123.003 6.12959C123.352 6.49002 123.589 7.03184 123.589 7.736H125.589ZM130.727 11.512L131.611 11.0441L130.977 9.8475L130.02 10.8049L130.727 11.512ZM129.031 6.072V5.072H128.031V6.072H129.031ZM130.983 6.072V7.072H131.983V6.072H130.983ZM130.983 4.728H131.983V3.728H130.983V4.728ZM129.031 4.728H128.031V5.728H129.031V4.728ZM129.031 2.456H130.031V1.456H129.031V2.456ZM127.479 2.456V1.456H126.479V2.456H127.479ZM127.479 4.728V5.728H128.479V4.728H127.479ZM126.231 4.728V3.728H125.231V4.728H126.231ZM126.231 6.072H125.231V7.072H126.231V6.072ZM127.479 6.072H128.479V5.072H127.479V6.072ZM131.303 12.6L131.938 13.3727L132.569 12.8542L132.187 12.1321L131.303 12.6ZM130.02 10.8049C130.039 10.7856 130.051 10.7789 130.049 10.78C130.048 10.7808 130.039 10.7858 130.022 10.7921C129.987 10.8052 129.936 10.816 129.879 10.816V12.816C130.438 12.816 131.033 12.62 131.434 12.2191L130.02 10.8049ZM129.879 10.816C129.915 10.816 129.95 10.8244 129.979 10.8384C130.008 10.852 130.025 10.8677 130.034 10.8775C130.052 10.898 130.031 10.8893 130.031 10.824H128.031C128.031 11.8227 128.742 12.816 129.879 12.816V10.816ZM130.031 10.824V6.072H128.031V10.824H130.031ZM129.031 7.072H130.983V5.072H129.031V7.072ZM131.983 6.072V4.728H129.983V6.072H131.983ZM130.983 3.728H129.031V5.728H130.983V3.728ZM130.031 4.728V2.456H128.031V4.728H130.031ZM129.031 1.456H127.479V3.456H129.031V1.456ZM126.479 2.456V4.728H128.479V2.456H126.479ZM127.479 3.728H126.231V5.728H127.479V3.728ZM125.231 4.728V6.072H127.231V4.728H125.231ZM126.231 7.072H127.479V5.072H126.231V7.072ZM126.479 6.072V10.936H128.479V6.072H126.479ZM126.479 10.936C126.479 11.8285 126.784 12.6511 127.367 13.2563C127.954 13.8642 128.765 14.192 129.655 14.192V12.192C129.266 12.192 128.988 12.0558 128.807 11.8677C128.623 11.6769 128.479 11.3715 128.479 10.936H126.479ZM129.655 14.192C130.483 14.192 131.315 13.8848 131.938 13.3727L130.668 11.8273C130.396 12.0512 130.011 12.192 129.655 12.192V14.192ZM132.187 12.1321L131.611 11.0441L129.843 11.9799L130.419 13.0679L132.187 12.1321ZM134.63 9.688H133.63V10.688H134.63V9.688ZM136.166 9.688V10.688H137.166V9.688H136.166ZM136.166 7.928L135.956 6.9502L135.166 7.11958V7.928H136.166ZM132.134 3.624L131.365 2.98382L130.781 3.68537L131.427 4.33111L132.134 3.624ZM133.126 4.616L132.419 5.32311L133.193 6.09741L133.894 5.25618L133.126 4.616ZM134.63 6.808L134.556 5.81068L133.63 5.8787V6.808H134.63ZM134.63 10.688H136.166V8.688H134.63V10.688ZM137.166 9.688V7.928H135.166V9.688H137.166ZM136.375 8.9058C138.454 8.46038 140.238 6.87749 140.238 4.808H138.238C138.238 5.61851 137.461 6.62762 135.956 6.9502L136.375 8.9058ZM140.238 4.808C140.238 2.47299 138.305 0.815999 135.798 0.815999V2.816C137.418 2.816 138.238 3.78301 138.238 4.808H140.238ZM135.798 0.815999C133.834 0.815999 132.388 1.75664 131.365 2.98382L132.902 4.26418C133.639 3.37936 134.561 2.816 135.798 2.816V0.815999ZM131.427 4.33111L132.419 5.32311L133.833 3.90889L132.841 2.91689L131.427 4.33111ZM133.894 5.25618C134.436 4.60549 134.981 4.272 135.622 4.272V2.272C134.15 2.272 133.095 3.09051 132.357 3.97581L133.894 5.25618ZM135.622 4.272C136.383 4.272 136.606 4.71898 136.606 4.968H138.606C138.606 3.45702 137.324 2.272 135.622 2.272V4.272ZM136.606 4.968C136.606 4.9756 136.606 5.00564 136.563 5.06758C136.516 5.13599 136.42 5.23562 136.245 5.34401C135.89 5.56375 135.313 5.75513 134.556 5.81068L134.703 7.80532C135.69 7.73287 136.601 7.47625 137.298 7.04399C137.983 6.61964 138.606 5.92016 138.606 4.968H136.606ZM133.63 6.808V9.688H135.63V6.808H133.63ZM135.398 14.192C136.574 14.192 137.438 13.1988 137.438 12.104H135.438C135.438 12.137 135.425 12.1643 135.408 12.1814C135.401 12.1894 135.395 12.1922 135.394 12.1926C135.394 12.1928 135.394 12.1925 135.396 12.1923C135.396 12.1922 135.397 12.1921 135.397 12.192C135.397 12.192 135.398 12.192 135.398 12.192V14.192ZM137.438 12.104C137.438 11.0277 136.546 10.064 135.398 10.064V12.064C135.398 12.064 135.398 12.064 135.397 12.064C135.397 12.064 135.397 12.0639 135.397 12.0639C135.397 12.0638 135.397 12.064 135.399 12.0647C135.403 12.0664 135.411 12.0708 135.419 12.0796C135.428 12.0886 135.434 12.0979 135.436 12.1046C135.439 12.1107 135.438 12.1106 135.438 12.104H137.438ZM135.398 10.064C134.237 10.064 133.326 11.0077 133.326 12.104H135.326C135.326 12.1107 135.324 12.112 135.326 12.1077C135.328 12.103 135.333 12.0952 135.341 12.0871C135.349 12.0792 135.357 12.0735 135.366 12.0699C135.373 12.0667 135.383 12.064 135.398 12.064V10.064ZM133.326 12.104C133.326 13.2191 134.209 14.192 135.398 14.192V12.192C135.383 12.192 135.375 12.1894 135.37 12.1873C135.365 12.1849 135.358 12.1808 135.352 12.1739C135.338 12.1595 135.326 12.1361 135.326 12.104H133.326Z" fill="black"/>
<path d="M147.688 11.496V2.008H146.056V13H153.512V11.496H147.688ZM159.088 13.192C161.44 13.192 163.424 11.208 163.424 8.856C163.424 6.504 161.44 4.536 159.088 4.536C156.72 4.536 154.72 6.504 154.72 8.856C154.72 11.208 156.72 13.192 159.088 13.192ZM159.088 11.816C157.568 11.816 156.304 10.472 156.304 8.856C156.304 7.256 157.568 5.912 159.088 5.912C160.576 5.912 161.84 7.256 161.84 8.856C161.84 10.472 160.576 11.816 159.088 11.816ZM171.565 4.728V6.056C170.941 5.128 169.885 4.536 168.637 4.536C166.461 4.536 164.877 6.152 164.877 8.456C164.877 10.76 166.461 12.392 168.637 12.392C169.885 12.392 170.909 11.832 171.565 10.888V12.088C171.565 13.528 170.493 14.376 168.717 14.376C167.725 14.376 166.733 14.04 166.125 13.464L165.501 14.648C166.285 15.288 167.565 15.752 168.957 15.752C171.405 15.752 173.149 14.248 173.149 12.12V4.728H171.565ZM169.037 11.016C167.565 11.016 166.525 9.96 166.525 8.456C166.525 6.968 167.565 5.912 169.037 5.912C170.509 5.912 171.565 6.968 171.565 8.456C171.565 9.96 170.509 11.016 169.037 11.016ZM180.874 3.352C181.386 3.352 181.818 2.904 181.818 2.392C181.818 1.896 181.386 1.448 180.874 1.448C180.33 1.448 179.914 1.896 179.914 2.392C179.914 2.904 180.33 3.352 180.874 3.352ZM180.074 13H181.658V4.728H180.074V13ZM188.157 4.536C187.037 4.536 186.029 5.112 185.533 5.928V4.728H183.949V13H185.533V7.64C185.661 6.664 186.653 5.912 187.805 5.912C188.925 5.912 189.709 6.776 189.709 8.008V13H191.261V7.736C191.261 5.864 189.981 4.536 188.157 4.536Z" fill="white"/>
<path d="M145 15.128H192.381V15.448H145V15.128Z" fill="white"/>
<path d="M147.688 11.496H146.688V12.496H147.688V11.496ZM147.688 2.008H148.688V1.008H147.688V2.008ZM146.056 2.008V1.008H145.056V2.008H146.056ZM146.056 13H145.056V14H146.056V13ZM153.512 13V14H154.512V13H153.512ZM153.512 11.496H154.512V10.496H153.512V11.496ZM148.688 11.496V2.008H146.688V11.496H148.688ZM147.688 1.008H146.056V3.008H147.688V1.008ZM145.056 2.008V13H147.056V2.008H145.056ZM146.056 14H153.512V12H146.056V14ZM154.512 13V11.496H152.512V13H154.512ZM153.512 10.496H147.688V12.496H153.512V10.496ZM159.088 14.192C161.992 14.192 164.424 11.7603 164.424 8.856H162.424C162.424 10.6557 160.887 12.192 159.088 12.192V14.192ZM164.424 8.856C164.424 5.94694 161.987 3.536 159.088 3.536V5.536C160.892 5.536 162.424 7.06106 162.424 8.856H164.424ZM159.088 3.536C156.179 3.536 153.72 5.93983 153.72 8.856H155.72C155.72 7.06817 157.26 5.536 159.088 5.536V3.536ZM153.72 8.856C153.72 11.7674 156.174 14.192 159.088 14.192V12.192C157.265 12.192 155.72 10.6486 155.72 8.856H153.72ZM159.088 10.816C158.177 10.816 157.304 9.97837 157.304 8.856H155.304C155.304 10.9656 156.958 12.816 159.088 12.816V10.816ZM157.304 8.856C157.304 7.75324 158.173 6.912 159.088 6.912V4.912C156.962 4.912 155.304 6.75876 155.304 8.856H157.304ZM159.088 6.912C159.963 6.912 160.84 7.74554 160.84 8.856H162.84C162.84 6.76646 161.189 4.912 159.088 4.912V6.912ZM160.84 8.856C160.84 9.98608 159.959 10.816 159.088 10.816V12.816C161.192 12.816 162.84 10.9579 162.84 8.856H160.84ZM171.565 4.728V3.728H170.565V4.728H171.565ZM171.565 6.056L170.735 6.614L172.565 9.3353V6.056H171.565ZM171.565 10.888H172.565V7.69661L170.744 10.3173L171.565 10.888ZM166.125 13.464L166.813 12.738L165.855 11.831L165.24 12.9978L166.125 13.464ZM165.501 14.648L164.616 14.1818L164.235 14.9054L164.869 15.4227L165.501 14.648ZM173.149 4.728H174.149V3.728H173.149V4.728ZM170.565 4.728V6.056H172.565V4.728H170.565ZM172.395 5.498C171.583 4.29126 170.215 3.536 168.637 3.536V5.536C169.555 5.536 170.299 5.96474 170.735 6.614L172.395 5.498ZM168.637 3.536C165.876 3.536 163.877 5.63328 163.877 8.456H165.877C165.877 6.67072 167.046 5.536 168.637 5.536V3.536ZM163.877 8.456C163.877 11.2732 165.87 13.392 168.637 13.392V11.392C167.052 11.392 165.877 10.2468 165.877 8.456H163.877ZM168.637 13.392C170.212 13.392 171.543 12.6722 172.386 11.4587L170.744 10.3173C170.275 10.9918 169.558 11.392 168.637 11.392V13.392ZM170.565 10.888V12.088H172.565V10.888H170.565ZM170.565 12.088C170.565 12.5363 170.411 12.8081 170.182 12.9911C169.925 13.1973 169.46 13.376 168.717 13.376V15.376C169.75 15.376 170.709 15.1307 171.432 14.5529C172.183 13.9519 172.565 13.0797 172.565 12.088H170.565ZM168.717 13.376C167.914 13.376 167.192 13.097 166.813 12.738L165.437 14.19C166.274 14.983 167.536 15.376 168.717 15.376V13.376ZM165.24 12.9978L164.616 14.1818L166.386 15.1142L167.01 13.9302L165.24 12.9978ZM164.869 15.4227C165.855 16.228 167.368 16.752 168.957 16.752V14.752C167.762 14.752 166.715 14.348 166.133 13.8733L164.869 15.4227ZM168.957 16.752C171.816 16.752 174.149 14.9313 174.149 12.12H172.149C172.149 13.5647 170.994 14.752 168.957 14.752V16.752ZM174.149 12.12V4.728H172.149V12.12H174.149ZM173.149 3.728H171.565V5.728H173.149V3.728ZM169.037 10.016C168.548 10.016 168.184 9.84495 167.942 9.59923C167.7 9.35236 167.525 8.97244 167.525 8.456H165.525C165.525 9.44356 165.87 10.3436 166.516 11.0008C167.162 11.659 168.054 12.016 169.037 12.016V10.016ZM167.525 8.456C167.525 7.95035 167.698 7.57443 167.941 7.32835C168.183 7.08323 168.548 6.912 169.037 6.912V4.912C168.054 4.912 167.163 5.26877 166.517 5.92365C165.872 6.57757 165.525 7.47365 165.525 8.456H167.525ZM169.037 6.912C169.953 6.912 170.565 7.51608 170.565 8.456H172.565C172.565 6.41992 171.065 4.912 169.037 4.912V6.912ZM170.565 8.456C170.565 8.96798 170.389 9.34748 170.143 9.59604C169.897 9.84433 169.527 10.016 169.037 10.016V12.016C170.019 12.016 170.913 11.6597 171.563 11.004C172.213 10.3485 172.565 9.44802 172.565 8.456H170.565ZM180.074 13H179.074V14H180.074V13ZM181.658 13V14H182.658V13H181.658ZM181.658 4.728H182.658V3.728H181.658V4.728ZM180.074 4.728V3.728H179.074V4.728H180.074ZM180.874 4.352C181.959 4.352 182.818 3.43449 182.818 2.392H180.818C180.818 2.37863 180.82 2.36986 180.822 2.36652C180.823 2.36383 180.823 2.36408 180.822 2.36507C180.821 2.36604 180.823 2.36356 180.831 2.36019C180.839 2.3564 180.854 2.352 180.874 2.352V4.352ZM182.818 2.392C182.818 1.35465 181.949 0.447999 180.874 0.447999V2.448C180.854 2.448 180.84 2.44363 180.833 2.44031C180.826 2.43742 180.825 2.4356 180.826 2.43701C180.828 2.43848 180.827 2.43828 180.825 2.43338C180.822 2.42786 180.818 2.41382 180.818 2.392H182.818ZM180.874 0.447999C179.766 0.447999 178.914 1.35465 178.914 2.392H180.914C180.914 2.40831 180.91 2.42001 180.907 2.42643C180.905 2.43242 180.902 2.43539 180.901 2.43701C180.899 2.43884 180.895 2.44165 180.89 2.44417C180.883 2.44712 180.876 2.448 180.874 2.448V0.447999ZM178.914 2.392C178.914 3.43449 179.756 4.352 180.874 4.352V2.352C180.876 2.352 180.883 2.3529 180.891 2.3563C180.898 2.3593 180.902 2.36277 180.905 2.36507C180.907 2.36775 180.914 2.37559 180.914 2.392H178.914ZM180.074 14H181.658V12H180.074V14ZM182.658 13V4.728H180.658V13H182.658ZM181.658 3.728H180.074V5.728H181.658V3.728ZM179.074 4.728V13H181.074V4.728H179.074ZM185.533 5.928H184.533V9.4984L186.387 6.44741L185.533 5.928ZM185.533 4.728H186.533V3.728H185.533V4.728ZM183.949 4.728V3.728H182.949V4.728H183.949ZM183.949 13H182.949V14H183.949V13ZM185.533 13V14H186.533V13H185.533ZM185.533 7.64L184.541 7.50997L184.533 7.57471V7.64H185.533ZM189.709 13H188.709V14H189.709V13ZM191.261 13V14H192.261V13H191.261ZM188.157 3.536C186.712 3.536 185.368 4.27387 184.678 5.40858L186.387 6.44741C186.69 5.95013 187.362 5.536 188.157 5.536V3.536ZM186.533 5.928V4.728H184.533V5.928H186.533ZM185.533 3.728H183.949V5.728H185.533V3.728ZM182.949 4.728V13H184.949V4.728H182.949ZM183.949 14H185.533V12H183.949V14ZM186.533 13V7.64H184.533V13H186.533ZM186.524 7.77003C186.572 7.41062 187.025 6.912 187.805 6.912V4.912C186.281 4.912 184.75 5.91738 184.541 7.50997L186.524 7.77003ZM187.805 6.912C188.094 6.912 188.297 7.01681 188.437 7.17027C188.582 7.33072 188.709 7.6038 188.709 8.008H190.709C190.709 7.1802 190.443 6.40528 189.917 5.82573C189.385 5.23919 188.636 4.912 187.805 4.912V6.912ZM188.709 8.008V13H190.709V8.008H188.709ZM189.709 14H191.261V12H189.709V14ZM192.261 13V7.736H190.261V13H192.261ZM192.261 7.736C192.261 6.56816 191.858 5.50998 191.111 4.73841C190.362 3.96444 189.32 3.536 188.157 3.536V5.536C188.817 5.536 189.328 5.77155 189.674 6.12959C190.023 6.49002 190.261 7.03184 190.261 7.736H192.261Z" fill="black"/>
<path d="M145 15.128V14.128H144V15.128H145ZM192.381 15.128H193.381V14.128H192.381V15.128ZM192.381 15.448V16.448H193.381V15.448H192.381ZM145 15.448H144V16.448H145V15.448ZM145 16.128H192.381V14.128H145V16.128ZM191.381 15.128V15.448H193.381V15.128H191.381ZM192.381 14.448H145V16.448H192.381V14.448ZM146 15.448V15.128H144V15.448H146Z" fill="black"/>
</g>
<defs>
<filter id="filter0_d_36_223" x="0.199951" y="1.448" width="195.061" height="22.304" filterUnits="userSpaceOnUse" color-interpolation-filters="sRGB">
<feFlood flood-opacity="0" result="BackgroundImageFix"/>
<feColorMatrix in="SourceAlpha" type="matrix" values="0 0 0 0 0 0 0 0 0 0 0 0 0 0 0 0 0 0 127 0" result="hardAlpha"/>
<feOffset dy="4"/>
<feGaussianBlur stdDeviation="2"/>
<feComposite in2="hardAlpha" operator="out"/>
<feColorMatrix type="matrix" values="0 0 0 0 0 0 0 0 0 0 0 0 0 0 0 0 0 0 0.25 0"/>
<feBlend mode="normal" in2="BackgroundImageFix" result="effect1_dropShadow_36_223"/>
<feBlend mode="normal" in="SourceGraphic" in2="effect1_dropShadow_36_223" result="shape"/>
</filter>
</defs>
</svg>
