<svg width="26" height="24" viewBox="0 0 26 24" fill="none" xmlns="http://www.w3.org/2000/svg">
<path d="M17.0649 8.94348L17.071 8.95539L17.0778 8.96696C17.3968 9.50999 17.6101 10.122 17.6902 10.7761L17.6902 10.7761C17.701 10.8672 17.7096 10.958 17.7154 11.0486L17.7154 11.0486L17.7158 11.0537L17.7174 11.0748C17.7234 11.1699 17.7268 11.2631 17.7268 11.356C17.7268 13.9668 15.6105 16.0832 12.9999 16.0832C10.3893 16.0832 8.27307 13.9669 8.27307 11.356C8.27307 11.264 8.2763 11.1716 8.28191 11.0774C8.28274 11.0676 8.28354 11.0565 8.28414 11.0445C8.29019 10.9552 8.29894 10.8658 8.30988 10.7764L8.31225 10.7571C8.39408 10.1101 8.60598 9.50466 8.92202 8.96709L9.36495 8.21369H9.31239L12.9999 1.08793L17.0649 8.94348Z" stroke="white"/>
<path d="M6.58549 17.3428C6.7285 17.2465 6.76682 17.0515 6.66983 16.9086C6.57308 16.7654 6.37924 16.7274 6.23576 16.8235C5.61068 17.2453 5.29346 17.7179 5.29346 18.2284C5.29346 20.0772 9.26397 21.0745 13.0003 21.0745C16.7364 21.0745 20.7064 20.0772 20.7064 18.2284C20.7064 17.7573 20.4334 17.3156 19.8949 16.9163C19.7566 16.8136 19.5605 16.8427 19.4575 16.9813C19.3544 17.1201 19.3837 17.3159 19.5227 17.4184C19.7778 17.608 20.0816 17.9018 20.0816 18.2283C20.0816 19.279 17.1734 20.4491 13.0009 20.4491C8.82751 20.4491 5.91945 19.279 5.91945 18.2283C5.91947 17.8674 6.28164 17.5474 6.58549 17.3428Z" fill="white"/>
<path d="M22.8347 15.678C22.6746 15.6129 22.4929 15.6898 22.4268 15.8489C22.3616 16.0089 22.438 16.1912 22.5981 16.2564C24.3887 16.9876 25.3742 17.8767 25.3742 18.7607C25.3742 20.7093 20.4018 22.7956 13.0001 22.7956C5.59783 22.7956 0.625336 20.7093 0.625336 18.7607C0.625336 17.8486 1.67205 16.9365 3.57265 16.1929C3.73365 16.1296 3.81296 15.9482 3.7504 15.7872C3.68707 15.626 3.50463 15.5472 3.34499 15.6103C1.15614 16.4671 0 17.5567 0 18.7613C0 21.375 5.70958 23.4217 13.0001 23.4217C20.2901 23.4217 26 21.375 26 18.7613C26.0006 17.5892 24.906 16.5228 22.8347 15.678Z" fill="white"/>
</svg>
