<svg width="29" height="28" viewBox="0 0 29 28" fill="none" xmlns="http://www.w3.org/2000/svg">
<path d="M20.7886 9.67825H27.7642V2.70264" stroke="white" stroke-width="2" stroke-linecap="round" stroke-linejoin="round"/>
<path d="M22.8315 22.8316C21.043 24.6201 18.7643 25.8381 16.2836 26.3315C13.8028 26.825 11.2314 26.5717 8.89463 25.6038C6.55781 24.6358 4.5605 22.9967 3.15527 20.8936C1.75004 18.7905 1 16.318 1 13.7886C1 11.2593 1.75004 8.78673 3.15527 6.68365C4.5605 4.58057 6.55781 2.94142 8.89463 1.97348C11.2314 1.00554 13.8028 0.752284 16.2836 1.24574C18.7643 1.73919 21.043 2.95719 22.8315 4.74571L27.7641 9.67821" stroke="white" stroke-width="2" stroke-linecap="round" stroke-linejoin="round"/>
<path d="M10.234 17H11.714V10.13H10.534L8.47398 11.51L9.06398 12.55L10.234 11.82V17ZM15.5044 17.13C17.1444 17.13 18.2344 16.2 18.2344 14.74C18.2344 13.34 17.1844 12.56 15.9644 12.56C15.4044 12.56 14.9644 12.74 14.6244 12.98L14.6644 11.46H17.8544V10.13H13.3044L13.2044 13.84L14.1944 14.24C14.5644 13.96 15.0044 13.79 15.5244 13.79C16.2744 13.79 16.7644 14.19 16.7644 14.79C16.7644 15.38 16.2844 15.84 15.5144 15.84C14.8544 15.84 14.2244 15.52 13.7144 15.03L12.8444 16.07C13.4844 16.71 14.3544 17.13 15.5044 17.13Z" fill="white"/>
</svg>
