<svg width="26" height="26" viewBox="0 0 26 26" fill="none" xmlns="http://www.w3.org/2000/svg">
<g filter="url(#filter0_b_41_469)">
<circle cx="13" cy="13" r="13" fill="white" fill-opacity="0.1"/>
</g>
<path d="M11.14 9.00007C11.455 9.00915 11.76 9.06125 12.0555 9.15646H12.085C12.105 9.16546 12.12 9.17541 12.13 9.18441C12.2405 9.21804 12.345 9.25593 12.445 9.30804L12.635 9.38856C12.71 9.42646 12.8 9.49704 12.85 9.52593C12.9 9.55388 12.955 9.58277 13 9.61545C13.5554 9.2133 14.2299 8.99541 14.9249 9.00007C15.2404 9.00007 15.5554 9.04231 15.8549 9.13752C17.7004 9.70593 18.3654 11.6243 17.8099 13.3011C17.4949 14.158 16.9799 14.9401 16.3054 15.579C15.3399 16.4648 14.2804 17.2511 13.14 17.9285L13.015 18L12.885 17.9237C11.7405 17.2511 10.675 16.4648 9.70049 15.5743C9.0305 14.9353 8.515 14.158 8.19501 13.3011C7.63001 11.6243 8.29501 9.70593 10.1605 9.12757C10.3055 9.0802 10.455 9.04704 10.605 9.02857H10.665C10.8055 9.00915 10.945 9.00007 11.085 9.00007H11.14ZM15.5949 10.497C15.3899 10.4302 15.1649 10.5349 15.0899 10.7338C15.0199 10.9327 15.1299 11.1506 15.3399 11.2212C15.6604 11.3349 15.8749 11.6338 15.8749 11.9649V11.9796C15.8654 12.088 15.8999 12.1927 15.9699 12.2733C16.0399 12.3538 16.1449 12.4007 16.2549 12.4106C16.4599 12.4054 16.6349 12.2496 16.6499 12.0502V11.9938C16.6649 11.3302 16.2404 10.7291 15.5949 10.497Z" fill="white"/>
<defs>
<filter id="filter0_b_41_469" x="-50" y="-50" width="126" height="126" filterUnits="userSpaceOnUse" color-interpolation-filters="sRGB">
<feFlood flood-opacity="0" result="BackgroundImageFix"/>
<feGaussianBlur in="BackgroundImage" stdDeviation="25"/>
<feComposite in2="SourceAlpha" operator="in" result="effect1_backgroundBlur_41_469"/>
<feBlend mode="normal" in="SourceGraphic" in2="effect1_backgroundBlur_41_469" result="shape"/>
</filter>
</defs>
</svg>
