<svg width="88" height="88" viewBox="0 0 88 88" fill="none" xmlns="http://www.w3.org/2000/svg">
<g filter="url(#filter0_d_296_233)">
<circle cx="44" cy="40" r="24" transform="rotate(-180 44 40)" fill="#06576A"/>
</g>
<path d="M34.7097 40.0073C34.7113 39.8067 34.7907 39.6146 34.9311 39.4715L34.9358 39.4622L39.5809 34.8171C39.727 34.676 39.9225 34.598 40.1255 34.5998C40.3285 34.6015 40.5227 34.683 40.6662 34.8265C40.8098 34.97 40.8912 35.1642 40.8929 35.3672C40.8947 35.5702 40.8167 35.7658 40.6757 35.9118L37.3528 39.2362H52.5162C52.7215 39.2362 52.9184 39.3177 53.0636 39.4629C53.2088 39.6081 53.2904 39.805 53.2904 40.0104C53.2904 40.2157 53.2088 40.4126 53.0636 40.5578C52.9184 40.703 52.7215 40.7846 52.5162 40.7846H37.3528L40.6757 44.1074C40.8167 44.2534 40.8947 44.449 40.8929 44.652C40.8912 44.855 40.8098 45.0491 40.6662 45.1927C40.5227 45.3362 40.3285 45.4176 40.1255 45.4194C39.9225 45.4212 39.727 45.3431 39.5809 45.2021L34.9358 40.5569L34.9311 40.5492C34.8622 40.4794 34.8075 40.3968 34.7701 40.3061C34.7302 40.2126 34.7097 40.112 34.7097 40.0104V40.0073Z" fill="white"/>
<defs>
<filter id="filter0_d_296_233" x="0" y="0" width="88" height="88" filterUnits="userSpaceOnUse" color-interpolation-filters="sRGB">
<feFlood flood-opacity="0" result="BackgroundImageFix"/>
<feColorMatrix in="SourceAlpha" type="matrix" values="0 0 0 0 0 0 0 0 0 0 0 0 0 0 0 0 0 0 127 0" result="hardAlpha"/>
<feOffset dy="4"/>
<feGaussianBlur stdDeviation="10"/>
<feComposite in2="hardAlpha" operator="out"/>
<feColorMatrix type="matrix" values="0 0 0 0 0 0 0 0 0 0 0 0 0 0 0 0 0 0 0.2 0"/>
<feBlend mode="normal" in2="BackgroundImageFix" result="effect1_dropShadow_296_233"/>
<feBlend mode="normal" in="SourceGraphic" in2="effect1_dropShadow_296_233" result="shape"/>
</filter>
</defs>
</svg>
