<svg width="17" height="20" viewBox="0 0 17 20" fill="none" xmlns="http://www.w3.org/2000/svg">
<path d="M8.36757 17.7514C9.42478 17.638 10.4497 17.3131 11.3839 16.7954C12.3181 16.2777 13.1432 15.5773 13.8121 14.7342C15.1631 13.0314 15.7959 10.8507 15.5713 8.67188C15.3467 6.49301 14.2832 4.49442 12.6146 3.11578C10.9461 1.73714 8.80917 1.09138 6.67404 1.32055C4.99989 1.49988 3.42316 2.21106 2.16627 3.35376L3.82244 3.47449L3.73527 4.74524L-0.000455856 4.47838L0.261045 0.666115L1.50629 0.755068L1.40044 2.33716C3.16401 0.773021 5.43804 -0.0596999 7.77377 0.00333393C10.1095 0.0663677 12.3372 1.02058 14.0173 2.67765C15.6974 4.33472 16.7078 6.57427 16.8491 8.95432C16.9904 11.3344 16.2523 13.682 14.7806 15.534C14.0111 16.5095 13.0597 17.3196 11.9813 17.9172C10.9029 18.5149 9.71909 18.8883 8.49832 19.0158C8.17356 19.0499 7.84729 19.0669 7.52081 19.0667C5.38501 19.0674 3.31403 18.318 1.65572 16.9445L2.42777 15.9533C3.25257 16.6382 4.20207 17.1497 5.22153 17.4583C6.24098 17.7669 7.31021 17.8666 8.36757 17.7514Z" fill="white"/>
<path d="M4.06445 9.58252H4.76758C5.50977 9.58252 5.9707 9.95752 5.9707 10.5669C5.9707 11.1177 5.47852 11.5083 4.79102 11.5083C4.08008 11.5083 3.63477 11.1372 3.58008 10.5981H2.74023C2.79492 11.5708 3.57617 12.2388 4.79102 12.2388C5.9668 12.2388 6.86133 11.563 6.86133 10.5786C6.86133 9.78955 6.31445 9.27002 5.4668 9.21143V9.1958C6.16602 9.0708 6.62695 8.56689 6.62695 7.86377C6.62695 6.99658 5.84961 6.39111 4.7832 6.39111C3.66602 6.39111 2.91992 7.02783 2.85352 8.01611H3.67773C3.72852 7.46143 4.13477 7.10986 4.74414 7.10986C5.41211 7.10986 5.77148 7.45752 5.77148 7.98096C5.77148 8.51221 5.35352 8.89502 4.74414 8.89502H4.06445V9.58252ZM9.73633 12.2388C11.0879 12.2388 11.8809 11.1021 11.8809 9.30518C11.8809 7.52002 11.084 6.39111 9.73633 6.39111C8.39258 6.39111 7.58398 7.52393 7.58398 9.30908C7.58398 11.106 8.38477 12.2388 9.73633 12.2388ZM9.73633 11.5044C8.93164 11.5044 8.4707 10.6685 8.4707 9.30908C8.4707 7.96924 8.93945 7.12549 9.73633 7.12549C10.5332 7.12549 10.998 7.96533 10.998 9.30908C10.998 10.6724 10.541 11.5044 9.73633 11.5044Z" fill="white"/>
</svg>
