<svg width="26" height="16" viewBox="0 0 26 16" fill="none" xmlns="http://www.w3.org/2000/svg">
<path d="M15.5789 6.26997L15.5788 6.26931C15.4943 4.92357 14.8636 3.44415 14.1705 2.28025C13.8269 1.70326 13.4784 1.2212 13.1942 0.889572C13.0944 0.773151 13.0067 0.680097 12.9335 0.609855C12.8661 0.688249 12.7858 0.790484 12.6944 0.916524C12.4282 1.2839 12.1003 1.80935 11.7739 2.41782C11.1138 3.64828 10.5027 5.13816 10.3831 6.2895L15.5789 6.26997ZM15.5789 6.26997C15.7275 8.58643 15.3665 10.9179 14.768 12.6575M15.5789 6.26997L14.768 12.6575M14.768 12.6575C14.4681 13.5291 14.1169 14.2275 13.7593 14.6973M14.768 12.6575L13.7593 14.6973M13.7593 14.6973C13.3861 15.1875 13.086 15.3287 12.9023 15.3287M13.7593 14.6973L12.9023 15.3287M12.9023 15.3287C12.7154 15.3287 12.41 15.1793 12.0343 14.6624M12.9023 15.3287L12.0343 14.6624M12.0343 14.6624C11.6755 14.1688 11.3298 13.4411 11.0424 12.5498M12.0343 14.6624L11.0424 12.5498M11.0424 12.5498C10.4684 10.7697 10.16 8.44182 10.3831 6.28964L11.0424 12.5498ZM12.7701 0.474182C12.7706 0.474416 12.771 0.474684 12.7715 0.474988C12.7651 0.471963 12.7643 0.470938 12.7701 0.474182Z" stroke="white"/>
<path d="M17.7975 7.60635L17.7975 7.60635L17.7979 7.6026C17.8162 7.42209 17.9758 7.15723 18.3831 6.83947C18.7706 6.53714 19.2957 6.25502 19.8484 6.01994C20.3981 5.7861 20.9516 5.6088 21.3813 5.50786C21.5625 5.46531 21.7127 5.43847 21.8263 5.42542C21.8343 5.47326 21.8413 5.53153 21.8464 5.60085C21.8655 5.85793 21.8535 6.19524 21.8196 6.55726C21.7859 6.91579 21.7324 7.2816 21.6745 7.58936C21.6146 7.90821 21.5562 8.13072 21.5204 8.22196C20.7278 10.2382 19.215 11.8072 17.8617 12.8438C17.3357 13.2467 16.841 13.5636 16.4334 13.7908C16.633 13.3258 16.8638 12.7264 17.0661 12.0171L17.0661 12.0171L17.0671 12.0134C17.5699 10.1981 17.6294 9.49382 17.7099 8.54001C17.7335 8.26139 17.7588 7.96147 17.7975 7.60635ZM21.7918 5.29028C21.7906 5.28822 21.79 5.28706 21.7901 5.287C21.7901 5.28694 21.7907 5.28797 21.7918 5.29028ZM21.9894 5.41712C21.9986 5.41809 21.9967 5.41876 21.9869 5.41689C21.9879 5.41697 21.9887 5.41704 21.9894 5.41712Z" stroke="white"/>
<path d="M17.2152 4.63157L17.2117 4.61237L17.2069 4.59349C17.1194 4.2562 17.0536 3.91367 17.0099 3.568C17.0159 3.49534 17.0509 3.4059 17.1427 3.29746C17.246 3.17549 17.3997 3.05646 17.5803 2.95329C17.7493 2.85671 17.9225 2.78501 18.0614 2.74219C18.1366 2.88856 18.2252 3.08444 18.2994 3.29343C18.3772 3.51266 18.4315 3.72544 18.4468 3.9009C18.4543 3.98748 18.4511 4.05249 18.443 4.09786C18.4368 4.13195 18.4293 4.14769 18.4267 4.15235C18.238 4.39287 18.0246 4.61303 17.7901 4.80924C17.7113 4.87274 17.6399 4.93056 17.5748 4.98316C17.4792 5.06049 17.3976 5.12656 17.327 5.18288C17.2868 5.02051 17.2503 4.82939 17.2152 4.63157ZM17.434 5.50527C17.4382 5.51077 17.4402 5.51416 17.4401 5.51448C17.44 5.5148 17.438 5.51205 17.434 5.50527Z" stroke="white"/>
<path d="M23.1276 9.11731L23.1252 9.11759C23.1281 9.11018 23.131 9.10276 23.1338 9.09534L23.1385 9.0833L23.1425 9.07104C23.2218 8.82904 23.322 8.59443 23.4418 8.36985C23.4486 8.3685 23.4564 8.36713 23.4652 8.36578C23.5553 8.35189 23.684 8.35165 23.8303 8.36751C23.9018 8.37527 23.9715 8.38619 24.0353 8.3988C24.0136 8.48349 23.9866 8.57541 23.9548 8.6663C23.899 8.82562 23.8373 8.95528 23.7792 9.03754C23.7687 9.05243 23.7598 9.06366 23.7528 9.07197C23.7179 9.07435 23.6778 9.07696 23.6342 9.0798C23.4806 9.0898 23.2846 9.10258 23.1276 9.11742L23.1276 9.11731ZM23.4015 8.38028C23.3989 8.38162 23.3974 8.38217 23.3974 8.38211C23.3973 8.38205 23.3986 8.38138 23.4015 8.38028ZM23.7321 9.09286C23.732 9.09274 23.7332 9.0917 23.7356 9.09009C23.7333 9.09218 23.7321 9.09298 23.7321 9.09286Z" stroke="white"/>
<path d="M17.0912 15.1309C18.0277 14.9963 19.4807 14.6957 21.522 14.0586C22.8751 13.6358 23.9283 12.903 24.6211 12.2385C24.9681 11.9056 25.216 11.5982 25.3635 11.3671C25.3795 11.342 25.394 11.3183 25.4069 11.2963C25.3005 11.2467 25.1694 11.1914 25.0221 11.1355C24.6136 10.9801 24.1346 10.8397 23.7748 10.7962L23.8348 10.2998M17.0912 15.1309L19.4632 13.7589C20.1038 13.3593 20.7865 12.8056 21.4156 12.2954C21.6415 12.1122 21.8605 11.9346 22.0681 11.7718C22.4745 11.453 22.839 11.1883 23.1552 11.0113C23.489 10.8245 23.6836 10.7854 23.7761 10.7964L23.8348 10.2998M17.0912 15.1309C17.2279 15.0534 17.3784 14.9695 17.5405 14.879C18.0787 14.5788 18.7458 14.2067 19.463 13.759L17.0912 15.1309ZM23.8348 10.2998C23.178 10.2221 22.1616 11.0464 21.0763 11.9265C20.4547 12.4306 19.8105 12.953 19.1984 13.3347L25.9895 11.0731C25.9223 10.9233 24.6692 10.4007 23.8348 10.2998Z" stroke="white"/>
<path d="M8.9455 12.0134C9.1426 12.726 9.37378 13.3284 9.57409 13.7948C9.16514 13.5673 8.66771 13.249 8.13867 12.8438C6.78541 11.8073 5.27272 10.2384 4.48008 8.2223C4.44437 8.13128 4.3859 7.90861 4.32586 7.58936C4.26798 7.2816 4.21444 6.91579 4.18081 6.55726C4.14686 6.19524 4.1349 5.85793 4.15393 5.60085C4.15906 5.53158 4.1661 5.47334 4.17411 5.42553C4.28738 5.43862 4.43724 5.46543 4.61797 5.50787C5.04786 5.60881 5.60184 5.78615 6.15268 6.02006C6.70638 6.25517 7.23315 6.53745 7.62287 6.84014C8.03239 7.15822 8.19525 7.42433 8.21513 7.60643C8.25383 7.96152 8.27916 8.26141 8.30269 8.54001C8.38325 9.49382 8.44273 10.1981 8.9455 12.0134ZM4.2103 5.287C4.21033 5.28706 4.20981 5.28822 4.20862 5.29028C4.20968 5.28797 4.21027 5.28694 4.2103 5.287ZM4.0132 5.41687C4.00336 5.41874 4.00145 5.41808 4.01061 5.4171C4.01134 5.41703 4.0122 5.41695 4.0132 5.41687Z" stroke="white"/>
<path d="M8.79057 4.59349L8.78568 4.61237L8.78227 4.63157C8.74716 4.82939 8.71065 5.02051 8.67047 5.18288C8.59987 5.12656 8.5182 5.06049 8.4226 4.98316C8.35744 4.93045 8.28581 4.87251 8.20681 4.80886C7.97141 4.61287 7.75717 4.39278 7.56759 4.1522C7.56493 4.14736 7.55746 4.1316 7.5514 4.09786C7.54325 4.05249 7.54007 3.98748 7.5476 3.9009C7.56285 3.72544 7.61721 3.51266 7.695 3.29343C7.76929 3.08404 7.8581 2.88782 7.93342 2.74135C8.07314 2.78405 8.24775 2.85606 8.41791 2.95329C8.59833 3.05639 8.75185 3.17534 8.85491 3.29722C8.94654 3.40558 8.98157 3.49509 8.98756 3.56798C8.94381 3.91365 8.87801 4.25619 8.79057 4.59349ZM8.55732 5.51448C8.55725 5.51416 8.5592 5.51077 8.56339 5.50527C8.55948 5.51205 8.55738 5.5148 8.55732 5.51448Z" stroke="white"/>
<path d="M2.85179 9.07104L2.8558 9.0833L2.86045 9.09534C2.86332 9.10278 2.86621 9.11022 2.8691 9.11766L2.86665 9.11742C2.70973 9.10258 2.51363 9.0898 2.36004 9.0798C2.31649 9.07696 2.27637 9.07435 2.24152 9.07197C2.23444 9.06366 2.22561 9.05243 2.21509 9.03754C2.15698 8.95528 2.09531 8.82562 2.03949 8.6663C2.00774 8.5757 1.98084 8.48408 1.95917 8.39961C2.02439 8.38665 2.09557 8.37542 2.16857 8.36751C2.31506 8.35163 2.44318 8.35193 2.53215 8.36572C2.53952 8.36686 2.54617 8.36801 2.55215 8.36915C2.67211 8.59395 2.77238 8.82879 2.85179 9.07104ZM2.59782 8.38154C2.5977 8.38161 2.59597 8.38099 2.59296 8.37944C2.59642 8.38069 2.59793 8.38146 2.59782 8.38154ZM2.25868 9.09009C2.26107 9.0917 2.26224 9.09274 2.26223 9.09286C2.26221 9.09298 2.26102 9.09218 2.25868 9.09009Z" stroke="white"/>
<path d="M8.9091 15.1309C8.77247 15.0534 8.62198 14.9695 8.45979 14.879C7.9216 14.5788 7.25455 14.2067 6.53738 13.759L8.9091 15.1309ZM8.9091 15.1309C7.97259 14.9963 6.51964 14.6957 4.47837 14.0586L4.47804 14.0585C3.12496 13.6372 2.07107 12.9051 1.37792 12.241C1.03075 11.9083 0.782921 11.6011 0.635676 11.3702C0.619726 11.3452 0.605355 11.3217 0.592447 11.2998C0.699058 11.2501 0.830531 11.1947 0.978203 11.1385C1.38659 10.9832 1.86541 10.8428 2.22519 10.7993C2.32159 10.7878 2.51813 10.8274 2.85104 11.013C3.16728 11.1894 3.53103 11.4535 3.93655 11.7719C4.14463 11.9353 4.36418 12.1138 4.59073 12.2979C5.21735 12.8071 5.89758 13.36 6.53718 13.7589L8.9091 15.1309Z" stroke="white"/>
</svg>
