<svg width="25" height="15" viewBox="0 0 25 15" fill="none" xmlns="http://www.w3.org/2000/svg">
<path d="M12.5 0C8.15678 0 4.51977 3.08315 3.70763 7.13627H4.76695C5.54379 3.63741 8.72175 1.03929 12.5 1.03929C16.3136 1.03929 19.4562 3.63741 20.233 7.13627H21.2924C20.5155 3.08315 16.8785 0 12.5 0ZM12.5 3.11781C9.32203 3.11781 6.74435 5.68131 6.74435 8.79908C6.74435 11.9169 9.32203 14.4457 12.5 14.4457C15.678 14.4457 18.291 11.9169 18.291 8.79908C18.291 5.68131 15.678 3.11781 12.5 3.11781ZM10.7698 6.58198C10.911 6.58198 11.0523 6.61668 11.1229 6.72056L12.5 8.07161L13.8771 6.72056C13.9831 6.61668 14.089 6.58198 14.2302 6.58198C14.7246 6.5473 14.9364 7.1016 14.6186 7.44803L13.2415 8.79908L14.6186 10.1501C15.1483 10.6351 14.3715 11.3626 13.8771 10.8776L12.5 9.52655L11.1229 10.8776C10.6285 11.3972 9.8517 10.6351 10.3814 10.1501L11.7585 8.79908L10.3814 7.44803C10.0636 7.13625 10.3107 6.58198 10.7698 6.58198ZM3.42514 8.27944C1.51836 8.27944 0 9.76905 0 11.6397C0 12.6097 0.49435 13.4411 1.12994 14.03C1.80085 14.6189 2.61299 15 3.42514 15H4.06073C4.34322 15 4.5904 14.7575 4.5904 14.4804V13.9261V8.79908C4.5904 8.52195 4.34322 8.27944 4.06073 8.27944H3.42514ZM20.904 8.27944C20.6215 8.27944 20.4096 8.52195 20.4096 8.79908V14.4804C20.4096 14.7575 20.6568 15 20.9393 15H21.6102C22.4223 15 23.2698 14.6189 23.9054 13.9954C24.541 13.4065 25 12.575 25 11.6397C25 9.76905 23.4816 8.27944 21.6102 8.27944C21.363 8.27944 21.1158 8.27944 20.904 8.27944Z" fill="white"/>
</svg>
