<svg width="19" height="18" viewBox="0 0 19 18" fill="none" xmlns="http://www.w3.org/2000/svg">
<path d="M18 6C17.8022 6 17.6089 5.94135 17.4444 5.83147C17.28 5.72159 17.1518 5.56541 17.0761 5.38268C17.0004 5.19996 16.9806 4.99889 17.0192 4.80491C17.0578 4.61093 17.153 4.43275 17.2929 4.29289C17.4327 4.15304 17.6109 4.0578 17.8049 4.01921C17.9989 3.98063 18.2 4.00043 18.3827 4.07612C18.5654 4.15181 18.7216 4.27998 18.8315 4.44443C18.9414 4.60888 19 4.80222 19 5C19 5.26522 18.8946 5.51957 18.7071 5.70711C18.5196 5.89464 18.2652 6 18 6ZM14 6H7C6.20435 6 5.44129 5.68393 4.87868 5.12132C4.31607 4.55871 4 3.79565 4 3C4 2.20435 4.31607 1.44129 4.87868 0.87868C5.44129 0.316071 6.20435 0 7 0C7.52607 0.00217645 8.0427 0.139943 8.5 0.4C8.61459 0.46533 8.71512 0.552684 8.7958 0.657031C8.87649 0.761378 8.93573 0.880656 8.97012 1.008C9.00451 1.13534 9.01337 1.26822 8.99619 1.399C8.979 1.52978 8.93612 1.65587 8.87 1.77C8.80384 1.88375 8.71587 1.98333 8.61115 2.06302C8.50643 2.14271 8.387 2.20094 8.25973 2.23439C8.13245 2.26783 7.99983 2.27583 7.86946 2.25791C7.73909 2.24 7.61354 2.19653 7.5 2.13C7.34616 2.04722 7.17468 2.00264 7 2C6.73478 2 6.48043 2.10536 6.29289 2.29289C6.10536 2.48043 6 2.73478 6 3C6 3.26522 6.10536 3.51957 6.29289 3.70711C6.48043 3.89464 6.73478 4 7 4H14C14.2652 4 14.5196 4.10536 14.7071 4.29289C14.8946 4.48043 15 4.73478 15 5C15 5.26522 14.8946 5.51957 14.7071 5.70711C14.5196 5.89464 14.2652 6 14 6ZM18 10H11C10.7348 10 10.4804 9.89464 10.2929 9.70711C10.1054 9.51957 10 9.26522 10 9C10 8.73478 10.1054 8.48043 10.2929 8.29289C10.4804 8.10536 10.7348 8 11 8H18C18.2652 8 18.5196 8.10536 18.7071 8.29289C18.8946 8.48043 19 8.73478 19 9C19 9.26522 18.8946 9.51957 18.7071 9.70711C18.5196 9.89464 18.2652 10 18 10ZM1 6C0.802219 6 0.608879 5.94135 0.444429 5.83147C0.27998 5.72159 0.151808 5.56541 0.0761204 5.38268C0.000432968 5.19996 -0.019371 4.99889 0.0192146 4.80491C0.0578003 4.61093 0.15304 4.43275 0.292892 4.29289C0.432745 4.15304 0.610928 4.0578 0.804909 4.01921C0.99889 3.98063 1.19996 4.00043 1.38268 4.07612C1.56541 4.15181 1.72159 4.27998 1.83147 4.44443C1.94135 4.60888 2 4.80222 2 5C2 5.26522 1.89464 5.51957 1.70711 5.70711C1.51957 5.89464 1.26522 6 1 6ZM3 8H7C7.26522 8 7.51957 8.10536 7.70711 8.29289C7.89464 8.48043 8 8.73478 8 9C8 9.26522 7.89464 9.51957 7.70711 9.70711C7.51957 9.89464 7.26522 10 7 10H3C2.73478 10 2.48043 10.1054 2.29289 10.2929C2.10536 10.4804 2 10.7348 2 11C2 11.2652 2.10536 11.5196 2.29289 11.7071C2.48043 11.8946 2.73478 12 3 12C3.26522 12 3.51957 12.1054 3.70711 12.2929C3.89464 12.4804 4 12.7348 4 13C4 13.2652 3.89464 13.5196 3.70711 13.7071C3.51957 13.8946 3.26522 14 3 14C2.20435 14 1.44129 13.6839 0.878679 13.1213C0.316071 12.5587 0 11.7956 0 11C0 10.2044 0.316071 9.44129 0.878679 8.87868C1.44129 8.31607 2.20435 8 3 8ZM9 12H13C13.2652 12 13.5196 12.1054 13.7071 12.2929C13.8946 12.4804 14 12.7348 14 13C14 13.2652 13.8946 13.5196 13.7071 13.7071C13.5196 13.8946 13.2652 14 13 14H9C8.73478 14 8.48043 14.1054 8.29289 14.2929C8.10536 14.4804 8 14.7348 8 15C8 15.2652 8.10536 15.5196 8.29289 15.7071C8.48043 15.8946 8.73478 16 9 16C9.17468 15.9974 9.34616 15.9528 9.5 15.87C9.61382 15.7976 9.7411 15.7491 9.87418 15.7272C10.0073 15.7053 10.1434 15.7105 10.2744 15.7426C10.4054 15.7747 10.5285 15.833 10.6364 15.9139C10.7443 15.9948 10.8348 16.0967 10.9022 16.2135C10.9697 16.3302 11.0129 16.4594 11.0292 16.5933C11.0454 16.7272 11.0345 16.863 10.9969 16.9925C10.9593 17.1221 10.8959 17.2427 10.8105 17.347C10.7251 17.4514 10.6195 17.5375 10.5 17.6C10.0427 17.8601 9.52607 17.9978 9 18C8.20435 18 7.44129 17.6839 6.87868 17.1213C6.31607 16.5587 6 15.7956 6 15C6 14.2044 6.31607 13.4413 6.87868 12.8787C7.44129 12.3161 8.20435 12 9 12ZM17 12H18C18.2652 12 18.5196 12.1054 18.7071 12.2929C18.8946 12.4804 19 12.7348 19 13C19 13.2652 18.8946 13.5196 18.7071 13.7071C18.5196 13.8946 18.2652 14 18 14H17C16.7348 14 16.4804 13.8946 16.2929 13.7071C16.1054 13.5196 16 13.2652 16 13C16 12.7348 16.1054 12.4804 16.2929 12.2929C16.4804 12.1054 16.7348 12 17 12Z" fill="white"/>
</svg>
