<svg width="26" height="26" viewBox="0 0 26 26" fill="none" xmlns="http://www.w3.org/2000/svg">
<g filter="url(#filter0_b_81_3638)">
<circle cx="13" cy="13" r="13" fill="white" fill-opacity="0.1"/>
</g>
<path d="M17.97 14.8725L16.92 13.8167V11.215C16.934 10.2489 16.5979 9.31038 15.9739 8.57272C15.3499 7.83505 14.4801 7.34807 13.525 7.20169C12.9707 7.12869 12.4073 7.17475 11.8722 7.33677C11.3371 7.4988 10.8428 7.77307 10.4221 8.1413C10.0014 8.50952 9.66412 8.96322 9.43269 9.47213C9.20126 9.98104 9.08102 10.5335 9.08 11.0925V13.8167L8.03 14.8725C7.89811 15.0066 7.80868 15.1766 7.77287 15.3612C7.73706 15.5459 7.75647 15.737 7.82868 15.9106C7.90089 16.0843 8.02268 16.2328 8.17884 16.3377C8.335 16.4425 8.51859 16.499 8.70667 16.5H10.6667V16.6984C10.6939 17.2906 10.9548 17.8478 11.3922 18.248C11.8295 18.6482 12.4077 18.8587 13 18.8334C13.5923 18.8587 14.1705 18.6482 14.6078 18.248C15.0452 17.8478 15.3061 17.2906 15.3333 16.6984V16.5H17.2933C17.4814 16.499 17.665 16.4425 17.8212 16.3377C17.9773 16.2328 18.0991 16.0843 18.1713 15.9106C18.2435 15.737 18.2629 15.5459 18.2271 15.3612C18.1913 15.1766 18.1019 15.0066 17.97 14.8725ZM14.1667 16.6984C14.1343 16.9789 13.995 17.2362 13.7776 17.4166C13.5603 17.597 13.2817 17.6866 13 17.6667C12.7183 17.6866 12.4397 17.597 12.2224 17.4166C12.005 17.2362 11.8657 16.9789 11.8333 16.6984V16.5H14.1667V16.6984Z" fill="white"/>
<defs>
<filter id="filter0_b_81_3638" x="-50" y="-50" width="126" height="126" filterUnits="userSpaceOnUse" color-interpolation-filters="sRGB">
<feFlood flood-opacity="0" result="BackgroundImageFix"/>
<feGaussianBlur in="BackgroundImage" stdDeviation="25"/>
<feComposite in2="SourceAlpha" operator="in" result="effect1_backgroundBlur_81_3638"/>
<feBlend mode="normal" in="SourceGraphic" in2="effect1_backgroundBlur_81_3638" result="shape"/>
</filter>
</defs>
</svg>
