<svg width="13" height="13" viewBox="0 0 13 13" fill="none" xmlns="http://www.w3.org/2000/svg">
<path d="M12.8065 7.65968L12.0553 6.65806C12.0568 6.60533 12.0575 6.55253 12.0575 6.5C12.0575 6.44743 12.0568 6.39458 12.0553 6.34175L12.8062 5.34022C12.8981 5.21769 12.9595 5.07512 12.9856 4.92422C13.0116 4.77331 13.0015 4.61839 12.956 4.47216C12.8368 4.09183 12.6841 3.72281 12.4998 3.36942C12.4286 3.23366 12.3261 3.11674 12.2009 3.02829C12.0757 2.93984 11.9312 2.88239 11.7794 2.86065L10.54 2.68362C10.5038 2.64527 10.4671 2.60748 10.4298 2.57023C10.3927 2.53307 10.3548 2.4963 10.3163 2.45992L10.1391 1.22068C10.1174 1.0691 10.06 0.924842 9.97174 0.799735C9.88345 0.674628 9.76675 0.572242 9.63121 0.50098C9.278 0.316339 8.90911 0.163375 8.52888 0.0438828C8.38251 -0.00173803 8.2274 -0.0119676 8.0763 0.014035C7.9252 0.0400376 7.78243 0.10153 7.65972 0.193457L6.65816 0.944659C6.55259 0.941739 6.44741 0.941739 6.34184 0.944659L5.34021 0.193665C5.21765 0.101876 5.07508 0.04045 4.92418 0.0144244C4.77329 -0.0116012 4.61837 -0.00148454 4.47214 0.0439445C4.09185 0.163149 3.72288 0.315826 3.36955 0.500186C3.23376 0.5714 3.11682 0.673838 3.02834 0.799071C2.93987 0.924304 2.8824 1.06875 2.86065 1.22053L2.68362 2.45995C2.64518 2.49629 2.60741 2.53303 2.57029 2.57018C2.53307 2.60737 2.49629 2.64518 2.45995 2.68362L1.22067 2.86083C1.0691 2.88256 0.924851 2.93993 0.799753 3.02822C0.674655 3.11652 0.572278 3.23322 0.501024 3.36874C0.316379 3.72196 0.163404 4.09084 0.0438946 4.47107C-0.00173526 4.61743 -0.0119695 4.77254 0.0140334 4.92364C0.0400363 5.07473 0.101534 5.2175 0.193468 5.34019L0.944675 6.34181C0.9432 6.39454 0.942463 6.44734 0.942463 6.49988C0.942463 6.55244 0.9432 6.60529 0.944704 6.65812L0.193793 7.65966C0.101946 7.78219 0.0404748 7.92476 0.0144275 8.07566C-0.0116199 8.22656 -0.00150035 8.38149 0.043955 8.52772C0.163189 8.90804 0.315867 9.27706 0.500198 9.63045C0.57143 9.76622 0.673875 9.88313 0.799107 9.97158C0.92434 10.06 1.06878 10.1175 1.22055 10.1392L2.45998 10.3163C2.4962 10.3546 2.53293 10.3924 2.57017 10.4296C2.60734 10.4668 2.64516 10.5036 2.68365 10.54L2.86086 11.7792C2.88259 11.9308 2.93996 12.075 3.02825 12.2001C3.11655 12.3252 3.23325 12.4276 3.36878 12.4989C3.72199 12.6835 4.09088 12.8365 4.47111 12.956C4.56421 12.9852 4.66121 13 4.75879 13C4.96844 13 5.17245 12.9321 5.34027 12.8064L6.34184 12.0552C6.44741 12.0582 6.55259 12.0582 6.65816 12.0552L7.65979 12.8062C7.78235 12.898 7.92492 12.9594 8.07582 12.9855C8.22671 13.0115 8.38163 13.0014 8.52786 12.9559C8.90815 12.8367 9.27712 12.6841 9.63045 12.4997C9.76624 12.4285 9.88318 12.326 9.97165 12.2008C10.0601 12.0756 10.1176 11.9311 10.1393 11.7793L10.3164 10.5399C10.3548 10.5036 10.3926 10.4668 10.4297 10.4297C10.4669 10.3925 10.5037 10.3547 10.5401 10.3163L11.7793 10.139C11.9309 10.1173 12.0751 10.0599 12.2002 9.97165C12.3253 9.88336 12.4277 9.76666 12.499 9.63113C12.6836 9.27792 12.8366 8.90904 12.9561 8.52881C13.0017 8.38244 13.012 8.22733 12.986 8.07624C12.96 7.92514 12.8985 7.78238 12.8065 7.65968ZM9.15795 6.49994C9.15795 7.02563 9.00206 7.53951 8.71 7.9766C8.41794 8.4137 8.00283 8.75437 7.51715 8.95554C7.03148 9.15672 6.49705 9.20935 5.98146 9.1068C5.46587 9.00424 4.99226 8.7511 4.62054 8.37938C4.24882 8.00766 3.99568 7.53406 3.89312 7.01847C3.79056 6.50289 3.8432 5.96846 4.04437 5.48279C4.24555 4.99712 4.58622 4.58201 5.02332 4.28995C5.46042 3.99789 5.97431 3.84201 6.5 3.84201C7.20469 3.8428 7.88029 4.12309 8.37858 4.62138C8.87687 5.11966 9.15716 5.79525 9.15795 6.49994Z" fill="white"/>
</svg>
