<svg width="26" height="26" viewBox="0 0 26 26" fill="none" xmlns="http://www.w3.org/2000/svg">
<g filter="url(#filter0_b_298_494)">
<circle cx="13" cy="13" r="13" fill="white" fill-opacity="0.2"/>
</g>
<path d="M16.2082 14.4286C15.9387 14.4306 15.6731 14.4936 15.4315 14.613C15.1898 14.7324 14.9783 14.905 14.8128 15.1179L11.501 13.4607C11.5436 13.3108 11.5664 13.1559 11.5688 13C11.5664 12.8441 11.5436 12.6892 11.501 12.5393L14.8128 10.8821C14.9783 11.095 15.1898 11.2677 15.4315 11.387C15.6731 11.5064 15.9387 11.5695 16.2082 11.5714C16.5611 11.5714 16.9061 11.4667 17.1996 11.2705C17.493 11.0743 17.7217 10.7954 17.8568 10.4691C17.9918 10.1428 18.0272 9.78374 17.9583 9.43734C17.8895 9.09095 17.7195 8.77276 17.47 8.52303C17.2204 8.27329 16.9025 8.10322 16.5563 8.03431C16.2102 7.96541 15.8514 8.00077 15.5253 8.13593C15.1993 8.27109 14.9206 8.49997 14.7245 8.79363C14.5285 9.08729 14.4238 9.43254 14.4238 9.78572C14.4262 9.94159 14.449 10.0965 14.4916 10.2464L11.1798 11.9036C11.0143 11.6907 10.8028 11.5181 10.5611 11.3987C10.3195 11.2793 10.0539 11.2163 9.78439 11.2143C9.31114 11.2143 8.85728 11.4024 8.52264 11.7373C8.188 12.0722 8 12.5264 8 13C8 13.4736 8.188 13.9278 8.52264 14.2627C8.85728 14.5976 9.31114 14.7857 9.78439 14.7857C10.0539 14.7837 10.3195 14.7207 10.5611 14.6013C10.8028 14.4819 11.0143 14.3093 11.1798 14.0964L14.4916 15.7536C14.3954 16.1143 14.4145 16.4962 14.5464 16.8454C14.6782 17.1947 14.9162 17.4938 15.2267 17.7007C15.5373 17.9076 15.9049 18.0119 16.2777 17.9989C16.6506 17.9859 17.01 17.8563 17.3054 17.6283C17.6008 17.4002 17.8174 17.0853 17.9247 16.7277C18.0319 16.3701 18.0245 15.9878 17.9034 15.6347C17.7823 15.2815 17.5536 14.9752 17.2496 14.7589C16.9455 14.5426 16.5813 14.427 16.2082 14.4286V14.4286ZM16.2082 8.71429C16.42 8.71429 16.627 8.77713 16.803 8.89486C16.9791 9.01259 17.1163 9.17992 17.1973 9.3757C17.2784 9.57148 17.2996 9.78691 17.2583 9.99474C17.217 10.2026 17.115 10.3935 16.9653 10.5433C16.8155 10.6932 16.6248 10.7952 16.4171 10.8366C16.2094 10.8779 15.9941 10.8567 15.7985 10.7756C15.6029 10.6945 15.4356 10.5572 15.318 10.381C15.2004 10.2048 15.1376 9.99763 15.1376 9.78572C15.1376 9.50156 15.2504 9.22903 15.4512 9.0281C15.6519 8.82717 15.9243 8.71429 16.2082 8.71429V8.71429ZM9.78439 14.0714C9.57264 14.0714 9.36564 14.0086 9.18958 13.8909C9.01351 13.7731 8.87629 13.6058 8.79525 13.41C8.71422 13.2142 8.69302 12.9988 8.73433 12.791C8.77564 12.5831 8.87761 12.3922 9.02734 12.2424C9.17707 12.0926 9.36784 11.9905 9.57552 11.9492C9.78321 11.9078 9.99847 11.929 10.1941 12.0101C10.3897 12.0912 10.557 12.2286 10.6746 12.4048C10.7922 12.5809 10.855 12.7881 10.855 13C10.855 13.2842 10.7422 13.5567 10.5414 13.7576C10.3407 13.9586 10.0683 14.0714 9.78439 14.0714ZM16.2082 17.2857C15.9965 17.2857 15.7895 17.2229 15.6134 17.1052C15.4373 16.9874 15.3001 16.8201 15.2191 16.6243C15.138 16.4285 15.1168 16.2131 15.1581 16.0053C15.1995 15.7974 15.3014 15.6065 15.4512 15.4567C15.6009 15.3068 15.7917 15.2048 15.9993 15.1635C16.207 15.1221 16.4223 15.1433 16.6179 15.2244C16.8136 15.3055 16.9808 15.4428 17.0984 15.619C17.2161 15.7952 17.2788 16.0024 17.2788 16.2143C17.2788 16.4985 17.166 16.771 16.9653 16.9719C16.7645 17.1728 16.4922 17.2857 16.2082 17.2857V17.2857Z" fill="white"/>
<defs>
<filter id="filter0_b_298_494" x="-30" y="-30" width="86" height="86" filterUnits="userSpaceOnUse" color-interpolation-filters="sRGB">
<feFlood flood-opacity="0" result="BackgroundImageFix"/>
<feGaussianBlur in="BackgroundImage" stdDeviation="15"/>
<feComposite in2="SourceAlpha" operator="in" result="effect1_backgroundBlur_298_494"/>
<feBlend mode="normal" in="SourceGraphic" in2="effect1_backgroundBlur_298_494" result="shape"/>
</filter>
</defs>
</svg>
