<svg width="26" height="29" viewBox="0 0 26 29" fill="none" xmlns="http://www.w3.org/2000/svg">
<path d="M19.0612 10.6827C18.9829 10.5662 18.894 10.4575 18.7935 10.3569C18.6923 10.2558 18.5829 10.1664 18.4656 10.0877C18.5829 10.009 18.6923 9.91965 18.7935 9.81851C18.8943 9.71765 18.9835 9.6085 19.062 9.49158C19.1406 9.60857 19.2299 9.71776 19.3309 9.81866C19.4316 9.91928 19.5405 10.0083 19.6572 10.0866C19.54 10.1653 19.4306 10.2548 19.3295 10.356C19.2287 10.4568 19.1397 10.5658 19.0612 10.6827ZM20.8642 15.592C20.8417 15.612 20.8196 15.6326 20.7981 15.6541C20.7761 15.6759 20.7549 15.6982 20.7345 15.7209C20.7136 15.6978 20.692 15.6751 20.6695 15.6529C20.6498 15.6335 20.6298 15.6147 20.6094 15.5965C20.6329 15.5754 20.656 15.5535 20.6786 15.5308C20.6992 15.51 20.7192 15.4888 20.7385 15.4672C20.7575 15.4882 20.7771 15.5089 20.7974 15.5291C20.8192 15.5508 20.8414 15.5718 20.8642 15.592ZM11.7878 18.6301C13.3539 20.3062 15.2862 21.5976 17.4339 22.4034C19.7749 23.288 22.2947 23.5617 24.7574 23.2099C23.5741 24.5411 22.1428 25.6355 20.539 26.4292C18.5348 27.4211 16.3207 27.9141 14.085 27.8663C11.8493 27.8185 9.65824 27.2313 7.69827 26.1547C5.73831 25.0781 4.06745 23.5439 2.82788 21.6827C1.58832 19.8214 0.816741 17.6883 0.578806 15.4648C0.340871 13.2413 0.643624 10.9932 1.4613 8.91189C2.27898 6.83055 3.58738 4.97754 5.27515 3.51057C6.62632 2.33617 8.18861 1.43701 9.87394 0.858381C8.94072 2.42618 8.3017 4.15577 7.99286 5.96193C7.60621 8.22315 7.74756 10.5431 8.40586 12.7407C9.06417 14.9383 10.2216 16.9539 11.7878 18.6301Z" stroke="white"/>
</svg>
