<svg width="26" height="26" viewBox="0 0 26 26" fill="none" xmlns="http://www.w3.org/2000/svg">
<path d="M18.6519 19.087L18.6527 19.086C19.0366 18.5891 18.9464 17.8802 18.454 17.4953C17.9586 17.1081 17.2453 17.2009 16.8612 17.6923L16.8585 17.6958C16.7641 17.8189 16.662 17.9386 16.5564 18.0563L16.5558 18.0569C15.5348 19.1986 14.2848 19.7927 13 19.7927C11.7152 19.7927 10.4652 19.1986 9.44416 18.0569L9.44359 18.0563C9.33801 17.9386 9.23594 17.8189 9.14153 17.6958L9.14155 17.6958L9.13882 17.6923C8.75395 17.1999 8.04502 17.1097 7.54817 17.4936L7.54599 17.4953C7.05359 17.8802 6.96336 18.5891 7.34728 19.086L7.3481 19.087C8.81993 20.9813 10.8254 22.061 13 22.061C15.1746 22.061 17.1801 20.9813 18.6519 19.087ZM0.5 13C0.5 6.10712 6.10712 0.5 13 0.5C19.8929 0.5 25.5 6.10712 25.5 13C25.5 19.8929 19.8929 25.5 13 25.5C6.10712 25.5 0.5 19.8929 0.5 13ZM7.60976 8.69512C5.93532 8.69512 4.57317 10.0573 4.57317 11.7317C4.57317 13.4061 5.93532 14.7683 7.60976 14.7683C9.28419 14.7683 10.6463 13.4061 10.6463 11.7317C10.6463 10.0573 9.28419 8.69512 7.60976 8.69512ZM15.3537 11.7317C15.3537 13.4061 16.7158 14.7683 18.3902 14.7683C20.0647 14.7683 21.4268 13.4061 21.4268 11.7317C21.4268 10.0573 20.0647 8.69512 18.3902 8.69512C16.7158 8.69512 15.3537 10.0573 15.3537 11.7317ZM8.37805 11.7317C8.37805 12.1563 8.03435 12.5 7.60976 12.5C7.18517 12.5 6.84146 12.1563 6.84146 11.7317C6.84146 11.3071 7.18517 10.9634 7.60976 10.9634C8.03435 10.9634 8.37805 11.3071 8.37805 11.7317ZM19.1585 11.7317C19.1585 12.1563 18.8148 12.5 18.3902 12.5C17.9657 12.5 17.622 12.1563 17.622 11.7317C17.622 11.3071 17.9657 10.9634 18.3902 10.9634C18.8148 10.9634 19.1585 11.3071 19.1585 11.7317Z" stroke="white"/>
</svg>
