<svg width="26" height="24" viewBox="0 0 26 24" fill="none" xmlns="http://www.w3.org/2000/svg">
<path d="M13.3215 13.9878L13.3979 14.981C16.8336 15.0209 19.9272 15.5008 22.1446 16.2563C23.2558 16.6349 24.1188 17.0733 24.694 17.5383C25.2721 18.0055 25.5 18.4474 25.5 18.8413C25.5 19.204 25.2746 19.635 24.6725 20.1031C24.0774 20.5656 23.1852 21.0053 22.038 21.3844C19.749 22.1408 16.5543 22.6208 13 22.6208C9.44565 22.6208 6.25098 22.1408 3.96201 21.3844C2.81485 21.0053 1.92259 20.5656 1.32754 20.1031C0.725389 19.635 0.5 19.204 0.5 18.8413C0.5 18.4843 0.682217 18.0937 1.13685 17.679C1.59296 17.263 2.28438 16.8613 3.1926 16.5C5.00567 15.7786 7.57437 15.2604 10.5306 15.0606L10.5088 14.0619C8.84686 14.0223 7.45359 13.7848 6.4737 13.4174C5.98336 13.2335 5.61909 13.0254 5.37672 12.8123C5.13672 12.6013 5.0389 12.4071 5.01788 12.2389L5.01791 12.2389L5.01715 12.2333C4.98706 12.0127 5.08659 11.6956 5.4909 11.2856C5.88776 10.8832 6.51411 10.4611 7.34514 10.0553C8.99523 9.24971 11.3507 8.55772 14.0025 8.19842H14.0065H14.0111H14.0158H14.0204H14.025H14.0297H14.0343H14.0389H14.0436H14.0482H14.0529H14.0575H14.0622H14.0668H14.0715H14.0761H14.0808H14.0854H14.0901H14.0948H14.0994H14.1041H14.1087H14.1134H14.1181H14.1227H14.1274H14.1321H14.1368H14.1414H14.1461H14.1508H14.1555H14.1602H14.1648H14.1695H14.1742H14.1789H14.1836H14.1883H14.193H14.1977H14.2024H14.2071H14.2118H14.2165H14.2212H14.2259H14.2306H14.2353H14.24H14.2447H14.2494H14.2541H14.2589H14.2636H14.2683H14.273H14.2777H14.2825H14.2872H14.2919V7.69842V7.19842H14.2872H14.2825H14.2777H14.273H14.2683H14.2636H14.2589H14.2541H14.2494H14.2447H14.24H14.2353H14.2306H14.2259H14.2212H14.2165H14.2118H14.2071H14.2024H14.1977H14.193H14.1883H14.1836H14.1789H14.1742H14.1695H14.1648H14.1602H14.1555H14.1508H14.1461H14.1414H14.1368H14.1321H14.1274H14.1227H14.1181H14.1134H14.1087H14.1041H14.0994H14.0948H14.0901H14.0854H14.0808H14.0761H14.0715H14.0668H14.0622H14.0575H14.0529H14.0482H14.0436H14.0389H14.0343H14.0297H14.025H14.0204H14.0158H14.0111H14.0065H14.0019H13.9972H13.9926H13.988H13.9833H13.9787H13.9741H13.9695H13.9689H13.9649H13.9602H13.9556H13.951H13.9464H13.9418H13.9372H13.9355H13.9326H13.9279H13.9233H13.9187H13.9141H13.9095H13.9049H13.9003H13.8957H13.8911H13.8865H13.8819H13.8773H13.8727H13.8681H13.8635H13.859H13.8544H13.8498H13.8452H13.8406H13.836H13.8314H13.8268H13.8223H13.8177H13.8131H13.8085H13.8039H13.7994H13.7948H13.7902H13.7856H13.7811H13.7765H13.7719H13.7674H13.7628H13.7582H13.7537H13.7491H13.7445H13.74H13.7354H13.7309H13.7263H13.7217H13.7172H13.7126H13.7081H13.7035H13.699H13.6944H13.6898H13.6853H13.6807H13.6762H13.6716H13.6671H13.6625H13.658H13.6535H13.6489H13.6444H13.6398H13.6353H13.6307H13.6262H13.6217H13.6171H13.6126H13.6081H13.6035H13.599H13.5944H13.5899H13.5854H13.5808H13.5763H13.5718H13.5673H13.5627H13.5582H13.5537H13.5491H13.5446H13.5401H13.5356H13.531H13.5265H13.522H13.5175H13.5129H13.5084H13.5039H13.4994H13.4949H13.4903H13.4858H13.4813H13.4768H13.4723H13.4678H13.4632H13.4587H13.4542H13.4497H13.4452H13.4407H13.4362H13.4316H13.4271H13.4226H13.4181H13.4136H13.4091H13.4046H13.4001H13.3956H13.3911H13.3865H13.382H13.3775H13.373H13.3685H13.364H13.3595H13.355H13.3505H13.346H13.3415H13.337H13.3325H13.328H13.3235H13.319H13.3145H13.31H13.3055H13.301H13.2965H13.292H13.2875H13.283H13.2785H13.274H13.2695H13.265H13.2605H13.256H13.2515H13.247H13.2425H13.238H13.2335H13.229H13.2245H13.22H13.2155H13.211H13.2065H13.202H13.1975H13.193H13.1885H13.184H13.1796H13.1751H13.1706H13.1661H13.1616H13.1571H13.1526H13.1481H13.1436H13.1391H13.1346H13.1301H13.1256H13.1211H13.1166H13.1121H13.1076H13.1031H13.0986H13.0941H13.0897H13.0852H13.0807H13.0762H13.0717H13.0672H13.0627H13.0582H13.0537H13.0492H13.0447H13.0402H13.0357H13.0312H13.0267H13.0222H13.0177H13.0132H13.0087H13.0042H12.9997H12.9952H12.9907H12.9862H12.9817H12.9773H12.9728H12.9683H12.9638H12.9593H12.9548H12.9503H12.9458H12.9413H12.9368H12.9323H12.9278H12.9233H12.9188H12.9142H12.9097H12.9052H12.9007H12.8962H12.8917H12.8872H12.8827H12.8782H12.8737H12.8692H12.8647H12.8602H12.8557H12.8512H12.8467H12.8422H12.8377H12.8331H12.8286H12.8241H12.8196H12.8151H12.8106H12.8061H12.8016H12.7971H12.7925H12.788H12.7835H12.779H12.7745H12.77H12.7654H12.7609H12.7564H12.7519H12.7474H12.7429H12.7383H12.7338H12.7293H12.7248H12.7202H12.7157H12.7112H12.7067H12.7022H12.6976H12.6931H12.6886H12.684H12.6795H12.675H12.6705H12.6659H12.6614H12.6569H12.6523H12.6478H12.6433H12.6387H12.6342H12.6296H12.6251H12.6206H12.616H12.6115H12.6069H12.6024H12.5979H12.5933H12.5888H12.5842H12.5797H12.5751H12.5706H12.566H12.5615H12.5569H12.5524H12.5478H12.5433H12.5387H12.5342H12.5296H12.5251H12.5205H12.5159H12.5114H12.5068H12.5023H12.4977H12.4931H12.4886H12.484H12.4794H12.4749H12.4703H12.4657H12.4612H12.4566H12.452H12.4474H12.4429H12.4383H12.4337H12.4291H12.4246H12.42H12.4154H12.4108H12.4062H12.4016H12.3971H12.3925H12.3879H12.3833H12.3787H12.3741H12.3695H12.3649H12.3603H12.3557H12.3511H12.3465H12.3419H12.3373H12.3327H12.3281H12.3235H12.3189H12.3143H12.3097H12.3051H12.3005H12.2958H12.2912H12.2866H12.282H12.2774H12.2728H12.2681H12.2635H12.2589H12.2543H12.2496H12.245H12.2404H12.2357H12.2311H12.2265H12.2218H12.2172H12.2126H12.2079H12.2033H12.1986H12.194H12.1894H12.1847H12.1801H12.1754H12.1708H12.1661H12.1615H12.1568H12.1521H12.1475H12.1428H12.1382H12.1335H12.1288H12.1242H12.1195H12.1148H12.1101H12.1055H12.1008H12.0961H12.0914H12.0868H12.0821H12.0774H12.0727H12.068H12.0633H12.0587H12.054H12.0493H12.0446H12.0399H12.0352H12.0305H12.0258H12.0211H12.0164H12.0117H12.007H12.0022H11.9975H11.9928H11.9881H11.9834H11.9787H11.9739H11.9712C10.0797 7.03896 8.40608 6.64518 7.22964 6.14783C6.63682 5.89721 6.1965 5.63122 5.91756 5.3763C5.63274 5.11602 5.57933 4.92924 5.58598 4.82278C5.59233 4.7213 5.66459 4.54946 5.97814 4.33831C6.28591 4.13105 6.75637 3.93714 7.37737 3.7831C8.6138 3.47638 10.3334 3.35527 12.2318 3.51347L12.2525 3.5152H12.2733H12.5963L12.6753 2.52147C11.6982 2.36514 10.8859 2.11476 10.3429 1.83418C10.0697 1.69303 9.89072 1.55753 9.79004 1.44467C9.74125 1.38999 9.71877 1.34944 9.70906 1.32511C9.70067 1.3041 9.70171 1.29561 9.7019 1.29414L9.70191 1.29401L9.70194 1.29402L9.70226 1.29077C9.70352 1.28684 9.7238 1.21679 9.89544 1.10352C10.0808 0.981235 10.3735 0.85746 10.7736 0.753905C11.5669 0.548578 12.6797 0.448785 13.9293 0.526118C15.144 0.644366 16.2178 0.897865 16.9628 1.21449C17.3388 1.37427 17.6022 1.53813 17.7593 1.68604C17.9179 1.83543 17.9128 1.91184 17.912 1.92024L17.9099 1.94283V1.95487C17.903 1.97022 17.8715 2.02215 17.7509 2.10341C17.5731 2.22313 17.283 2.34655 16.8817 2.4504C16.0859 2.65636 14.9699 2.75585 13.7589 2.67772L13.6631 3.67263C15.2014 3.86984 16.5172 4.24209 17.423 4.68554C17.8776 4.90808 18.204 5.13655 18.4055 5.34896C18.6025 5.55653 18.6425 5.70582 18.6383 5.79856C18.62 5.94308 18.4714 6.19116 17.958 6.45706C17.4614 6.71419 16.7358 6.92457 15.8422 7.04113L15.9331 8.03624C18.202 7.91682 20.1868 8.07809 21.6163 8.44514C22.333 8.62913 22.8839 8.85828 23.2583 9.11004C23.631 9.36065 23.7766 9.59606 23.8094 9.78851C23.839 10.0361 23.7297 10.3631 23.3337 10.7679C22.9382 11.1722 22.3136 11.5912 21.4831 11.9919C19.827 12.7907 17.4586 13.4656 14.7906 13.824L14.7827 13.825L14.7749 13.8263C14.5563 13.8628 14.3344 13.8815 14.0889 13.902L14.0802 13.9027C13.8436 13.9225 13.5841 13.9441 13.3215 13.9878ZM17.9117 1.95011C17.9117 1.95011 17.9116 1.95076 17.9111 1.95204L17.9117 1.95011Z" stroke="white"/>
</svg>
