<svg width="34" height="34" viewBox="0 0 34 34" fill="none" xmlns="http://www.w3.org/2000/svg">
<g filter="url(#filter0_b_298_336)">
<circle cx="17" cy="17" r="17" fill="white" fill-opacity="0.3"/>
</g>
<path d="M14.3883 11.5001C14.7758 11.5123 15.1495 11.5782 15.5117 11.6978L15.5245 11.7096L15.6322 11.7434C15.7714 11.7871 15.8848 11.8308 15.9862 11.8853L16.004 11.8949L16.0226 11.9031L16.2689 12.0107C16.2895 12.0226 16.3202 12.0429 16.3649 12.0743C16.3724 12.0796 16.3831 12.0871 16.3945 12.0952C16.411 12.107 16.4292 12.1199 16.4417 12.1286C16.4662 12.1457 16.4997 12.1688 16.5339 12.1891L16.5339 12.1892L16.5402 12.1928C16.557 12.2025 16.5721 12.2112 16.5856 12.2189C16.6437 12.2523 16.6743 12.2697 16.7001 12.2891L16.9995 12.5134L17.2992 12.2896C17.9907 11.7731 18.829 11.4941 19.6915 11.5001V11.5001H19.6949C20.0911 11.5001 20.4787 11.5549 20.8411 11.6737L20.8411 11.6738L20.8455 11.6752C23.0933 12.3895 23.9731 14.8205 23.2602 17.0524C22.8448 18.2146 22.1673 19.2755 21.2809 20.1427C19.9803 21.3735 18.5552 22.4689 17.0226 23.4163C15.4806 22.4742 14.0438 21.3766 12.7276 20.1361C11.8464 19.2679 11.168 18.2127 10.7459 17.0501C10.0221 14.8224 10.8982 12.3894 13.177 11.6605L13.177 11.6606L13.1844 11.6581C13.3462 11.6035 13.5128 11.5644 13.68 11.5413H13.731H13.7664L13.8016 11.5363C13.9738 11.5117 14.1455 11.5001 14.319 11.5001H14.3883Z" stroke="white"/>
<defs>
<filter id="filter0_b_298_336" x="-30" y="-30" width="94" height="94" filterUnits="userSpaceOnUse" color-interpolation-filters="sRGB">
<feFlood flood-opacity="0" result="BackgroundImageFix"/>
<feGaussianBlur in="BackgroundImageFix" stdDeviation="15"/>
<feComposite in2="SourceAlpha" operator="in" result="effect1_backgroundBlur_298_336"/>
<feBlend mode="normal" in="SourceGraphic" in2="effect1_backgroundBlur_298_336" result="shape"/>
</filter>
</defs>
</svg>
