<svg width="14" height="13" viewBox="0 0 14 13" fill="none" xmlns="http://www.w3.org/2000/svg">
<path d="M5.67765 0.226001C5.26396 0.0884768 4.83696 0.0132149 4.39597 0.000105821H4.31897C4.12297 0.000105821 3.92767 0.0132149 3.73097 0.041267H3.64697C3.43698 0.0679508 3.22768 0.115845 3.02468 0.184265C0.413007 1.01967 -0.517983 3.79068 0.273009 6.21274C0.721004 7.45046 1.4427 8.57323 2.38069 9.49622C3.74497 10.7825 5.23666 11.9183 6.83894 12.8898L7.02094 13L7.19594 12.8967C8.79262 11.9183 10.2759 10.7825 11.6276 9.50306C12.5719 8.58007 13.2929 7.45046 13.7339 6.21274C14.5116 3.79068 13.5806 1.01967 10.9969 0.198633C10.5776 0.0611088 10.1366 0.000105821 9.69491 0.000105821C8.72192 -0.00662692 7.77763 0.308105 6.99994 0.88899C6.93694 0.84178 6.85994 0.800044 6.78994 0.759676C6.71994 0.71794 6.59394 0.615994 6.48894 0.561258L6.22295 0.444945C6.08295 0.369683 5.93665 0.314947 5.78195 0.266369C5.76795 0.253369 5.74695 0.239001 5.71895 0.226001H5.67765Z" fill="#FF0000"/>
</svg>
