<svg width="14" height="13" viewBox="0 0 14 13" fill="none" xmlns="http://www.w3.org/2000/svg">
<path d="M4.38832 0.500106C4.7758 0.512296 5.14952 0.578216 5.51171 0.69775L5.52445 0.709581L5.63215 0.743402C5.77138 0.787122 5.8848 0.830831 5.98619 0.88534L6.00405 0.894939L6.02262 0.903061L6.26888 1.01074C6.28945 1.02264 6.32025 1.04289 6.36489 1.0743C6.3724 1.07958 6.38305 1.08713 6.39447 1.09522C6.41104 1.10697 6.42921 1.11985 6.44172 1.12859C6.46617 1.14568 6.49975 1.16878 6.53388 1.18913L6.53385 1.18918L6.54016 1.19281C6.55701 1.20253 6.57208 1.21117 6.58564 1.21894C6.64374 1.25225 6.67426 1.26975 6.7001 1.28911L6.99945 1.51344L7.29915 1.28958C7.99067 0.773056 8.82896 0.494126 9.69145 0.500094V0.500106H9.69491C10.0911 0.500106 10.4787 0.55487 10.8411 0.673731L10.8411 0.673751L10.8455 0.675151C13.0933 1.38946 13.9731 3.8205 13.2602 6.05243C12.8448 7.2146 12.1673 8.27551 11.2809 9.14272C9.98025 10.3735 8.55525 11.4689 7.02257 12.4163C5.48064 11.4742 4.04381 10.3766 2.72761 9.13612C1.84636 8.26786 1.16795 7.21267 0.745877 6.05007C0.0220968 3.82242 0.898176 1.38944 3.17701 0.660494L3.17703 0.660551L3.18438 0.658076C3.34621 0.60353 3.51284 0.564422 3.67997 0.541267H3.73097H3.76645L3.80157 0.536259C3.9738 0.511696 4.14547 0.500106 4.31897 0.500106H4.38832Z" stroke="white"/>
</svg>
