<svg width="14" height="14" viewBox="0 0 14 14" fill="none" xmlns="http://www.w3.org/2000/svg">
<path d="M7 3.15C6.80671 3.15 6.65 3.30671 6.65 3.5V6.91182L5.6417 8.79375C5.64161 8.79392 5.64153 8.79405 5.64144 8.79422C5.55027 8.96443 5.61436 9.17631 5.78457 9.26748C5.83533 9.29508 5.89224 9.30939 5.95 9.30918C6.07894 9.30922 6.19742 9.23826 6.2583 9.12461L7.3083 7.16543C7.33556 7.11454 7.34991 7.05772 7.35 7V3.5C7.35 3.30671 7.19329 3.15 7 3.15ZM7 0C3.13402 0 0 3.13402 0 7C0 10.866 3.13402 14 7 14C10.8641 13.9955 13.9955 10.8641 14 7C14 3.13402 10.866 0 7 0ZM7 13.3C3.52059 13.3 0.7 10.4794 0.7 7C0.7 3.52059 3.52059 0.7 7 0.7C10.4778 0.703802 13.2962 3.52217 13.3 7C13.3 10.4794 10.4794 13.3 7 13.3Z" fill="white"/>
</svg>
