<svg width="26" height="23" viewBox="0 0 26 23" fill="none" xmlns="http://www.w3.org/2000/svg">
<mask id="path-1-inside-1_33_4569" fill="white">
<path d="M24.9857 13.9784L20.6486 13.1207C20.2902 9.99105 19.4195 7.8417 18.0554 6.72425C17.3056 6.10983 16.5942 5.96307 16.1732 5.93775C16.1356 5.93366 16.0973 5.93161 16.0586 5.93098C15.347 6.83923 14.241 7.42455 13.0003 7.42455C11.7595 7.42455 10.6535 6.83923 9.94173 5.93098C9.90335 5.93161 9.86544 5.93366 9.82816 5.93775C9.40722 5.96292 8.6956 6.10952 7.94512 6.72425C6.58118 7.8417 5.71037 9.9912 5.35188 13.1207L1.0145 13.9784C0.332761 14.1131 -0.110667 14.7752 0.024139 15.4569C0.142743 16.0564 0.668596 16.4715 1.25721 16.4715C1.33822 16.4715 1.42033 16.4635 1.50276 16.4473L6.75908 15.4078C7.31294 15.2983 7.726 14.8335 7.76958 14.2705C7.94025 12.0661 8.32988 10.6552 8.74578 9.77476V17.2144L12.9999 18.1788L17.2543 17.2142V9.79458C17.6508 10.6327 18.0556 12.0134 18.2303 14.2704C18.2739 14.8334 18.687 15.2982 19.2408 15.4077L24.4971 16.4471C24.5796 16.4635 24.6617 16.4713 24.7427 16.4713C25.3313 16.4712 25.8573 16.0561 25.9758 15.4567C26.1109 14.7752 25.6675 14.1131 24.9857 13.9784Z"/>
</mask>
<path d="M24.9857 13.9784L24.7917 14.9594L24.792 14.9595L24.9857 13.9784ZM20.6486 13.1207L19.6551 13.2345L19.7382 13.96L20.4546 14.1017L20.6486 13.1207ZM18.0554 6.72425L17.4216 7.49775L17.4217 7.49782L18.0554 6.72425ZM16.1732 5.93775L16.065 6.93188L16.089 6.93449L16.1131 6.93594L16.1732 5.93775ZM16.0586 5.93098L16.0749 4.93112L15.578 4.92304L15.2715 5.31424L16.0586 5.93098ZM9.94173 5.93098L10.7288 5.31415L10.4223 4.92297L9.92534 4.93112L9.94173 5.93098ZM9.82816 5.93775L9.88784 6.93597L9.91258 6.93449L9.93721 6.93178L9.82816 5.93775ZM7.94512 6.72425L7.31145 5.95064L7.31138 5.95071L7.94512 6.72425ZM5.35188 13.1207L5.54588 14.1017L6.26227 13.96L6.34538 13.2345L5.35188 13.1207ZM1.0145 13.9784L1.20826 14.9595L1.2085 14.9594L1.0145 13.9784ZM0.024139 15.4569L-0.956866 15.6509L-0.956845 15.651L0.024139 15.4569ZM1.50276 16.4473L1.69563 17.4285L1.69675 17.4283L1.50276 16.4473ZM6.75908 15.4078L6.56516 14.4268L6.56509 14.4268L6.75908 15.4078ZM7.76958 14.2705L6.77256 14.1934L6.77256 14.1934L7.76958 14.2705ZM8.74578 9.77476H9.74578L7.84159 9.34763L8.74578 9.77476ZM8.74578 17.2144H7.74578V18.0131L8.52469 18.1897L8.74578 17.2144ZM12.9999 18.1788L12.7789 19.1541L13 19.2042L13.2211 19.1541L12.9999 18.1788ZM17.2543 17.2142L17.4754 18.1895L18.2543 18.0129V17.2142H17.2543ZM17.2543 9.79458L18.1582 9.36688L16.2543 9.79458H17.2543ZM18.2303 14.2704L19.2273 14.1932L19.2273 14.1932L18.2303 14.2704ZM19.2408 15.4077L19.4348 14.4267L19.4347 14.4266L19.2408 15.4077ZM24.4971 16.4471L24.6918 15.4662L24.6911 15.4661L24.4971 16.4471ZM24.7427 16.4713L24.7427 17.4713L24.743 17.4713L24.7427 16.4713ZM25.9758 15.4567L24.9948 15.2623L24.9947 15.2629L25.9758 15.4567ZM25.1797 12.9974L20.8427 12.1397L20.4546 14.1017L24.7917 14.9594L25.1797 12.9974ZM21.6422 13.0069C21.2754 9.80468 20.3633 7.32213 18.6891 5.95067L17.4217 7.49782C18.4757 8.36128 19.305 10.1774 19.6551 13.2345L21.6422 13.0069ZM18.6892 5.95075C17.7476 5.17924 16.8238 4.97507 16.2332 4.93955L16.1131 6.93594C16.3647 6.95108 16.8635 7.04043 17.4216 7.49775L18.6892 5.95075ZM16.2813 4.94361C16.2073 4.93556 16.1377 4.93214 16.0749 4.93112L16.0424 6.93085C16.057 6.93109 16.0639 6.93176 16.065 6.93188L16.2813 4.94361ZM15.2715 5.31424C14.7402 5.99225 13.9191 6.42455 13.0003 6.42455V8.42455C14.5629 8.42455 15.9538 7.68621 16.8458 6.54773L15.2715 5.31424ZM13.0003 6.42455C12.0814 6.42455 11.2602 5.99226 10.7288 5.31415L9.15463 6.54782C10.0468 7.6862 11.4376 8.42455 13.0003 8.42455V6.42455ZM9.92534 4.93112C9.86265 4.93215 9.79314 4.93559 9.71911 4.94371L9.93721 6.93178C9.93773 6.93173 9.94404 6.93108 9.95812 6.93085L9.92534 4.93112ZM9.76847 4.93953C9.17786 4.97484 8.25366 5.17887 7.31145 5.95064L8.57879 7.49785C9.13754 7.04017 9.63659 6.95099 9.88784 6.93597L9.76847 4.93953ZM7.31138 5.95071C5.63742 7.32215 4.72518 9.80479 4.35838 13.0069L6.34538 13.2345C6.69555 10.1776 7.52493 8.36126 8.57887 7.49779L7.31138 5.95071ZM5.15788 12.1397L0.820497 12.9974L1.2085 14.9594L5.54588 14.1017L5.15788 12.1397ZM0.820733 12.9974C-0.403095 13.2391 -1.19879 14.4275 -0.956866 15.6509L1.00514 15.2629C0.977451 15.1229 1.06862 14.9871 1.20826 14.9595L0.820733 12.9974ZM-0.956845 15.651C-0.743829 16.7276 0.200179 17.4715 1.25721 17.4715V15.4715C1.13701 15.4715 1.02932 15.3851 1.00512 15.2628L-0.956845 15.651ZM1.25721 17.4715C1.40437 17.4715 1.55107 17.4569 1.69563 17.4285L1.30988 15.466C1.2896 15.47 1.27207 15.4715 1.25721 15.4715V17.4715ZM1.69675 17.4283L6.95308 16.3888L6.56509 14.4268L1.30876 15.4663L1.69675 17.4283ZM6.953 16.3888C7.94698 16.1924 8.6884 15.358 8.7666 14.3477L6.77256 14.1934C6.76361 14.309 6.67889 14.4043 6.56516 14.4268L6.953 16.3888ZM8.76659 14.3477C8.93152 12.2176 9.30299 10.9364 9.64997 10.2019L7.84159 9.34763C7.35677 10.3739 6.94898 11.9147 6.77256 14.1934L8.76659 14.3477ZM7.74578 9.77476V17.2144H9.74578V9.77476H7.74578ZM8.52469 18.1897L12.7789 19.1541L13.221 17.2036L8.96687 16.2392L8.52469 18.1897ZM13.2211 19.1541L17.4754 18.1895L17.0332 16.239L12.7788 17.2036L13.2211 19.1541ZM18.2543 17.2142V9.79458H16.2543V17.2142H18.2543ZM16.3504 10.2223C16.6797 10.9184 17.0648 12.1713 17.2333 14.3476L19.2273 14.1932C19.0463 11.8556 18.6219 10.3469 18.1582 9.36688L16.3504 10.2223ZM17.2333 14.3476C17.3115 15.3579 18.0529 16.1922 19.0469 16.3887L19.4347 14.4266C19.321 14.4042 19.2363 14.3088 19.2273 14.1932L17.2333 14.3476ZM19.0468 16.3887L24.3031 17.4281L24.6911 15.4661L19.4348 14.4267L19.0468 16.3887ZM24.3025 17.428C24.4494 17.4571 24.5968 17.4713 24.7427 17.4713V15.4713C24.7266 15.4713 24.7097 15.4698 24.6918 15.4662L24.3025 17.428ZM24.743 17.4713C25.7995 17.471 26.7439 16.7276 26.9568 15.6506L24.9947 15.2629C24.9707 15.3845 24.8631 15.4713 24.7424 15.4713L24.743 17.4713ZM26.9567 15.6512C27.1993 14.4275 26.4032 13.2391 25.1795 12.9974L24.792 14.9595C24.9317 14.9871 25.0225 15.1228 24.9948 15.2623L26.9567 15.6512Z" fill="white" mask="url(#path-1-inside-1_33_4569)"/>
<path d="M10.1634 18.4031C9.20284 18.9037 8.60712 19.9316 8.66604 21.0269L5.47096 20.3025L5.47095 20.3025C4.69263 20.1261 4.20505 19.3521 4.38137 18.5741L10.1634 18.4031ZM10.1634 18.4031L6.10983 17.4842C5.33156 17.3077 4.5579 17.7957 4.38138 18.5741L10.1634 18.4031Z" stroke="white"/>
<mask id="path-4-inside-2_33_4569" fill="white">
<path d="M14.1172 22.7753C14.8164 22.9338 15.5115 22.6925 15.968 22.2041L13.783 22.6995L14.1172 22.7753Z"/>
</mask>
<path d="M14.1172 22.7753L13.896 23.7505L13.8961 23.7505L14.1172 22.7753ZM15.968 22.2041L16.6986 22.8869L18.9207 20.5094L15.7469 21.2289L15.968 22.2041ZM13.783 22.6995L13.5619 21.7242L13.5618 23.6747L13.783 22.6995ZM13.8961 23.7505C14.958 23.9913 16.0108 23.6228 16.6986 22.8869L15.2374 21.5213C15.0122 21.7623 14.6748 21.8763 14.3384 21.8L13.8961 23.7505ZM15.7469 21.2289L13.5619 21.7242L14.004 23.6747L16.1891 23.1794L15.7469 21.2289ZM13.5618 23.6747L13.896 23.7505L14.3384 21.8L14.0042 21.7242L13.5618 23.6747Z" fill="white" mask="url(#path-4-inside-2_33_4569)"/>
<path d="M11.1337 19.4695L11.1337 19.4695C10.3554 19.6459 9.86777 20.4197 10.0443 21.1982L10.0443 21.1982C10.2206 21.9761 10.9943 22.4642 11.7727 22.2878C11.7727 22.2878 11.7727 22.2878 11.7727 22.2878L20.5296 20.3025L20.5296 20.3025C21.3079 20.1261 21.7955 19.3521 21.6192 18.5741L11.1337 19.4695ZM11.1337 19.4695L19.8907 17.4842C20.669 17.3077 21.4427 17.7957 21.6192 18.5741L11.1337 19.4695Z" stroke="white"/>
<path d="M16.0395 3.53924C16.0395 5.21777 14.6788 6.57849 13.0003 6.57849C11.3218 6.57849 9.96106 5.21777 9.96106 3.53924C9.96106 1.86072 11.3218 0.5 13.0003 0.5C14.6788 0.5 16.0395 1.86072 16.0395 3.53924Z" stroke="white"/>
</svg>
